<?xml version="1.0" encoding="utf-8"?>
<svg xmlns="http://www.w3.org/2000/svg" xmlns:xlink="http://www.w3.org/1999/xlink" width="600" height="400" viewBox="0 0 2400 1600">
<defs>
  <clipPath id="clip720">
    <rect x="0" y="0" width="2400" height="1600"/>
  </clipPath>
</defs>
<path clip-path="url(#clip720)" d="M0 1600 L2400 1600 L2400 0 L0 0  Z" fill="#ffffff" fill-rule="evenodd" fill-opacity="1"/>
<defs>
  <clipPath id="clip721">
    <rect x="480" y="0" width="1681" height="1600"/>
  </clipPath>
</defs>
<path clip-path="url(#clip720)" d="M219.866 1423.18 L2352.76 1423.18 L2352.76 47.2441 L219.866 47.2441  Z" fill="#ffffff" fill-rule="evenodd" fill-opacity="1"/>
<defs>
  <clipPath id="clip722">
    <rect x="219" y="47" width="2134" height="1377"/>
  </clipPath>
</defs>
<polyline clip-path="url(#clip722)" style="stroke:#000000; stroke-linecap:round; stroke-linejoin:round; stroke-width:2; stroke-opacity:0.1; fill:none" points="219.866,1423.18 219.866,47.2441 "/>
<polyline clip-path="url(#clip722)" style="stroke:#000000; stroke-linecap:round; stroke-linejoin:round; stroke-width:2; stroke-opacity:0.1; fill:none" points="646.444,1423.18 646.444,47.2441 "/>
<polyline clip-path="url(#clip722)" style="stroke:#000000; stroke-linecap:round; stroke-linejoin:round; stroke-width:2; stroke-opacity:0.1; fill:none" points="1073.02,1423.18 1073.02,47.2441 "/>
<polyline clip-path="url(#clip722)" style="stroke:#000000; stroke-linecap:round; stroke-linejoin:round; stroke-width:2; stroke-opacity:0.1; fill:none" points="1499.6,1423.18 1499.6,47.2441 "/>
<polyline clip-path="url(#clip722)" style="stroke:#000000; stroke-linecap:round; stroke-linejoin:round; stroke-width:2; stroke-opacity:0.1; fill:none" points="1926.18,1423.18 1926.18,47.2441 "/>
<polyline clip-path="url(#clip722)" style="stroke:#000000; stroke-linecap:round; stroke-linejoin:round; stroke-width:2; stroke-opacity:0.1; fill:none" points="2352.76,1423.18 2352.76,47.2441 "/>
<polyline clip-path="url(#clip720)" style="stroke:#000000; stroke-linecap:round; stroke-linejoin:round; stroke-width:4; stroke-opacity:1; fill:none" points="219.866,1423.18 2352.76,1423.18 "/>
<polyline clip-path="url(#clip720)" style="stroke:#000000; stroke-linecap:round; stroke-linejoin:round; stroke-width:4; stroke-opacity:1; fill:none" points="219.866,1423.18 219.866,1404.28 "/>
<polyline clip-path="url(#clip720)" style="stroke:#000000; stroke-linecap:round; stroke-linejoin:round; stroke-width:4; stroke-opacity:1; fill:none" points="646.444,1423.18 646.444,1404.28 "/>
<polyline clip-path="url(#clip720)" style="stroke:#000000; stroke-linecap:round; stroke-linejoin:round; stroke-width:4; stroke-opacity:1; fill:none" points="1073.02,1423.18 1073.02,1404.28 "/>
<polyline clip-path="url(#clip720)" style="stroke:#000000; stroke-linecap:round; stroke-linejoin:round; stroke-width:4; stroke-opacity:1; fill:none" points="1499.6,1423.18 1499.6,1404.28 "/>
<polyline clip-path="url(#clip720)" style="stroke:#000000; stroke-linecap:round; stroke-linejoin:round; stroke-width:4; stroke-opacity:1; fill:none" points="1926.18,1423.18 1926.18,1404.28 "/>
<polyline clip-path="url(#clip720)" style="stroke:#000000; stroke-linecap:round; stroke-linejoin:round; stroke-width:4; stroke-opacity:1; fill:none" points="2352.76,1423.18 2352.76,1404.28 "/>
<path clip-path="url(#clip720)" d="M219.866 1454.1 Q216.255 1454.1 214.426 1457.66 Q212.621 1461.2 212.621 1468.33 Q212.621 1475.44 214.426 1479.01 Q216.255 1482.55 219.866 1482.55 Q223.501 1482.55 225.306 1479.01 Q227.135 1475.44 227.135 1468.33 Q227.135 1461.2 225.306 1457.66 Q223.501 1454.1 219.866 1454.1 M219.866 1450.39 Q225.676 1450.39 228.732 1455 Q231.811 1459.58 231.811 1468.33 Q231.811 1477.06 228.732 1481.67 Q225.676 1486.25 219.866 1486.25 Q214.056 1486.25 210.977 1481.67 Q207.922 1477.06 207.922 1468.33 Q207.922 1459.58 210.977 1455 Q214.056 1450.39 219.866 1450.39 Z" fill="#000000" fill-rule="nonzero" fill-opacity="1" /><path clip-path="url(#clip720)" d="M636.826 1481.64 L644.465 1481.64 L644.465 1455.28 L636.155 1456.95 L636.155 1452.69 L644.419 1451.02 L649.095 1451.02 L649.095 1481.64 L656.733 1481.64 L656.733 1485.58 L636.826 1485.58 L636.826 1481.64 Z" fill="#000000" fill-rule="nonzero" fill-opacity="1" /><path clip-path="url(#clip720)" d="M1067.67 1481.64 L1083.99 1481.64 L1083.99 1485.58 L1062.05 1485.58 L1062.05 1481.64 Q1064.71 1478.89 1069.3 1474.26 Q1073.9 1469.61 1075.08 1468.27 Q1077.33 1465.74 1078.21 1464.01 Q1079.11 1462.25 1079.11 1460.56 Q1079.11 1457.8 1077.17 1456.07 Q1075.24 1454.33 1072.14 1454.33 Q1069.94 1454.33 1067.49 1455.09 Q1065.06 1455.86 1062.28 1457.41 L1062.28 1452.69 Q1065.11 1451.55 1067.56 1450.97 Q1070.01 1450.39 1072.05 1450.39 Q1077.42 1450.39 1080.61 1453.08 Q1083.81 1455.77 1083.81 1460.26 Q1083.81 1462.39 1083 1464.31 Q1082.21 1466.2 1080.11 1468.8 Q1079.53 1469.47 1076.42 1472.69 Q1073.32 1475.88 1067.67 1481.64 Z" fill="#000000" fill-rule="nonzero" fill-opacity="1" /><path clip-path="url(#clip720)" d="M1503.85 1466.95 Q1507.2 1467.66 1509.08 1469.93 Q1510.98 1472.2 1510.98 1475.53 Q1510.98 1480.65 1507.46 1483.45 Q1503.94 1486.25 1497.46 1486.25 Q1495.28 1486.25 1492.97 1485.81 Q1490.68 1485.39 1488.22 1484.54 L1488.22 1480.02 Q1490.17 1481.16 1492.48 1481.74 Q1494.8 1482.32 1497.32 1482.32 Q1501.72 1482.32 1504.01 1480.58 Q1506.32 1478.84 1506.32 1475.53 Q1506.32 1472.48 1504.17 1470.77 Q1502.04 1469.03 1498.22 1469.03 L1494.19 1469.03 L1494.19 1465.19 L1498.41 1465.19 Q1501.86 1465.19 1503.69 1463.82 Q1505.51 1462.43 1505.51 1459.84 Q1505.51 1457.18 1503.62 1455.77 Q1501.74 1454.33 1498.22 1454.33 Q1496.3 1454.33 1494.1 1454.75 Q1491.9 1455.16 1489.26 1456.04 L1489.26 1451.88 Q1491.93 1451.14 1494.24 1450.77 Q1496.58 1450.39 1498.64 1450.39 Q1503.96 1450.39 1507.07 1452.83 Q1510.17 1455.23 1510.17 1459.35 Q1510.17 1462.22 1508.52 1464.21 Q1506.88 1466.18 1503.85 1466.95 Z" fill="#000000" fill-rule="nonzero" fill-opacity="1" /><path clip-path="url(#clip720)" d="M1929.19 1455.09 L1917.38 1473.54 L1929.19 1473.54 L1929.19 1455.09 M1927.96 1451.02 L1933.84 1451.02 L1933.84 1473.54 L1938.77 1473.54 L1938.77 1477.43 L1933.84 1477.43 L1933.84 1485.58 L1929.19 1485.58 L1929.19 1477.43 L1913.59 1477.43 L1913.59 1472.92 L1927.96 1451.02 Z" fill="#000000" fill-rule="nonzero" fill-opacity="1" /><path clip-path="url(#clip720)" d="M2343.03 1451.02 L2361.39 1451.02 L2361.39 1454.96 L2347.32 1454.96 L2347.32 1463.43 Q2348.33 1463.08 2349.35 1462.92 Q2350.37 1462.73 2351.39 1462.73 Q2357.18 1462.73 2360.56 1465.9 Q2363.94 1469.08 2363.94 1474.49 Q2363.94 1480.07 2360.46 1483.17 Q2356.99 1486.25 2350.67 1486.25 Q2348.5 1486.25 2346.23 1485.88 Q2343.98 1485.51 2341.58 1484.77 L2341.58 1480.07 Q2343.66 1481.2 2345.88 1481.76 Q2348.1 1482.32 2350.58 1482.32 Q2354.58 1482.32 2356.92 1480.21 Q2359.26 1478.1 2359.26 1474.49 Q2359.26 1470.88 2356.92 1468.77 Q2354.58 1466.67 2350.58 1466.67 Q2348.71 1466.67 2346.83 1467.08 Q2344.98 1467.5 2343.03 1468.38 L2343.03 1451.02 Z" fill="#000000" fill-rule="nonzero" fill-opacity="1" /><path clip-path="url(#clip720)" d="M1302.93 1532.4 L1290.04 1549.74 L1303.59 1568.04 L1296.69 1568.04 L1286.31 1554.04 L1275.93 1568.04 L1269.03 1568.04 L1282.87 1549.39 L1270.21 1532.4 L1277.11 1532.4 L1286.57 1545.1 L1296.02 1532.4 L1302.93 1532.4 Z" fill="#000000" fill-rule="nonzero" fill-opacity="1" /><polyline clip-path="url(#clip722)" style="stroke:#000000; stroke-linecap:round; stroke-linejoin:round; stroke-width:2; stroke-opacity:0.1; fill:none" points="219.866,1384.24 2352.76,1384.24 "/>
<polyline clip-path="url(#clip722)" style="stroke:#000000; stroke-linecap:round; stroke-linejoin:round; stroke-width:2; stroke-opacity:0.1; fill:none" points="219.866,1110.99 2352.76,1110.99 "/>
<polyline clip-path="url(#clip722)" style="stroke:#000000; stroke-linecap:round; stroke-linejoin:round; stroke-width:2; stroke-opacity:0.1; fill:none" points="219.866,837.739 2352.76,837.739 "/>
<polyline clip-path="url(#clip722)" style="stroke:#000000; stroke-linecap:round; stroke-linejoin:round; stroke-width:2; stroke-opacity:0.1; fill:none" points="219.866,564.489 2352.76,564.489 "/>
<polyline clip-path="url(#clip722)" style="stroke:#000000; stroke-linecap:round; stroke-linejoin:round; stroke-width:2; stroke-opacity:0.1; fill:none" points="219.866,291.24 2352.76,291.24 "/>
<polyline clip-path="url(#clip720)" style="stroke:#000000; stroke-linecap:round; stroke-linejoin:round; stroke-width:4; stroke-opacity:1; fill:none" points="219.866,1423.18 219.866,47.2441 "/>
<polyline clip-path="url(#clip720)" style="stroke:#000000; stroke-linecap:round; stroke-linejoin:round; stroke-width:4; stroke-opacity:1; fill:none" points="219.866,1384.24 238.764,1384.24 "/>
<polyline clip-path="url(#clip720)" style="stroke:#000000; stroke-linecap:round; stroke-linejoin:round; stroke-width:4; stroke-opacity:1; fill:none" points="219.866,1110.99 238.764,1110.99 "/>
<polyline clip-path="url(#clip720)" style="stroke:#000000; stroke-linecap:round; stroke-linejoin:round; stroke-width:4; stroke-opacity:1; fill:none" points="219.866,837.739 238.764,837.739 "/>
<polyline clip-path="url(#clip720)" style="stroke:#000000; stroke-linecap:round; stroke-linejoin:round; stroke-width:4; stroke-opacity:1; fill:none" points="219.866,564.489 238.764,564.489 "/>
<polyline clip-path="url(#clip720)" style="stroke:#000000; stroke-linecap:round; stroke-linejoin:round; stroke-width:4; stroke-opacity:1; fill:none" points="219.866,291.24 238.764,291.24 "/>
<path clip-path="url(#clip720)" d="M126.691 1370.04 Q123.08 1370.04 121.251 1373.6 Q119.445 1377.14 119.445 1384.27 Q119.445 1391.38 121.251 1394.94 Q123.08 1398.49 126.691 1398.49 Q130.325 1398.49 132.13 1394.94 Q133.959 1391.38 133.959 1384.27 Q133.959 1377.14 132.13 1373.6 Q130.325 1370.04 126.691 1370.04 M126.691 1366.33 Q132.501 1366.33 135.556 1370.94 Q138.635 1375.52 138.635 1384.27 Q138.635 1393 135.556 1397.61 Q132.501 1402.19 126.691 1402.19 Q120.88 1402.19 117.802 1397.61 Q114.746 1393 114.746 1384.27 Q114.746 1375.52 117.802 1370.94 Q120.88 1366.33 126.691 1366.33 Z" fill="#000000" fill-rule="nonzero" fill-opacity="1" /><path clip-path="url(#clip720)" d="M146.853 1395.64 L151.737 1395.64 L151.737 1401.52 L146.853 1401.52 L146.853 1395.64 Z" fill="#000000" fill-rule="nonzero" fill-opacity="1" /><path clip-path="url(#clip720)" d="M171.922 1370.04 Q168.311 1370.04 166.482 1373.6 Q164.677 1377.14 164.677 1384.27 Q164.677 1391.38 166.482 1394.94 Q168.311 1398.49 171.922 1398.49 Q175.556 1398.49 177.362 1394.94 Q179.19 1391.38 179.19 1384.27 Q179.19 1377.14 177.362 1373.6 Q175.556 1370.04 171.922 1370.04 M171.922 1366.33 Q177.732 1366.33 180.788 1370.94 Q183.866 1375.52 183.866 1384.27 Q183.866 1393 180.788 1397.61 Q177.732 1402.19 171.922 1402.19 Q166.112 1402.19 163.033 1397.61 Q159.978 1393 159.978 1384.27 Q159.978 1375.52 163.033 1370.94 Q166.112 1366.33 171.922 1366.33 Z" fill="#000000" fill-rule="nonzero" fill-opacity="1" /><path clip-path="url(#clip720)" d="M128.288 1096.79 Q124.677 1096.79 122.848 1100.35 Q121.043 1103.89 121.043 1111.02 Q121.043 1118.13 122.848 1121.69 Q124.677 1125.24 128.288 1125.24 Q131.922 1125.24 133.728 1121.69 Q135.556 1118.13 135.556 1111.02 Q135.556 1103.89 133.728 1100.35 Q131.922 1096.79 128.288 1096.79 M128.288 1093.08 Q134.098 1093.08 137.154 1097.69 Q140.232 1102.27 140.232 1111.02 Q140.232 1119.75 137.154 1124.36 Q134.098 1128.94 128.288 1128.94 Q122.478 1128.94 119.399 1124.36 Q116.343 1119.75 116.343 1111.02 Q116.343 1102.27 119.399 1097.69 Q122.478 1093.08 128.288 1093.08 Z" fill="#000000" fill-rule="nonzero" fill-opacity="1" /><path clip-path="url(#clip720)" d="M148.45 1122.39 L153.334 1122.39 L153.334 1128.27 L148.45 1128.27 L148.45 1122.39 Z" fill="#000000" fill-rule="nonzero" fill-opacity="1" /><path clip-path="url(#clip720)" d="M167.547 1124.33 L183.866 1124.33 L183.866 1128.27 L161.922 1128.27 L161.922 1124.33 Q164.584 1121.58 169.167 1116.95 Q173.774 1112.3 174.954 1110.95 Q177.2 1108.43 178.079 1106.69 Q178.982 1104.94 178.982 1103.25 Q178.982 1100.49 177.038 1098.75 Q175.116 1097.02 172.014 1097.02 Q169.815 1097.02 167.362 1097.78 Q164.931 1098.55 162.153 1100.1 L162.153 1095.38 Q164.977 1094.24 167.431 1093.66 Q169.885 1093.08 171.922 1093.08 Q177.292 1093.08 180.487 1095.77 Q183.681 1098.45 183.681 1102.94 Q183.681 1105.07 182.871 1107 Q182.084 1108.89 179.977 1111.49 Q179.399 1112.16 176.297 1115.38 Q173.195 1118.57 167.547 1124.33 Z" fill="#000000" fill-rule="nonzero" fill-opacity="1" /><path clip-path="url(#clip720)" d="M126.205 823.538 Q122.593 823.538 120.765 827.102 Q118.959 830.644 118.959 837.774 Q118.959 844.88 120.765 848.445 Q122.593 851.987 126.205 851.987 Q129.839 851.987 131.644 848.445 Q133.473 844.88 133.473 837.774 Q133.473 830.644 131.644 827.102 Q129.839 823.538 126.205 823.538 M126.205 819.834 Q132.015 819.834 135.07 824.44 Q138.149 829.024 138.149 837.774 Q138.149 846.5 135.07 851.107 Q132.015 855.69 126.205 855.69 Q120.394 855.69 117.316 851.107 Q114.26 846.5 114.26 837.774 Q114.26 829.024 117.316 824.44 Q120.394 819.834 126.205 819.834 Z" fill="#000000" fill-rule="nonzero" fill-opacity="1" /><path clip-path="url(#clip720)" d="M146.366 849.139 L151.251 849.139 L151.251 855.019 L146.366 855.019 L146.366 849.139 Z" fill="#000000" fill-rule="nonzero" fill-opacity="1" /><path clip-path="url(#clip720)" d="M174.283 824.533 L162.477 842.982 L174.283 842.982 L174.283 824.533 M173.056 820.459 L178.936 820.459 L178.936 842.982 L183.866 842.982 L183.866 846.871 L178.936 846.871 L178.936 855.019 L174.283 855.019 L174.283 846.871 L158.681 846.871 L158.681 842.357 L173.056 820.459 Z" fill="#000000" fill-rule="nonzero" fill-opacity="1" /><path clip-path="url(#clip720)" d="M126.529 550.288 Q122.918 550.288 121.089 553.853 Q119.283 557.394 119.283 564.524 Q119.283 571.63 121.089 575.195 Q122.918 578.737 126.529 578.737 Q130.163 578.737 131.968 575.195 Q133.797 571.63 133.797 564.524 Q133.797 557.394 131.968 553.853 Q130.163 550.288 126.529 550.288 M126.529 546.584 Q132.339 546.584 135.394 551.191 Q138.473 555.774 138.473 564.524 Q138.473 573.251 135.394 577.857 Q132.339 582.441 126.529 582.441 Q120.718 582.441 117.64 577.857 Q114.584 573.251 114.584 564.524 Q114.584 555.774 117.64 551.191 Q120.718 546.584 126.529 546.584 Z" fill="#000000" fill-rule="nonzero" fill-opacity="1" /><path clip-path="url(#clip720)" d="M146.691 575.89 L151.575 575.89 L151.575 581.769 L146.691 581.769 L146.691 575.89 Z" fill="#000000" fill-rule="nonzero" fill-opacity="1" /><path clip-path="url(#clip720)" d="M172.339 562.626 Q169.19 562.626 167.339 564.779 Q165.51 566.931 165.51 570.681 Q165.51 574.408 167.339 576.584 Q169.19 578.737 172.339 578.737 Q175.487 578.737 177.315 576.584 Q179.167 574.408 179.167 570.681 Q179.167 566.931 177.315 564.779 Q175.487 562.626 172.339 562.626 M181.621 547.973 L181.621 552.232 Q179.862 551.399 178.056 550.959 Q176.274 550.519 174.514 550.519 Q169.885 550.519 167.431 553.644 Q165.001 556.769 164.653 563.089 Q166.019 561.075 168.079 560.01 Q170.139 558.922 172.616 558.922 Q177.825 558.922 180.834 562.093 Q183.866 565.242 183.866 570.681 Q183.866 576.005 180.718 579.223 Q177.57 582.441 172.339 582.441 Q166.343 582.441 163.172 577.857 Q160.001 573.251 160.001 564.524 Q160.001 556.33 163.89 551.468 Q167.778 546.584 174.329 546.584 Q176.089 546.584 177.871 546.931 Q179.676 547.279 181.621 547.973 Z" fill="#000000" fill-rule="nonzero" fill-opacity="1" /><path clip-path="url(#clip720)" d="M126.783 277.038 Q123.172 277.038 121.343 280.603 Q119.538 284.145 119.538 291.274 Q119.538 298.381 121.343 301.946 Q123.172 305.487 126.783 305.487 Q130.417 305.487 132.223 301.946 Q134.052 298.381 134.052 291.274 Q134.052 284.145 132.223 280.603 Q130.417 277.038 126.783 277.038 M126.783 273.335 Q132.593 273.335 135.649 277.941 Q138.728 282.524 138.728 291.274 Q138.728 300.001 135.649 304.608 Q132.593 309.191 126.783 309.191 Q120.973 309.191 117.894 304.608 Q114.839 300.001 114.839 291.274 Q114.839 282.524 117.894 277.941 Q120.973 273.335 126.783 273.335 Z" fill="#000000" fill-rule="nonzero" fill-opacity="1" /><path clip-path="url(#clip720)" d="M146.945 302.64 L151.829 302.64 L151.829 308.52 L146.945 308.52 L146.945 302.64 Z" fill="#000000" fill-rule="nonzero" fill-opacity="1" /><path clip-path="url(#clip720)" d="M172.014 292.108 Q168.681 292.108 166.76 293.89 Q164.862 295.672 164.862 298.797 Q164.862 301.922 166.76 303.705 Q168.681 305.487 172.014 305.487 Q175.348 305.487 177.269 303.705 Q179.19 301.899 179.19 298.797 Q179.19 295.672 177.269 293.89 Q175.371 292.108 172.014 292.108 M167.339 290.117 Q164.329 289.376 162.64 287.316 Q160.973 285.256 160.973 282.293 Q160.973 278.149 163.913 275.742 Q166.876 273.335 172.014 273.335 Q177.176 273.335 180.116 275.742 Q183.056 278.149 183.056 282.293 Q183.056 285.256 181.366 287.316 Q179.7 289.376 176.714 290.117 Q180.093 290.904 181.968 293.196 Q183.866 295.487 183.866 298.797 Q183.866 303.821 180.788 306.506 Q177.732 309.191 172.014 309.191 Q166.297 309.191 163.218 306.506 Q160.163 303.821 160.163 298.797 Q160.163 295.487 162.061 293.196 Q163.959 290.904 167.339 290.117 M165.626 282.733 Q165.626 285.418 167.292 286.922 Q168.982 288.427 172.014 288.427 Q175.024 288.427 176.714 286.922 Q178.426 285.418 178.426 282.733 Q178.426 280.048 176.714 278.543 Q175.024 277.038 172.014 277.038 Q168.982 277.038 167.292 278.543 Q165.626 280.048 165.626 282.733 Z" fill="#000000" fill-rule="nonzero" fill-opacity="1" /><path clip-path="url(#clip720)" d="M20.1444 914.311 L26.9239 914.311 Q23.9002 917.558 22.4043 921.25 Q20.9083 924.91 20.9083 929.048 Q20.9083 937.196 25.9054 941.525 Q30.8707 945.853 40.2919 945.853 Q49.6813 945.853 54.6784 941.525 Q59.6436 937.196 59.6436 929.048 Q59.6436 924.91 58.1477 921.25 Q56.6518 917.558 53.6281 914.311 L60.3439 914.311 Q62.6355 917.685 63.7814 921.473 Q64.9272 925.228 64.9272 929.43 Q64.9272 940.22 58.3387 946.426 Q51.7183 952.633 40.2919 952.633 Q28.8336 952.633 22.2451 946.426 Q15.6248 940.22 15.6248 929.43 Q15.6248 925.165 16.7706 921.409 Q17.8846 917.621 20.1444 914.311 Z" fill="#000000" fill-rule="nonzero" fill-opacity="1" /><path clip-path="url(#clip720)" d="M21.7677 897.951 L58.7206 897.951 L58.7206 890.185 Q58.7206 880.35 54.2646 875.799 Q49.8086 871.215 40.1964 871.215 Q30.6479 871.215 26.2237 875.799 Q21.7677 880.35 21.7677 890.185 L21.7677 897.951 M16.4842 904.381 L16.4842 891.172 Q16.4842 877.358 22.2451 870.897 Q27.9743 864.436 40.1964 864.436 Q52.4822 864.436 58.2432 870.929 Q64.0042 877.422 64.0042 891.172 L64.0042 904.381 L16.4842 904.381 Z" fill="#000000" fill-rule="nonzero" fill-opacity="1" /><path clip-path="url(#clip720)" d="M16.4842 854.187 L16.4842 826.878 L21.895 826.878 L21.895 847.758 L35.8996 847.758 L35.8996 828.915 L41.3104 828.915 L41.3104 847.758 L64.0042 847.758 L64.0042 854.187 L16.4842 854.187 Z" fill="#000000" fill-rule="nonzero" fill-opacity="1" /><path clip-path="url(#clip720)" d="M28.3562 800.429 L28.3562 794.222 L58.275 783.082 L28.3562 771.942 L28.3562 765.736 L64.0042 779.104 L64.0042 787.061 L28.3562 800.429 Z" fill="#000000" fill-rule="nonzero" fill-opacity="1" /><path clip-path="url(#clip720)" d="M29.4065 734.926 L34.9447 734.926 Q33.6716 737.408 33.035 740.082 Q32.3984 742.755 32.3984 745.62 Q32.3984 749.98 33.7352 752.177 Q35.072 754.341 37.7456 754.341 Q39.7826 754.341 40.9603 752.781 Q42.1061 751.222 43.1565 746.511 L43.6021 744.506 Q44.9389 738.268 47.3897 735.658 Q49.8086 733.016 54.1691 733.016 Q59.1344 733.016 62.0308 736.963 Q64.9272 740.877 64.9272 747.752 Q64.9272 750.617 64.3543 753.736 Q63.8132 756.824 62.6992 760.261 L56.6518 760.261 Q58.3387 757.015 59.198 753.863 Q60.0256 750.712 60.0256 747.625 Q60.0256 743.487 58.6251 741.259 Q57.1929 739.031 54.6147 739.031 Q52.2276 739.031 50.9545 740.655 Q49.6813 742.246 48.5037 747.689 L48.0262 749.726 Q46.8804 755.168 44.5251 757.587 Q42.138 760.006 38.0002 760.006 Q32.9713 760.006 30.2341 756.442 Q27.4968 752.877 27.4968 746.32 Q27.4968 743.074 27.9743 740.209 Q28.4517 737.344 29.4065 734.926 Z" fill="#000000" fill-rule="nonzero" fill-opacity="1" /><path clip-path="url(#clip720)" d="M55.9197 722.862 L55.9197 716.147 L64.0042 716.147 L64.0042 722.862 L55.9197 722.862 Z" fill="#000000" fill-rule="nonzero" fill-opacity="1" /><path clip-path="url(#clip720)" d="M16.4842 681.995 L16.4842 651.949 L21.895 651.949 L21.895 675.565 L35.9632 675.565 L35.9632 652.935 L41.3741 652.935 L41.3741 675.565 L58.5933 675.565 L58.5933 651.376 L64.0042 651.376 L64.0042 681.995 L16.4842 681.995 Z" fill="#000000" fill-rule="nonzero" fill-opacity="1" /><path clip-path="url(#clip720)" d="M20.1444 605.224 L26.9239 605.224 Q23.9002 608.471 22.4043 612.163 Q20.9083 615.823 20.9083 619.961 Q20.9083 628.109 25.9054 632.438 Q30.8707 636.766 40.2919 636.766 Q49.6813 636.766 54.6784 632.438 Q59.6436 628.109 59.6436 619.961 Q59.6436 615.823 58.1477 612.163 Q56.6518 608.471 53.6281 605.224 L60.3439 605.224 Q62.6355 608.598 63.7814 612.386 Q64.9272 616.141 64.9272 620.343 Q64.9272 631.133 58.3387 637.339 Q51.7183 643.546 40.2919 643.546 Q28.8336 643.546 22.2451 637.339 Q15.6248 631.133 15.6248 620.343 Q15.6248 616.078 16.7706 612.322 Q17.8846 608.534 20.1444 605.224 Z" fill="#000000" fill-rule="nonzero" fill-opacity="1" /><path clip-path="url(#clip720)" d="M21.7677 588.864 L58.7206 588.864 L58.7206 581.098 Q58.7206 571.263 54.2646 566.712 Q49.8086 562.128 40.1964 562.128 Q30.6479 562.128 26.2237 566.712 Q21.7677 571.263 21.7677 581.098 L21.7677 588.864 M16.4842 595.294 L16.4842 582.085 Q16.4842 568.271 22.2451 561.81 Q27.9743 555.349 40.1964 555.349 Q52.4822 555.349 58.2432 561.842 Q64.0042 568.335 64.0042 582.085 L64.0042 595.294 L16.4842 595.294 Z" fill="#000000" fill-rule="nonzero" fill-opacity="1" /><path clip-path="url(#clip720)" d="M16.4842 545.1 L16.4842 517.791 L21.895 517.791 L21.895 538.671 L35.8996 538.671 L35.8996 519.828 L41.3104 519.828 L41.3104 538.671 L64.0042 538.671 L64.0042 545.1 L16.4842 545.1 Z" fill="#000000" fill-rule="nonzero" fill-opacity="1" /><polyline clip-path="url(#clip722)" style="stroke:#808080; stroke-linecap:round; stroke-linejoin:round; stroke-width:12; stroke-opacity:1; fill:none" points="219.866,1384.24 221.602,1382.87 223.338,1378.77 225.074,1374.67 226.809,1371.94 228.545,1370.58 230.281,1369.21 231.149,1366.48 232.017,1365.11 232.885,1361.01 233.753,1356.91 235.759,1350.08 237.765,1345.98 239.771,1337.79 241.777,1332.32 245.79,1324.12 249.802,1315.93 253.815,1307.73 257.827,1295.43 261.84,1284.5 265.852,1270.84 267.858,1266.74 269.865,1258.54 271.871,1250.35 273.877,1242.15 274.88,1242.15 275.883,1239.42 276.886,1236.68 277.89,1232.58 278.893,1229.85 279.896,1228.49 280.899,1225.75 281.902,1225.75 282.905,1221.65 283.908,1214.82 284.911,1206.63 285.915,1202.53 286.918,1201.16 287.921,1199.79 288.924,1198.43 289.927,1192.96 290.93,1191.6 291.933,1188.86 292.936,1184.77 293.939,1182.03 295.946,1177.93 297.952,1173.84 299.958,1168.37 301.964,1162.91 303.971,1160.17 305.977,1156.07 309.989,1142.41 314.002,1127.38 316.008,1121.92 318.014,1115.09 319.017,1115.09 320.02,1109.62 321.024,1108.26 322.027,1101.42 324.033,1100.06 326.039,1098.69 327.042,1097.33 328.045,1094.59 329.048,1093.23 330.052,1087.76 332.058,1085.03 334.064,1080.93 336.07,1076.83 338.076,1071.37 342.089,1065.9 346.101,1057.7 350.114,1050.87 354.126,1041.31 358.139,1037.21 362.151,1031.75 364.563,1024.91 366.974,1018.08 369.385,1015.35 371.796,1011.25 376.619,1003.05 381.442,997.59 391.087,983.927 400.732,970.265 403.144,964.8 405.555,957.969 407.966,952.504 410.378,947.039 415.2,938.841 420.023,932.01 424.846,925.179 429.668,918.348 432.08,916.981 434.491,916.981 436.902,914.249 439.313,912.883 443.391,904.685 447.468,899.22 451.546,893.755 455.623,888.29 459.701,881.459 463.778,874.628 467.856,870.529 471.933,867.796 476.011,859.599 480.088,851.401 484.166,841.838 488.243,836.373 492.321,833.64 496.398,828.175 498.437,824.076 500.476,819.978 501.495,819.978 502.514,819.978 503.534,817.245 504.553,815.879 513.412,800.85 522.27,788.554 531.129,777.624 539.987,765.328 548.846,754.398 557.705,744.834 562.134,739.369 566.563,733.904 568.778,728.439 570.992,725.707 573.207,724.34 575.422,722.974 576.443,721.608 577.463,718.875 578.484,714.777 579.505,709.312 581.547,705.213 583.589,702.48 587.672,698.382 591.755,691.55 593.797,690.184 595.839,687.452 597.881,681.987 599.922,677.888 604.006,672.423 608.089,668.324 616.256,661.493 624.423,653.295 626.464,650.563 628.506,647.83 630.548,646.464 632.59,646.464 634.631,643.732 636.673,638.267 638.715,636.9 640.756,632.802 645.134,624.604 649.512,619.139 653.89,616.407 658.268,612.308 662.646,604.11 667.023,597.279 671.401,590.448 675.779,586.349 680.157,582.25 684.535,576.785 685.629,575.419 686.724,569.954 687.818,568.588 688.913,567.222 691.102,564.489 693.291,563.123 697.668,561.757 702.046,556.292 706.424,552.193 710.802,546.728 720.946,533.066 731.091,519.403 736.163,515.304 741.235,511.206 746.307,504.374 751.379,500.276 771.668,481.148 791.957,459.288 800.972,452.457 809.987,446.992 814.494,446.992 819.002,445.626 823.509,444.259 828.017,440.161 837.032,436.062 846.047,430.597 855.062,426.498 864.077,425.132 868.03,423.766 871.983,419.667 875.935,418.301 879.888,418.301 887.794,412.836 895.699,404.638 903.604,396.441 911.51,390.976 919.415,385.511 927.321,381.412 935.94,378.679 944.559,375.947 953.178,373.214 961.797,366.383 970.416,362.284 979.035,360.918 981.19,360.918 983.344,360.918 985.499,359.552 987.654,355.453 989.809,355.453 991.963,352.721 994.118,352.721 996.273,352.721 1000.61,347.256 1004.94,344.523 1009.28,340.425 1013.61,337.692 1022.28,334.96 1030.95,330.861 1048.29,319.931 1065.63,310.367 1070.43,309.001 1075.22,307.635 1080.01,302.17 1084.81,299.437 1089.6,299.437 1094.39,298.071 1096.79,295.338 1099.19,293.972 1101.58,293.972 1103.98,293.972 1108.77,291.24 1113.57,287.141 1118.36,287.141 1123.15,287.141 1132.74,287.141 1142.32,287.141 1178.81,284.408 1215.29,283.042 1253.23,280.31 1291.16,276.211 1323.09,272.112 1355.03,268.013 1374.52,268.013 1394.01,268.013 1413.5,265.281 1433,261.182 1468.71,261.182 1504.43,259.816 1537.41,259.816 1570.39,257.083 1603.81,252.985 1637.22,246.153 1674.67,235.223 1712.11,225.66 1720.59,222.927 1729.08,217.462 1737.56,216.096 1746.04,213.363 1754.53,213.363 1763.01,213.363 1767.25,211.997 1771.49,211.997 1775.73,209.265 1779.98,206.532 1784.83,206.532 1789.69,206.532 1794.54,205.166 1799.4,202.433 1809.11,195.602 1818.83,190.137 1838.25,186.038 1857.67,181.94 1893.65,175.108 1929.62,168.277 1934.05,166.911 1938.48,162.812 1942.92,161.446 1947.35,161.446 1956.22,160.08 1965.08,158.713 1973.95,154.615 1982.81,151.882 1987.25,149.15 1991.68,149.15 1996.11,146.417 2000.55,142.319 2017.76,136.854 2034.98,132.755 2052.19,128.656 2069.41,123.191 2104.71,119.092 2140,116.36 2178.68,114.994 2217.35,112.261 2245.44,109.529 2273.53,106.796 2287.57,102.697 2301.62,98.5986 2315.66,95.8661 2329.71,94.4998 2335.47,94.4998 2341.23,93.1336 2346.99,91.7673 2352.76,90.4011 "/>
<polyline clip-path="url(#clip722)" style="stroke:#e26f46; stroke-linecap:round; stroke-linejoin:round; stroke-width:4; stroke-opacity:1; fill:none" points="219.866,1384.24 223.338,1373.67 226.809,1363.18 230.281,1352.78 233.753,1342.45 249.802,1295.75 265.852,1250.69 281.902,1207.22 297.952,1165.29 314.002,1124.83 330.052,1085.8 346.101,1048.14 362.151,1011.82 381.442,969.848 400.732,929.65 420.023,891.149 439.313,854.275 455.623,824.316 471.933,795.43 488.243,767.579 504.553,740.725 522.27,712.644 539.987,685.653 557.705,659.712 575.422,634.778 591.755,612.651 608.089,591.552 624.423,573.272 640.756,555.575 675.779,519.507 710.802,485.859 731.091,467.409 751.379,449.687 771.668,432.664 791.957,416.312 828.017,396.186 864.077,377.885 895.699,362.567 927.321,347.901 996.273,318.049 1065.63,290.745 1084.81,283.646 1103.98,276.732 1123.15,272.595 1142.32,271.204 1178.81,268.58 1215.29,265.983 1291.16,260.668 1355.03,256.079 1433,250.158 1504.43,247.841 1537.41,246.94 1570.39,246.042 1603.81,241.451 1637.22,234.788 1712.11,220.567 1779.98,205.499 1818.83,191.587 1857.67,178.707 1893.65,167.635 1929.62,157.326 2000.55,139.033 2069.41,123.573 2104.71,116.431 2140,110.494 2159.34,109.977 2178.68,109.331 2198.01,106.318 2217.35,103.404 2273.53,95.737 2329.71,88.8366 2341.23,87.4985 2352.76,86.1857 "/>
<path clip-path="url(#clip720)" d="M290.963 248.629 L623.672 248.629 L623.672 93.1086 L290.963 93.1086  Z" fill="#ffffff" fill-rule="evenodd" fill-opacity="1"/>
<polyline clip-path="url(#clip720)" style="stroke:#000000; stroke-linecap:round; stroke-linejoin:round; stroke-width:4; stroke-opacity:1; fill:none" points="290.963,248.629 623.672,248.629 623.672,93.1086 290.963,93.1086 290.963,248.629 "/>
<polyline clip-path="url(#clip720)" style="stroke:#808080; stroke-linecap:round; stroke-linejoin:round; stroke-width:12; stroke-opacity:1; fill:none" points="314.661,144.949 456.854,144.949 "/>
<path clip-path="url(#clip720)" d="M480.553 127.669 L502.405 127.669 L502.405 131.604 L485.229 131.604 L485.229 141.835 L501.687 141.835 L501.687 145.77 L485.229 145.77 L485.229 158.293 L502.821 158.293 L502.821 162.229 L480.553 162.229 L480.553 127.669 Z" fill="#000000" fill-rule="nonzero" fill-opacity="1" /><path clip-path="url(#clip720)" d="M536.386 130.331 L536.386 135.261 Q534.025 133.062 531.34 131.974 Q528.678 130.886 525.668 130.886 Q519.742 130.886 516.594 134.52 Q513.446 138.132 513.446 144.983 Q513.446 151.812 516.594 155.446 Q519.742 159.057 525.668 159.057 Q528.678 159.057 531.34 157.969 Q534.025 156.881 536.386 154.682 L536.386 159.567 Q533.932 161.233 531.178 162.067 Q528.446 162.9 525.391 162.9 Q517.543 162.9 513.029 158.108 Q508.516 153.293 508.516 144.983 Q508.516 136.65 513.029 131.858 Q517.543 127.044 525.391 127.044 Q528.492 127.044 531.224 127.877 Q533.978 128.687 536.386 130.331 Z" fill="#000000" fill-rule="nonzero" fill-opacity="1" /><path clip-path="url(#clip720)" d="M548.284 131.511 L548.284 158.386 L553.932 158.386 Q561.085 158.386 564.395 155.145 Q567.728 151.905 567.728 144.914 Q567.728 137.969 564.395 134.752 Q561.085 131.511 553.932 131.511 L548.284 131.511 M543.608 127.669 L553.214 127.669 Q563.261 127.669 567.96 131.858 Q572.659 136.025 572.659 144.914 Q572.659 153.849 567.937 158.039 Q563.214 162.229 553.214 162.229 L543.608 162.229 L543.608 127.669 Z" fill="#000000" fill-rule="nonzero" fill-opacity="1" /><path clip-path="url(#clip720)" d="M580.112 127.669 L599.973 127.669 L599.973 131.604 L584.788 131.604 L584.788 141.789 L598.492 141.789 L598.492 145.724 L584.788 145.724 L584.788 162.229 L580.112 162.229 L580.112 127.669 Z" fill="#000000" fill-rule="nonzero" fill-opacity="1" /><polyline clip-path="url(#clip720)" style="stroke:#e26f46; stroke-linecap:round; stroke-linejoin:round; stroke-width:4; stroke-opacity:1; fill:none" points="314.661,196.789 456.854,196.789 "/>
<path clip-path="url(#clip720)" d="M494.395 216.476 Q492.59 221.106 490.877 222.518 Q489.164 223.93 486.293 223.93 L482.891 223.93 L482.891 220.365 L485.391 220.365 Q487.15 220.365 488.122 219.532 Q489.094 218.698 490.275 215.596 L491.039 213.652 L480.553 188.143 L485.067 188.143 L493.168 208.421 L501.27 188.143 L505.784 188.143 L494.395 216.476 Z" fill="#000000" fill-rule="nonzero" fill-opacity="1" /><path clip-path="url(#clip720)" d="M516.293 210.133 L532.613 210.133 L532.613 214.069 L510.668 214.069 L510.668 210.133 Q513.33 207.379 517.914 202.749 Q522.52 198.096 523.701 196.754 Q525.946 194.231 526.826 192.495 Q527.728 190.735 527.728 189.046 Q527.728 186.291 525.784 184.555 Q523.863 182.819 520.761 182.819 Q518.562 182.819 516.108 183.583 Q513.678 184.347 510.9 185.897 L510.9 181.175 Q513.724 180.041 516.178 179.462 Q518.631 178.884 520.668 178.884 Q526.039 178.884 529.233 181.569 Q532.427 184.254 532.427 188.745 Q532.427 190.874 531.617 192.796 Q530.83 194.694 528.724 197.286 Q528.145 197.958 525.043 201.175 Q521.941 204.37 516.293 210.133 Z" fill="#000000" fill-rule="nonzero" fill-opacity="1" /></svg>
