<?xml version="1.0" encoding="utf-8"?>
<svg xmlns="http://www.w3.org/2000/svg" xmlns:xlink="http://www.w3.org/1999/xlink" width="600" height="400" viewBox="0 0 2400 1600">
<defs>
  <clipPath id="clip600">
    <rect x="0" y="0" width="2400" height="1600"/>
  </clipPath>
</defs>
<path clip-path="url(#clip600)" d="M0 1600 L2400 1600 L2400 0 L0 0  Z" fill="#ffffff" fill-rule="evenodd" fill-opacity="1"/>
<defs>
  <clipPath id="clip601">
    <rect x="480" y="0" width="1681" height="1600"/>
  </clipPath>
</defs>
<path clip-path="url(#clip600)" d="M219.866 1486.45 L2352.76 1486.45 L2352.76 47.2441 L219.866 47.2441  Z" fill="#ffffff" fill-rule="evenodd" fill-opacity="1"/>
<defs>
  <clipPath id="clip602">
    <rect x="219" y="47" width="2134" height="1440"/>
  </clipPath>
</defs>
<polyline clip-path="url(#clip602)" style="stroke:#000000; stroke-linecap:round; stroke-linejoin:round; stroke-width:2; stroke-opacity:0.1; fill:none" points="219.866,1486.45 219.866,47.2441 "/>
<polyline clip-path="url(#clip602)" style="stroke:#000000; stroke-linecap:round; stroke-linejoin:round; stroke-width:2; stroke-opacity:0.1; fill:none" points="646.444,1486.45 646.444,47.2441 "/>
<polyline clip-path="url(#clip602)" style="stroke:#000000; stroke-linecap:round; stroke-linejoin:round; stroke-width:2; stroke-opacity:0.1; fill:none" points="1073.02,1486.45 1073.02,47.2441 "/>
<polyline clip-path="url(#clip602)" style="stroke:#000000; stroke-linecap:round; stroke-linejoin:round; stroke-width:2; stroke-opacity:0.1; fill:none" points="1499.6,1486.45 1499.6,47.2441 "/>
<polyline clip-path="url(#clip602)" style="stroke:#000000; stroke-linecap:round; stroke-linejoin:round; stroke-width:2; stroke-opacity:0.1; fill:none" points="1926.18,1486.45 1926.18,47.2441 "/>
<polyline clip-path="url(#clip602)" style="stroke:#000000; stroke-linecap:round; stroke-linejoin:round; stroke-width:2; stroke-opacity:0.1; fill:none" points="2352.76,1486.45 2352.76,47.2441 "/>
<polyline clip-path="url(#clip600)" style="stroke:#000000; stroke-linecap:round; stroke-linejoin:round; stroke-width:4; stroke-opacity:1; fill:none" points="219.866,1486.45 2352.76,1486.45 "/>
<polyline clip-path="url(#clip600)" style="stroke:#000000; stroke-linecap:round; stroke-linejoin:round; stroke-width:4; stroke-opacity:1; fill:none" points="219.866,1486.45 219.866,1467.55 "/>
<polyline clip-path="url(#clip600)" style="stroke:#000000; stroke-linecap:round; stroke-linejoin:round; stroke-width:4; stroke-opacity:1; fill:none" points="646.444,1486.45 646.444,1467.55 "/>
<polyline clip-path="url(#clip600)" style="stroke:#000000; stroke-linecap:round; stroke-linejoin:round; stroke-width:4; stroke-opacity:1; fill:none" points="1073.02,1486.45 1073.02,1467.55 "/>
<polyline clip-path="url(#clip600)" style="stroke:#000000; stroke-linecap:round; stroke-linejoin:round; stroke-width:4; stroke-opacity:1; fill:none" points="1499.6,1486.45 1499.6,1467.55 "/>
<polyline clip-path="url(#clip600)" style="stroke:#000000; stroke-linecap:round; stroke-linejoin:round; stroke-width:4; stroke-opacity:1; fill:none" points="1926.18,1486.45 1926.18,1467.55 "/>
<polyline clip-path="url(#clip600)" style="stroke:#000000; stroke-linecap:round; stroke-linejoin:round; stroke-width:4; stroke-opacity:1; fill:none" points="2352.76,1486.45 2352.76,1467.55 "/>
<path clip-path="url(#clip600)" d="M219.866 1517.37 Q216.255 1517.37 214.426 1520.93 Q212.621 1524.47 212.621 1531.6 Q212.621 1538.71 214.426 1542.27 Q216.255 1545.82 219.866 1545.82 Q223.501 1545.82 225.306 1542.27 Q227.135 1538.71 227.135 1531.6 Q227.135 1524.47 225.306 1520.93 Q223.501 1517.37 219.866 1517.37 M219.866 1513.66 Q225.676 1513.66 228.732 1518.27 Q231.811 1522.85 231.811 1531.6 Q231.811 1540.33 228.732 1544.94 Q225.676 1549.52 219.866 1549.52 Q214.056 1549.52 210.977 1544.94 Q207.922 1540.33 207.922 1531.6 Q207.922 1522.85 210.977 1518.27 Q214.056 1513.66 219.866 1513.66 Z" fill="#000000" fill-rule="nonzero" fill-opacity="1" /><path clip-path="url(#clip600)" d="M641.097 1544.91 L657.416 1544.91 L657.416 1548.85 L635.472 1548.85 L635.472 1544.91 Q638.134 1542.16 642.717 1537.53 Q647.324 1532.88 648.504 1531.53 Q650.75 1529.01 651.629 1527.27 Q652.532 1525.51 652.532 1523.82 Q652.532 1521.07 650.588 1519.33 Q648.666 1517.6 645.565 1517.6 Q643.366 1517.6 640.912 1518.36 Q638.481 1519.13 635.704 1520.68 L635.704 1515.95 Q638.528 1514.82 640.981 1514.24 Q643.435 1513.66 645.472 1513.66 Q650.842 1513.66 654.037 1516.35 Q657.231 1519.03 657.231 1523.52 Q657.231 1525.65 656.421 1527.57 Q655.634 1529.47 653.527 1532.07 Q652.949 1532.74 649.847 1535.95 Q646.745 1539.15 641.097 1544.91 Z" fill="#000000" fill-rule="nonzero" fill-opacity="1" /><path clip-path="url(#clip600)" d="M1076.03 1518.36 L1064.23 1536.81 L1076.03 1536.81 L1076.03 1518.36 M1074.8 1514.29 L1080.68 1514.29 L1080.68 1536.81 L1085.61 1536.81 L1085.61 1540.7 L1080.68 1540.7 L1080.68 1548.85 L1076.03 1548.85 L1076.03 1540.7 L1060.43 1540.7 L1060.43 1536.19 L1074.8 1514.29 Z" fill="#000000" fill-rule="nonzero" fill-opacity="1" /><path clip-path="url(#clip600)" d="M1500.01 1529.7 Q1496.86 1529.7 1495.01 1531.86 Q1493.18 1534.01 1493.18 1537.76 Q1493.18 1541.49 1495.01 1543.66 Q1496.86 1545.82 1500.01 1545.82 Q1503.15 1545.82 1504.98 1543.66 Q1506.83 1541.49 1506.83 1537.76 Q1506.83 1534.01 1504.98 1531.86 Q1503.15 1529.7 1500.01 1529.7 M1509.29 1515.05 L1509.29 1519.31 Q1507.53 1518.48 1505.72 1518.04 Q1503.94 1517.6 1502.18 1517.6 Q1497.55 1517.6 1495.1 1520.72 Q1492.67 1523.85 1492.32 1530.17 Q1493.69 1528.15 1495.75 1527.09 Q1497.81 1526 1500.28 1526 Q1505.49 1526 1508.5 1529.17 Q1511.53 1532.32 1511.53 1537.76 Q1511.53 1543.08 1508.38 1546.3 Q1505.24 1549.52 1500.01 1549.52 Q1494.01 1549.52 1490.84 1544.94 Q1487.67 1540.33 1487.67 1531.6 Q1487.67 1523.41 1491.56 1518.55 Q1495.44 1513.66 1502 1513.66 Q1503.76 1513.66 1505.54 1514.01 Q1507.34 1514.36 1509.29 1515.05 Z" fill="#000000" fill-rule="nonzero" fill-opacity="1" /><path clip-path="url(#clip600)" d="M1926.18 1532.44 Q1922.84 1532.44 1920.92 1534.22 Q1919.03 1536 1919.03 1539.13 Q1919.03 1542.25 1920.92 1544.03 Q1922.84 1545.82 1926.18 1545.82 Q1929.51 1545.82 1931.43 1544.03 Q1933.35 1542.23 1933.35 1539.13 Q1933.35 1536 1931.43 1534.22 Q1929.53 1532.44 1926.18 1532.44 M1921.5 1530.45 Q1918.49 1529.7 1916.8 1527.64 Q1915.14 1525.58 1915.14 1522.62 Q1915.14 1518.48 1918.08 1516.07 Q1921.04 1513.66 1926.18 1513.66 Q1931.34 1513.66 1934.28 1516.07 Q1937.22 1518.48 1937.22 1522.62 Q1937.22 1525.58 1935.53 1527.64 Q1933.86 1529.7 1930.88 1530.45 Q1934.26 1531.23 1936.13 1533.52 Q1938.03 1535.82 1938.03 1539.13 Q1938.03 1544.15 1934.95 1546.83 Q1931.9 1549.52 1926.18 1549.52 Q1920.46 1549.52 1917.38 1546.83 Q1914.33 1544.15 1914.33 1539.13 Q1914.33 1535.82 1916.22 1533.52 Q1918.12 1531.23 1921.5 1530.45 M1919.79 1523.06 Q1919.79 1525.75 1921.46 1527.25 Q1923.15 1528.76 1926.18 1528.76 Q1929.19 1528.76 1930.88 1527.25 Q1932.59 1525.75 1932.59 1523.06 Q1932.59 1520.38 1930.88 1518.87 Q1929.19 1517.37 1926.18 1517.37 Q1923.15 1517.37 1921.46 1518.87 Q1919.79 1520.38 1919.79 1523.06 Z" fill="#000000" fill-rule="nonzero" fill-opacity="1" /><path clip-path="url(#clip600)" d="M2327.44 1544.91 L2335.08 1544.91 L2335.08 1518.55 L2326.77 1520.21 L2326.77 1515.95 L2335.04 1514.29 L2339.71 1514.29 L2339.71 1544.91 L2347.35 1544.91 L2347.35 1548.85 L2327.44 1548.85 L2327.44 1544.91 Z" fill="#000000" fill-rule="nonzero" fill-opacity="1" /><path clip-path="url(#clip600)" d="M2366.8 1517.37 Q2363.18 1517.37 2361.36 1520.93 Q2359.55 1524.47 2359.55 1531.6 Q2359.55 1538.71 2361.36 1542.27 Q2363.18 1545.82 2366.8 1545.82 Q2370.43 1545.82 2372.23 1542.27 Q2374.06 1538.71 2374.06 1531.6 Q2374.06 1524.47 2372.23 1520.93 Q2370.43 1517.37 2366.8 1517.37 M2366.8 1513.66 Q2372.61 1513.66 2375.66 1518.27 Q2378.74 1522.85 2378.74 1531.6 Q2378.74 1540.33 2375.66 1544.94 Q2372.61 1549.52 2366.8 1549.52 Q2360.99 1549.52 2357.91 1544.94 Q2354.85 1540.33 2354.85 1531.6 Q2354.85 1522.85 2357.91 1518.27 Q2360.99 1513.66 2366.8 1513.66 Z" fill="#000000" fill-rule="nonzero" fill-opacity="1" /><polyline clip-path="url(#clip602)" style="stroke:#000000; stroke-linecap:round; stroke-linejoin:round; stroke-width:2; stroke-opacity:0.1; fill:none" points="219.866,1230.49 2352.76,1230.49 "/>
<polyline clip-path="url(#clip602)" style="stroke:#000000; stroke-linecap:round; stroke-linejoin:round; stroke-width:2; stroke-opacity:0.1; fill:none" points="219.866,941.96 2352.76,941.96 "/>
<polyline clip-path="url(#clip602)" style="stroke:#000000; stroke-linecap:round; stroke-linejoin:round; stroke-width:2; stroke-opacity:0.1; fill:none" points="219.866,653.433 2352.76,653.433 "/>
<polyline clip-path="url(#clip602)" style="stroke:#000000; stroke-linecap:round; stroke-linejoin:round; stroke-width:2; stroke-opacity:0.1; fill:none" points="219.866,364.906 2352.76,364.906 "/>
<polyline clip-path="url(#clip602)" style="stroke:#000000; stroke-linecap:round; stroke-linejoin:round; stroke-width:2; stroke-opacity:0.1; fill:none" points="219.866,76.3786 2352.76,76.3786 "/>
<polyline clip-path="url(#clip600)" style="stroke:#000000; stroke-linecap:round; stroke-linejoin:round; stroke-width:4; stroke-opacity:1; fill:none" points="219.866,1486.45 219.866,47.2441 "/>
<polyline clip-path="url(#clip600)" style="stroke:#000000; stroke-linecap:round; stroke-linejoin:round; stroke-width:4; stroke-opacity:1; fill:none" points="219.866,1230.49 238.764,1230.49 "/>
<polyline clip-path="url(#clip600)" style="stroke:#000000; stroke-linecap:round; stroke-linejoin:round; stroke-width:4; stroke-opacity:1; fill:none" points="219.866,941.96 238.764,941.96 "/>
<polyline clip-path="url(#clip600)" style="stroke:#000000; stroke-linecap:round; stroke-linejoin:round; stroke-width:4; stroke-opacity:1; fill:none" points="219.866,653.433 238.764,653.433 "/>
<polyline clip-path="url(#clip600)" style="stroke:#000000; stroke-linecap:round; stroke-linejoin:round; stroke-width:4; stroke-opacity:1; fill:none" points="219.866,364.906 238.764,364.906 "/>
<polyline clip-path="url(#clip600)" style="stroke:#000000; stroke-linecap:round; stroke-linejoin:round; stroke-width:4; stroke-opacity:1; fill:none" points="219.866,76.3786 238.764,76.3786 "/>
<path clip-path="url(#clip600)" d="M128.288 1216.29 Q124.677 1216.29 122.848 1219.85 Q121.043 1223.39 121.043 1230.52 Q121.043 1237.63 122.848 1241.19 Q124.677 1244.73 128.288 1244.73 Q131.922 1244.73 133.728 1241.19 Q135.556 1237.63 135.556 1230.52 Q135.556 1223.39 133.728 1219.85 Q131.922 1216.29 128.288 1216.29 M128.288 1212.58 Q134.098 1212.58 137.154 1217.19 Q140.232 1221.77 140.232 1230.52 Q140.232 1239.25 137.154 1243.85 Q134.098 1248.44 128.288 1248.44 Q122.478 1248.44 119.399 1243.85 Q116.343 1239.25 116.343 1230.52 Q116.343 1221.77 119.399 1217.19 Q122.478 1212.58 128.288 1212.58 Z" fill="#000000" fill-rule="nonzero" fill-opacity="1" /><path clip-path="url(#clip600)" d="M148.45 1241.89 L153.334 1241.89 L153.334 1247.77 L148.45 1247.77 L148.45 1241.89 Z" fill="#000000" fill-rule="nonzero" fill-opacity="1" /><path clip-path="url(#clip600)" d="M167.547 1243.83 L183.866 1243.83 L183.866 1247.77 L161.922 1247.77 L161.922 1243.83 Q164.584 1241.08 169.167 1236.45 Q173.774 1231.79 174.954 1230.45 Q177.2 1227.93 178.079 1226.19 Q178.982 1224.43 178.982 1222.74 Q178.982 1219.99 177.038 1218.25 Q175.116 1216.52 172.014 1216.52 Q169.815 1216.52 167.362 1217.28 Q164.931 1218.04 162.153 1219.6 L162.153 1214.87 Q164.977 1213.74 167.431 1213.16 Q169.885 1212.58 171.922 1212.58 Q177.292 1212.58 180.487 1215.27 Q183.681 1217.95 183.681 1222.44 Q183.681 1224.57 182.871 1226.49 Q182.084 1228.39 179.977 1230.98 Q179.399 1231.66 176.297 1234.87 Q173.195 1238.07 167.547 1243.83 Z" fill="#000000" fill-rule="nonzero" fill-opacity="1" /><path clip-path="url(#clip600)" d="M126.205 927.758 Q122.593 927.758 120.765 931.323 Q118.959 934.865 118.959 941.994 Q118.959 949.101 120.765 952.666 Q122.593 956.207 126.205 956.207 Q129.839 956.207 131.644 952.666 Q133.473 949.101 133.473 941.994 Q133.473 934.865 131.644 931.323 Q129.839 927.758 126.205 927.758 M126.205 924.055 Q132.015 924.055 135.07 928.661 Q138.149 933.244 138.149 941.994 Q138.149 950.721 135.07 955.328 Q132.015 959.911 126.205 959.911 Q120.394 959.911 117.316 955.328 Q114.26 950.721 114.26 941.994 Q114.26 933.244 117.316 928.661 Q120.394 924.055 126.205 924.055 Z" fill="#000000" fill-rule="nonzero" fill-opacity="1" /><path clip-path="url(#clip600)" d="M146.366 953.36 L151.251 953.36 L151.251 959.24 L146.366 959.24 L146.366 953.36 Z" fill="#000000" fill-rule="nonzero" fill-opacity="1" /><path clip-path="url(#clip600)" d="M174.283 928.754 L162.477 947.203 L174.283 947.203 L174.283 928.754 M173.056 924.68 L178.936 924.68 L178.936 947.203 L183.866 947.203 L183.866 951.091 L178.936 951.091 L178.936 959.24 L174.283 959.24 L174.283 951.091 L158.681 951.091 L158.681 946.578 L173.056 924.68 Z" fill="#000000" fill-rule="nonzero" fill-opacity="1" /><path clip-path="url(#clip600)" d="M126.529 639.231 Q122.918 639.231 121.089 642.796 Q119.283 646.338 119.283 653.467 Q119.283 660.574 121.089 664.139 Q122.918 667.68 126.529 667.68 Q130.163 667.68 131.968 664.139 Q133.797 660.574 133.797 653.467 Q133.797 646.338 131.968 642.796 Q130.163 639.231 126.529 639.231 M126.529 635.528 Q132.339 635.528 135.394 640.134 Q138.473 644.717 138.473 653.467 Q138.473 662.194 135.394 666.801 Q132.339 671.384 126.529 671.384 Q120.718 671.384 117.64 666.801 Q114.584 662.194 114.584 653.467 Q114.584 644.717 117.64 640.134 Q120.718 635.528 126.529 635.528 Z" fill="#000000" fill-rule="nonzero" fill-opacity="1" /><path clip-path="url(#clip600)" d="M146.691 664.833 L151.575 664.833 L151.575 670.713 L146.691 670.713 L146.691 664.833 Z" fill="#000000" fill-rule="nonzero" fill-opacity="1" /><path clip-path="url(#clip600)" d="M172.339 651.569 Q169.19 651.569 167.339 653.722 Q165.51 655.875 165.51 659.625 Q165.51 663.352 167.339 665.527 Q169.19 667.68 172.339 667.68 Q175.487 667.68 177.315 665.527 Q179.167 663.352 179.167 659.625 Q179.167 655.875 177.315 653.722 Q175.487 651.569 172.339 651.569 M181.621 636.916 L181.621 641.176 Q179.862 640.342 178.056 639.903 Q176.274 639.463 174.514 639.463 Q169.885 639.463 167.431 642.588 Q165.001 645.713 164.653 652.032 Q166.019 650.018 168.079 648.953 Q170.139 647.865 172.616 647.865 Q177.825 647.865 180.834 651.037 Q183.866 654.185 183.866 659.625 Q183.866 664.949 180.718 668.166 Q177.57 671.384 172.339 671.384 Q166.343 671.384 163.172 666.801 Q160.001 662.194 160.001 653.467 Q160.001 645.273 163.89 640.412 Q167.778 635.528 174.329 635.528 Q176.089 635.528 177.871 635.875 Q179.676 636.222 181.621 636.916 Z" fill="#000000" fill-rule="nonzero" fill-opacity="1" /><path clip-path="url(#clip600)" d="M126.783 350.704 Q123.172 350.704 121.343 354.269 Q119.538 357.811 119.538 364.94 Q119.538 372.047 121.343 375.612 Q123.172 379.153 126.783 379.153 Q130.417 379.153 132.223 375.612 Q134.052 372.047 134.052 364.94 Q134.052 357.811 132.223 354.269 Q130.417 350.704 126.783 350.704 M126.783 347.001 Q132.593 347.001 135.649 351.607 Q138.728 356.19 138.728 364.94 Q138.728 373.667 135.649 378.274 Q132.593 382.857 126.783 382.857 Q120.973 382.857 117.894 378.274 Q114.839 373.667 114.839 364.94 Q114.839 356.19 117.894 351.607 Q120.973 347.001 126.783 347.001 Z" fill="#000000" fill-rule="nonzero" fill-opacity="1" /><path clip-path="url(#clip600)" d="M146.945 376.306 L151.829 376.306 L151.829 382.186 L146.945 382.186 L146.945 376.306 Z" fill="#000000" fill-rule="nonzero" fill-opacity="1" /><path clip-path="url(#clip600)" d="M172.014 365.774 Q168.681 365.774 166.76 367.556 Q164.862 369.338 164.862 372.463 Q164.862 375.588 166.76 377.371 Q168.681 379.153 172.014 379.153 Q175.348 379.153 177.269 377.371 Q179.19 375.565 179.19 372.463 Q179.19 369.338 177.269 367.556 Q175.371 365.774 172.014 365.774 M167.339 363.783 Q164.329 363.042 162.64 360.982 Q160.973 358.922 160.973 355.959 Q160.973 351.815 163.913 349.408 Q166.876 347.001 172.014 347.001 Q177.176 347.001 180.116 349.408 Q183.056 351.815 183.056 355.959 Q183.056 358.922 181.366 360.982 Q179.7 363.042 176.714 363.783 Q180.093 364.57 181.968 366.862 Q183.866 369.153 183.866 372.463 Q183.866 377.487 180.788 380.172 Q177.732 382.857 172.014 382.857 Q166.297 382.857 163.218 380.172 Q160.163 377.487 160.163 372.463 Q160.163 369.153 162.061 366.862 Q163.959 364.57 167.339 363.783 M165.626 356.399 Q165.626 359.084 167.292 360.588 Q168.982 362.093 172.014 362.093 Q175.024 362.093 176.714 360.588 Q178.426 359.084 178.426 356.399 Q178.426 353.714 176.714 352.209 Q175.024 350.704 172.014 350.704 Q168.982 350.704 167.292 352.209 Q165.626 353.714 165.626 356.399 Z" fill="#000000" fill-rule="nonzero" fill-opacity="1" /><path clip-path="url(#clip600)" d="M117.501 89.7235 L125.14 89.7235 L125.14 63.3579 L116.83 65.0245 L116.83 60.7653 L125.093 59.0986 L129.769 59.0986 L129.769 89.7235 L137.408 89.7235 L137.408 93.6586 L117.501 93.6586 L117.501 89.7235 Z" fill="#000000" fill-rule="nonzero" fill-opacity="1" /><path clip-path="url(#clip600)" d="M146.853 87.779 L151.737 87.779 L151.737 93.6586 L146.853 93.6586 L146.853 87.779 Z" fill="#000000" fill-rule="nonzero" fill-opacity="1" /><path clip-path="url(#clip600)" d="M171.922 62.1773 Q168.311 62.1773 166.482 65.7421 Q164.677 69.2837 164.677 76.4133 Q164.677 83.5198 166.482 87.0846 Q168.311 90.6262 171.922 90.6262 Q175.556 90.6262 177.362 87.0846 Q179.19 83.5198 179.19 76.4133 Q179.19 69.2837 177.362 65.7421 Q175.556 62.1773 171.922 62.1773 M171.922 58.4736 Q177.732 58.4736 180.788 63.0801 Q183.866 67.6634 183.866 76.4133 Q183.866 85.1401 180.788 89.7466 Q177.732 94.3299 171.922 94.3299 Q166.112 94.3299 163.033 89.7466 Q159.978 85.1401 159.978 76.4133 Q159.978 67.6634 163.033 63.0801 Q166.112 58.4736 171.922 58.4736 Z" fill="#000000" fill-rule="nonzero" fill-opacity="1" /><path clip-path="url(#clip600)" d="M16.4842 875.763 L16.4842 869.334 L35.9632 869.334 L35.9632 845.972 L16.4842 845.972 L16.4842 839.542 L64.0042 839.542 L64.0042 845.972 L41.3741 845.972 L41.3741 869.334 L64.0042 869.334 L64.0042 875.763 L16.4842 875.763 Z" fill="#000000" fill-rule="nonzero" fill-opacity="1" /><path clip-path="url(#clip600)" d="M46.0847 810.801 Q46.0847 817.899 47.7079 820.636 Q49.3312 823.373 53.2461 823.373 Q56.3653 823.373 58.2114 821.336 Q60.0256 819.268 60.0256 815.735 Q60.0256 810.865 56.5881 807.937 Q53.1188 804.977 47.3897 804.977 L46.0847 804.977 L46.0847 810.801 M43.6657 799.12 L64.0042 799.12 L64.0042 804.977 L58.5933 804.977 Q61.8398 806.982 63.3994 809.974 Q64.9272 812.966 64.9272 817.294 Q64.9272 822.769 61.8716 826.015 Q58.7843 829.23 53.6281 829.23 Q47.6125 829.23 44.5569 825.22 Q41.5014 821.177 41.5014 813.188 L41.5014 804.977 L40.9285 804.977 Q36.8862 804.977 34.6901 807.65 Q32.4621 810.292 32.4621 815.098 Q32.4621 818.154 33.1941 821.05 Q33.9262 823.946 35.3903 826.62 L29.9795 826.62 Q28.7381 823.405 28.1334 820.382 Q27.4968 817.358 27.4968 814.493 Q27.4968 806.759 31.5072 802.94 Q35.5176 799.12 43.6657 799.12 Z" fill="#000000" fill-rule="nonzero" fill-opacity="1" /><path clip-path="url(#clip600)" d="M28.3562 789.603 L28.3562 761.785 L33.7034 761.785 L59.3254 783.811 L59.3254 761.785 L64.0042 761.785 L64.0042 790.399 L58.657 790.399 L33.035 768.374 L33.035 789.603 L28.3562 789.603 Z" fill="#000000" fill-rule="nonzero" fill-opacity="1" /><path clip-path="url(#clip600)" d="M46.0847 736.641 Q46.0847 743.738 47.7079 746.476 Q49.3312 749.213 53.2461 749.213 Q56.3653 749.213 58.2114 747.176 Q60.0256 745.107 60.0256 741.574 Q60.0256 736.704 56.5881 733.776 Q53.1188 730.816 47.3897 730.816 L46.0847 730.816 L46.0847 736.641 M43.6657 724.96 L64.0042 724.96 L64.0042 730.816 L58.5933 730.816 Q61.8398 732.821 63.3994 735.813 Q64.9272 738.805 64.9272 743.134 Q64.9272 748.608 61.8716 751.855 Q58.7843 755.069 53.6281 755.069 Q47.6125 755.069 44.5569 751.059 Q41.5014 747.017 41.5014 739.028 L41.5014 730.816 L40.9285 730.816 Q36.8862 730.816 34.6901 733.49 Q32.4621 736.131 32.4621 740.938 Q32.4621 743.993 33.1941 746.889 Q33.9262 749.786 35.3903 752.459 L29.9795 752.459 Q28.7381 749.245 28.1334 746.221 Q27.4968 743.197 27.4968 740.333 Q27.4968 732.598 31.5072 728.779 Q35.5176 724.96 43.6657 724.96 Z" fill="#000000" fill-rule="nonzero" fill-opacity="1" /><path clip-path="url(#clip600)" d="M33.8307 692.24 Q33.2578 693.227 33.0032 694.404 Q32.7167 695.55 32.7167 696.951 Q32.7167 701.916 35.9632 704.589 Q39.1779 707.231 45.2253 707.231 L64.0042 707.231 L64.0042 713.119 L28.3562 713.119 L28.3562 707.231 L33.8944 707.231 Q30.6479 705.385 29.0883 702.425 Q27.4968 699.465 27.4968 695.232 Q27.4968 694.627 27.5923 693.895 Q27.656 693.163 27.8151 692.272 L33.8307 692.24 Z" fill="#000000" fill-rule="nonzero" fill-opacity="1" /><path clip-path="url(#clip600)" d="M33.7671 663.785 L14.479 663.785 L14.479 657.929 L64.0042 657.929 L64.0042 663.785 L58.657 663.785 Q61.8398 665.631 63.3994 668.464 Q64.9272 671.265 64.9272 675.212 Q64.9272 681.673 59.771 685.747 Q54.6147 689.789 46.212 689.789 Q37.8093 689.789 32.6531 685.747 Q27.4968 681.673 27.4968 675.212 Q27.4968 671.265 29.0564 668.464 Q30.5842 665.631 33.7671 663.785 M46.212 683.742 Q52.6732 683.742 56.3653 681.1 Q60.0256 678.426 60.0256 673.779 Q60.0256 669.132 56.3653 666.459 Q52.6732 663.785 46.212 663.785 Q39.7508 663.785 36.0905 666.459 Q32.3984 669.132 32.3984 673.779 Q32.3984 678.426 36.0905 681.1 Q39.7508 683.742 46.212 683.742 Z" fill="#000000" fill-rule="nonzero" fill-opacity="1" /><polyline clip-path="url(#clip602)" style="stroke:#009af9; stroke-linecap:round; stroke-linejoin:round; stroke-width:4; stroke-opacity:1; fill:none" points="219.866,142.51 226.809,142.51 233.753,142.51 297.952,142.51 362.151,142.51 371.796,142.51 381.442,142.51 391.087,142.51 400.732,142.51 403.144,142.51 405.555,142.51 407.966,142.51 410.378,142.51 410.98,142.51 411.583,142.51 412.186,142.51 412.789,142.51 413.392,298.696 413.995,298.696 414.597,298.696 415.2,298.696 416.406,298.696 417.612,298.696 418.817,298.696 420.023,298.696 424.846,298.696 429.668,298.696 434.491,298.696 439.313,298.696 455.623,298.696 471.933,298.696 480.088,298.696 488.243,298.696 492.321,298.696 496.398,298.696 500.476,298.696 504.553,298.696 505.107,298.696 505.66,298.696 506.214,298.696 506.768,298.696 507.321,298.696 507.875,672.549 508.429,672.549 508.982,672.549 510.09,672.549 511.197,672.549 512.304,672.549 513.412,672.549 517.841,672.549 522.27,672.549 531.129,672.549 539.987,672.549 557.705,672.549 575.422,672.549 608.089,672.549 640.756,672.549 645.134,672.549 649.512,672.549 653.89,672.549 658.268,672.549 660.457,672.549 662.646,672.549 663.74,672.549 664.835,672.549 665.382,672.549 665.929,672.549 666.476,672.549 667.023,1343.28 667.571,1343.28 668.118,1343.28 668.665,1343.28 669.212,1343.28 670.307,1343.28 671.401,1343.28 673.59,1343.28 675.779,1343.28 684.535,1343.28 693.291,1343.28 702.046,1343.28 710.802,1343.28 731.091,1343.28 751.379,1343.28 756.451,1343.28 761.524,1343.28 764.06,1343.28 766.596,1343.28 769.132,1343.28 771.668,1343.28 772.936,1343.28 774.204,1343.28 774.838,1343.28 775.472,1343.28 776.106,1320.27 776.74,1320.27 777.374,1320.27 778.008,1320.27 778.642,1320.27 779.276,1320.27 780.544,1320.27 781.812,1320.27 786.884,1320.27 791.957,1320.27 796.464,1320.27 800.972,1320.27 805.479,1320.27 809.987,1320.27 814.494,1320.27 819.002,1320.27 821.256,1320.27 823.509,1320.27 824.636,1320.27 825.763,1320.27 826.89,1320.27 828.017,1320.27 828.58,1320.27 829.144,1320.27 829.707,1320.27 830.271,1445.72 830.834,1445.72 831.398,1445.72 831.961,1445.72 832.524,1445.72 834.778,1445.72 837.032,1445.72 841.54,1445.72 846.047,1445.72 855.062,1445.72 864.077,1445.72 871.983,1445.72 879.888,1445.72 887.794,1445.72 895.699,1445.72 896.687,1445.72 897.675,1445.72 898.664,1445.72 899.652,1445.72 900.146,1445.72 900.64,1445.72 901.134,1445.72 901.628,961.522 902.122,961.522 902.616,961.522 903.11,961.522 903.604,961.522 905.581,961.522 907.557,961.522 909.533,961.522 911.51,961.522 919.415,961.522 927.321,961.522 944.559,961.522 961.797,961.522 970.416,961.522 979.035,961.522 983.344,961.522 987.654,961.522 988.731,961.522 989.809,961.522 990.347,961.522 990.886,961.522 991.425,961.522 991.963,961.522 992.502,961.522 993.041,297.883 993.579,297.883 994.118,297.883 995.195,297.883 996.273,297.883 1000.61,297.883 1004.94,297.883 1009.28,297.883 1013.61,297.883 1022.28,297.883 1030.95,297.883 1048.29,297.883 1065.63,297.883 1084.81,297.883 1103.98,297.883 1123.15,297.883 1142.32,297.883 1151.44,297.883 1160.57,297.883 1165.13,297.883 1169.69,297.883 1171.97,297.883 1174.25,297.883 1174.82,297.883 1175.39,297.883 1175.96,297.883 1176.53,297.883 1177.1,297.883 1177.67,1340.79 1178.24,1340.79 1178.81,1340.79 1179.95,1340.79 1181.09,1340.79 1182.23,1340.79 1183.37,1340.79 1185.65,1340.79 1187.93,1340.79 1190.21,1340.79 1192.49,1340.79 1193.63,1340.79 1194.77,1340.79 1195.91,1340.79 1197.05,1340.79 1197.62,1340.79 1198.19,1340.79 1198.76,1340.79 1199.33,451.434 1199.9,451.434 1200.47,451.434 1201.04,451.434 1201.61,451.434 1203.89,451.434 1206.17,451.434 1210.73,451.434 1215.29,451.434 1217.66,451.434 1220.03,451.434 1221.22,451.434 1222.4,451.434 1223,451.434 1223.59,451.434 1224.18,451.434 1224.77,451.434 1225.37,451.434 1225.96,500.878 1226.55,500.878 1227.15,500.878 1228.33,500.878 1229.52,500.878 1231.89,500.878 1234.26,500.878 1239,500.878 1243.74,500.878 1248.48,500.878 1253.23,500.878 1272.19,500.878 1291.16,500.878 1323.09,500.878 1355.03,500.878 1359.9,500.878 1364.77,500.878 1367.21,500.878 1369.65,500.878 1370.25,500.878 1370.86,500.878 1371.47,500.878 1372.08,500.878 1372.69,500.878 1373.3,87.9763 1373.91,87.9763 1374.52,87.9763 1375.74,87.9763 1376.96,87.9763 1378.17,87.9763 1379.39,87.9763 1381.83,87.9763 1384.27,87.9763 1389.14,87.9763 1394.01,87.9763 1396.45,87.9763 1398.88,87.9763 1399.49,87.9763 1400.1,87.9763 1400.71,87.9763 1401.32,87.9763 1401.93,87.9763 1402.54,450.251 1403.15,450.251 1403.76,450.251 1404.98,450.251 1406.19,450.251 1406.8,450.251 1407.41,450.251 1408.02,450.251 1408.63,450.251 1409.24,1188.59 1409.85,1188.59 1410.46,1188.59 1411.07,1188.59 1412.29,1188.59 1413.5,1188.59 1415.94,1188.59 1418.38,1188.59 1420.81,1188.59 1423.25,1188.59 1428.12,1188.59 1433,1188.59 1441.93,1188.59 1450.85,1188.59 1459.78,1188.59 1468.71,1188.59 1473.18,1188.59 1477.64,1188.59 1478.76,1188.59 1479.87,1188.59 1480.99,1188.59 1482.1,1188.59 1482.66,1188.59 1483.22,1188.59 1483.78,1188.59 1484.34,120.854 1484.89,120.854 1485.45,120.854 1486.01,120.854 1486.57,120.854 1488.8,120.854 1491.03,120.854 1493.27,120.854 1495.5,120.854 1499.96,120.854 1504.43,120.854 1520.92,120.854 1537.41,120.854 1553.9,120.854 1570.39,120.854 1603.81,120.854 1637.22,120.854 1646.58,120.854 1655.94,120.854 1665.3,120.854 1674.67,120.854 1677.01,120.854 1679.35,120.854 1679.93,120.854 1680.52,120.854 1681.1,120.854 1681.69,120.854 1682.27,120.854 1682.86,739.227 1683.44,739.227 1684.03,739.227 1685.2,739.227 1686.37,739.227 1687.54,739.227 1688.71,739.227 1691.05,739.227 1693.39,739.227 1702.75,739.227 1712.11,739.227 1746.04,739.227 1779.98,739.227 1857.67,739.227 1929.62,737.27 1947.35,737.27 1965.08,737.27 1982.81,737.27 2000.55,737.27 2002.7,737.27 2004.85,737.27 2005.93,737.27 2007,737.27 2008.08,737.27 2009.15,737.27 2009.69,737.27 2010.23,737.27 2010.77,737.27 2011.31,399.256 2011.84,399.256 2012.38,399.256 2012.92,399.256 2013.46,399.256 2015.61,399.256 2017.76,399.256 2022.07,399.256 2026.37,399.256 2030.67,399.256 2034.98,399.256 2043.59,399.256 2052.19,399.256 2056.5,399.256 2060.8,399.256 2062.95,399.256 2065.11,399.256 2067.26,399.256 2069.41,399.256 2071.62,399.256 2073.82,399.256 2074.92,399.256 2076.03,399.256 2076.58,399.256 2077.13,399.256 2077.68,1415.6 2078.23,1415.6 2078.79,1415.6 2079.34,1415.6 2079.89,1415.6 2080.44,1415.6 2081.54,1415.6 2082.65,1415.6 2084.85,1415.6 2087.06,1415.6 2091.47,1415.6 2095.88,1415.6 2098.09,1415.6 2100.29,1415.6 2100.85,1415.6 2101.4,1415.6 2101.95,1415.6 2102.5,1415.6 2103.05,1415.6 2103.6,173.492 2104.16,173.492 2104.71,173.492 2105.81,173.492 2106.91,173.492 2108.02,173.492 2109.12,173.492 2111.33,173.492 2113.53,173.492 2117.94,173.492 2122.36,173.492 2131.18,173.492 2140,173.492 2178.68,173.492 2217.35,173.492 2273.53,173.492 2329.71,173.492 2341.23,173.492 2352.76,173.492 "/>
<path clip-path="url(#clip600)" d="M290.963 1438.47 L556.682 1438.47 L556.682 1334.79 L290.963 1334.79  Z" fill="#ffffff" fill-rule="evenodd" fill-opacity="1"/>
<polyline clip-path="url(#clip600)" style="stroke:#000000; stroke-linecap:round; stroke-linejoin:round; stroke-width:4; stroke-opacity:1; fill:none" points="290.963,1438.47 556.682,1438.47 556.682,1334.79 290.963,1334.79 290.963,1438.47 "/>
<polyline clip-path="url(#clip600)" style="stroke:#009af9; stroke-linecap:round; stroke-linejoin:round; stroke-width:4; stroke-opacity:1; fill:none" points="314.661,1386.63 456.854,1386.63 "/>
<path clip-path="url(#clip600)" d="M494.395 1406.32 Q492.59 1410.95 490.877 1412.36 Q489.164 1413.78 486.293 1413.78 L482.891 1413.78 L482.891 1410.21 L485.391 1410.21 Q487.15 1410.21 488.122 1409.38 Q489.094 1408.54 490.275 1405.44 L491.039 1403.5 L480.553 1377.99 L485.067 1377.99 L493.168 1398.27 L501.27 1377.99 L505.784 1377.99 L494.395 1406.32 Z" fill="#000000" fill-rule="nonzero" fill-opacity="1" /><path clip-path="url(#clip600)" d="M513.076 1399.98 L520.715 1399.98 L520.715 1373.61 L512.404 1375.28 L512.404 1371.02 L520.668 1369.35 L525.344 1369.35 L525.344 1399.98 L532.983 1399.98 L532.983 1403.91 L513.076 1403.91 L513.076 1399.98 Z" fill="#000000" fill-rule="nonzero" fill-opacity="1" /></svg>
