<?xml version="1.0" encoding="utf-8"?>
<svg xmlns="http://www.w3.org/2000/svg" xmlns:xlink="http://www.w3.org/1999/xlink" width="600" height="400" viewBox="0 0 2400 1600">
<defs>
  <clipPath id="clip660">
    <rect x="0" y="0" width="2400" height="1600"/>
  </clipPath>
</defs>
<path clip-path="url(#clip660)" d="M0 1600 L2400 1600 L2400 0 L0 0  Z" fill="#ffffff" fill-rule="evenodd" fill-opacity="1"/>
<defs>
  <clipPath id="clip661">
    <rect x="480" y="0" width="1681" height="1600"/>
  </clipPath>
</defs>
<path clip-path="url(#clip660)" d="M219.866 1486.45 L2352.76 1486.45 L2352.76 47.2441 L219.866 47.2441  Z" fill="#ffffff" fill-rule="evenodd" fill-opacity="1"/>
<defs>
  <clipPath id="clip662">
    <rect x="219" y="47" width="2134" height="1440"/>
  </clipPath>
</defs>
<polyline clip-path="url(#clip662)" style="stroke:#000000; stroke-linecap:round; stroke-linejoin:round; stroke-width:2; stroke-opacity:0.1; fill:none" points="219.866,1486.45 219.866,47.2441 "/>
<polyline clip-path="url(#clip662)" style="stroke:#000000; stroke-linecap:round; stroke-linejoin:round; stroke-width:2; stroke-opacity:0.1; fill:none" points="646.444,1486.45 646.444,47.2441 "/>
<polyline clip-path="url(#clip662)" style="stroke:#000000; stroke-linecap:round; stroke-linejoin:round; stroke-width:2; stroke-opacity:0.1; fill:none" points="1073.02,1486.45 1073.02,47.2441 "/>
<polyline clip-path="url(#clip662)" style="stroke:#000000; stroke-linecap:round; stroke-linejoin:round; stroke-width:2; stroke-opacity:0.1; fill:none" points="1499.6,1486.45 1499.6,47.2441 "/>
<polyline clip-path="url(#clip662)" style="stroke:#000000; stroke-linecap:round; stroke-linejoin:round; stroke-width:2; stroke-opacity:0.1; fill:none" points="1926.18,1486.45 1926.18,47.2441 "/>
<polyline clip-path="url(#clip662)" style="stroke:#000000; stroke-linecap:round; stroke-linejoin:round; stroke-width:2; stroke-opacity:0.1; fill:none" points="2352.76,1486.45 2352.76,47.2441 "/>
<polyline clip-path="url(#clip660)" style="stroke:#000000; stroke-linecap:round; stroke-linejoin:round; stroke-width:4; stroke-opacity:1; fill:none" points="219.866,1486.45 2352.76,1486.45 "/>
<polyline clip-path="url(#clip660)" style="stroke:#000000; stroke-linecap:round; stroke-linejoin:round; stroke-width:4; stroke-opacity:1; fill:none" points="219.866,1486.45 219.866,1467.55 "/>
<polyline clip-path="url(#clip660)" style="stroke:#000000; stroke-linecap:round; stroke-linejoin:round; stroke-width:4; stroke-opacity:1; fill:none" points="646.444,1486.45 646.444,1467.55 "/>
<polyline clip-path="url(#clip660)" style="stroke:#000000; stroke-linecap:round; stroke-linejoin:round; stroke-width:4; stroke-opacity:1; fill:none" points="1073.02,1486.45 1073.02,1467.55 "/>
<polyline clip-path="url(#clip660)" style="stroke:#000000; stroke-linecap:round; stroke-linejoin:round; stroke-width:4; stroke-opacity:1; fill:none" points="1499.6,1486.45 1499.6,1467.55 "/>
<polyline clip-path="url(#clip660)" style="stroke:#000000; stroke-linecap:round; stroke-linejoin:round; stroke-width:4; stroke-opacity:1; fill:none" points="1926.18,1486.45 1926.18,1467.55 "/>
<polyline clip-path="url(#clip660)" style="stroke:#000000; stroke-linecap:round; stroke-linejoin:round; stroke-width:4; stroke-opacity:1; fill:none" points="2352.76,1486.45 2352.76,1467.55 "/>
<path clip-path="url(#clip660)" d="M219.866 1517.37 Q216.255 1517.37 214.426 1520.93 Q212.621 1524.47 212.621 1531.6 Q212.621 1538.71 214.426 1542.27 Q216.255 1545.82 219.866 1545.82 Q223.501 1545.82 225.306 1542.27 Q227.135 1538.71 227.135 1531.6 Q227.135 1524.47 225.306 1520.93 Q223.501 1517.37 219.866 1517.37 M219.866 1513.66 Q225.676 1513.66 228.732 1518.27 Q231.811 1522.85 231.811 1531.6 Q231.811 1540.33 228.732 1544.94 Q225.676 1549.52 219.866 1549.52 Q214.056 1549.52 210.977 1544.94 Q207.922 1540.33 207.922 1531.6 Q207.922 1522.85 210.977 1518.27 Q214.056 1513.66 219.866 1513.66 Z" fill="#000000" fill-rule="nonzero" fill-opacity="1" /><path clip-path="url(#clip660)" d="M636.826 1544.91 L644.465 1544.91 L644.465 1518.55 L636.155 1520.21 L636.155 1515.95 L644.419 1514.29 L649.095 1514.29 L649.095 1544.91 L656.733 1544.91 L656.733 1548.85 L636.826 1548.85 L636.826 1544.91 Z" fill="#000000" fill-rule="nonzero" fill-opacity="1" /><path clip-path="url(#clip660)" d="M1067.67 1544.91 L1083.99 1544.91 L1083.99 1548.85 L1062.05 1548.85 L1062.05 1544.91 Q1064.71 1542.16 1069.3 1537.53 Q1073.9 1532.88 1075.08 1531.53 Q1077.33 1529.01 1078.21 1527.27 Q1079.11 1525.51 1079.11 1523.82 Q1079.11 1521.07 1077.17 1519.33 Q1075.24 1517.6 1072.14 1517.6 Q1069.94 1517.6 1067.49 1518.36 Q1065.06 1519.13 1062.28 1520.68 L1062.28 1515.95 Q1065.11 1514.82 1067.56 1514.24 Q1070.01 1513.66 1072.05 1513.66 Q1077.42 1513.66 1080.61 1516.35 Q1083.81 1519.03 1083.81 1523.52 Q1083.81 1525.65 1083 1527.57 Q1082.21 1529.47 1080.11 1532.07 Q1079.53 1532.74 1076.42 1535.95 Q1073.32 1539.15 1067.67 1544.91 Z" fill="#000000" fill-rule="nonzero" fill-opacity="1" /><path clip-path="url(#clip660)" d="M1503.85 1530.21 Q1507.2 1530.93 1509.08 1533.2 Q1510.98 1535.47 1510.98 1538.8 Q1510.98 1543.92 1507.46 1546.72 Q1503.94 1549.52 1497.46 1549.52 Q1495.28 1549.52 1492.97 1549.08 Q1490.68 1548.66 1488.22 1547.81 L1488.22 1543.29 Q1490.17 1544.43 1492.48 1545.01 Q1494.8 1545.58 1497.32 1545.58 Q1501.72 1545.58 1504.01 1543.85 Q1506.32 1542.11 1506.32 1538.8 Q1506.32 1535.75 1504.17 1534.03 Q1502.04 1532.3 1498.22 1532.3 L1494.19 1532.3 L1494.19 1528.45 L1498.41 1528.45 Q1501.86 1528.45 1503.69 1527.09 Q1505.51 1525.7 1505.51 1523.11 Q1505.51 1520.45 1503.62 1519.03 Q1501.74 1517.6 1498.22 1517.6 Q1496.3 1517.6 1494.1 1518.01 Q1491.9 1518.43 1489.26 1519.31 L1489.26 1515.14 Q1491.93 1514.4 1494.24 1514.03 Q1496.58 1513.66 1498.64 1513.66 Q1503.96 1513.66 1507.07 1516.09 Q1510.17 1518.5 1510.17 1522.62 Q1510.17 1525.49 1508.52 1527.48 Q1506.88 1529.45 1503.85 1530.21 Z" fill="#000000" fill-rule="nonzero" fill-opacity="1" /><path clip-path="url(#clip660)" d="M1929.19 1518.36 L1917.38 1536.81 L1929.19 1536.81 L1929.19 1518.36 M1927.96 1514.29 L1933.84 1514.29 L1933.84 1536.81 L1938.77 1536.81 L1938.77 1540.7 L1933.84 1540.7 L1933.84 1548.85 L1929.19 1548.85 L1929.19 1540.7 L1913.59 1540.7 L1913.59 1536.19 L1927.96 1514.29 Z" fill="#000000" fill-rule="nonzero" fill-opacity="1" /><path clip-path="url(#clip660)" d="M2343.03 1514.29 L2361.39 1514.29 L2361.39 1518.22 L2347.32 1518.22 L2347.32 1526.7 Q2348.33 1526.35 2349.35 1526.19 Q2350.37 1526 2351.39 1526 Q2357.18 1526 2360.56 1529.17 Q2363.94 1532.34 2363.94 1537.76 Q2363.94 1543.34 2360.46 1546.44 Q2356.99 1549.52 2350.67 1549.52 Q2348.5 1549.52 2346.23 1549.15 Q2343.98 1548.78 2341.58 1548.04 L2341.58 1543.34 Q2343.66 1544.47 2345.88 1545.03 Q2348.1 1545.58 2350.58 1545.58 Q2354.58 1545.58 2356.92 1543.48 Q2359.26 1541.37 2359.26 1537.76 Q2359.26 1534.15 2356.92 1532.04 Q2354.58 1529.94 2350.58 1529.94 Q2348.71 1529.94 2346.83 1530.35 Q2344.98 1530.77 2343.03 1531.65 L2343.03 1514.29 Z" fill="#000000" fill-rule="nonzero" fill-opacity="1" /><polyline clip-path="url(#clip662)" style="stroke:#000000; stroke-linecap:round; stroke-linejoin:round; stroke-width:2; stroke-opacity:0.1; fill:none" points="219.866,1486.45 2352.76,1486.45 "/>
<polyline clip-path="url(#clip662)" style="stroke:#000000; stroke-linecap:round; stroke-linejoin:round; stroke-width:2; stroke-opacity:0.1; fill:none" points="219.866,1184.78 2352.76,1184.78 "/>
<polyline clip-path="url(#clip662)" style="stroke:#000000; stroke-linecap:round; stroke-linejoin:round; stroke-width:2; stroke-opacity:0.1; fill:none" points="219.866,883.109 2352.76,883.109 "/>
<polyline clip-path="url(#clip662)" style="stroke:#000000; stroke-linecap:round; stroke-linejoin:round; stroke-width:2; stroke-opacity:0.1; fill:none" points="219.866,581.439 2352.76,581.439 "/>
<polyline clip-path="url(#clip662)" style="stroke:#000000; stroke-linecap:round; stroke-linejoin:round; stroke-width:2; stroke-opacity:0.1; fill:none" points="219.866,279.77 2352.76,279.77 "/>
<polyline clip-path="url(#clip660)" style="stroke:#000000; stroke-linecap:round; stroke-linejoin:round; stroke-width:4; stroke-opacity:1; fill:none" points="219.866,1486.45 219.866,47.2441 "/>
<polyline clip-path="url(#clip660)" style="stroke:#000000; stroke-linecap:round; stroke-linejoin:round; stroke-width:4; stroke-opacity:1; fill:none" points="219.866,1486.45 238.764,1486.45 "/>
<polyline clip-path="url(#clip660)" style="stroke:#000000; stroke-linecap:round; stroke-linejoin:round; stroke-width:4; stroke-opacity:1; fill:none" points="219.866,1184.78 238.764,1184.78 "/>
<polyline clip-path="url(#clip660)" style="stroke:#000000; stroke-linecap:round; stroke-linejoin:round; stroke-width:4; stroke-opacity:1; fill:none" points="219.866,883.109 238.764,883.109 "/>
<polyline clip-path="url(#clip660)" style="stroke:#000000; stroke-linecap:round; stroke-linejoin:round; stroke-width:4; stroke-opacity:1; fill:none" points="219.866,581.439 238.764,581.439 "/>
<polyline clip-path="url(#clip660)" style="stroke:#000000; stroke-linecap:round; stroke-linejoin:round; stroke-width:4; stroke-opacity:1; fill:none" points="219.866,279.77 238.764,279.77 "/>
<path clip-path="url(#clip660)" d="M126.691 1472.25 Q123.08 1472.25 121.251 1475.81 Q119.445 1479.35 119.445 1486.48 Q119.445 1493.59 121.251 1497.15 Q123.08 1500.7 126.691 1500.7 Q130.325 1500.7 132.13 1497.15 Q133.959 1493.59 133.959 1486.48 Q133.959 1479.35 132.13 1475.81 Q130.325 1472.25 126.691 1472.25 M126.691 1468.54 Q132.501 1468.54 135.556 1473.15 Q138.635 1477.73 138.635 1486.48 Q138.635 1495.21 135.556 1499.82 Q132.501 1504.4 126.691 1504.4 Q120.88 1504.4 117.802 1499.82 Q114.746 1495.21 114.746 1486.48 Q114.746 1477.73 117.802 1473.15 Q120.88 1468.54 126.691 1468.54 Z" fill="#000000" fill-rule="nonzero" fill-opacity="1" /><path clip-path="url(#clip660)" d="M146.853 1497.85 L151.737 1497.85 L151.737 1503.73 L146.853 1503.73 L146.853 1497.85 Z" fill="#000000" fill-rule="nonzero" fill-opacity="1" /><path clip-path="url(#clip660)" d="M171.922 1472.25 Q168.311 1472.25 166.482 1475.81 Q164.677 1479.35 164.677 1486.48 Q164.677 1493.59 166.482 1497.15 Q168.311 1500.7 171.922 1500.7 Q175.556 1500.7 177.362 1497.15 Q179.19 1493.59 179.19 1486.48 Q179.19 1479.35 177.362 1475.81 Q175.556 1472.25 171.922 1472.25 M171.922 1468.54 Q177.732 1468.54 180.788 1473.15 Q183.866 1477.73 183.866 1486.48 Q183.866 1495.21 180.788 1499.82 Q177.732 1504.4 171.922 1504.4 Q166.112 1504.4 163.033 1499.82 Q159.978 1495.21 159.978 1486.48 Q159.978 1477.73 163.033 1473.15 Q166.112 1468.54 171.922 1468.54 Z" fill="#000000" fill-rule="nonzero" fill-opacity="1" /><path clip-path="url(#clip660)" d="M128.288 1170.58 Q124.677 1170.58 122.848 1174.14 Q121.043 1177.68 121.043 1184.81 Q121.043 1191.92 122.848 1195.48 Q124.677 1199.03 128.288 1199.03 Q131.922 1199.03 133.728 1195.48 Q135.556 1191.92 135.556 1184.81 Q135.556 1177.68 133.728 1174.14 Q131.922 1170.58 128.288 1170.58 M128.288 1166.87 Q134.098 1166.87 137.154 1171.48 Q140.232 1176.06 140.232 1184.81 Q140.232 1193.54 137.154 1198.15 Q134.098 1202.73 128.288 1202.73 Q122.478 1202.73 119.399 1198.15 Q116.343 1193.54 116.343 1184.81 Q116.343 1176.06 119.399 1171.48 Q122.478 1166.87 128.288 1166.87 Z" fill="#000000" fill-rule="nonzero" fill-opacity="1" /><path clip-path="url(#clip660)" d="M148.45 1196.18 L153.334 1196.18 L153.334 1202.06 L148.45 1202.06 L148.45 1196.18 Z" fill="#000000" fill-rule="nonzero" fill-opacity="1" /><path clip-path="url(#clip660)" d="M167.547 1198.12 L183.866 1198.12 L183.866 1202.06 L161.922 1202.06 L161.922 1198.12 Q164.584 1195.37 169.167 1190.74 Q173.774 1186.09 174.954 1184.74 Q177.2 1182.22 178.079 1180.48 Q178.982 1178.73 178.982 1177.04 Q178.982 1174.28 177.038 1172.54 Q175.116 1170.81 172.014 1170.81 Q169.815 1170.81 167.362 1171.57 Q164.931 1172.34 162.153 1173.89 L162.153 1169.17 Q164.977 1168.03 167.431 1167.45 Q169.885 1166.87 171.922 1166.87 Q177.292 1166.87 180.487 1169.56 Q183.681 1172.24 183.681 1176.73 Q183.681 1178.86 182.871 1180.79 Q182.084 1182.68 179.977 1185.28 Q179.399 1185.95 176.297 1189.16 Q173.195 1192.36 167.547 1198.12 Z" fill="#000000" fill-rule="nonzero" fill-opacity="1" /><path clip-path="url(#clip660)" d="M126.205 868.908 Q122.593 868.908 120.765 872.472 Q118.959 876.014 118.959 883.144 Q118.959 890.25 120.765 893.815 Q122.593 897.356 126.205 897.356 Q129.839 897.356 131.644 893.815 Q133.473 890.25 133.473 883.144 Q133.473 876.014 131.644 872.472 Q129.839 868.908 126.205 868.908 M126.205 865.204 Q132.015 865.204 135.07 869.81 Q138.149 874.394 138.149 883.144 Q138.149 891.87 135.07 896.477 Q132.015 901.06 126.205 901.06 Q120.394 901.06 117.316 896.477 Q114.26 891.87 114.26 883.144 Q114.26 874.394 117.316 869.81 Q120.394 865.204 126.205 865.204 Z" fill="#000000" fill-rule="nonzero" fill-opacity="1" /><path clip-path="url(#clip660)" d="M146.366 894.509 L151.251 894.509 L151.251 900.389 L146.366 900.389 L146.366 894.509 Z" fill="#000000" fill-rule="nonzero" fill-opacity="1" /><path clip-path="url(#clip660)" d="M174.283 869.903 L162.477 888.352 L174.283 888.352 L174.283 869.903 M173.056 865.829 L178.936 865.829 L178.936 888.352 L183.866 888.352 L183.866 892.241 L178.936 892.241 L178.936 900.389 L174.283 900.389 L174.283 892.241 L158.681 892.241 L158.681 887.727 L173.056 865.829 Z" fill="#000000" fill-rule="nonzero" fill-opacity="1" /><path clip-path="url(#clip660)" d="M126.529 567.238 Q122.918 567.238 121.089 570.803 Q119.283 574.344 119.283 581.474 Q119.283 588.581 121.089 592.145 Q122.918 595.687 126.529 595.687 Q130.163 595.687 131.968 592.145 Q133.797 588.581 133.797 581.474 Q133.797 574.344 131.968 570.803 Q130.163 567.238 126.529 567.238 M126.529 563.534 Q132.339 563.534 135.394 568.141 Q138.473 572.724 138.473 581.474 Q138.473 590.201 135.394 594.807 Q132.339 599.391 126.529 599.391 Q120.718 599.391 117.64 594.807 Q114.584 590.201 114.584 581.474 Q114.584 572.724 117.64 568.141 Q120.718 563.534 126.529 563.534 Z" fill="#000000" fill-rule="nonzero" fill-opacity="1" /><path clip-path="url(#clip660)" d="M146.691 592.84 L151.575 592.84 L151.575 598.719 L146.691 598.719 L146.691 592.84 Z" fill="#000000" fill-rule="nonzero" fill-opacity="1" /><path clip-path="url(#clip660)" d="M172.339 579.576 Q169.19 579.576 167.339 581.729 Q165.51 583.881 165.51 587.631 Q165.51 591.358 167.339 593.534 Q169.19 595.687 172.339 595.687 Q175.487 595.687 177.315 593.534 Q179.167 591.358 179.167 587.631 Q179.167 583.881 177.315 581.729 Q175.487 579.576 172.339 579.576 M181.621 564.923 L181.621 569.182 Q179.862 568.349 178.056 567.909 Q176.274 567.47 174.514 567.47 Q169.885 567.47 167.431 570.594 Q165.001 573.719 164.653 580.039 Q166.019 578.025 168.079 576.96 Q170.139 575.872 172.616 575.872 Q177.825 575.872 180.834 579.044 Q183.866 582.192 183.866 587.631 Q183.866 592.955 180.718 596.173 Q177.57 599.391 172.339 599.391 Q166.343 599.391 163.172 594.807 Q160.001 590.201 160.001 581.474 Q160.001 573.28 163.89 568.419 Q167.778 563.534 174.329 563.534 Q176.089 563.534 177.871 563.882 Q179.676 564.229 181.621 564.923 Z" fill="#000000" fill-rule="nonzero" fill-opacity="1" /><path clip-path="url(#clip660)" d="M126.783 265.569 Q123.172 265.569 121.343 269.133 Q119.538 272.675 119.538 279.805 Q119.538 286.911 121.343 290.476 Q123.172 294.017 126.783 294.017 Q130.417 294.017 132.223 290.476 Q134.052 286.911 134.052 279.805 Q134.052 272.675 132.223 269.133 Q130.417 265.569 126.783 265.569 M126.783 261.865 Q132.593 261.865 135.649 266.471 Q138.728 271.055 138.728 279.805 Q138.728 288.531 135.649 293.138 Q132.593 297.721 126.783 297.721 Q120.973 297.721 117.894 293.138 Q114.839 288.531 114.839 279.805 Q114.839 271.055 117.894 266.471 Q120.973 261.865 126.783 261.865 Z" fill="#000000" fill-rule="nonzero" fill-opacity="1" /><path clip-path="url(#clip660)" d="M146.945 291.17 L151.829 291.17 L151.829 297.05 L146.945 297.05 L146.945 291.17 Z" fill="#000000" fill-rule="nonzero" fill-opacity="1" /><path clip-path="url(#clip660)" d="M172.014 280.638 Q168.681 280.638 166.76 282.42 Q164.862 284.203 164.862 287.328 Q164.862 290.453 166.76 292.235 Q168.681 294.017 172.014 294.017 Q175.348 294.017 177.269 292.235 Q179.19 290.43 179.19 287.328 Q179.19 284.203 177.269 282.42 Q175.371 280.638 172.014 280.638 M167.339 278.647 Q164.329 277.906 162.64 275.846 Q160.973 273.786 160.973 270.823 Q160.973 266.68 163.913 264.272 Q166.876 261.865 172.014 261.865 Q177.176 261.865 180.116 264.272 Q183.056 266.68 183.056 270.823 Q183.056 273.786 181.366 275.846 Q179.7 277.906 176.714 278.647 Q180.093 279.434 181.968 281.726 Q183.866 284.018 183.866 287.328 Q183.866 292.351 180.788 295.036 Q177.732 297.721 172.014 297.721 Q166.297 297.721 163.218 295.036 Q160.163 292.351 160.163 287.328 Q160.163 284.018 162.061 281.726 Q163.959 279.434 167.339 278.647 M165.626 271.263 Q165.626 273.948 167.292 275.453 Q168.982 276.957 172.014 276.957 Q175.024 276.957 176.714 275.453 Q178.426 273.948 178.426 271.263 Q178.426 268.578 176.714 267.073 Q175.024 265.569 172.014 265.569 Q168.982 265.569 167.292 267.073 Q165.626 268.578 165.626 271.263 Z" fill="#000000" fill-rule="nonzero" fill-opacity="1" /><path clip-path="url(#clip660)" d="M21.7677 880.156 L58.7206 880.156 L58.7206 872.389 Q58.7206 862.554 54.2646 858.003 Q49.8086 853.42 40.1964 853.42 Q30.6479 853.42 26.2237 858.003 Q21.7677 862.554 21.7677 872.389 L21.7677 880.156 M16.4842 886.585 L16.4842 873.376 Q16.4842 859.563 22.2451 853.101 Q27.9743 846.64 40.1964 846.64 Q52.4822 846.64 58.2432 853.133 Q64.0042 859.626 64.0042 873.376 L64.0042 886.585 L16.4842 886.585 Z" fill="#000000" fill-rule="nonzero" fill-opacity="1" /><path clip-path="url(#clip660)" d="M44.7161 806.154 L47.5806 806.154 L47.5806 833.081 Q53.6281 832.699 56.8109 829.453 Q59.9619 826.174 59.9619 820.35 Q59.9619 816.976 59.1344 813.825 Q58.3069 810.642 56.6518 807.523 L62.1899 807.523 Q63.5267 810.674 64.227 813.984 Q64.9272 817.294 64.9272 820.7 Q64.9272 829.23 59.9619 834.227 Q54.9967 839.192 46.5303 839.192 Q37.7774 839.192 32.6531 834.482 Q27.4968 829.739 27.4968 821.718 Q27.4968 814.525 32.1438 810.356 Q36.7589 806.154 44.7161 806.154 M42.9973 812.011 Q38.1912 812.074 35.3266 814.716 Q32.4621 817.326 32.4621 821.655 Q32.4621 826.556 35.2312 829.516 Q38.0002 832.445 43.0292 832.89 L42.9973 812.011 Z" fill="#000000" fill-rule="nonzero" fill-opacity="1" /><path clip-path="url(#clip660)" d="M42.4881 766.91 L64.0042 766.91 L64.0042 772.766 L42.679 772.766 Q37.6183 772.766 35.1038 774.739 Q32.5894 776.713 32.5894 780.66 Q32.5894 785.402 35.6131 788.139 Q38.6368 790.877 43.8567 790.877 L64.0042 790.877 L64.0042 796.765 L28.3562 796.765 L28.3562 790.877 L33.8944 790.877 Q30.6797 788.776 29.0883 785.943 Q27.4968 783.079 27.4968 779.355 Q27.4968 773.212 31.3163 770.061 Q35.1038 766.91 42.4881 766.91 Z" fill="#000000" fill-rule="nonzero" fill-opacity="1" /><path clip-path="url(#clip660)" d="M29.4065 732.503 L34.9447 732.503 Q33.6716 734.986 33.035 737.659 Q32.3984 740.333 32.3984 743.197 Q32.3984 747.558 33.7352 749.754 Q35.072 751.918 37.7456 751.918 Q39.7826 751.918 40.9603 750.359 Q42.1061 748.799 43.1565 744.089 L43.6021 742.083 Q44.9389 735.845 47.3897 733.235 Q49.8086 730.593 54.1691 730.593 Q59.1344 730.593 62.0308 734.54 Q64.9272 738.455 64.9272 745.33 Q64.9272 748.194 64.3543 751.314 Q63.8132 754.401 62.6992 757.839 L56.6518 757.839 Q58.3387 754.592 59.198 751.441 Q60.0256 748.29 60.0256 745.203 Q60.0256 741.065 58.6251 738.837 Q57.1929 736.609 54.6147 736.609 Q52.2276 736.609 50.9545 738.232 Q49.6813 739.824 48.5037 745.266 L48.0262 747.303 Q46.8804 752.746 44.5251 755.165 Q42.138 757.584 38.0002 757.584 Q32.9713 757.584 30.2341 754.019 Q27.4968 750.454 27.4968 743.898 Q27.4968 740.651 27.9743 737.787 Q28.4517 734.922 29.4065 732.503 Z" fill="#000000" fill-rule="nonzero" fill-opacity="1" /><path clip-path="url(#clip660)" d="M28.3562 721.268 L28.3562 715.411 L64.0042 715.411 L64.0042 721.268 L28.3562 721.268 M14.479 721.268 L14.479 715.411 L21.895 715.411 L21.895 721.268 L14.479 721.268 Z" fill="#000000" fill-rule="nonzero" fill-opacity="1" /><path clip-path="url(#clip660)" d="M18.2347 697.364 L28.3562 697.364 L28.3562 685.301 L32.9077 685.301 L32.9077 697.364 L52.2594 697.364 Q56.6199 697.364 57.8613 696.187 Q59.1026 694.977 59.1026 691.317 L59.1026 685.301 L64.0042 685.301 L64.0042 691.317 Q64.0042 698.096 61.4897 700.674 Q58.9434 703.253 52.2594 703.253 L32.9077 703.253 L32.9077 707.549 L28.3562 707.549 L28.3562 703.253 L18.2347 703.253 L18.2347 697.364 Z" fill="#000000" fill-rule="nonzero" fill-opacity="1" /><path clip-path="url(#clip660)" d="M67.3143 662.767 Q73.68 665.249 75.6216 667.605 Q77.5631 669.96 77.5631 673.907 L77.5631 678.585 L72.6615 678.585 L72.6615 675.148 Q72.6615 672.729 71.5157 671.392 Q70.3699 670.055 66.1048 668.432 L63.4312 667.382 L28.3562 681.8 L28.3562 675.594 L56.238 664.454 L28.3562 653.314 L28.3562 647.107 L67.3143 662.767 Z" fill="#000000" fill-rule="nonzero" fill-opacity="1" /><path clip-path="url(#clip662)" d="M219.866 128.457 L219.866 1486.45 L293.414 1486.45 L293.414 128.457 L219.866 128.457 L219.866 128.457  Z" fill="#009af9" fill-rule="evenodd" fill-opacity="1"/>
<polyline clip-path="url(#clip662)" style="stroke:#000000; stroke-linecap:round; stroke-linejoin:round; stroke-width:4; stroke-opacity:1; fill:none" points="219.866,128.457 219.866,1486.45 293.414,1486.45 293.414,128.457 219.866,128.457 "/>
<path clip-path="url(#clip662)" d="M293.414 368.646 L293.414 1486.45 L366.962 1486.45 L366.962 368.646 L293.414 368.646 L293.414 368.646  Z" fill="#009af9" fill-rule="evenodd" fill-opacity="1"/>
<polyline clip-path="url(#clip662)" style="stroke:#000000; stroke-linecap:round; stroke-linejoin:round; stroke-width:4; stroke-opacity:1; fill:none" points="293.414,368.646 293.414,1486.45 366.962,1486.45 366.962,368.646 293.414,368.646 "/>
<path clip-path="url(#clip662)" d="M366.962 765.881 L366.962 1486.45 L440.51 1486.45 L440.51 765.881 L366.962 765.881 L366.962 765.881  Z" fill="#009af9" fill-rule="evenodd" fill-opacity="1"/>
<polyline clip-path="url(#clip662)" style="stroke:#000000; stroke-linecap:round; stroke-linejoin:round; stroke-width:4; stroke-opacity:1; fill:none" points="366.962,765.881 366.962,1486.45 440.51,1486.45 440.51,765.881 366.962,765.881 "/>
<path clip-path="url(#clip662)" d="M440.51 738.167 L440.51 1486.45 L514.058 1486.45 L514.058 738.167 L440.51 738.167 L440.51 738.167  Z" fill="#009af9" fill-rule="evenodd" fill-opacity="1"/>
<polyline clip-path="url(#clip662)" style="stroke:#000000; stroke-linecap:round; stroke-linejoin:round; stroke-width:4; stroke-opacity:1; fill:none" points="440.51,738.167 440.51,1486.45 514.058,1486.45 514.058,738.167 440.51,738.167 "/>
<path clip-path="url(#clip662)" d="M514.058 793.596 L514.058 1486.45 L587.606 1486.45 L587.606 793.596 L514.058 793.596 L514.058 793.596  Z" fill="#009af9" fill-rule="evenodd" fill-opacity="1"/>
<polyline clip-path="url(#clip662)" style="stroke:#000000; stroke-linecap:round; stroke-linejoin:round; stroke-width:4; stroke-opacity:1; fill:none" points="514.058,793.596 514.058,1486.45 587.606,1486.45 587.606,793.596 514.058,793.596 "/>
<path clip-path="url(#clip662)" d="M587.606 867.5 L587.606 1486.45 L661.154 1486.45 L661.154 867.5 L587.606 867.5 L587.606 867.5  Z" fill="#009af9" fill-rule="evenodd" fill-opacity="1"/>
<polyline clip-path="url(#clip662)" style="stroke:#000000; stroke-linecap:round; stroke-linejoin:round; stroke-width:4; stroke-opacity:1; fill:none" points="587.606,867.5 587.606,1486.45 661.154,1486.45 661.154,867.5 587.606,867.5 "/>
<path clip-path="url(#clip662)" d="M661.154 867.5 L661.154 1486.45 L734.702 1486.45 L734.702 867.5 L661.154 867.5 L661.154 867.5  Z" fill="#009af9" fill-rule="evenodd" fill-opacity="1"/>
<polyline clip-path="url(#clip662)" style="stroke:#000000; stroke-linecap:round; stroke-linejoin:round; stroke-width:4; stroke-opacity:1; fill:none" points="661.154,867.5 661.154,1486.45 734.702,1486.45 734.702,867.5 661.154,867.5 "/>
<path clip-path="url(#clip662)" d="M734.702 1024.55 L734.702 1486.45 L808.25 1486.45 L808.25 1024.55 L734.702 1024.55 L734.702 1024.55  Z" fill="#009af9" fill-rule="evenodd" fill-opacity="1"/>
<polyline clip-path="url(#clip662)" style="stroke:#000000; stroke-linecap:round; stroke-linejoin:round; stroke-width:4; stroke-opacity:1; fill:none" points="734.702,1024.55 734.702,1486.45 808.25,1486.45 808.25,1024.55 734.702,1024.55 "/>
<path clip-path="url(#clip662)" d="M808.25 1292.45 L808.25 1486.45 L881.798 1486.45 L881.798 1292.45 L808.25 1292.45 L808.25 1292.45  Z" fill="#009af9" fill-rule="evenodd" fill-opacity="1"/>
<polyline clip-path="url(#clip662)" style="stroke:#000000; stroke-linecap:round; stroke-linejoin:round; stroke-width:4; stroke-opacity:1; fill:none" points="808.25,1292.45 808.25,1486.45 881.798,1486.45 881.798,1292.45 808.25,1292.45 "/>
<path clip-path="url(#clip662)" d="M881.798 1163.12 L881.798 1486.45 L955.345 1486.45 L955.345 1163.12 L881.798 1163.12 L881.798 1163.12  Z" fill="#009af9" fill-rule="evenodd" fill-opacity="1"/>
<polyline clip-path="url(#clip662)" style="stroke:#000000; stroke-linecap:round; stroke-linejoin:round; stroke-width:4; stroke-opacity:1; fill:none" points="881.798,1163.12 881.798,1486.45 955.345,1486.45 955.345,1163.12 881.798,1163.12 "/>
<path clip-path="url(#clip662)" d="M955.345 1218.54 L955.345 1486.45 L1028.89 1486.45 L1028.89 1218.54 L955.345 1218.54 L955.345 1218.54  Z" fill="#009af9" fill-rule="evenodd" fill-opacity="1"/>
<polyline clip-path="url(#clip662)" style="stroke:#000000; stroke-linecap:round; stroke-linejoin:round; stroke-width:4; stroke-opacity:1; fill:none" points="955.345,1218.54 955.345,1486.45 1028.89,1486.45 1028.89,1218.54 955.345,1218.54 "/>
<path clip-path="url(#clip662)" d="M1028.89 1237.02 L1028.89 1486.45 L1102.44 1486.45 L1102.44 1237.02 L1028.89 1237.02 L1028.89 1237.02  Z" fill="#009af9" fill-rule="evenodd" fill-opacity="1"/>
<polyline clip-path="url(#clip662)" style="stroke:#000000; stroke-linecap:round; stroke-linejoin:round; stroke-width:4; stroke-opacity:1; fill:none" points="1028.89,1237.02 1028.89,1486.45 1102.44,1486.45 1102.44,1237.02 1028.89,1237.02 "/>
<path clip-path="url(#clip662)" d="M1102.44 1421.78 L1102.44 1486.45 L1175.99 1486.45 L1175.99 1421.78 L1102.44 1421.78 L1102.44 1421.78  Z" fill="#009af9" fill-rule="evenodd" fill-opacity="1"/>
<polyline clip-path="url(#clip662)" style="stroke:#000000; stroke-linecap:round; stroke-linejoin:round; stroke-width:4; stroke-opacity:1; fill:none" points="1102.44,1421.78 1102.44,1486.45 1175.99,1486.45 1175.99,1421.78 1102.44,1421.78 "/>
<path clip-path="url(#clip662)" d="M1175.99 1458.73 L1175.99 1486.45 L1249.54 1486.45 L1249.54 1458.73 L1175.99 1458.73 L1175.99 1458.73  Z" fill="#009af9" fill-rule="evenodd" fill-opacity="1"/>
<polyline clip-path="url(#clip662)" style="stroke:#000000; stroke-linecap:round; stroke-linejoin:round; stroke-width:4; stroke-opacity:1; fill:none" points="1175.99,1458.73 1175.99,1486.45 1249.54,1486.45 1249.54,1458.73 1175.99,1458.73 "/>
<path clip-path="url(#clip662)" d="M1249.54 1431.02 L1249.54 1486.45 L1323.09 1486.45 L1323.09 1431.02 L1249.54 1431.02 L1249.54 1431.02  Z" fill="#009af9" fill-rule="evenodd" fill-opacity="1"/>
<polyline clip-path="url(#clip662)" style="stroke:#000000; stroke-linecap:round; stroke-linejoin:round; stroke-width:4; stroke-opacity:1; fill:none" points="1249.54,1431.02 1249.54,1486.45 1323.09,1486.45 1323.09,1431.02 1249.54,1431.02 "/>
<path clip-path="url(#clip662)" d="M1323.09 1449.5 L1323.09 1486.45 L1396.63 1486.45 L1396.63 1449.5 L1323.09 1449.5 L1323.09 1449.5  Z" fill="#009af9" fill-rule="evenodd" fill-opacity="1"/>
<polyline clip-path="url(#clip662)" style="stroke:#000000; stroke-linecap:round; stroke-linejoin:round; stroke-width:4; stroke-opacity:1; fill:none" points="1323.09,1449.5 1323.09,1486.45 1396.63,1486.45 1396.63,1449.5 1323.09,1449.5 "/>
<path clip-path="url(#clip662)" d="M1396.63 1449.5 L1396.63 1486.45 L1470.18 1486.45 L1470.18 1449.5 L1396.63 1449.5 L1396.63 1449.5  Z" fill="#009af9" fill-rule="evenodd" fill-opacity="1"/>
<polyline clip-path="url(#clip662)" style="stroke:#000000; stroke-linecap:round; stroke-linejoin:round; stroke-width:4; stroke-opacity:1; fill:none" points="1396.63,1449.5 1396.63,1486.45 1470.18,1486.45 1470.18,1449.5 1396.63,1449.5 "/>
<path clip-path="url(#clip662)" d="M1470.18 1467.97 L1470.18 1486.45 L1543.73 1486.45 L1543.73 1467.97 L1470.18 1467.97 L1470.18 1467.97  Z" fill="#009af9" fill-rule="evenodd" fill-opacity="1"/>
<polyline clip-path="url(#clip662)" style="stroke:#000000; stroke-linecap:round; stroke-linejoin:round; stroke-width:4; stroke-opacity:1; fill:none" points="1470.18,1467.97 1470.18,1486.45 1543.73,1486.45 1543.73,1467.97 1470.18,1467.97 "/>
<path clip-path="url(#clip662)" d="M1543.73 1431.02 L1543.73 1486.45 L1617.28 1486.45 L1617.28 1431.02 L1543.73 1431.02 L1543.73 1431.02  Z" fill="#009af9" fill-rule="evenodd" fill-opacity="1"/>
<polyline clip-path="url(#clip662)" style="stroke:#000000; stroke-linecap:round; stroke-linejoin:round; stroke-width:4; stroke-opacity:1; fill:none" points="1543.73,1431.02 1543.73,1486.45 1617.28,1486.45 1617.28,1431.02 1543.73,1431.02 "/>
<path clip-path="url(#clip662)" d="M1617.28 1329.4 L1617.28 1486.45 L1690.82 1486.45 L1690.82 1329.4 L1617.28 1329.4 L1617.28 1329.4  Z" fill="#009af9" fill-rule="evenodd" fill-opacity="1"/>
<polyline clip-path="url(#clip662)" style="stroke:#000000; stroke-linecap:round; stroke-linejoin:round; stroke-width:4; stroke-opacity:1; fill:none" points="1617.28,1329.4 1617.28,1486.45 1690.82,1486.45 1690.82,1329.4 1617.28,1329.4 "/>
<path clip-path="url(#clip662)" d="M1690.82 1394.07 L1690.82 1486.45 L1764.37 1486.45 L1764.37 1394.07 L1690.82 1394.07 L1690.82 1394.07  Z" fill="#009af9" fill-rule="evenodd" fill-opacity="1"/>
<polyline clip-path="url(#clip662)" style="stroke:#000000; stroke-linecap:round; stroke-linejoin:round; stroke-width:4; stroke-opacity:1; fill:none" points="1690.82,1394.07 1690.82,1486.45 1764.37,1486.45 1764.37,1394.07 1690.82,1394.07 "/>
<path clip-path="url(#clip662)" d="M1764.37 1301.69 L1764.37 1486.45 L1837.92 1486.45 L1837.92 1301.69 L1764.37 1301.69 L1764.37 1301.69  Z" fill="#009af9" fill-rule="evenodd" fill-opacity="1"/>
<polyline clip-path="url(#clip662)" style="stroke:#000000; stroke-linecap:round; stroke-linejoin:round; stroke-width:4; stroke-opacity:1; fill:none" points="1764.37,1301.69 1764.37,1486.45 1837.92,1486.45 1837.92,1301.69 1764.37,1301.69 "/>
<path clip-path="url(#clip662)" d="M1837.92 1394.07 L1837.92 1486.45 L1911.47 1486.45 L1911.47 1394.07 L1837.92 1394.07 L1837.92 1394.07  Z" fill="#009af9" fill-rule="evenodd" fill-opacity="1"/>
<polyline clip-path="url(#clip662)" style="stroke:#000000; stroke-linecap:round; stroke-linejoin:round; stroke-width:4; stroke-opacity:1; fill:none" points="1837.92,1394.07 1837.92,1486.45 1911.47,1486.45 1911.47,1394.07 1837.92,1394.07 "/>
<path clip-path="url(#clip662)" d="M1911.47 1338.64 L1911.47 1486.45 L1985.02 1486.45 L1985.02 1338.64 L1911.47 1338.64 L1911.47 1338.64  Z" fill="#009af9" fill-rule="evenodd" fill-opacity="1"/>
<polyline clip-path="url(#clip662)" style="stroke:#000000; stroke-linecap:round; stroke-linejoin:round; stroke-width:4; stroke-opacity:1; fill:none" points="1911.47,1338.64 1911.47,1486.45 1985.02,1486.45 1985.02,1338.64 1911.47,1338.64 "/>
<path clip-path="url(#clip662)" d="M1985.02 1338.64 L1985.02 1486.45 L2058.56 1486.45 L2058.56 1338.64 L1985.02 1338.64 L1985.02 1338.64  Z" fill="#009af9" fill-rule="evenodd" fill-opacity="1"/>
<polyline clip-path="url(#clip662)" style="stroke:#000000; stroke-linecap:round; stroke-linejoin:round; stroke-width:4; stroke-opacity:1; fill:none" points="1985.02,1338.64 1985.02,1486.45 2058.56,1486.45 2058.56,1338.64 1985.02,1338.64 "/>
<path clip-path="url(#clip662)" d="M2058.56 1403.31 L2058.56 1486.45 L2132.11 1486.45 L2132.11 1403.31 L2058.56 1403.31 L2058.56 1403.31  Z" fill="#009af9" fill-rule="evenodd" fill-opacity="1"/>
<polyline clip-path="url(#clip662)" style="stroke:#000000; stroke-linecap:round; stroke-linejoin:round; stroke-width:4; stroke-opacity:1; fill:none" points="2058.56,1403.31 2058.56,1486.45 2132.11,1486.45 2132.11,1403.31 2058.56,1403.31 "/>
<path clip-path="url(#clip662)" d="M2132.11 1467.97 L2132.11 1486.45 L2205.66 1486.45 L2205.66 1467.97 L2132.11 1467.97 L2132.11 1467.97  Z" fill="#009af9" fill-rule="evenodd" fill-opacity="1"/>
<polyline clip-path="url(#clip662)" style="stroke:#000000; stroke-linecap:round; stroke-linejoin:round; stroke-width:4; stroke-opacity:1; fill:none" points="2132.11,1467.97 2132.11,1486.45 2205.66,1486.45 2205.66,1467.97 2132.11,1467.97 "/>
<path clip-path="url(#clip662)" d="M2205.66 1431.02 L2205.66 1486.45 L2279.21 1486.45 L2279.21 1431.02 L2205.66 1431.02 L2205.66 1431.02  Z" fill="#009af9" fill-rule="evenodd" fill-opacity="1"/>
<polyline clip-path="url(#clip662)" style="stroke:#000000; stroke-linecap:round; stroke-linejoin:round; stroke-width:4; stroke-opacity:1; fill:none" points="2205.66,1431.02 2205.66,1486.45 2279.21,1486.45 2279.21,1431.02 2205.66,1431.02 "/>
<path clip-path="url(#clip662)" d="M2279.21 1384.83 L2279.21 1486.45 L2352.76 1486.45 L2352.76 1384.83 L2279.21 1384.83 L2279.21 1384.83  Z" fill="#009af9" fill-rule="evenodd" fill-opacity="1"/>
<polyline clip-path="url(#clip662)" style="stroke:#000000; stroke-linecap:round; stroke-linejoin:round; stroke-width:4; stroke-opacity:1; fill:none" points="2279.21,1384.83 2279.21,1486.45 2352.76,1486.45 2352.76,1384.83 2279.21,1384.83 "/>
<circle clip-path="url(#clip662)" style="fill:#009af9; stroke:none; fill-opacity:0" cx="256.64" cy="128.457" r="2"/>
<circle clip-path="url(#clip662)" style="fill:#009af9; stroke:none; fill-opacity:0" cx="330.188" cy="368.646" r="2"/>
<circle clip-path="url(#clip662)" style="fill:#009af9; stroke:none; fill-opacity:0" cx="403.736" cy="765.881" r="2"/>
<circle clip-path="url(#clip662)" style="fill:#009af9; stroke:none; fill-opacity:0" cx="477.284" cy="738.167" r="2"/>
<circle clip-path="url(#clip662)" style="fill:#009af9; stroke:none; fill-opacity:0" cx="550.832" cy="793.596" r="2"/>
<circle clip-path="url(#clip662)" style="fill:#009af9; stroke:none; fill-opacity:0" cx="624.38" cy="867.5" r="2"/>
<circle clip-path="url(#clip662)" style="fill:#009af9; stroke:none; fill-opacity:0" cx="697.928" cy="867.5" r="2"/>
<circle clip-path="url(#clip662)" style="fill:#009af9; stroke:none; fill-opacity:0" cx="771.476" cy="1024.55" r="2"/>
<circle clip-path="url(#clip662)" style="fill:#009af9; stroke:none; fill-opacity:0" cx="845.024" cy="1292.45" r="2"/>
<circle clip-path="url(#clip662)" style="fill:#009af9; stroke:none; fill-opacity:0" cx="918.571" cy="1163.12" r="2"/>
<circle clip-path="url(#clip662)" style="fill:#009af9; stroke:none; fill-opacity:0" cx="992.119" cy="1218.54" r="2"/>
<circle clip-path="url(#clip662)" style="fill:#009af9; stroke:none; fill-opacity:0" cx="1065.67" cy="1237.02" r="2"/>
<circle clip-path="url(#clip662)" style="fill:#009af9; stroke:none; fill-opacity:0" cx="1139.22" cy="1421.78" r="2"/>
<circle clip-path="url(#clip662)" style="fill:#009af9; stroke:none; fill-opacity:0" cx="1212.76" cy="1458.73" r="2"/>
<circle clip-path="url(#clip662)" style="fill:#009af9; stroke:none; fill-opacity:0" cx="1286.31" cy="1431.02" r="2"/>
<circle clip-path="url(#clip662)" style="fill:#009af9; stroke:none; fill-opacity:0" cx="1359.86" cy="1449.5" r="2"/>
<circle clip-path="url(#clip662)" style="fill:#009af9; stroke:none; fill-opacity:0" cx="1433.41" cy="1449.5" r="2"/>
<circle clip-path="url(#clip662)" style="fill:#009af9; stroke:none; fill-opacity:0" cx="1506.95" cy="1467.97" r="2"/>
<circle clip-path="url(#clip662)" style="fill:#009af9; stroke:none; fill-opacity:0" cx="1580.5" cy="1431.02" r="2"/>
<circle clip-path="url(#clip662)" style="fill:#009af9; stroke:none; fill-opacity:0" cx="1654.05" cy="1329.4" r="2"/>
<circle clip-path="url(#clip662)" style="fill:#009af9; stroke:none; fill-opacity:0" cx="1727.6" cy="1394.07" r="2"/>
<circle clip-path="url(#clip662)" style="fill:#009af9; stroke:none; fill-opacity:0" cx="1801.15" cy="1301.69" r="2"/>
<circle clip-path="url(#clip662)" style="fill:#009af9; stroke:none; fill-opacity:0" cx="1874.69" cy="1394.07" r="2"/>
<circle clip-path="url(#clip662)" style="fill:#009af9; stroke:none; fill-opacity:0" cx="1948.24" cy="1338.64" r="2"/>
<circle clip-path="url(#clip662)" style="fill:#009af9; stroke:none; fill-opacity:0" cx="2021.79" cy="1338.64" r="2"/>
<circle clip-path="url(#clip662)" style="fill:#009af9; stroke:none; fill-opacity:0" cx="2095.34" cy="1403.31" r="2"/>
<circle clip-path="url(#clip662)" style="fill:#009af9; stroke:none; fill-opacity:0" cx="2168.89" cy="1467.97" r="2"/>
<circle clip-path="url(#clip662)" style="fill:#009af9; stroke:none; fill-opacity:0" cx="2242.43" cy="1431.02" r="2"/>
<circle clip-path="url(#clip662)" style="fill:#009af9; stroke:none; fill-opacity:0" cx="2315.98" cy="1384.83" r="2"/>
<polyline clip-path="url(#clip662)" style="stroke:#e26f46; stroke-linecap:round; stroke-linejoin:round; stroke-width:4; stroke-opacity:1; fill:none" points="219.866,47.2441 223.338,58.3764 226.809,69.4226 230.281,80.3834 233.753,91.2594 249.802,140.458 265.852,187.922 281.902,233.712 297.952,277.887 314.002,320.505 330.052,361.62 346.101,401.285 362.151,439.551 371.796,461.895 381.442,483.762 391.087,505.163 400.732,526.107 420.023,566.663 439.313,605.506 455.623,637.066 471.933,667.494 488.243,696.832 504.553,725.12 522.27,754.701 539.987,783.132 557.705,810.459 575.422,836.724 583.589,848.485 591.755,860.033 595.839,865.729 599.922,871.372 601.964,874.175 604.006,876.965 604.516,877.66 605.027,878.355 605.537,879.049 606.047,879.742 606.558,949.184 607.068,949.728 607.579,950.271 608.089,950.813 609.11,951.896 610.131,952.977 611.152,954.056 612.172,955.133 614.214,957.28 616.256,959.418 620.339,963.668 624.423,967.884 632.59,976.214 640.756,984.411 675.779,1018.09 710.802,1049.52 731.091,1066.75 751.379,1083.3 761.524,1091.33 771.668,1099.19 776.74,1103.07 781.812,1106.91 786.884,1110.7 791.957,1114.47 793.083,1115.3 794.21,1116.12 794.774,1116.54 795.337,1116.95 795.901,1230.4 796.464,1230.6 797.028,1230.79 797.591,1230.99 798.154,1231.19 798.718,1231.39 799.845,1231.78 800.972,1232.18 805.479,1233.75 809.987,1235.31 819.002,1238.41 828.017,1241.46 846.047,1247.46 864.077,1253.32 895.699,1263.24 927.321,1272.74 996.273,1292.08 1065.63,1309.76 1075.22,1312.08 1084.81,1314.36 1094.39,1316.62 1103.98,1318.84 1106.38,1319.39 1108.77,1319.94 1109.97,1320.22 1111.17,1320.49 1111.77,1320.63 1112.37,1320.76 1112.97,1320.9 1113.57,1321.04 1114.16,1452.12 1114.76,1452.13 1115.36,1452.13 1115.96,1452.14 1117.16,1452.15 1118.36,1452.16 1120.75,1452.18 1123.15,1452.21 1127.94,1452.25 1132.74,1452.3 1137.53,1452.35 1142.32,1452.4 1160.57,1452.57 1178.81,1452.75 1197.05,1452.92 1215.29,1453.1 1291.16,1453.81 1355.03,1450.24 1374.52,1450.46 1394.01,1450.69 1403.76,1450.8 1413.5,1450.91 1418.38,1450.97 1423.25,1451.02 1428.12,1451.08 1433,1451.14 1435.23,1451.16 1437.46,1451.19 1438.02,1451.19 1438.58,1451.2 1439.14,1451.21 1439.69,1451.21 1440.25,1451.22 1440.81,1473.46 1441.37,1473.46 1441.93,1473.46 1443.04,1473.46 1444.16,1473.46 1445.27,1473.46 1446.39,1473.47 1448.62,1473.47 1450.85,1473.47 1459.78,1473.49 1468.71,1473.5 1486.57,1473.53 1504.43,1473.55 1520.92,1473.58 1537.41,1473.61 1553.9,1473.63 1570.39,1473.66 1574.57,1473.66 1578.75,1473.67 1579.79,1473.67 1580.84,1473.67 1581.36,1473.67 1581.88,1473.67 1582.4,1473.67 1582.92,1473.67 1583.45,1389.34 1583.97,1389.38 1584.49,1389.43 1585.01,1389.48 1586.06,1389.57 1587.1,1389.66 1589.19,1389.84 1591.28,1390.02 1593.37,1390.21 1595.45,1390.39 1599.63,1390.75 1603.81,1391.11 1620.51,1392.54 1637.22,1393.95 1674.67,1397.04 1712.11,1400.02 1729.08,1401.34 1746.04,1402.64 1750.28,1402.96 1754.53,1403.28 1756.65,1403.44 1758.77,1403.6 1760.89,1403.76 1763.01,1403.92 1763.54,1403.96 1764.07,1404 1764.6,1404.04 1765.13,1404.07 1765.66,1306.17 1766.19,1306.36 1766.72,1306.55 1767.25,1306.74 1768.31,1307.12 1769.37,1307.5 1770.43,1307.87 1771.49,1308.25 1775.73,1309.74 1779.98,1311.22 1799.4,1317.85 1818.83,1324.22 1838.25,1330.36 1857.67,1336.26 1893.65,1346.6 1929.62,1356.24 2000.55,1373.33 2069.41,1387.78 2087.06,1391.18 2104.71,1394.45 2113.53,1396.05 2122.36,1397.62 2124.56,1398.01 2126.77,1398.4 2128.97,1398.78 2131.18,1399.16 2132.28,1399.35 2133.39,1399.54 2133.94,1399.64 2134.49,1399.73 2135.04,1399.83 2135.59,1473.82 2136.14,1473.82 2136.7,1473.82 2137.25,1473.82 2137.8,1473.82 2138.9,1473.83 2140,1473.83 2144.84,1473.85 2149.67,1473.87 2154.51,1473.88 2159.34,1473.9 2164.17,1473.92 2169.01,1473.94 2171.43,1473.95 2173.84,1473.95 2175.05,1473.96 2176.26,1473.96 2176.86,1473.97 2177.47,1473.97 2178.07,1411.75 2178.68,1411.82 2179.28,1411.9 2179.89,1411.98 2180.49,1412.06 2181.09,1412.14 2182.3,1412.29 2183.51,1412.45 2185.93,1412.76 2188.35,1413.06 2193.18,1413.68 2198.01,1414.29 2207.68,1415.49 2217.35,1416.67 2273.53,1425.87 2329.71,1431.25 2341.23,1432.29 2352.76,1433.31 "/>
<path clip-path="url(#clip660)" d="M2015.94 250.738 L2281.66 250.738 L2281.66 95.2176 L2015.94 95.2176  Z" fill="#ffffff" fill-rule="evenodd" fill-opacity="1"/>
<polyline clip-path="url(#clip660)" style="stroke:#000000; stroke-linecap:round; stroke-linejoin:round; stroke-width:4; stroke-opacity:1; fill:none" points="2015.94,250.738 2281.66,250.738 2281.66,95.2176 2015.94,95.2176 2015.94,250.738 "/>
<path clip-path="url(#clip660)" d="M2039.64 167.794 L2181.83 167.794 L2181.83 126.322 L2039.64 126.322 L2039.64 167.794  Z" fill="#009af9" fill-rule="evenodd" fill-opacity="1"/>
<polyline clip-path="url(#clip660)" style="stroke:#000000; stroke-linecap:round; stroke-linejoin:round; stroke-width:4; stroke-opacity:1; fill:none" points="2039.64,167.794 2181.83,167.794 2181.83,126.322 2039.64,126.322 2039.64,167.794 "/>
<path clip-path="url(#clip660)" d="M2219.37 166.745 Q2217.57 171.375 2215.85 172.787 Q2214.14 174.199 2211.27 174.199 L2207.87 174.199 L2207.87 170.634 L2210.37 170.634 Q2212.13 170.634 2213.1 169.8 Q2214.07 168.967 2215.25 165.865 L2216.02 163.921 L2205.53 138.412 L2210.04 138.412 L2218.15 158.689 L2226.25 138.412 L2230.76 138.412 L2219.37 166.745 Z" fill="#000000" fill-rule="nonzero" fill-opacity="1" /><path clip-path="url(#clip660)" d="M2238.05 160.402 L2245.69 160.402 L2245.69 134.037 L2237.38 135.703 L2237.38 131.444 L2245.65 129.778 L2250.32 129.778 L2250.32 160.402 L2257.96 160.402 L2257.96 164.338 L2238.05 164.338 L2238.05 160.402 Z" fill="#000000" fill-rule="nonzero" fill-opacity="1" /><polyline clip-path="url(#clip660)" style="stroke:#e26f46; stroke-linecap:round; stroke-linejoin:round; stroke-width:4; stroke-opacity:1; fill:none" points="2039.64,198.898 2181.83,198.898 "/>
<path clip-path="url(#clip660)" d="M2219.37 218.585 Q2217.57 223.215 2215.85 224.627 Q2214.14 226.039 2211.27 226.039 L2207.87 226.039 L2207.87 222.474 L2210.37 222.474 Q2212.13 222.474 2213.1 221.64 Q2214.07 220.807 2215.25 217.705 L2216.02 215.761 L2205.53 190.252 L2210.04 190.252 L2218.15 210.529 L2226.25 190.252 L2230.76 190.252 L2219.37 218.585 Z" fill="#000000" fill-rule="nonzero" fill-opacity="1" /><path clip-path="url(#clip660)" d="M2241.27 212.242 L2257.59 212.242 L2257.59 216.178 L2235.65 216.178 L2235.65 212.242 Q2238.31 209.488 2242.89 204.858 Q2247.5 200.205 2248.68 198.863 Q2250.92 196.34 2251.8 194.604 Q2252.71 192.844 2252.71 191.155 Q2252.71 188.4 2250.76 186.664 Q2248.84 184.928 2245.74 184.928 Q2243.54 184.928 2241.09 185.692 Q2238.66 186.455 2235.88 188.006 L2235.88 183.284 Q2238.7 182.15 2241.16 181.571 Q2243.61 180.993 2245.65 180.993 Q2251.02 180.993 2254.21 183.678 Q2257.41 186.363 2257.41 190.854 Q2257.41 192.983 2256.6 194.905 Q2255.81 196.803 2253.7 199.395 Q2253.12 200.067 2250.02 203.284 Q2246.92 206.479 2241.27 212.242 Z" fill="#000000" fill-rule="nonzero" fill-opacity="1" /></svg>
