<?xml version="1.0" encoding="utf-8"?>
<svg xmlns="http://www.w3.org/2000/svg" xmlns:xlink="http://www.w3.org/1999/xlink" width="600" height="400" viewBox="0 0 2400 1600">
<defs>
  <clipPath id="clip240">
    <rect x="0" y="0" width="2400" height="1600"/>
  </clipPath>
</defs>
<path clip-path="url(#clip240)" d="M0 1600 L2400 1600 L2400 0 L0 0  Z" fill="#ffffff" fill-rule="evenodd" fill-opacity="1"/>
<defs>
  <clipPath id="clip241">
    <rect x="480" y="0" width="1681" height="1600"/>
  </clipPath>
</defs>
<path clip-path="url(#clip240)" d="M219.866 1486.45 L2352.76 1486.45 L2352.76 47.2441 L219.866 47.2441  Z" fill="#ffffff" fill-rule="evenodd" fill-opacity="1"/>
<defs>
  <clipPath id="clip242">
    <rect x="219" y="47" width="2134" height="1440"/>
  </clipPath>
</defs>
<polyline clip-path="url(#clip242)" style="stroke:#000000; stroke-linecap:round; stroke-linejoin:round; stroke-width:2; stroke-opacity:0.1; fill:none" points="219.866,1486.45 219.866,47.2441 "/>
<polyline clip-path="url(#clip242)" style="stroke:#000000; stroke-linecap:round; stroke-linejoin:round; stroke-width:2; stroke-opacity:0.1; fill:none" points="646.444,1486.45 646.444,47.2441 "/>
<polyline clip-path="url(#clip242)" style="stroke:#000000; stroke-linecap:round; stroke-linejoin:round; stroke-width:2; stroke-opacity:0.1; fill:none" points="1073.02,1486.45 1073.02,47.2441 "/>
<polyline clip-path="url(#clip242)" style="stroke:#000000; stroke-linecap:round; stroke-linejoin:round; stroke-width:2; stroke-opacity:0.1; fill:none" points="1499.6,1486.45 1499.6,47.2441 "/>
<polyline clip-path="url(#clip242)" style="stroke:#000000; stroke-linecap:round; stroke-linejoin:round; stroke-width:2; stroke-opacity:0.1; fill:none" points="1926.18,1486.45 1926.18,47.2441 "/>
<polyline clip-path="url(#clip242)" style="stroke:#000000; stroke-linecap:round; stroke-linejoin:round; stroke-width:2; stroke-opacity:0.1; fill:none" points="2352.76,1486.45 2352.76,47.2441 "/>
<polyline clip-path="url(#clip240)" style="stroke:#000000; stroke-linecap:round; stroke-linejoin:round; stroke-width:4; stroke-opacity:1; fill:none" points="219.866,1486.45 2352.76,1486.45 "/>
<polyline clip-path="url(#clip240)" style="stroke:#000000; stroke-linecap:round; stroke-linejoin:round; stroke-width:4; stroke-opacity:1; fill:none" points="219.866,1486.45 219.866,1467.55 "/>
<polyline clip-path="url(#clip240)" style="stroke:#000000; stroke-linecap:round; stroke-linejoin:round; stroke-width:4; stroke-opacity:1; fill:none" points="646.444,1486.45 646.444,1467.55 "/>
<polyline clip-path="url(#clip240)" style="stroke:#000000; stroke-linecap:round; stroke-linejoin:round; stroke-width:4; stroke-opacity:1; fill:none" points="1073.02,1486.45 1073.02,1467.55 "/>
<polyline clip-path="url(#clip240)" style="stroke:#000000; stroke-linecap:round; stroke-linejoin:round; stroke-width:4; stroke-opacity:1; fill:none" points="1499.6,1486.45 1499.6,1467.55 "/>
<polyline clip-path="url(#clip240)" style="stroke:#000000; stroke-linecap:round; stroke-linejoin:round; stroke-width:4; stroke-opacity:1; fill:none" points="1926.18,1486.45 1926.18,1467.55 "/>
<polyline clip-path="url(#clip240)" style="stroke:#000000; stroke-linecap:round; stroke-linejoin:round; stroke-width:4; stroke-opacity:1; fill:none" points="2352.76,1486.45 2352.76,1467.55 "/>
<path clip-path="url(#clip240)" d="M219.866 1517.37 Q216.255 1517.37 214.426 1520.93 Q212.621 1524.47 212.621 1531.6 Q212.621 1538.71 214.426 1542.27 Q216.255 1545.82 219.866 1545.82 Q223.501 1545.82 225.306 1542.27 Q227.135 1538.71 227.135 1531.6 Q227.135 1524.47 225.306 1520.93 Q223.501 1517.37 219.866 1517.37 M219.866 1513.66 Q225.676 1513.66 228.732 1518.27 Q231.811 1522.85 231.811 1531.6 Q231.811 1540.33 228.732 1544.94 Q225.676 1549.52 219.866 1549.52 Q214.056 1549.52 210.977 1544.94 Q207.922 1540.33 207.922 1531.6 Q207.922 1522.85 210.977 1518.27 Q214.056 1513.66 219.866 1513.66 Z" fill="#000000" fill-rule="nonzero" fill-opacity="1" /><path clip-path="url(#clip240)" d="M641.097 1544.91 L657.416 1544.91 L657.416 1548.85 L635.472 1548.85 L635.472 1544.91 Q638.134 1542.16 642.717 1537.53 Q647.324 1532.88 648.504 1531.53 Q650.75 1529.01 651.629 1527.27 Q652.532 1525.51 652.532 1523.82 Q652.532 1521.07 650.588 1519.33 Q648.666 1517.6 645.565 1517.6 Q643.366 1517.6 640.912 1518.36 Q638.481 1519.13 635.704 1520.68 L635.704 1515.95 Q638.528 1514.82 640.981 1514.24 Q643.435 1513.66 645.472 1513.66 Q650.842 1513.66 654.037 1516.35 Q657.231 1519.03 657.231 1523.52 Q657.231 1525.65 656.421 1527.57 Q655.634 1529.47 653.527 1532.07 Q652.949 1532.74 649.847 1535.95 Q646.745 1539.15 641.097 1544.91 Z" fill="#000000" fill-rule="nonzero" fill-opacity="1" /><path clip-path="url(#clip240)" d="M1076.03 1518.36 L1064.23 1536.81 L1076.03 1536.81 L1076.03 1518.36 M1074.8 1514.29 L1080.68 1514.29 L1080.68 1536.81 L1085.61 1536.81 L1085.61 1540.7 L1080.68 1540.7 L1080.68 1548.85 L1076.03 1548.85 L1076.03 1540.7 L1060.43 1540.7 L1060.43 1536.19 L1074.8 1514.29 Z" fill="#000000" fill-rule="nonzero" fill-opacity="1" /><path clip-path="url(#clip240)" d="M1500.01 1529.7 Q1496.86 1529.7 1495.01 1531.86 Q1493.18 1534.01 1493.18 1537.76 Q1493.18 1541.49 1495.01 1543.66 Q1496.86 1545.82 1500.01 1545.82 Q1503.15 1545.82 1504.98 1543.66 Q1506.83 1541.49 1506.83 1537.76 Q1506.83 1534.01 1504.98 1531.86 Q1503.15 1529.7 1500.01 1529.7 M1509.29 1515.05 L1509.29 1519.31 Q1507.53 1518.48 1505.72 1518.04 Q1503.94 1517.6 1502.18 1517.6 Q1497.55 1517.6 1495.1 1520.72 Q1492.67 1523.85 1492.32 1530.17 Q1493.69 1528.15 1495.75 1527.09 Q1497.81 1526 1500.28 1526 Q1505.49 1526 1508.5 1529.17 Q1511.53 1532.32 1511.53 1537.76 Q1511.53 1543.08 1508.38 1546.3 Q1505.24 1549.52 1500.01 1549.52 Q1494.01 1549.52 1490.84 1544.94 Q1487.67 1540.33 1487.67 1531.6 Q1487.67 1523.41 1491.56 1518.55 Q1495.44 1513.66 1502 1513.66 Q1503.76 1513.66 1505.54 1514.01 Q1507.34 1514.36 1509.29 1515.05 Z" fill="#000000" fill-rule="nonzero" fill-opacity="1" /><path clip-path="url(#clip240)" d="M1926.18 1532.44 Q1922.84 1532.44 1920.92 1534.22 Q1919.03 1536 1919.03 1539.13 Q1919.03 1542.25 1920.92 1544.03 Q1922.84 1545.82 1926.18 1545.82 Q1929.51 1545.82 1931.43 1544.03 Q1933.35 1542.23 1933.35 1539.13 Q1933.35 1536 1931.43 1534.22 Q1929.53 1532.44 1926.18 1532.44 M1921.5 1530.45 Q1918.49 1529.7 1916.8 1527.64 Q1915.14 1525.58 1915.14 1522.62 Q1915.14 1518.48 1918.08 1516.07 Q1921.04 1513.66 1926.18 1513.66 Q1931.34 1513.66 1934.28 1516.07 Q1937.22 1518.48 1937.22 1522.62 Q1937.22 1525.58 1935.53 1527.64 Q1933.86 1529.7 1930.88 1530.45 Q1934.26 1531.23 1936.13 1533.52 Q1938.03 1535.82 1938.03 1539.13 Q1938.03 1544.15 1934.95 1546.83 Q1931.9 1549.52 1926.18 1549.52 Q1920.46 1549.52 1917.38 1546.83 Q1914.33 1544.15 1914.33 1539.13 Q1914.33 1535.82 1916.22 1533.52 Q1918.12 1531.23 1921.5 1530.45 M1919.79 1523.06 Q1919.79 1525.75 1921.46 1527.25 Q1923.15 1528.76 1926.18 1528.76 Q1929.19 1528.76 1930.88 1527.25 Q1932.59 1525.75 1932.59 1523.06 Q1932.59 1520.38 1930.88 1518.87 Q1929.19 1517.37 1926.18 1517.37 Q1923.15 1517.37 1921.46 1518.87 Q1919.79 1520.38 1919.79 1523.06 Z" fill="#000000" fill-rule="nonzero" fill-opacity="1" /><path clip-path="url(#clip240)" d="M2327.44 1544.91 L2335.08 1544.91 L2335.08 1518.55 L2326.77 1520.21 L2326.77 1515.95 L2335.04 1514.29 L2339.71 1514.29 L2339.71 1544.91 L2347.35 1544.91 L2347.35 1548.85 L2327.44 1548.85 L2327.44 1544.91 Z" fill="#000000" fill-rule="nonzero" fill-opacity="1" /><path clip-path="url(#clip240)" d="M2366.8 1517.37 Q2363.18 1517.37 2361.36 1520.93 Q2359.55 1524.47 2359.55 1531.6 Q2359.55 1538.71 2361.36 1542.27 Q2363.18 1545.82 2366.8 1545.82 Q2370.43 1545.82 2372.23 1542.27 Q2374.06 1538.71 2374.06 1531.6 Q2374.06 1524.47 2372.23 1520.93 Q2370.43 1517.37 2366.8 1517.37 M2366.8 1513.66 Q2372.61 1513.66 2375.66 1518.27 Q2378.74 1522.85 2378.74 1531.6 Q2378.74 1540.33 2375.66 1544.94 Q2372.61 1549.52 2366.8 1549.52 Q2360.99 1549.52 2357.91 1544.94 Q2354.85 1540.33 2354.85 1531.6 Q2354.85 1522.85 2357.91 1518.27 Q2360.99 1513.66 2366.8 1513.66 Z" fill="#000000" fill-rule="nonzero" fill-opacity="1" /><polyline clip-path="url(#clip242)" style="stroke:#000000; stroke-linecap:round; stroke-linejoin:round; stroke-width:2; stroke-opacity:0.1; fill:none" points="219.866,1445.72 2352.76,1445.72 "/>
<polyline clip-path="url(#clip242)" style="stroke:#000000; stroke-linecap:round; stroke-linejoin:round; stroke-width:2; stroke-opacity:0.1; fill:none" points="219.866,1103.59 2352.76,1103.59 "/>
<polyline clip-path="url(#clip242)" style="stroke:#000000; stroke-linecap:round; stroke-linejoin:round; stroke-width:2; stroke-opacity:0.1; fill:none" points="219.866,761.458 2352.76,761.458 "/>
<polyline clip-path="url(#clip242)" style="stroke:#000000; stroke-linecap:round; stroke-linejoin:round; stroke-width:2; stroke-opacity:0.1; fill:none" points="219.866,419.329 2352.76,419.329 "/>
<polyline clip-path="url(#clip242)" style="stroke:#000000; stroke-linecap:round; stroke-linejoin:round; stroke-width:2; stroke-opacity:0.1; fill:none" points="219.866,77.2 2352.76,77.2 "/>
<polyline clip-path="url(#clip240)" style="stroke:#000000; stroke-linecap:round; stroke-linejoin:round; stroke-width:4; stroke-opacity:1; fill:none" points="219.866,1486.45 219.866,47.2441 "/>
<polyline clip-path="url(#clip240)" style="stroke:#000000; stroke-linecap:round; stroke-linejoin:round; stroke-width:4; stroke-opacity:1; fill:none" points="219.866,1445.72 238.764,1445.72 "/>
<polyline clip-path="url(#clip240)" style="stroke:#000000; stroke-linecap:round; stroke-linejoin:round; stroke-width:4; stroke-opacity:1; fill:none" points="219.866,1103.59 238.764,1103.59 "/>
<polyline clip-path="url(#clip240)" style="stroke:#000000; stroke-linecap:round; stroke-linejoin:round; stroke-width:4; stroke-opacity:1; fill:none" points="219.866,761.458 238.764,761.458 "/>
<polyline clip-path="url(#clip240)" style="stroke:#000000; stroke-linecap:round; stroke-linejoin:round; stroke-width:4; stroke-opacity:1; fill:none" points="219.866,419.329 238.764,419.329 "/>
<polyline clip-path="url(#clip240)" style="stroke:#000000; stroke-linecap:round; stroke-linejoin:round; stroke-width:4; stroke-opacity:1; fill:none" points="219.866,77.2 238.764,77.2 "/>
<path clip-path="url(#clip240)" d="M126.691 1431.51 Q123.08 1431.51 121.251 1435.08 Q119.445 1438.62 119.445 1445.75 Q119.445 1452.86 121.251 1456.42 Q123.08 1459.96 126.691 1459.96 Q130.325 1459.96 132.13 1456.42 Q133.959 1452.86 133.959 1445.75 Q133.959 1438.62 132.13 1435.08 Q130.325 1431.51 126.691 1431.51 M126.691 1427.81 Q132.501 1427.81 135.556 1432.42 Q138.635 1437 138.635 1445.75 Q138.635 1454.48 135.556 1459.08 Q132.501 1463.67 126.691 1463.67 Q120.88 1463.67 117.802 1459.08 Q114.746 1454.48 114.746 1445.75 Q114.746 1437 117.802 1432.42 Q120.88 1427.81 126.691 1427.81 Z" fill="#000000" fill-rule="nonzero" fill-opacity="1" /><path clip-path="url(#clip240)" d="M146.853 1457.12 L151.737 1457.12 L151.737 1463 L146.853 1463 L146.853 1457.12 Z" fill="#000000" fill-rule="nonzero" fill-opacity="1" /><path clip-path="url(#clip240)" d="M171.922 1431.51 Q168.311 1431.51 166.482 1435.08 Q164.677 1438.62 164.677 1445.75 Q164.677 1452.86 166.482 1456.42 Q168.311 1459.96 171.922 1459.96 Q175.556 1459.96 177.362 1456.42 Q179.19 1452.86 179.19 1445.75 Q179.19 1438.62 177.362 1435.08 Q175.556 1431.51 171.922 1431.51 M171.922 1427.81 Q177.732 1427.81 180.788 1432.42 Q183.866 1437 183.866 1445.75 Q183.866 1454.48 180.788 1459.08 Q177.732 1463.67 171.922 1463.67 Q166.112 1463.67 163.033 1459.08 Q159.978 1454.48 159.978 1445.75 Q159.978 1437 163.033 1432.42 Q166.112 1427.81 171.922 1427.81 Z" fill="#000000" fill-rule="nonzero" fill-opacity="1" /><path clip-path="url(#clip240)" d="M128.288 1089.39 Q124.677 1089.39 122.848 1092.95 Q121.043 1096.49 121.043 1103.62 Q121.043 1110.73 122.848 1114.29 Q124.677 1117.83 128.288 1117.83 Q131.922 1117.83 133.728 1114.29 Q135.556 1110.73 135.556 1103.62 Q135.556 1096.49 133.728 1092.95 Q131.922 1089.39 128.288 1089.39 M128.288 1085.68 Q134.098 1085.68 137.154 1090.29 Q140.232 1094.87 140.232 1103.62 Q140.232 1112.35 137.154 1116.95 Q134.098 1121.54 128.288 1121.54 Q122.478 1121.54 119.399 1116.95 Q116.343 1112.35 116.343 1103.62 Q116.343 1094.87 119.399 1090.29 Q122.478 1085.68 128.288 1085.68 Z" fill="#000000" fill-rule="nonzero" fill-opacity="1" /><path clip-path="url(#clip240)" d="M148.45 1114.99 L153.334 1114.99 L153.334 1120.87 L148.45 1120.87 L148.45 1114.99 Z" fill="#000000" fill-rule="nonzero" fill-opacity="1" /><path clip-path="url(#clip240)" d="M167.547 1116.93 L183.866 1116.93 L183.866 1120.87 L161.922 1120.87 L161.922 1116.93 Q164.584 1114.18 169.167 1109.55 Q173.774 1104.89 174.954 1103.55 Q177.2 1101.03 178.079 1099.29 Q178.982 1097.53 178.982 1095.84 Q178.982 1093.09 177.038 1091.35 Q175.116 1089.62 172.014 1089.62 Q169.815 1089.62 167.362 1090.38 Q164.931 1091.14 162.153 1092.7 L162.153 1087.97 Q164.977 1086.84 167.431 1086.26 Q169.885 1085.68 171.922 1085.68 Q177.292 1085.68 180.487 1088.37 Q183.681 1091.05 183.681 1095.54 Q183.681 1097.67 182.871 1099.59 Q182.084 1101.49 179.977 1104.08 Q179.399 1104.76 176.297 1107.97 Q173.195 1111.17 167.547 1116.93 Z" fill="#000000" fill-rule="nonzero" fill-opacity="1" /><path clip-path="url(#clip240)" d="M126.205 747.257 Q122.593 747.257 120.765 750.821 Q118.959 754.363 118.959 761.493 Q118.959 768.599 120.765 772.164 Q122.593 775.705 126.205 775.705 Q129.839 775.705 131.644 772.164 Q133.473 768.599 133.473 761.493 Q133.473 754.363 131.644 750.821 Q129.839 747.257 126.205 747.257 M126.205 743.553 Q132.015 743.553 135.07 748.159 Q138.149 752.743 138.149 761.493 Q138.149 770.219 135.07 774.826 Q132.015 779.409 126.205 779.409 Q120.394 779.409 117.316 774.826 Q114.26 770.219 114.26 761.493 Q114.26 752.743 117.316 748.159 Q120.394 743.553 126.205 743.553 Z" fill="#000000" fill-rule="nonzero" fill-opacity="1" /><path clip-path="url(#clip240)" d="M146.366 772.858 L151.251 772.858 L151.251 778.738 L146.366 778.738 L146.366 772.858 Z" fill="#000000" fill-rule="nonzero" fill-opacity="1" /><path clip-path="url(#clip240)" d="M174.283 748.252 L162.477 766.701 L174.283 766.701 L174.283 748.252 M173.056 744.178 L178.936 744.178 L178.936 766.701 L183.866 766.701 L183.866 770.59 L178.936 770.59 L178.936 778.738 L174.283 778.738 L174.283 770.59 L158.681 770.59 L158.681 766.076 L173.056 744.178 Z" fill="#000000" fill-rule="nonzero" fill-opacity="1" /><path clip-path="url(#clip240)" d="M126.529 405.128 Q122.918 405.128 121.089 408.692 Q119.283 412.234 119.283 419.364 Q119.283 426.47 121.089 430.035 Q122.918 433.577 126.529 433.577 Q130.163 433.577 131.968 430.035 Q133.797 426.47 133.797 419.364 Q133.797 412.234 131.968 408.692 Q130.163 405.128 126.529 405.128 M126.529 401.424 Q132.339 401.424 135.394 406.03 Q138.473 410.614 138.473 419.364 Q138.473 428.09 135.394 432.697 Q132.339 437.28 126.529 437.28 Q120.718 437.28 117.64 432.697 Q114.584 428.09 114.584 419.364 Q114.584 410.614 117.64 406.03 Q120.718 401.424 126.529 401.424 Z" fill="#000000" fill-rule="nonzero" fill-opacity="1" /><path clip-path="url(#clip240)" d="M146.691 430.729 L151.575 430.729 L151.575 436.609 L146.691 436.609 L146.691 430.729 Z" fill="#000000" fill-rule="nonzero" fill-opacity="1" /><path clip-path="url(#clip240)" d="M172.339 417.465 Q169.19 417.465 167.339 419.618 Q165.51 421.771 165.51 425.521 Q165.51 429.248 167.339 431.424 Q169.19 433.577 172.339 433.577 Q175.487 433.577 177.315 431.424 Q179.167 429.248 179.167 425.521 Q179.167 421.771 177.315 419.618 Q175.487 417.465 172.339 417.465 M181.621 402.813 L181.621 407.072 Q179.862 406.239 178.056 405.799 Q176.274 405.359 174.514 405.359 Q169.885 405.359 167.431 408.484 Q165.001 411.609 164.653 417.928 Q166.019 415.915 168.079 414.85 Q170.139 413.762 172.616 413.762 Q177.825 413.762 180.834 416.933 Q183.866 420.081 183.866 425.521 Q183.866 430.845 180.718 434.063 Q177.57 437.28 172.339 437.28 Q166.343 437.28 163.172 432.697 Q160.001 428.09 160.001 419.364 Q160.001 411.169 163.89 406.308 Q167.778 401.424 174.329 401.424 Q176.089 401.424 177.871 401.771 Q179.676 402.118 181.621 402.813 Z" fill="#000000" fill-rule="nonzero" fill-opacity="1" /><path clip-path="url(#clip240)" d="M126.783 62.9987 Q123.172 62.9987 121.343 66.5635 Q119.538 70.1051 119.538 77.2347 Q119.538 84.3411 121.343 87.9059 Q123.172 91.4476 126.783 91.4476 Q130.417 91.4476 132.223 87.9059 Q134.052 84.3411 134.052 77.2347 Q134.052 70.1051 132.223 66.5635 Q130.417 62.9987 126.783 62.9987 M126.783 59.295 Q132.593 59.295 135.649 63.9014 Q138.728 68.4847 138.728 77.2347 Q138.728 85.9615 135.649 90.568 Q132.593 95.1513 126.783 95.1513 Q120.973 95.1513 117.894 90.568 Q114.839 85.9615 114.839 77.2347 Q114.839 68.4847 117.894 63.9014 Q120.973 59.295 126.783 59.295 Z" fill="#000000" fill-rule="nonzero" fill-opacity="1" /><path clip-path="url(#clip240)" d="M146.945 88.6004 L151.829 88.6004 L151.829 94.48 L146.945 94.48 L146.945 88.6004 Z" fill="#000000" fill-rule="nonzero" fill-opacity="1" /><path clip-path="url(#clip240)" d="M172.014 78.068 Q168.681 78.068 166.76 79.8504 Q164.862 81.6328 164.862 84.7578 Q164.862 87.8828 166.76 89.6652 Q168.681 91.4476 172.014 91.4476 Q175.348 91.4476 177.269 89.6652 Q179.19 87.8596 179.19 84.7578 Q179.19 81.6328 177.269 79.8504 Q175.371 78.068 172.014 78.068 M167.339 76.0773 Q164.329 75.3366 162.64 73.2764 Q160.973 71.2162 160.973 68.2533 Q160.973 64.1098 163.913 61.7024 Q166.876 59.295 172.014 59.295 Q177.176 59.295 180.116 61.7024 Q183.056 64.1098 183.056 68.2533 Q183.056 71.2162 181.366 73.2764 Q179.7 75.3366 176.714 76.0773 Q180.093 76.8643 181.968 79.156 Q183.866 81.4476 183.866 84.7578 Q183.866 89.7809 180.788 92.4661 Q177.732 95.1513 172.014 95.1513 Q166.297 95.1513 163.218 92.4661 Q160.163 89.7809 160.163 84.7578 Q160.163 81.4476 162.061 79.156 Q163.959 76.8643 167.339 76.0773 M165.626 68.6931 Q165.626 71.3782 167.292 72.8829 Q168.982 74.3875 172.014 74.3875 Q175.024 74.3875 176.714 72.8829 Q178.426 71.3782 178.426 68.6931 Q178.426 66.0079 176.714 64.5033 Q175.024 62.9987 172.014 62.9987 Q168.982 62.9987 167.292 64.5033 Q165.626 66.0079 165.626 68.6931 Z" fill="#000000" fill-rule="nonzero" fill-opacity="1" /><path clip-path="url(#clip240)" d="M16.4842 875.763 L16.4842 869.334 L35.9632 869.334 L35.9632 845.972 L16.4842 845.972 L16.4842 839.542 L64.0042 839.542 L64.0042 845.972 L41.3741 845.972 L41.3741 869.334 L64.0042 869.334 L64.0042 875.763 L16.4842 875.763 Z" fill="#000000" fill-rule="nonzero" fill-opacity="1" /><path clip-path="url(#clip240)" d="M46.0847 810.801 Q46.0847 817.899 47.7079 820.636 Q49.3312 823.373 53.2461 823.373 Q56.3653 823.373 58.2114 821.336 Q60.0256 819.268 60.0256 815.735 Q60.0256 810.865 56.5881 807.937 Q53.1188 804.977 47.3897 804.977 L46.0847 804.977 L46.0847 810.801 M43.6657 799.12 L64.0042 799.12 L64.0042 804.977 L58.5933 804.977 Q61.8398 806.982 63.3994 809.974 Q64.9272 812.966 64.9272 817.294 Q64.9272 822.769 61.8716 826.015 Q58.7843 829.23 53.6281 829.23 Q47.6125 829.23 44.5569 825.22 Q41.5014 821.177 41.5014 813.188 L41.5014 804.977 L40.9285 804.977 Q36.8862 804.977 34.6901 807.65 Q32.4621 810.292 32.4621 815.098 Q32.4621 818.154 33.1941 821.05 Q33.9262 823.946 35.3903 826.62 L29.9795 826.62 Q28.7381 823.405 28.1334 820.382 Q27.4968 817.358 27.4968 814.493 Q27.4968 806.759 31.5072 802.94 Q35.5176 799.12 43.6657 799.12 Z" fill="#000000" fill-rule="nonzero" fill-opacity="1" /><path clip-path="url(#clip240)" d="M28.3562 789.603 L28.3562 761.785 L33.7034 761.785 L59.3254 783.811 L59.3254 761.785 L64.0042 761.785 L64.0042 790.399 L58.657 790.399 L33.035 768.374 L33.035 789.603 L28.3562 789.603 Z" fill="#000000" fill-rule="nonzero" fill-opacity="1" /><path clip-path="url(#clip240)" d="M46.0847 736.641 Q46.0847 743.738 47.7079 746.476 Q49.3312 749.213 53.2461 749.213 Q56.3653 749.213 58.2114 747.176 Q60.0256 745.107 60.0256 741.574 Q60.0256 736.704 56.5881 733.776 Q53.1188 730.816 47.3897 730.816 L46.0847 730.816 L46.0847 736.641 M43.6657 724.96 L64.0042 724.96 L64.0042 730.816 L58.5933 730.816 Q61.8398 732.821 63.3994 735.813 Q64.9272 738.805 64.9272 743.134 Q64.9272 748.608 61.8716 751.855 Q58.7843 755.069 53.6281 755.069 Q47.6125 755.069 44.5569 751.059 Q41.5014 747.017 41.5014 739.028 L41.5014 730.816 L40.9285 730.816 Q36.8862 730.816 34.6901 733.49 Q32.4621 736.131 32.4621 740.938 Q32.4621 743.993 33.1941 746.889 Q33.9262 749.786 35.3903 752.459 L29.9795 752.459 Q28.7381 749.245 28.1334 746.221 Q27.4968 743.197 27.4968 740.333 Q27.4968 732.598 31.5072 728.779 Q35.5176 724.96 43.6657 724.96 Z" fill="#000000" fill-rule="nonzero" fill-opacity="1" /><path clip-path="url(#clip240)" d="M33.8307 692.24 Q33.2578 693.227 33.0032 694.404 Q32.7167 695.55 32.7167 696.951 Q32.7167 701.916 35.9632 704.589 Q39.1779 707.231 45.2253 707.231 L64.0042 707.231 L64.0042 713.119 L28.3562 713.119 L28.3562 707.231 L33.8944 707.231 Q30.6479 705.385 29.0883 702.425 Q27.4968 699.465 27.4968 695.232 Q27.4968 694.627 27.5923 693.895 Q27.656 693.163 27.8151 692.272 L33.8307 692.24 Z" fill="#000000" fill-rule="nonzero" fill-opacity="1" /><path clip-path="url(#clip240)" d="M33.7671 663.785 L14.479 663.785 L14.479 657.929 L64.0042 657.929 L64.0042 663.785 L58.657 663.785 Q61.8398 665.631 63.3994 668.464 Q64.9272 671.265 64.9272 675.212 Q64.9272 681.673 59.771 685.747 Q54.6147 689.789 46.212 689.789 Q37.8093 689.789 32.6531 685.747 Q27.4968 681.673 27.4968 675.212 Q27.4968 671.265 29.0564 668.464 Q30.5842 665.631 33.7671 663.785 M46.212 683.742 Q52.6732 683.742 56.3653 681.1 Q60.0256 678.426 60.0256 673.779 Q60.0256 669.132 56.3653 666.459 Q52.6732 663.785 46.212 663.785 Q39.7508 663.785 36.0905 666.459 Q32.3984 669.132 32.3984 673.779 Q32.3984 678.426 36.0905 681.1 Q39.7508 683.742 46.212 683.742 Z" fill="#000000" fill-rule="nonzero" fill-opacity="1" /><polyline clip-path="url(#clip242)" style="stroke:#009af9; stroke-linecap:round; stroke-linejoin:round; stroke-width:4; stroke-opacity:1; fill:none" points="219.866,1445.72 219.975,1364.34 220.083,1331.07 220.192,1305.78 220.3,1284.63 220.409,1266.13 220.517,1249.53 220.626,1234.37 220.734,1220.34 220.951,1194.94 221.168,1172.25 221.385,1151.62 221.602,1132.62 221.819,1114.96 222.036,1098.42 222.253,1082.84 222.47,1068.1 222.904,1040.73 223.338,1015.71 223.772,992.603 224.206,971.108 224.64,950.988 225.074,932.062 225.508,914.182 225.942,897.232 226.375,881.112 226.809,865.741 227.677,836.979 228.545,810.497 229.413,785.957 230.281,763.094 231.149,741.698 232.017,721.598 232.451,711.989 232.885,702.653 233.319,693.575 233.753,684.744 235.759,646.786 237.765,612.881 239.771,582.322 241.777,554.574 243.784,529.223 245.79,505.943 247.796,484.47 249.802,464.587 251.809,446.113 253.815,428.898 255.821,412.812 257.827,397.747 261.84,370.306 265.852,345.951 269.865,324.197 273.877,304.661 277.89,287.036 281.902,271.071 285.915,256.559 289.927,243.327 293.939,231.228 297.952,220.14 305.977,200.583 314.002,183.967 322.027,169.768 330.052,157.58 338.076,147.081 346.101,138.015 354.126,130.173 362.151,123.385 371.796,116.423 381.442,110.579 391.087,105.687 400.732,101.614 420.023,95.49 439.313,91.5106 455.623,89.4447 471.933,88.3255 488.243,87.9763 504.553,88.2572 539.987,90.5335 575.422,94.4501 608.089,99.0413 640.756,104.274 710.802,116.787 791.957,132.286 864.077,146.231 927.321,158.309 996.273,171.169 1065.63,183.703 1142.32,197.049 1215.29,209.235 1291.16,221.383 1355.03,231.209 1433,242.731 1504.43,252.85 1570.39,261.846 1637.22,270.634 1712.11,280.117 1779.98,288.394 1857.67,297.525 1929.62,305.669 2000.55,313.422 2069.41,320.704 2140,327.93 2217.35,335.585 2329.71,346.25 2352.76,348.375 "/>
<path clip-path="url(#clip240)" d="M2015.94 1438.47 L2281.66 1438.47 L2281.66 1334.79 L2015.94 1334.79  Z" fill="#ffffff" fill-rule="evenodd" fill-opacity="1"/>
<polyline clip-path="url(#clip240)" style="stroke:#000000; stroke-linecap:round; stroke-linejoin:round; stroke-width:4; stroke-opacity:1; fill:none" points="2015.94,1438.47 2281.66,1438.47 2281.66,1334.79 2015.94,1334.79 2015.94,1438.47 "/>
<polyline clip-path="url(#clip240)" style="stroke:#009af9; stroke-linecap:round; stroke-linejoin:round; stroke-width:4; stroke-opacity:1; fill:none" points="2039.64,1386.63 2181.83,1386.63 "/>
<path clip-path="url(#clip240)" d="M2219.37 1406.32 Q2217.57 1410.95 2215.85 1412.36 Q2214.14 1413.78 2211.27 1413.78 L2207.87 1413.78 L2207.87 1410.21 L2210.37 1410.21 Q2212.13 1410.21 2213.1 1409.38 Q2214.07 1408.54 2215.25 1405.44 L2216.02 1403.5 L2205.53 1377.99 L2210.04 1377.99 L2218.15 1398.27 L2226.25 1377.99 L2230.76 1377.99 L2219.37 1406.32 Z" fill="#000000" fill-rule="nonzero" fill-opacity="1" /><path clip-path="url(#clip240)" d="M2238.05 1399.98 L2245.69 1399.98 L2245.69 1373.61 L2237.38 1375.28 L2237.38 1371.02 L2245.65 1369.35 L2250.32 1369.35 L2250.32 1399.98 L2257.96 1399.98 L2257.96 1403.91 L2238.05 1403.91 L2238.05 1399.98 Z" fill="#000000" fill-rule="nonzero" fill-opacity="1" /></svg>
