<?xml version="1.0" encoding="utf-8"?>
<svg xmlns="http://www.w3.org/2000/svg" xmlns:xlink="http://www.w3.org/1999/xlink" width="600" height="400" viewBox="0 0 2400 1600">
<defs>
  <clipPath id="clip060">
    <rect x="0" y="0" width="2400" height="1600"/>
  </clipPath>
</defs>
<path clip-path="url(#clip060)" d="M0 1600 L2400 1600 L2400 0 L0 0  Z" fill="#ffffff" fill-rule="evenodd" fill-opacity="1"/>
<defs>
  <clipPath id="clip061">
    <rect x="480" y="0" width="1681" height="1600"/>
  </clipPath>
</defs>
<path clip-path="url(#clip060)" d="M249.542 1486.45 L2352.76 1486.45 L2352.76 47.2441 L249.542 47.2441  Z" fill="#ffffff" fill-rule="evenodd" fill-opacity="1"/>
<defs>
  <clipPath id="clip062">
    <rect x="249" y="47" width="2104" height="1440"/>
  </clipPath>
</defs>
<polyline clip-path="url(#clip062)" style="stroke:#000000; stroke-linecap:round; stroke-linejoin:round; stroke-width:2; stroke-opacity:0.1; fill:none" points="249.542,1486.45 249.542,47.2441 "/>
<polyline clip-path="url(#clip062)" style="stroke:#000000; stroke-linecap:round; stroke-linejoin:round; stroke-width:2; stroke-opacity:0.1; fill:none" points="670.185,1486.45 670.185,47.2441 "/>
<polyline clip-path="url(#clip062)" style="stroke:#000000; stroke-linecap:round; stroke-linejoin:round; stroke-width:2; stroke-opacity:0.1; fill:none" points="1090.83,1486.45 1090.83,47.2441 "/>
<polyline clip-path="url(#clip062)" style="stroke:#000000; stroke-linecap:round; stroke-linejoin:round; stroke-width:2; stroke-opacity:0.1; fill:none" points="1511.47,1486.45 1511.47,47.2441 "/>
<polyline clip-path="url(#clip062)" style="stroke:#000000; stroke-linecap:round; stroke-linejoin:round; stroke-width:2; stroke-opacity:0.1; fill:none" points="1932.11,1486.45 1932.11,47.2441 "/>
<polyline clip-path="url(#clip062)" style="stroke:#000000; stroke-linecap:round; stroke-linejoin:round; stroke-width:2; stroke-opacity:0.1; fill:none" points="2352.76,1486.45 2352.76,47.2441 "/>
<polyline clip-path="url(#clip060)" style="stroke:#000000; stroke-linecap:round; stroke-linejoin:round; stroke-width:4; stroke-opacity:1; fill:none" points="249.542,1486.45 2352.76,1486.45 "/>
<polyline clip-path="url(#clip060)" style="stroke:#000000; stroke-linecap:round; stroke-linejoin:round; stroke-width:4; stroke-opacity:1; fill:none" points="249.542,1486.45 249.542,1467.55 "/>
<polyline clip-path="url(#clip060)" style="stroke:#000000; stroke-linecap:round; stroke-linejoin:round; stroke-width:4; stroke-opacity:1; fill:none" points="670.185,1486.45 670.185,1467.55 "/>
<polyline clip-path="url(#clip060)" style="stroke:#000000; stroke-linecap:round; stroke-linejoin:round; stroke-width:4; stroke-opacity:1; fill:none" points="1090.83,1486.45 1090.83,1467.55 "/>
<polyline clip-path="url(#clip060)" style="stroke:#000000; stroke-linecap:round; stroke-linejoin:round; stroke-width:4; stroke-opacity:1; fill:none" points="1511.47,1486.45 1511.47,1467.55 "/>
<polyline clip-path="url(#clip060)" style="stroke:#000000; stroke-linecap:round; stroke-linejoin:round; stroke-width:4; stroke-opacity:1; fill:none" points="1932.11,1486.45 1932.11,1467.55 "/>
<polyline clip-path="url(#clip060)" style="stroke:#000000; stroke-linecap:round; stroke-linejoin:round; stroke-width:4; stroke-opacity:1; fill:none" points="2352.76,1486.45 2352.76,1467.55 "/>
<path clip-path="url(#clip060)" d="M249.542 1517.37 Q245.931 1517.37 244.102 1520.93 Q242.297 1524.47 242.297 1531.6 Q242.297 1538.71 244.102 1542.27 Q245.931 1545.82 249.542 1545.82 Q253.176 1545.82 254.982 1542.27 Q256.811 1538.71 256.811 1531.6 Q256.811 1524.47 254.982 1520.93 Q253.176 1517.37 249.542 1517.37 M249.542 1513.66 Q255.352 1513.66 258.408 1518.27 Q261.486 1522.85 261.486 1531.6 Q261.486 1540.33 258.408 1544.94 Q255.352 1549.52 249.542 1549.52 Q243.732 1549.52 240.653 1544.94 Q237.598 1540.33 237.598 1531.6 Q237.598 1522.85 240.653 1518.27 Q243.732 1513.66 249.542 1513.66 Z" fill="#000000" fill-rule="nonzero" fill-opacity="1" /><path clip-path="url(#clip060)" d="M664.838 1544.91 L681.157 1544.91 L681.157 1548.85 L659.213 1548.85 L659.213 1544.91 Q661.875 1542.16 666.458 1537.53 Q671.064 1532.88 672.245 1531.53 Q674.49 1529.01 675.37 1527.27 Q676.273 1525.51 676.273 1523.82 Q676.273 1521.07 674.328 1519.33 Q672.407 1517.6 669.305 1517.6 Q667.106 1517.6 664.652 1518.36 Q662.222 1519.13 659.444 1520.68 L659.444 1515.95 Q662.268 1514.82 664.722 1514.24 Q667.176 1513.66 669.213 1513.66 Q674.583 1513.66 677.777 1516.35 Q680.972 1519.03 680.972 1523.52 Q680.972 1525.65 680.162 1527.57 Q679.375 1529.47 677.268 1532.07 Q676.689 1532.74 673.588 1535.95 Q670.486 1539.15 664.838 1544.91 Z" fill="#000000" fill-rule="nonzero" fill-opacity="1" /><path clip-path="url(#clip060)" d="M1093.84 1518.36 L1082.03 1536.81 L1093.84 1536.81 L1093.84 1518.36 M1092.61 1514.29 L1098.49 1514.29 L1098.49 1536.81 L1103.42 1536.81 L1103.42 1540.7 L1098.49 1540.7 L1098.49 1548.85 L1093.84 1548.85 L1093.84 1540.7 L1078.24 1540.7 L1078.24 1536.19 L1092.61 1514.29 Z" fill="#000000" fill-rule="nonzero" fill-opacity="1" /><path clip-path="url(#clip060)" d="M1511.88 1529.7 Q1508.73 1529.7 1506.88 1531.86 Q1505.05 1534.01 1505.05 1537.76 Q1505.05 1541.49 1506.88 1543.66 Q1508.73 1545.82 1511.88 1545.82 Q1515.02 1545.82 1516.85 1543.66 Q1518.7 1541.49 1518.7 1537.76 Q1518.7 1534.01 1516.85 1531.86 Q1515.02 1529.7 1511.88 1529.7 M1521.16 1515.05 L1521.16 1519.31 Q1519.4 1518.48 1517.59 1518.04 Q1515.81 1517.6 1514.05 1517.6 Q1509.42 1517.6 1506.97 1520.72 Q1504.54 1523.85 1504.19 1530.17 Q1505.56 1528.15 1507.62 1527.09 Q1509.68 1526 1512.15 1526 Q1517.36 1526 1520.37 1529.17 Q1523.4 1532.32 1523.4 1537.76 Q1523.4 1543.08 1520.26 1546.3 Q1517.11 1549.52 1511.88 1549.52 Q1505.88 1549.52 1502.71 1544.94 Q1499.54 1540.33 1499.54 1531.6 Q1499.54 1523.41 1503.43 1518.55 Q1507.32 1513.66 1513.87 1513.66 Q1515.63 1513.66 1517.41 1514.01 Q1519.21 1514.36 1521.16 1515.05 Z" fill="#000000" fill-rule="nonzero" fill-opacity="1" /><path clip-path="url(#clip060)" d="M1932.11 1532.44 Q1928.78 1532.44 1926.86 1534.22 Q1924.96 1536 1924.96 1539.13 Q1924.96 1542.25 1926.86 1544.03 Q1928.78 1545.82 1932.11 1545.82 Q1935.45 1545.82 1937.37 1544.03 Q1939.29 1542.23 1939.29 1539.13 Q1939.29 1536 1937.37 1534.22 Q1935.47 1532.44 1932.11 1532.44 M1927.44 1530.45 Q1924.43 1529.7 1922.74 1527.64 Q1921.07 1525.58 1921.07 1522.62 Q1921.07 1518.48 1924.01 1516.07 Q1926.97 1513.66 1932.11 1513.66 Q1937.28 1513.66 1940.21 1516.07 Q1943.15 1518.48 1943.15 1522.62 Q1943.15 1525.58 1941.46 1527.64 Q1939.8 1529.7 1936.81 1530.45 Q1940.19 1531.23 1942.07 1533.52 Q1943.96 1535.82 1943.96 1539.13 Q1943.96 1544.15 1940.89 1546.83 Q1937.83 1549.52 1932.11 1549.52 Q1926.4 1549.52 1923.32 1546.83 Q1920.26 1544.15 1920.26 1539.13 Q1920.26 1535.82 1922.16 1533.52 Q1924.06 1531.23 1927.44 1530.45 M1925.72 1523.06 Q1925.72 1525.75 1927.39 1527.25 Q1929.08 1528.76 1932.11 1528.76 Q1935.12 1528.76 1936.81 1527.25 Q1938.53 1525.75 1938.53 1523.06 Q1938.53 1520.38 1936.81 1518.87 Q1935.12 1517.37 1932.11 1517.37 Q1929.08 1517.37 1927.39 1518.87 Q1925.72 1520.38 1925.72 1523.06 Z" fill="#000000" fill-rule="nonzero" fill-opacity="1" /><path clip-path="url(#clip060)" d="M2327.44 1544.91 L2335.08 1544.91 L2335.08 1518.55 L2326.77 1520.21 L2326.77 1515.95 L2335.04 1514.29 L2339.71 1514.29 L2339.71 1544.91 L2347.35 1544.91 L2347.35 1548.85 L2327.44 1548.85 L2327.44 1544.91 Z" fill="#000000" fill-rule="nonzero" fill-opacity="1" /><path clip-path="url(#clip060)" d="M2366.8 1517.37 Q2363.18 1517.37 2361.36 1520.93 Q2359.55 1524.47 2359.55 1531.6 Q2359.55 1538.71 2361.36 1542.27 Q2363.18 1545.82 2366.8 1545.82 Q2370.43 1545.82 2372.23 1542.27 Q2374.06 1538.71 2374.06 1531.6 Q2374.06 1524.47 2372.23 1520.93 Q2370.43 1517.37 2366.8 1517.37 M2366.8 1513.66 Q2372.61 1513.66 2375.66 1518.27 Q2378.74 1522.85 2378.74 1531.6 Q2378.74 1540.33 2375.66 1544.94 Q2372.61 1549.52 2366.8 1549.52 Q2360.99 1549.52 2357.91 1544.94 Q2354.85 1540.33 2354.85 1531.6 Q2354.85 1522.85 2357.91 1518.27 Q2360.99 1513.66 2366.8 1513.66 Z" fill="#000000" fill-rule="nonzero" fill-opacity="1" /><polyline clip-path="url(#clip062)" style="stroke:#000000; stroke-linecap:round; stroke-linejoin:round; stroke-width:2; stroke-opacity:0.1; fill:none" points="249.542,1397.03 2352.76,1397.03 "/>
<polyline clip-path="url(#clip062)" style="stroke:#000000; stroke-linecap:round; stroke-linejoin:round; stroke-width:2; stroke-opacity:0.1; fill:none" points="249.542,1148.33 2352.76,1148.33 "/>
<polyline clip-path="url(#clip062)" style="stroke:#000000; stroke-linecap:round; stroke-linejoin:round; stroke-width:2; stroke-opacity:0.1; fill:none" points="249.542,899.636 2352.76,899.636 "/>
<polyline clip-path="url(#clip062)" style="stroke:#000000; stroke-linecap:round; stroke-linejoin:round; stroke-width:2; stroke-opacity:0.1; fill:none" points="249.542,650.939 2352.76,650.939 "/>
<polyline clip-path="url(#clip062)" style="stroke:#000000; stroke-linecap:round; stroke-linejoin:round; stroke-width:2; stroke-opacity:0.1; fill:none" points="249.542,402.243 2352.76,402.243 "/>
<polyline clip-path="url(#clip062)" style="stroke:#000000; stroke-linecap:round; stroke-linejoin:round; stroke-width:2; stroke-opacity:0.1; fill:none" points="249.542,153.547 2352.76,153.547 "/>
<polyline clip-path="url(#clip060)" style="stroke:#000000; stroke-linecap:round; stroke-linejoin:round; stroke-width:4; stroke-opacity:1; fill:none" points="249.542,1486.45 249.542,47.2441 "/>
<polyline clip-path="url(#clip060)" style="stroke:#000000; stroke-linecap:round; stroke-linejoin:round; stroke-width:4; stroke-opacity:1; fill:none" points="249.542,1397.03 268.44,1397.03 "/>
<polyline clip-path="url(#clip060)" style="stroke:#000000; stroke-linecap:round; stroke-linejoin:round; stroke-width:4; stroke-opacity:1; fill:none" points="249.542,1148.33 268.44,1148.33 "/>
<polyline clip-path="url(#clip060)" style="stroke:#000000; stroke-linecap:round; stroke-linejoin:round; stroke-width:4; stroke-opacity:1; fill:none" points="249.542,899.636 268.44,899.636 "/>
<polyline clip-path="url(#clip060)" style="stroke:#000000; stroke-linecap:round; stroke-linejoin:round; stroke-width:4; stroke-opacity:1; fill:none" points="249.542,650.939 268.44,650.939 "/>
<polyline clip-path="url(#clip060)" style="stroke:#000000; stroke-linecap:round; stroke-linejoin:round; stroke-width:4; stroke-opacity:1; fill:none" points="249.542,402.243 268.44,402.243 "/>
<polyline clip-path="url(#clip060)" style="stroke:#000000; stroke-linecap:round; stroke-linejoin:round; stroke-width:4; stroke-opacity:1; fill:none" points="249.542,153.547 268.44,153.547 "/>
<path clip-path="url(#clip060)" d="M127.2 1382.83 Q123.589 1382.83 121.76 1386.39 Q119.955 1389.93 119.955 1397.06 Q119.955 1404.17 121.76 1407.73 Q123.589 1411.28 127.2 1411.28 Q130.834 1411.28 132.64 1407.73 Q134.468 1404.17 134.468 1397.06 Q134.468 1389.93 132.64 1386.39 Q130.834 1382.83 127.2 1382.83 M127.2 1379.12 Q133.01 1379.12 136.066 1383.73 Q139.144 1388.31 139.144 1397.06 Q139.144 1405.79 136.066 1410.4 Q133.01 1414.98 127.2 1414.98 Q121.39 1414.98 118.311 1410.4 Q115.256 1405.79 115.256 1397.06 Q115.256 1388.31 118.311 1383.73 Q121.39 1379.12 127.2 1379.12 Z" fill="#000000" fill-rule="nonzero" fill-opacity="1" /><path clip-path="url(#clip060)" d="M147.362 1408.43 L152.246 1408.43 L152.246 1414.31 L147.362 1414.31 L147.362 1408.43 Z" fill="#000000" fill-rule="nonzero" fill-opacity="1" /><path clip-path="url(#clip060)" d="M172.431 1382.83 Q168.82 1382.83 166.991 1386.39 Q165.186 1389.93 165.186 1397.06 Q165.186 1404.17 166.991 1407.73 Q168.82 1411.28 172.431 1411.28 Q176.065 1411.28 177.871 1407.73 Q179.7 1404.17 179.7 1397.06 Q179.7 1389.93 177.871 1386.39 Q176.065 1382.83 172.431 1382.83 M172.431 1379.12 Q178.241 1379.12 181.297 1383.73 Q184.376 1388.31 184.376 1397.06 Q184.376 1405.79 181.297 1410.4 Q178.241 1414.98 172.431 1414.98 Q166.621 1414.98 163.542 1410.4 Q160.487 1405.79 160.487 1397.06 Q160.487 1388.31 163.542 1383.73 Q166.621 1379.12 172.431 1379.12 Z" fill="#000000" fill-rule="nonzero" fill-opacity="1" /><path clip-path="url(#clip060)" d="M192.639 1379.75 L210.996 1379.75 L210.996 1383.68 L196.922 1383.68 L196.922 1392.16 Q197.94 1391.81 198.959 1391.65 Q199.977 1391.46 200.996 1391.46 Q206.783 1391.46 210.162 1394.63 Q213.542 1397.8 213.542 1403.22 Q213.542 1408.8 210.07 1411.9 Q206.598 1414.98 200.278 1414.98 Q198.102 1414.98 195.834 1414.61 Q193.588 1414.24 191.181 1413.5 L191.181 1408.8 Q193.264 1409.93 195.487 1410.49 Q197.709 1411.05 200.186 1411.05 Q204.19 1411.05 206.528 1408.94 Q208.866 1406.83 208.866 1403.22 Q208.866 1399.61 206.528 1397.5 Q204.19 1395.4 200.186 1395.4 Q198.311 1395.4 196.436 1395.81 Q194.584 1396.23 192.639 1397.11 L192.639 1379.75 Z" fill="#000000" fill-rule="nonzero" fill-opacity="1" /><path clip-path="url(#clip060)" d="M126.205 1134.13 Q122.593 1134.13 120.765 1137.7 Q118.959 1141.24 118.959 1148.37 Q118.959 1155.47 120.765 1159.04 Q122.593 1162.58 126.205 1162.58 Q129.839 1162.58 131.644 1159.04 Q133.473 1155.47 133.473 1148.37 Q133.473 1141.24 131.644 1137.7 Q129.839 1134.13 126.205 1134.13 M126.205 1130.43 Q132.015 1130.43 135.07 1135.03 Q138.149 1139.62 138.149 1148.37 Q138.149 1157.09 135.07 1161.7 Q132.015 1166.28 126.205 1166.28 Q120.394 1166.28 117.316 1161.7 Q114.26 1157.09 114.26 1148.37 Q114.26 1139.62 117.316 1135.03 Q120.394 1130.43 126.205 1130.43 Z" fill="#000000" fill-rule="nonzero" fill-opacity="1" /><path clip-path="url(#clip060)" d="M146.366 1159.73 L151.251 1159.73 L151.251 1165.61 L146.366 1165.61 L146.366 1159.73 Z" fill="#000000" fill-rule="nonzero" fill-opacity="1" /><path clip-path="url(#clip060)" d="M162.246 1161.68 L169.885 1161.68 L169.885 1135.31 L161.575 1136.98 L161.575 1132.72 L169.839 1131.05 L174.514 1131.05 L174.514 1161.68 L182.153 1161.68 L182.153 1165.61 L162.246 1165.61 L162.246 1161.68 Z" fill="#000000" fill-rule="nonzero" fill-opacity="1" /><path clip-path="url(#clip060)" d="M201.598 1134.13 Q197.987 1134.13 196.158 1137.7 Q194.352 1141.24 194.352 1148.37 Q194.352 1155.47 196.158 1159.04 Q197.987 1162.58 201.598 1162.58 Q205.232 1162.58 207.037 1159.04 Q208.866 1155.47 208.866 1148.37 Q208.866 1141.24 207.037 1137.7 Q205.232 1134.13 201.598 1134.13 M201.598 1130.43 Q207.408 1130.43 210.463 1135.03 Q213.542 1139.62 213.542 1148.37 Q213.542 1157.09 210.463 1161.7 Q207.408 1166.28 201.598 1166.28 Q195.787 1166.28 192.709 1161.7 Q189.653 1157.09 189.653 1148.37 Q189.653 1139.62 192.709 1135.03 Q195.787 1130.43 201.598 1130.43 Z" fill="#000000" fill-rule="nonzero" fill-opacity="1" /><path clip-path="url(#clip060)" d="M127.2 885.435 Q123.589 885.435 121.76 888.999 Q119.955 892.541 119.955 899.671 Q119.955 906.777 121.76 910.342 Q123.589 913.884 127.2 913.884 Q130.834 913.884 132.64 910.342 Q134.468 906.777 134.468 899.671 Q134.468 892.541 132.64 888.999 Q130.834 885.435 127.2 885.435 M127.2 881.731 Q133.01 881.731 136.066 886.337 Q139.144 890.921 139.144 899.671 Q139.144 908.397 136.066 913.004 Q133.01 917.587 127.2 917.587 Q121.39 917.587 118.311 913.004 Q115.256 908.397 115.256 899.671 Q115.256 890.921 118.311 886.337 Q121.39 881.731 127.2 881.731 Z" fill="#000000" fill-rule="nonzero" fill-opacity="1" /><path clip-path="url(#clip060)" d="M147.362 911.036 L152.246 911.036 L152.246 916.916 L147.362 916.916 L147.362 911.036 Z" fill="#000000" fill-rule="nonzero" fill-opacity="1" /><path clip-path="url(#clip060)" d="M163.241 912.981 L170.88 912.981 L170.88 886.615 L162.57 888.282 L162.57 884.023 L170.834 882.356 L175.51 882.356 L175.51 912.981 L183.149 912.981 L183.149 916.916 L163.241 916.916 L163.241 912.981 Z" fill="#000000" fill-rule="nonzero" fill-opacity="1" /><path clip-path="url(#clip060)" d="M192.639 882.356 L210.996 882.356 L210.996 886.291 L196.922 886.291 L196.922 894.763 Q197.94 894.416 198.959 894.254 Q199.977 894.069 200.996 894.069 Q206.783 894.069 210.162 897.24 Q213.542 900.411 213.542 905.828 Q213.542 911.407 210.07 914.509 Q206.598 917.587 200.278 917.587 Q198.102 917.587 195.834 917.217 Q193.588 916.847 191.181 916.106 L191.181 911.407 Q193.264 912.541 195.487 913.097 Q197.709 913.652 200.186 913.652 Q204.19 913.652 206.528 911.546 Q208.866 909.439 208.866 905.828 Q208.866 902.217 206.528 900.11 Q204.19 898.004 200.186 898.004 Q198.311 898.004 196.436 898.421 Q194.584 898.837 192.639 899.717 L192.639 882.356 Z" fill="#000000" fill-rule="nonzero" fill-opacity="1" /><path clip-path="url(#clip060)" d="M126.205 636.738 Q122.593 636.738 120.765 640.303 Q118.959 643.845 118.959 650.974 Q118.959 658.081 120.765 661.645 Q122.593 665.187 126.205 665.187 Q129.839 665.187 131.644 661.645 Q133.473 658.081 133.473 650.974 Q133.473 643.845 131.644 640.303 Q129.839 636.738 126.205 636.738 M126.205 633.034 Q132.015 633.034 135.07 637.641 Q138.149 642.224 138.149 650.974 Q138.149 659.701 135.07 664.307 Q132.015 668.891 126.205 668.891 Q120.394 668.891 117.316 664.307 Q114.26 659.701 114.26 650.974 Q114.26 642.224 117.316 637.641 Q120.394 633.034 126.205 633.034 Z" fill="#000000" fill-rule="nonzero" fill-opacity="1" /><path clip-path="url(#clip060)" d="M146.366 662.34 L151.251 662.34 L151.251 668.219 L146.366 668.219 L146.366 662.34 Z" fill="#000000" fill-rule="nonzero" fill-opacity="1" /><path clip-path="url(#clip060)" d="M165.464 664.284 L181.783 664.284 L181.783 668.219 L159.839 668.219 L159.839 664.284 Q162.501 661.53 167.084 656.9 Q171.69 652.247 172.871 650.905 Q175.116 648.382 175.996 646.646 Q176.899 644.886 176.899 643.196 Q176.899 640.442 174.954 638.706 Q173.033 636.97 169.931 636.97 Q167.732 636.97 165.278 637.734 Q162.848 638.497 160.07 640.048 L160.07 635.326 Q162.894 634.192 165.348 633.613 Q167.802 633.034 169.839 633.034 Q175.209 633.034 178.403 635.72 Q181.598 638.405 181.598 642.896 Q181.598 645.025 180.788 646.946 Q180.001 648.845 177.894 651.437 Q177.315 652.108 174.214 655.326 Q171.112 658.52 165.464 664.284 Z" fill="#000000" fill-rule="nonzero" fill-opacity="1" /><path clip-path="url(#clip060)" d="M201.598 636.738 Q197.987 636.738 196.158 640.303 Q194.352 643.845 194.352 650.974 Q194.352 658.081 196.158 661.645 Q197.987 665.187 201.598 665.187 Q205.232 665.187 207.037 661.645 Q208.866 658.081 208.866 650.974 Q208.866 643.845 207.037 640.303 Q205.232 636.738 201.598 636.738 M201.598 633.034 Q207.408 633.034 210.463 637.641 Q213.542 642.224 213.542 650.974 Q213.542 659.701 210.463 664.307 Q207.408 668.891 201.598 668.891 Q195.787 668.891 192.709 664.307 Q189.653 659.701 189.653 650.974 Q189.653 642.224 192.709 637.641 Q195.787 633.034 201.598 633.034 Z" fill="#000000" fill-rule="nonzero" fill-opacity="1" /><path clip-path="url(#clip060)" d="M127.2 388.042 Q123.589 388.042 121.76 391.607 Q119.955 395.148 119.955 402.278 Q119.955 409.384 121.76 412.949 Q123.589 416.491 127.2 416.491 Q130.834 416.491 132.64 412.949 Q134.468 409.384 134.468 402.278 Q134.468 395.148 132.64 391.607 Q130.834 388.042 127.2 388.042 M127.2 384.338 Q133.01 384.338 136.066 388.944 Q139.144 393.528 139.144 402.278 Q139.144 411.005 136.066 415.611 Q133.01 420.194 127.2 420.194 Q121.39 420.194 118.311 415.611 Q115.256 411.005 115.256 402.278 Q115.256 393.528 118.311 388.944 Q121.39 384.338 127.2 384.338 Z" fill="#000000" fill-rule="nonzero" fill-opacity="1" /><path clip-path="url(#clip060)" d="M147.362 413.643 L152.246 413.643 L152.246 419.523 L147.362 419.523 L147.362 413.643 Z" fill="#000000" fill-rule="nonzero" fill-opacity="1" /><path clip-path="url(#clip060)" d="M166.459 415.588 L182.778 415.588 L182.778 419.523 L160.834 419.523 L160.834 415.588 Q163.496 412.833 168.079 408.204 Q172.686 403.551 173.866 402.208 Q176.112 399.685 176.991 397.949 Q177.894 396.19 177.894 394.5 Q177.894 391.745 175.95 390.009 Q174.028 388.273 170.927 388.273 Q168.727 388.273 166.274 389.037 Q163.843 389.801 161.065 391.352 L161.065 386.63 Q163.89 385.495 166.343 384.917 Q168.797 384.338 170.834 384.338 Q176.204 384.338 179.399 387.023 Q182.593 389.708 182.593 394.199 Q182.593 396.329 181.783 398.25 Q180.996 400.148 178.889 402.741 Q178.311 403.412 175.209 406.63 Q172.107 409.824 166.459 415.588 Z" fill="#000000" fill-rule="nonzero" fill-opacity="1" /><path clip-path="url(#clip060)" d="M192.639 384.963 L210.996 384.963 L210.996 388.898 L196.922 388.898 L196.922 397.37 Q197.94 397.023 198.959 396.861 Q199.977 396.676 200.996 396.676 Q206.783 396.676 210.162 399.847 Q213.542 403.018 213.542 408.435 Q213.542 414.014 210.07 417.116 Q206.598 420.194 200.278 420.194 Q198.102 420.194 195.834 419.824 Q193.588 419.454 191.181 418.713 L191.181 414.014 Q193.264 415.148 195.487 415.704 Q197.709 416.259 200.186 416.259 Q204.19 416.259 206.528 414.153 Q208.866 412.046 208.866 408.435 Q208.866 404.824 206.528 402.718 Q204.19 400.611 200.186 400.611 Q198.311 400.611 196.436 401.028 Q194.584 401.444 192.639 402.324 L192.639 384.963 Z" fill="#000000" fill-rule="nonzero" fill-opacity="1" /><path clip-path="url(#clip060)" d="M126.205 139.345 Q122.593 139.345 120.765 142.91 Q118.959 146.452 118.959 153.581 Q118.959 160.688 120.765 164.253 Q122.593 167.794 126.205 167.794 Q129.839 167.794 131.644 164.253 Q133.473 160.688 133.473 153.581 Q133.473 146.452 131.644 142.91 Q129.839 139.345 126.205 139.345 M126.205 135.642 Q132.015 135.642 135.07 140.248 Q138.149 144.831 138.149 153.581 Q138.149 162.308 135.07 166.915 Q132.015 171.498 126.205 171.498 Q120.394 171.498 117.316 166.915 Q114.26 162.308 114.26 153.581 Q114.26 144.831 117.316 140.248 Q120.394 135.642 126.205 135.642 Z" fill="#000000" fill-rule="nonzero" fill-opacity="1" /><path clip-path="url(#clip060)" d="M146.366 164.947 L151.251 164.947 L151.251 170.827 L146.366 170.827 L146.366 164.947 Z" fill="#000000" fill-rule="nonzero" fill-opacity="1" /><path clip-path="url(#clip060)" d="M175.602 152.192 Q178.959 152.91 180.834 155.178 Q182.732 157.447 182.732 160.78 Q182.732 165.896 179.214 168.697 Q175.695 171.498 169.214 171.498 Q167.038 171.498 164.723 171.058 Q162.431 170.641 159.978 169.785 L159.978 165.271 Q161.922 166.405 164.237 166.984 Q166.552 167.563 169.075 167.563 Q173.473 167.563 175.764 165.827 Q178.079 164.09 178.079 160.78 Q178.079 157.725 175.926 156.012 Q173.797 154.276 169.977 154.276 L165.95 154.276 L165.95 150.433 L170.163 150.433 Q173.612 150.433 175.44 149.067 Q177.269 147.679 177.269 145.086 Q177.269 142.424 175.371 141.012 Q173.496 139.577 169.977 139.577 Q168.056 139.577 165.857 139.993 Q163.658 140.41 161.019 141.29 L161.019 137.123 Q163.681 136.382 165.996 136.012 Q168.334 135.642 170.394 135.642 Q175.718 135.642 178.82 138.072 Q181.922 140.48 181.922 144.6 Q181.922 147.47 180.278 149.461 Q178.635 151.429 175.602 152.192 Z" fill="#000000" fill-rule="nonzero" fill-opacity="1" /><path clip-path="url(#clip060)" d="M201.598 139.345 Q197.987 139.345 196.158 142.91 Q194.352 146.452 194.352 153.581 Q194.352 160.688 196.158 164.253 Q197.987 167.794 201.598 167.794 Q205.232 167.794 207.037 164.253 Q208.866 160.688 208.866 153.581 Q208.866 146.452 207.037 142.91 Q205.232 139.345 201.598 139.345 M201.598 135.642 Q207.408 135.642 210.463 140.248 Q213.542 144.831 213.542 153.581 Q213.542 162.308 210.463 166.915 Q207.408 171.498 201.598 171.498 Q195.787 171.498 192.709 166.915 Q189.653 162.308 189.653 153.581 Q189.653 144.831 192.709 140.248 Q195.787 135.642 201.598 135.642 Z" fill="#000000" fill-rule="nonzero" fill-opacity="1" /><path clip-path="url(#clip060)" d="M16.4842 875.763 L16.4842 869.334 L35.9632 869.334 L35.9632 845.972 L16.4842 845.972 L16.4842 839.542 L64.0042 839.542 L64.0042 845.972 L41.3741 845.972 L41.3741 869.334 L64.0042 869.334 L64.0042 875.763 L16.4842 875.763 Z" fill="#000000" fill-rule="nonzero" fill-opacity="1" /><path clip-path="url(#clip060)" d="M46.0847 810.801 Q46.0847 817.899 47.7079 820.636 Q49.3312 823.373 53.2461 823.373 Q56.3653 823.373 58.2114 821.336 Q60.0256 819.268 60.0256 815.735 Q60.0256 810.865 56.5881 807.937 Q53.1188 804.977 47.3897 804.977 L46.0847 804.977 L46.0847 810.801 M43.6657 799.12 L64.0042 799.12 L64.0042 804.977 L58.5933 804.977 Q61.8398 806.982 63.3994 809.974 Q64.9272 812.966 64.9272 817.294 Q64.9272 822.769 61.8716 826.015 Q58.7843 829.23 53.6281 829.23 Q47.6125 829.23 44.5569 825.22 Q41.5014 821.177 41.5014 813.188 L41.5014 804.977 L40.9285 804.977 Q36.8862 804.977 34.6901 807.65 Q32.4621 810.292 32.4621 815.098 Q32.4621 818.154 33.1941 821.05 Q33.9262 823.946 35.3903 826.62 L29.9795 826.62 Q28.7381 823.405 28.1334 820.382 Q27.4968 817.358 27.4968 814.493 Q27.4968 806.759 31.5072 802.94 Q35.5176 799.12 43.6657 799.12 Z" fill="#000000" fill-rule="nonzero" fill-opacity="1" /><path clip-path="url(#clip060)" d="M28.3562 789.603 L28.3562 761.785 L33.7034 761.785 L59.3254 783.811 L59.3254 761.785 L64.0042 761.785 L64.0042 790.399 L58.657 790.399 L33.035 768.374 L33.035 789.603 L28.3562 789.603 Z" fill="#000000" fill-rule="nonzero" fill-opacity="1" /><path clip-path="url(#clip060)" d="M46.0847 736.641 Q46.0847 743.738 47.7079 746.476 Q49.3312 749.213 53.2461 749.213 Q56.3653 749.213 58.2114 747.176 Q60.0256 745.107 60.0256 741.574 Q60.0256 736.704 56.5881 733.776 Q53.1188 730.816 47.3897 730.816 L46.0847 730.816 L46.0847 736.641 M43.6657 724.96 L64.0042 724.96 L64.0042 730.816 L58.5933 730.816 Q61.8398 732.821 63.3994 735.813 Q64.9272 738.805 64.9272 743.134 Q64.9272 748.608 61.8716 751.855 Q58.7843 755.069 53.6281 755.069 Q47.6125 755.069 44.5569 751.059 Q41.5014 747.017 41.5014 739.028 L41.5014 730.816 L40.9285 730.816 Q36.8862 730.816 34.6901 733.49 Q32.4621 736.131 32.4621 740.938 Q32.4621 743.993 33.1941 746.889 Q33.9262 749.786 35.3903 752.459 L29.9795 752.459 Q28.7381 749.245 28.1334 746.221 Q27.4968 743.197 27.4968 740.333 Q27.4968 732.598 31.5072 728.779 Q35.5176 724.96 43.6657 724.96 Z" fill="#000000" fill-rule="nonzero" fill-opacity="1" /><path clip-path="url(#clip060)" d="M33.8307 692.24 Q33.2578 693.227 33.0032 694.404 Q32.7167 695.55 32.7167 696.951 Q32.7167 701.916 35.9632 704.589 Q39.1779 707.231 45.2253 707.231 L64.0042 707.231 L64.0042 713.119 L28.3562 713.119 L28.3562 707.231 L33.8944 707.231 Q30.6479 705.385 29.0883 702.425 Q27.4968 699.465 27.4968 695.232 Q27.4968 694.627 27.5923 693.895 Q27.656 693.163 27.8151 692.272 L33.8307 692.24 Z" fill="#000000" fill-rule="nonzero" fill-opacity="1" /><path clip-path="url(#clip060)" d="M33.7671 663.785 L14.479 663.785 L14.479 657.929 L64.0042 657.929 L64.0042 663.785 L58.657 663.785 Q61.8398 665.631 63.3994 668.464 Q64.9272 671.265 64.9272 675.212 Q64.9272 681.673 59.771 685.747 Q54.6147 689.789 46.212 689.789 Q37.8093 689.789 32.6531 685.747 Q27.4968 681.673 27.4968 675.212 Q27.4968 671.265 29.0564 668.464 Q30.5842 665.631 33.7671 663.785 M46.212 683.742 Q52.6732 683.742 56.3653 681.1 Q60.0256 678.426 60.0256 673.779 Q60.0256 669.132 56.3653 666.459 Q52.6732 663.785 46.212 663.785 Q39.7508 663.785 36.0905 666.459 Q32.3984 669.132 32.3984 673.779 Q32.3984 678.426 36.0905 681.1 Q39.7508 683.742 46.212 683.742 Z" fill="#000000" fill-rule="nonzero" fill-opacity="1" /><polyline clip-path="url(#clip062)" style="stroke:#009af9; stroke-linecap:round; stroke-linejoin:round; stroke-width:4; stroke-opacity:1; fill:none" points="249.649,339.029 249.756,238.307 249.863,187.841 249.97,157.03 250.077,136.461 250.184,122.045 250.291,111.664 250.398,104.088 250.505,98.5473 250.612,94.5322 250.719,91.6893 250.826,89.7658 251.04,87.9763 251.254,88.1458 251.682,92.1117 252.109,98.8718 252.537,107.114 252.965,116.15 253.821,135.211 254.677,154.468 255.533,173.314 256.389,191.514 258.1,225.725 259.812,257.084 260.668,271.782 261.523,285.88 262.379,299.418 263.235,312.433 265.213,340.703 267.192,366.738 269.17,390.845 271.148,413.276 273.127,434.24 275.105,453.907 277.083,472.422 279.062,489.907 283.018,522.183 286.975,551.401 290.932,578.063 294.888,602.559 298.845,625.196 302.801,646.218 306.758,665.828 310.715,684.191 314.671,701.444 318.628,717.706 322.585,733.076 326.541,747.638 334.454,774.628 342.368,799.16 350.281,821.612 358.194,842.28 366.108,861.404 374.021,879.177 381.934,895.761 389.847,911.29 399.358,928.717 408.869,944.948 418.381,960.119 427.892,974.348 446.914,1000.35 465.936,1023.6 482.019,1041.45 498.102,1057.88 514.185,1073.09 530.268,1087.23 547.739,1101.5 565.209,1114.79 582.68,1127.2 600.151,1138.82 632.363,1158.47 664.576,1176.13 699.112,1193.22 733.647,1208.71 773.66,1224.95 813.673,1239.66 849.231,1251.61 884.79,1262.67 915.972,1271.71 947.153,1280.2 1015.15,1297.06 1083.54,1312.08 1159.16,1326.85 1231.12,1339.42 1305.93,1351.2 1368.91,1360.24 1445.79,1370.37 1516.23,1378.87 1581.28,1386.15 1647.18,1393.03 1721.02,1400.2 1787.94,1406.27 1864.56,1412.77 1935.51,1418.41 2005.45,1423.64 2073.35,1428.43 2142.96,1433.08 2219.23,1437.9 2330.03,1444.44 2352.76,1445.72 "/>
<path clip-path="url(#clip060)" d="M2019.9 198.898 L2282.65 198.898 L2282.65 95.2176 L2019.9 95.2176  Z" fill="#ffffff" fill-rule="evenodd" fill-opacity="1"/>
<polyline clip-path="url(#clip060)" style="stroke:#000000; stroke-linecap:round; stroke-linejoin:round; stroke-width:4; stroke-opacity:1; fill:none" points="2019.9,198.898 2282.65,198.898 2282.65,95.2176 2019.9,95.2176 2019.9,198.898 "/>
<polyline clip-path="url(#clip060)" style="stroke:#009af9; stroke-linecap:round; stroke-linejoin:round; stroke-width:4; stroke-opacity:1; fill:none" points="2043.27,147.058 2183.48,147.058 "/>
<path clip-path="url(#clip060)" d="M2220.69 166.745 Q2218.89 171.375 2217.17 172.787 Q2215.46 174.199 2212.59 174.199 L2209.19 174.199 L2209.19 170.634 L2211.69 170.634 Q2213.45 170.634 2214.42 169.8 Q2215.39 168.967 2216.57 165.865 L2217.34 163.921 L2206.85 138.412 L2211.36 138.412 L2219.47 158.689 L2227.57 138.412 L2232.08 138.412 L2220.69 166.745 Z" fill="#000000" fill-rule="nonzero" fill-opacity="1" /><path clip-path="url(#clip060)" d="M2239.37 160.402 L2247.01 160.402 L2247.01 134.037 L2238.7 135.703 L2238.7 131.444 L2246.96 129.778 L2251.64 129.778 L2251.64 160.402 L2259.28 160.402 L2259.28 164.338 L2239.37 164.338 L2239.37 160.402 Z" fill="#000000" fill-rule="nonzero" fill-opacity="1" /></svg>
