<?xml version="1.0" encoding="utf-8"?>
<svg xmlns="http://www.w3.org/2000/svg" xmlns:xlink="http://www.w3.org/1999/xlink" width="600" height="400" viewBox="0 0 2400 1600">
<defs>
  <clipPath id="clip120">
    <rect x="0" y="0" width="2400" height="1600"/>
  </clipPath>
</defs>
<path clip-path="url(#clip120)" d="M0 1600 L2400 1600 L2400 0 L0 0  Z" fill="#ffffff" fill-rule="evenodd" fill-opacity="1"/>
<defs>
  <clipPath id="clip121">
    <rect x="480" y="0" width="1681" height="1600"/>
  </clipPath>
</defs>
<path clip-path="url(#clip120)" d="M219.866 1486.45 L2352.76 1486.45 L2352.76 47.2441 L219.866 47.2441  Z" fill="#ffffff" fill-rule="evenodd" fill-opacity="1"/>
<defs>
  <clipPath id="clip122">
    <rect x="219" y="47" width="2134" height="1440"/>
  </clipPath>
</defs>
<polyline clip-path="url(#clip122)" style="stroke:#000000; stroke-linecap:round; stroke-linejoin:round; stroke-width:2; stroke-opacity:0.1; fill:none" points="219.866,1486.45 219.866,47.2441 "/>
<polyline clip-path="url(#clip122)" style="stroke:#000000; stroke-linecap:round; stroke-linejoin:round; stroke-width:2; stroke-opacity:0.1; fill:none" points="646.444,1486.45 646.444,47.2441 "/>
<polyline clip-path="url(#clip122)" style="stroke:#000000; stroke-linecap:round; stroke-linejoin:round; stroke-width:2; stroke-opacity:0.1; fill:none" points="1073.02,1486.45 1073.02,47.2441 "/>
<polyline clip-path="url(#clip122)" style="stroke:#000000; stroke-linecap:round; stroke-linejoin:round; stroke-width:2; stroke-opacity:0.1; fill:none" points="1499.6,1486.45 1499.6,47.2441 "/>
<polyline clip-path="url(#clip122)" style="stroke:#000000; stroke-linecap:round; stroke-linejoin:round; stroke-width:2; stroke-opacity:0.1; fill:none" points="1926.18,1486.45 1926.18,47.2441 "/>
<polyline clip-path="url(#clip122)" style="stroke:#000000; stroke-linecap:round; stroke-linejoin:round; stroke-width:2; stroke-opacity:0.1; fill:none" points="2352.76,1486.45 2352.76,47.2441 "/>
<polyline clip-path="url(#clip120)" style="stroke:#000000; stroke-linecap:round; stroke-linejoin:round; stroke-width:4; stroke-opacity:1; fill:none" points="219.866,1486.45 2352.76,1486.45 "/>
<polyline clip-path="url(#clip120)" style="stroke:#000000; stroke-linecap:round; stroke-linejoin:round; stroke-width:4; stroke-opacity:1; fill:none" points="219.866,1486.45 219.866,1467.55 "/>
<polyline clip-path="url(#clip120)" style="stroke:#000000; stroke-linecap:round; stroke-linejoin:round; stroke-width:4; stroke-opacity:1; fill:none" points="646.444,1486.45 646.444,1467.55 "/>
<polyline clip-path="url(#clip120)" style="stroke:#000000; stroke-linecap:round; stroke-linejoin:round; stroke-width:4; stroke-opacity:1; fill:none" points="1073.02,1486.45 1073.02,1467.55 "/>
<polyline clip-path="url(#clip120)" style="stroke:#000000; stroke-linecap:round; stroke-linejoin:round; stroke-width:4; stroke-opacity:1; fill:none" points="1499.6,1486.45 1499.6,1467.55 "/>
<polyline clip-path="url(#clip120)" style="stroke:#000000; stroke-linecap:round; stroke-linejoin:round; stroke-width:4; stroke-opacity:1; fill:none" points="1926.18,1486.45 1926.18,1467.55 "/>
<polyline clip-path="url(#clip120)" style="stroke:#000000; stroke-linecap:round; stroke-linejoin:round; stroke-width:4; stroke-opacity:1; fill:none" points="2352.76,1486.45 2352.76,1467.55 "/>
<path clip-path="url(#clip120)" d="M219.866 1517.37 Q216.255 1517.37 214.426 1520.93 Q212.621 1524.47 212.621 1531.6 Q212.621 1538.71 214.426 1542.27 Q216.255 1545.82 219.866 1545.82 Q223.501 1545.82 225.306 1542.27 Q227.135 1538.71 227.135 1531.6 Q227.135 1524.47 225.306 1520.93 Q223.501 1517.37 219.866 1517.37 M219.866 1513.66 Q225.676 1513.66 228.732 1518.27 Q231.811 1522.85 231.811 1531.6 Q231.811 1540.33 228.732 1544.94 Q225.676 1549.52 219.866 1549.52 Q214.056 1549.52 210.977 1544.94 Q207.922 1540.33 207.922 1531.6 Q207.922 1522.85 210.977 1518.27 Q214.056 1513.66 219.866 1513.66 Z" fill="#000000" fill-rule="nonzero" fill-opacity="1" /><path clip-path="url(#clip120)" d="M636.826 1544.91 L644.465 1544.91 L644.465 1518.55 L636.155 1520.21 L636.155 1515.95 L644.419 1514.29 L649.095 1514.29 L649.095 1544.91 L656.733 1544.91 L656.733 1548.85 L636.826 1548.85 L636.826 1544.91 Z" fill="#000000" fill-rule="nonzero" fill-opacity="1" /><path clip-path="url(#clip120)" d="M1067.67 1544.91 L1083.99 1544.91 L1083.99 1548.85 L1062.05 1548.85 L1062.05 1544.91 Q1064.71 1542.16 1069.3 1537.53 Q1073.9 1532.88 1075.08 1531.53 Q1077.33 1529.01 1078.21 1527.27 Q1079.11 1525.51 1079.11 1523.82 Q1079.11 1521.07 1077.17 1519.33 Q1075.24 1517.6 1072.14 1517.6 Q1069.94 1517.6 1067.49 1518.36 Q1065.06 1519.13 1062.28 1520.68 L1062.28 1515.95 Q1065.11 1514.82 1067.56 1514.24 Q1070.01 1513.66 1072.05 1513.66 Q1077.42 1513.66 1080.61 1516.35 Q1083.81 1519.03 1083.81 1523.52 Q1083.81 1525.65 1083 1527.57 Q1082.21 1529.47 1080.11 1532.07 Q1079.53 1532.74 1076.42 1535.95 Q1073.32 1539.15 1067.67 1544.91 Z" fill="#000000" fill-rule="nonzero" fill-opacity="1" /><path clip-path="url(#clip120)" d="M1503.85 1530.21 Q1507.2 1530.93 1509.08 1533.2 Q1510.98 1535.47 1510.98 1538.8 Q1510.98 1543.92 1507.46 1546.72 Q1503.94 1549.52 1497.46 1549.52 Q1495.28 1549.52 1492.97 1549.08 Q1490.68 1548.66 1488.22 1547.81 L1488.22 1543.29 Q1490.17 1544.43 1492.48 1545.01 Q1494.8 1545.58 1497.32 1545.58 Q1501.72 1545.58 1504.01 1543.85 Q1506.32 1542.11 1506.32 1538.8 Q1506.32 1535.75 1504.17 1534.03 Q1502.04 1532.3 1498.22 1532.3 L1494.19 1532.3 L1494.19 1528.45 L1498.41 1528.45 Q1501.86 1528.45 1503.69 1527.09 Q1505.51 1525.7 1505.51 1523.11 Q1505.51 1520.45 1503.62 1519.03 Q1501.74 1517.6 1498.22 1517.6 Q1496.3 1517.6 1494.1 1518.01 Q1491.9 1518.43 1489.26 1519.31 L1489.26 1515.14 Q1491.93 1514.4 1494.24 1514.03 Q1496.58 1513.66 1498.64 1513.66 Q1503.96 1513.66 1507.07 1516.09 Q1510.17 1518.5 1510.17 1522.62 Q1510.17 1525.49 1508.52 1527.48 Q1506.88 1529.45 1503.85 1530.21 Z" fill="#000000" fill-rule="nonzero" fill-opacity="1" /><path clip-path="url(#clip120)" d="M1929.19 1518.36 L1917.38 1536.81 L1929.19 1536.81 L1929.19 1518.36 M1927.96 1514.29 L1933.84 1514.29 L1933.84 1536.81 L1938.77 1536.81 L1938.77 1540.7 L1933.84 1540.7 L1933.84 1548.85 L1929.19 1548.85 L1929.19 1540.7 L1913.59 1540.7 L1913.59 1536.19 L1927.96 1514.29 Z" fill="#000000" fill-rule="nonzero" fill-opacity="1" /><path clip-path="url(#clip120)" d="M2343.03 1514.29 L2361.39 1514.29 L2361.39 1518.22 L2347.32 1518.22 L2347.32 1526.7 Q2348.33 1526.35 2349.35 1526.19 Q2350.37 1526 2351.39 1526 Q2357.18 1526 2360.56 1529.17 Q2363.94 1532.34 2363.94 1537.76 Q2363.94 1543.34 2360.46 1546.44 Q2356.99 1549.52 2350.67 1549.52 Q2348.5 1549.52 2346.23 1549.15 Q2343.98 1548.78 2341.58 1548.04 L2341.58 1543.34 Q2343.66 1544.47 2345.88 1545.03 Q2348.1 1545.58 2350.58 1545.58 Q2354.58 1545.58 2356.92 1543.48 Q2359.26 1541.37 2359.26 1537.76 Q2359.26 1534.15 2356.92 1532.04 Q2354.58 1529.94 2350.58 1529.94 Q2348.71 1529.94 2346.83 1530.35 Q2344.98 1530.77 2343.03 1531.65 L2343.03 1514.29 Z" fill="#000000" fill-rule="nonzero" fill-opacity="1" /><polyline clip-path="url(#clip122)" style="stroke:#000000; stroke-linecap:round; stroke-linejoin:round; stroke-width:2; stroke-opacity:0.1; fill:none" points="219.866,1486.45 2352.76,1486.45 "/>
<polyline clip-path="url(#clip122)" style="stroke:#000000; stroke-linecap:round; stroke-linejoin:round; stroke-width:2; stroke-opacity:0.1; fill:none" points="219.866,1219.51 2352.76,1219.51 "/>
<polyline clip-path="url(#clip122)" style="stroke:#000000; stroke-linecap:round; stroke-linejoin:round; stroke-width:2; stroke-opacity:0.1; fill:none" points="219.866,952.574 2352.76,952.574 "/>
<polyline clip-path="url(#clip122)" style="stroke:#000000; stroke-linecap:round; stroke-linejoin:round; stroke-width:2; stroke-opacity:0.1; fill:none" points="219.866,685.637 2352.76,685.637 "/>
<polyline clip-path="url(#clip122)" style="stroke:#000000; stroke-linecap:round; stroke-linejoin:round; stroke-width:2; stroke-opacity:0.1; fill:none" points="219.866,418.7 2352.76,418.7 "/>
<polyline clip-path="url(#clip122)" style="stroke:#000000; stroke-linecap:round; stroke-linejoin:round; stroke-width:2; stroke-opacity:0.1; fill:none" points="219.866,151.763 2352.76,151.763 "/>
<polyline clip-path="url(#clip120)" style="stroke:#000000; stroke-linecap:round; stroke-linejoin:round; stroke-width:4; stroke-opacity:1; fill:none" points="219.866,1486.45 219.866,47.2441 "/>
<polyline clip-path="url(#clip120)" style="stroke:#000000; stroke-linecap:round; stroke-linejoin:round; stroke-width:4; stroke-opacity:1; fill:none" points="219.866,1486.45 238.764,1486.45 "/>
<polyline clip-path="url(#clip120)" style="stroke:#000000; stroke-linecap:round; stroke-linejoin:round; stroke-width:4; stroke-opacity:1; fill:none" points="219.866,1219.51 238.764,1219.51 "/>
<polyline clip-path="url(#clip120)" style="stroke:#000000; stroke-linecap:round; stroke-linejoin:round; stroke-width:4; stroke-opacity:1; fill:none" points="219.866,952.574 238.764,952.574 "/>
<polyline clip-path="url(#clip120)" style="stroke:#000000; stroke-linecap:round; stroke-linejoin:round; stroke-width:4; stroke-opacity:1; fill:none" points="219.866,685.637 238.764,685.637 "/>
<polyline clip-path="url(#clip120)" style="stroke:#000000; stroke-linecap:round; stroke-linejoin:round; stroke-width:4; stroke-opacity:1; fill:none" points="219.866,418.7 238.764,418.7 "/>
<polyline clip-path="url(#clip120)" style="stroke:#000000; stroke-linecap:round; stroke-linejoin:round; stroke-width:4; stroke-opacity:1; fill:none" points="219.866,151.763 238.764,151.763 "/>
<path clip-path="url(#clip120)" d="M126.691 1472.25 Q123.08 1472.25 121.251 1475.81 Q119.445 1479.35 119.445 1486.48 Q119.445 1493.59 121.251 1497.15 Q123.08 1500.7 126.691 1500.7 Q130.325 1500.7 132.13 1497.15 Q133.959 1493.59 133.959 1486.48 Q133.959 1479.35 132.13 1475.81 Q130.325 1472.25 126.691 1472.25 M126.691 1468.54 Q132.501 1468.54 135.556 1473.15 Q138.635 1477.73 138.635 1486.48 Q138.635 1495.21 135.556 1499.82 Q132.501 1504.4 126.691 1504.4 Q120.88 1504.4 117.802 1499.82 Q114.746 1495.21 114.746 1486.48 Q114.746 1477.73 117.802 1473.15 Q120.88 1468.54 126.691 1468.54 Z" fill="#000000" fill-rule="nonzero" fill-opacity="1" /><path clip-path="url(#clip120)" d="M146.853 1497.85 L151.737 1497.85 L151.737 1503.73 L146.853 1503.73 L146.853 1497.85 Z" fill="#000000" fill-rule="nonzero" fill-opacity="1" /><path clip-path="url(#clip120)" d="M171.922 1472.25 Q168.311 1472.25 166.482 1475.81 Q164.677 1479.35 164.677 1486.48 Q164.677 1493.59 166.482 1497.15 Q168.311 1500.7 171.922 1500.7 Q175.556 1500.7 177.362 1497.15 Q179.19 1493.59 179.19 1486.48 Q179.19 1479.35 177.362 1475.81 Q175.556 1472.25 171.922 1472.25 M171.922 1468.54 Q177.732 1468.54 180.788 1473.15 Q183.866 1477.73 183.866 1486.48 Q183.866 1495.21 180.788 1499.82 Q177.732 1504.4 171.922 1504.4 Q166.112 1504.4 163.033 1499.82 Q159.978 1495.21 159.978 1486.48 Q159.978 1477.73 163.033 1473.15 Q166.112 1468.54 171.922 1468.54 Z" fill="#000000" fill-rule="nonzero" fill-opacity="1" /><path clip-path="url(#clip120)" d="M127.917 1205.31 Q124.306 1205.31 122.478 1208.87 Q120.672 1212.42 120.672 1219.55 Q120.672 1226.65 122.478 1230.22 Q124.306 1233.76 127.917 1233.76 Q131.552 1233.76 133.357 1230.22 Q135.186 1226.65 135.186 1219.55 Q135.186 1212.42 133.357 1208.87 Q131.552 1205.31 127.917 1205.31 M127.917 1201.61 Q133.728 1201.61 136.783 1206.21 Q139.862 1210.8 139.862 1219.55 Q139.862 1228.27 136.783 1232.88 Q133.728 1237.46 127.917 1237.46 Q122.107 1237.46 119.029 1232.88 Q115.973 1228.27 115.973 1219.55 Q115.973 1210.8 119.029 1206.21 Q122.107 1201.61 127.917 1201.61 Z" fill="#000000" fill-rule="nonzero" fill-opacity="1" /><path clip-path="url(#clip120)" d="M148.079 1230.91 L152.964 1230.91 L152.964 1236.79 L148.079 1236.79 L148.079 1230.91 Z" fill="#000000" fill-rule="nonzero" fill-opacity="1" /><path clip-path="url(#clip120)" d="M163.959 1232.86 L171.598 1232.86 L171.598 1206.49 L163.288 1208.16 L163.288 1203.9 L171.552 1202.23 L176.227 1202.23 L176.227 1232.86 L183.866 1232.86 L183.866 1236.79 L163.959 1236.79 L163.959 1232.86 Z" fill="#000000" fill-rule="nonzero" fill-opacity="1" /><path clip-path="url(#clip120)" d="M128.288 938.373 Q124.677 938.373 122.848 941.937 Q121.043 945.479 121.043 952.609 Q121.043 959.715 122.848 963.28 Q124.677 966.822 128.288 966.822 Q131.922 966.822 133.728 963.28 Q135.556 959.715 135.556 952.609 Q135.556 945.479 133.728 941.937 Q131.922 938.373 128.288 938.373 M128.288 934.669 Q134.098 934.669 137.154 939.275 Q140.232 943.859 140.232 952.609 Q140.232 961.335 137.154 965.942 Q134.098 970.525 128.288 970.525 Q122.478 970.525 119.399 965.942 Q116.343 961.335 116.343 952.609 Q116.343 943.859 119.399 939.275 Q122.478 934.669 128.288 934.669 Z" fill="#000000" fill-rule="nonzero" fill-opacity="1" /><path clip-path="url(#clip120)" d="M148.45 963.974 L153.334 963.974 L153.334 969.854 L148.45 969.854 L148.45 963.974 Z" fill="#000000" fill-rule="nonzero" fill-opacity="1" /><path clip-path="url(#clip120)" d="M167.547 965.919 L183.866 965.919 L183.866 969.854 L161.922 969.854 L161.922 965.919 Q164.584 963.164 169.167 958.535 Q173.774 953.882 174.954 952.539 Q177.2 950.016 178.079 948.28 Q178.982 946.521 178.982 944.831 Q178.982 942.076 177.038 940.34 Q175.116 938.604 172.014 938.604 Q169.815 938.604 167.362 939.368 Q164.931 940.132 162.153 941.683 L162.153 936.961 Q164.977 935.826 167.431 935.248 Q169.885 934.669 171.922 934.669 Q177.292 934.669 180.487 937.354 Q183.681 940.039 183.681 944.53 Q183.681 946.66 182.871 948.581 Q182.084 950.479 179.977 953.072 Q179.399 953.743 176.297 956.961 Q173.195 960.155 167.547 965.919 Z" fill="#000000" fill-rule="nonzero" fill-opacity="1" /><path clip-path="url(#clip120)" d="M127.339 671.436 Q123.728 671.436 121.899 675 Q120.093 678.542 120.093 685.672 Q120.093 692.778 121.899 696.343 Q123.728 699.885 127.339 699.885 Q130.973 699.885 132.779 696.343 Q134.607 692.778 134.607 685.672 Q134.607 678.542 132.779 675 Q130.973 671.436 127.339 671.436 M127.339 667.732 Q133.149 667.732 136.204 672.338 Q139.283 676.922 139.283 685.672 Q139.283 694.399 136.204 699.005 Q133.149 703.588 127.339 703.588 Q121.529 703.588 118.45 699.005 Q115.394 694.399 115.394 685.672 Q115.394 676.922 118.45 672.338 Q121.529 667.732 127.339 667.732 Z" fill="#000000" fill-rule="nonzero" fill-opacity="1" /><path clip-path="url(#clip120)" d="M147.501 697.037 L152.385 697.037 L152.385 702.917 L147.501 702.917 L147.501 697.037 Z" fill="#000000" fill-rule="nonzero" fill-opacity="1" /><path clip-path="url(#clip120)" d="M176.737 684.283 Q180.093 685 181.968 687.269 Q183.866 689.537 183.866 692.871 Q183.866 697.986 180.348 700.787 Q176.829 703.588 170.348 703.588 Q168.172 703.588 165.857 703.148 Q163.565 702.732 161.112 701.875 L161.112 697.361 Q163.056 698.496 165.371 699.074 Q167.686 699.653 170.209 699.653 Q174.607 699.653 176.899 697.917 Q179.214 696.181 179.214 692.871 Q179.214 689.815 177.061 688.102 Q174.931 686.366 171.112 686.366 L167.084 686.366 L167.084 682.524 L171.297 682.524 Q174.746 682.524 176.575 681.158 Q178.403 679.769 178.403 677.176 Q178.403 674.514 176.505 673.102 Q174.63 671.667 171.112 671.667 Q169.19 671.667 166.991 672.084 Q164.792 672.5 162.153 673.38 L162.153 669.213 Q164.815 668.473 167.13 668.102 Q169.468 667.732 171.528 667.732 Q176.852 667.732 179.954 670.163 Q183.056 672.57 183.056 676.69 Q183.056 679.561 181.413 681.551 Q179.769 683.519 176.737 684.283 Z" fill="#000000" fill-rule="nonzero" fill-opacity="1" /><path clip-path="url(#clip120)" d="M126.205 404.499 Q122.593 404.499 120.765 408.064 Q118.959 411.605 118.959 418.735 Q118.959 425.841 120.765 429.406 Q122.593 432.948 126.205 432.948 Q129.839 432.948 131.644 429.406 Q133.473 425.841 133.473 418.735 Q133.473 411.605 131.644 408.064 Q129.839 404.499 126.205 404.499 M126.205 400.795 Q132.015 400.795 135.07 405.401 Q138.149 409.985 138.149 418.735 Q138.149 427.462 135.07 432.068 Q132.015 436.651 126.205 436.651 Q120.394 436.651 117.316 432.068 Q114.26 427.462 114.26 418.735 Q114.26 409.985 117.316 405.401 Q120.394 400.795 126.205 400.795 Z" fill="#000000" fill-rule="nonzero" fill-opacity="1" /><path clip-path="url(#clip120)" d="M146.366 430.1 L151.251 430.1 L151.251 435.98 L146.366 435.98 L146.366 430.1 Z" fill="#000000" fill-rule="nonzero" fill-opacity="1" /><path clip-path="url(#clip120)" d="M174.283 405.494 L162.477 423.943 L174.283 423.943 L174.283 405.494 M173.056 401.42 L178.936 401.42 L178.936 423.943 L183.866 423.943 L183.866 427.832 L178.936 427.832 L178.936 435.98 L174.283 435.98 L174.283 427.832 L158.681 427.832 L158.681 423.318 L173.056 401.42 Z" fill="#000000" fill-rule="nonzero" fill-opacity="1" /><path clip-path="url(#clip120)" d="M127.686 137.562 Q124.075 137.562 122.246 141.127 Q120.441 144.668 120.441 151.798 Q120.441 158.904 122.246 162.469 Q124.075 166.011 127.686 166.011 Q131.32 166.011 133.126 162.469 Q134.954 158.904 134.954 151.798 Q134.954 144.668 133.126 141.127 Q131.32 137.562 127.686 137.562 M127.686 133.858 Q133.496 133.858 136.552 138.465 Q139.63 143.048 139.63 151.798 Q139.63 160.525 136.552 165.131 Q133.496 169.714 127.686 169.714 Q121.876 169.714 118.797 165.131 Q115.742 160.525 115.742 151.798 Q115.742 143.048 118.797 138.465 Q121.876 133.858 127.686 133.858 Z" fill="#000000" fill-rule="nonzero" fill-opacity="1" /><path clip-path="url(#clip120)" d="M147.848 163.163 L152.732 163.163 L152.732 169.043 L147.848 169.043 L147.848 163.163 Z" fill="#000000" fill-rule="nonzero" fill-opacity="1" /><path clip-path="url(#clip120)" d="M162.964 134.483 L181.32 134.483 L181.32 138.418 L167.246 138.418 L167.246 146.89 Q168.264 146.543 169.283 146.381 Q170.302 146.196 171.32 146.196 Q177.107 146.196 180.487 149.367 Q183.866 152.539 183.866 157.955 Q183.866 163.534 180.394 166.636 Q176.922 169.714 170.602 169.714 Q168.427 169.714 166.158 169.344 Q163.913 168.974 161.505 168.233 L161.505 163.534 Q163.589 164.668 165.811 165.224 Q168.033 165.779 170.51 165.779 Q174.514 165.779 176.852 163.673 Q179.19 161.566 179.19 157.955 Q179.19 154.344 176.852 152.238 Q174.514 150.131 170.51 150.131 Q168.635 150.131 166.76 150.548 Q164.908 150.964 162.964 151.844 L162.964 134.483 Z" fill="#000000" fill-rule="nonzero" fill-opacity="1" /><path clip-path="url(#clip120)" d="M21.7677 880.156 L58.7206 880.156 L58.7206 872.389 Q58.7206 862.554 54.2646 858.003 Q49.8086 853.42 40.1964 853.42 Q30.6479 853.42 26.2237 858.003 Q21.7677 862.554 21.7677 872.389 L21.7677 880.156 M16.4842 886.585 L16.4842 873.376 Q16.4842 859.563 22.2451 853.101 Q27.9743 846.64 40.1964 846.64 Q52.4822 846.64 58.2432 853.133 Q64.0042 859.626 64.0042 873.376 L64.0042 886.585 L16.4842 886.585 Z" fill="#000000" fill-rule="nonzero" fill-opacity="1" /><path clip-path="url(#clip120)" d="M44.7161 806.154 L47.5806 806.154 L47.5806 833.081 Q53.6281 832.699 56.8109 829.453 Q59.9619 826.174 59.9619 820.35 Q59.9619 816.976 59.1344 813.825 Q58.3069 810.642 56.6518 807.523 L62.1899 807.523 Q63.5267 810.674 64.227 813.984 Q64.9272 817.294 64.9272 820.7 Q64.9272 829.23 59.9619 834.227 Q54.9967 839.192 46.5303 839.192 Q37.7774 839.192 32.6531 834.482 Q27.4968 829.739 27.4968 821.718 Q27.4968 814.525 32.1438 810.356 Q36.7589 806.154 44.7161 806.154 M42.9973 812.011 Q38.1912 812.074 35.3266 814.716 Q32.4621 817.326 32.4621 821.655 Q32.4621 826.556 35.2312 829.516 Q38.0002 832.445 43.0292 832.89 L42.9973 812.011 Z" fill="#000000" fill-rule="nonzero" fill-opacity="1" /><path clip-path="url(#clip120)" d="M42.4881 766.91 L64.0042 766.91 L64.0042 772.766 L42.679 772.766 Q37.6183 772.766 35.1038 774.739 Q32.5894 776.713 32.5894 780.66 Q32.5894 785.402 35.6131 788.139 Q38.6368 790.877 43.8567 790.877 L64.0042 790.877 L64.0042 796.765 L28.3562 796.765 L28.3562 790.877 L33.8944 790.877 Q30.6797 788.776 29.0883 785.943 Q27.4968 783.079 27.4968 779.355 Q27.4968 773.212 31.3163 770.061 Q35.1038 766.91 42.4881 766.91 Z" fill="#000000" fill-rule="nonzero" fill-opacity="1" /><path clip-path="url(#clip120)" d="M29.4065 732.503 L34.9447 732.503 Q33.6716 734.986 33.035 737.659 Q32.3984 740.333 32.3984 743.197 Q32.3984 747.558 33.7352 749.754 Q35.072 751.918 37.7456 751.918 Q39.7826 751.918 40.9603 750.359 Q42.1061 748.799 43.1565 744.089 L43.6021 742.083 Q44.9389 735.845 47.3897 733.235 Q49.8086 730.593 54.1691 730.593 Q59.1344 730.593 62.0308 734.54 Q64.9272 738.455 64.9272 745.33 Q64.9272 748.194 64.3543 751.314 Q63.8132 754.401 62.6992 757.839 L56.6518 757.839 Q58.3387 754.592 59.198 751.441 Q60.0256 748.29 60.0256 745.203 Q60.0256 741.065 58.6251 738.837 Q57.1929 736.609 54.6147 736.609 Q52.2276 736.609 50.9545 738.232 Q49.6813 739.824 48.5037 745.266 L48.0262 747.303 Q46.8804 752.746 44.5251 755.165 Q42.138 757.584 38.0002 757.584 Q32.9713 757.584 30.2341 754.019 Q27.4968 750.454 27.4968 743.898 Q27.4968 740.651 27.9743 737.787 Q28.4517 734.922 29.4065 732.503 Z" fill="#000000" fill-rule="nonzero" fill-opacity="1" /><path clip-path="url(#clip120)" d="M28.3562 721.268 L28.3562 715.411 L64.0042 715.411 L64.0042 721.268 L28.3562 721.268 M14.479 721.268 L14.479 715.411 L21.895 715.411 L21.895 721.268 L14.479 721.268 Z" fill="#000000" fill-rule="nonzero" fill-opacity="1" /><path clip-path="url(#clip120)" d="M18.2347 697.364 L28.3562 697.364 L28.3562 685.301 L32.9077 685.301 L32.9077 697.364 L52.2594 697.364 Q56.6199 697.364 57.8613 696.187 Q59.1026 694.977 59.1026 691.317 L59.1026 685.301 L64.0042 685.301 L64.0042 691.317 Q64.0042 698.096 61.4897 700.674 Q58.9434 703.253 52.2594 703.253 L32.9077 703.253 L32.9077 707.549 L28.3562 707.549 L28.3562 703.253 L18.2347 703.253 L18.2347 697.364 Z" fill="#000000" fill-rule="nonzero" fill-opacity="1" /><path clip-path="url(#clip120)" d="M67.3143 662.767 Q73.68 665.249 75.6216 667.605 Q77.5631 669.96 77.5631 673.907 L77.5631 678.585 L72.6615 678.585 L72.6615 675.148 Q72.6615 672.729 71.5157 671.392 Q70.3699 670.055 66.1048 668.432 L63.4312 667.382 L28.3562 681.8 L28.3562 675.594 L56.238 664.454 L28.3562 653.314 L28.3562 647.107 L67.3143 662.767 Z" fill="#000000" fill-rule="nonzero" fill-opacity="1" /><path clip-path="url(#clip122)" d="M219.866 178.081 L219.866 1486.45 L293.414 1486.45 L293.414 178.081 L219.866 178.081 L219.866 178.081  Z" fill="#009af9" fill-rule="evenodd" fill-opacity="1"/>
<polyline clip-path="url(#clip122)" style="stroke:#000000; stroke-linecap:round; stroke-linejoin:round; stroke-width:4; stroke-opacity:1; fill:none" points="219.866,178.081 219.866,1486.45 293.414,1486.45 293.414,178.081 219.866,178.081 "/>
<path clip-path="url(#clip122)" d="M293.414 265.305 L293.414 1486.45 L366.962 1486.45 L366.962 265.305 L293.414 265.305 L293.414 265.305  Z" fill="#009af9" fill-rule="evenodd" fill-opacity="1"/>
<polyline clip-path="url(#clip122)" style="stroke:#000000; stroke-linecap:round; stroke-linejoin:round; stroke-width:4; stroke-opacity:1; fill:none" points="293.414,265.305 293.414,1486.45 366.962,1486.45 366.962,265.305 293.414,265.305 "/>
<path clip-path="url(#clip122)" d="M366.962 47.2441 L366.962 1486.45 L440.51 1486.45 L440.51 47.2441 L366.962 47.2441 L366.962 47.2441  Z" fill="#009af9" fill-rule="evenodd" fill-opacity="1"/>
<polyline clip-path="url(#clip122)" style="stroke:#000000; stroke-linecap:round; stroke-linejoin:round; stroke-width:4; stroke-opacity:1; fill:none" points="366.962,47.2441 366.962,1486.45 440.51,1486.45 440.51,47.2441 366.962,47.2441 "/>
<path clip-path="url(#clip122)" d="M440.51 439.754 L440.51 1486.45 L514.058 1486.45 L514.058 439.754 L440.51 439.754 L440.51 439.754  Z" fill="#009af9" fill-rule="evenodd" fill-opacity="1"/>
<polyline clip-path="url(#clip122)" style="stroke:#000000; stroke-linecap:round; stroke-linejoin:round; stroke-width:4; stroke-opacity:1; fill:none" points="440.51,439.754 440.51,1486.45 514.058,1486.45 514.058,439.754 440.51,439.754 "/>
<path clip-path="url(#clip122)" d="M514.058 526.979 L514.058 1486.45 L587.606 1486.45 L587.606 526.979 L514.058 526.979 L514.058 526.979  Z" fill="#009af9" fill-rule="evenodd" fill-opacity="1"/>
<polyline clip-path="url(#clip122)" style="stroke:#000000; stroke-linecap:round; stroke-linejoin:round; stroke-width:4; stroke-opacity:1; fill:none" points="514.058,526.979 514.058,1486.45 587.606,1486.45 587.606,526.979 514.058,526.979 "/>
<path clip-path="url(#clip122)" d="M587.606 614.203 L587.606 1486.45 L661.154 1486.45 L661.154 614.203 L587.606 614.203 L587.606 614.203  Z" fill="#009af9" fill-rule="evenodd" fill-opacity="1"/>
<polyline clip-path="url(#clip122)" style="stroke:#000000; stroke-linecap:round; stroke-linejoin:round; stroke-width:4; stroke-opacity:1; fill:none" points="587.606,614.203 587.606,1486.45 661.154,1486.45 661.154,614.203 587.606,614.203 "/>
<path clip-path="url(#clip122)" d="M661.154 875.877 L661.154 1486.45 L734.702 1486.45 L734.702 875.877 L661.154 875.877 L661.154 875.877  Z" fill="#009af9" fill-rule="evenodd" fill-opacity="1"/>
<polyline clip-path="url(#clip122)" style="stroke:#000000; stroke-linecap:round; stroke-linejoin:round; stroke-width:4; stroke-opacity:1; fill:none" points="661.154,875.877 661.154,1486.45 734.702,1486.45 734.702,875.877 661.154,875.877 "/>
<path clip-path="url(#clip122)" d="M734.702 570.591 L734.702 1486.45 L808.25 1486.45 L808.25 570.591 L734.702 570.591 L734.702 570.591  Z" fill="#009af9" fill-rule="evenodd" fill-opacity="1"/>
<polyline clip-path="url(#clip122)" style="stroke:#000000; stroke-linecap:round; stroke-linejoin:round; stroke-width:4; stroke-opacity:1; fill:none" points="734.702,570.591 734.702,1486.45 808.25,1486.45 808.25,570.591 734.702,570.591 "/>
<path clip-path="url(#clip122)" d="M808.25 788.652 L808.25 1486.45 L881.798 1486.45 L881.798 788.652 L808.25 788.652 L808.25 788.652  Z" fill="#009af9" fill-rule="evenodd" fill-opacity="1"/>
<polyline clip-path="url(#clip122)" style="stroke:#000000; stroke-linecap:round; stroke-linejoin:round; stroke-width:4; stroke-opacity:1; fill:none" points="808.25,788.652 808.25,1486.45 881.798,1486.45 881.798,788.652 808.25,788.652 "/>
<path clip-path="url(#clip122)" d="M881.798 919.489 L881.798 1486.45 L955.345 1486.45 L955.345 919.489 L881.798 919.489 L881.798 919.489  Z" fill="#009af9" fill-rule="evenodd" fill-opacity="1"/>
<polyline clip-path="url(#clip122)" style="stroke:#000000; stroke-linecap:round; stroke-linejoin:round; stroke-width:4; stroke-opacity:1; fill:none" points="881.798,919.489 881.798,1486.45 955.345,1486.45 955.345,919.489 881.798,919.489 "/>
<path clip-path="url(#clip122)" d="M955.345 1006.71 L955.345 1486.45 L1028.89 1486.45 L1028.89 1006.71 L955.345 1006.71 L955.345 1006.71  Z" fill="#009af9" fill-rule="evenodd" fill-opacity="1"/>
<polyline clip-path="url(#clip122)" style="stroke:#000000; stroke-linecap:round; stroke-linejoin:round; stroke-width:4; stroke-opacity:1; fill:none" points="955.345,1006.71 955.345,1486.45 1028.89,1486.45 1028.89,1006.71 955.345,1006.71 "/>
<path clip-path="url(#clip122)" d="M1028.89 1093.94 L1028.89 1486.45 L1102.44 1486.45 L1102.44 1093.94 L1028.89 1093.94 L1028.89 1093.94  Z" fill="#009af9" fill-rule="evenodd" fill-opacity="1"/>
<polyline clip-path="url(#clip122)" style="stroke:#000000; stroke-linecap:round; stroke-linejoin:round; stroke-width:4; stroke-opacity:1; fill:none" points="1028.89,1093.94 1028.89,1486.45 1102.44,1486.45 1102.44,1093.94 1028.89,1093.94 "/>
<path clip-path="url(#clip122)" d="M1102.44 1050.33 L1102.44 1486.45 L1175.99 1486.45 L1175.99 1050.33 L1102.44 1050.33 L1102.44 1050.33  Z" fill="#009af9" fill-rule="evenodd" fill-opacity="1"/>
<polyline clip-path="url(#clip122)" style="stroke:#000000; stroke-linecap:round; stroke-linejoin:round; stroke-width:4; stroke-opacity:1; fill:none" points="1102.44,1050.33 1102.44,1486.45 1175.99,1486.45 1175.99,1050.33 1102.44,1050.33 "/>
<path clip-path="url(#clip122)" d="M1175.99 1050.33 L1175.99 1486.45 L1249.54 1486.45 L1249.54 1050.33 L1175.99 1050.33 L1175.99 1050.33  Z" fill="#009af9" fill-rule="evenodd" fill-opacity="1"/>
<polyline clip-path="url(#clip122)" style="stroke:#000000; stroke-linecap:round; stroke-linejoin:round; stroke-width:4; stroke-opacity:1; fill:none" points="1175.99,1050.33 1175.99,1486.45 1249.54,1486.45 1249.54,1050.33 1175.99,1050.33 "/>
<path clip-path="url(#clip122)" d="M1249.54 1137.55 L1249.54 1486.45 L1323.09 1486.45 L1323.09 1137.55 L1249.54 1137.55 L1249.54 1137.55  Z" fill="#009af9" fill-rule="evenodd" fill-opacity="1"/>
<polyline clip-path="url(#clip122)" style="stroke:#000000; stroke-linecap:round; stroke-linejoin:round; stroke-width:4; stroke-opacity:1; fill:none" points="1249.54,1137.55 1249.54,1486.45 1323.09,1486.45 1323.09,1137.55 1249.54,1137.55 "/>
<path clip-path="url(#clip122)" d="M1323.09 1093.94 L1323.09 1486.45 L1396.63 1486.45 L1396.63 1093.94 L1323.09 1093.94 L1323.09 1093.94  Z" fill="#009af9" fill-rule="evenodd" fill-opacity="1"/>
<polyline clip-path="url(#clip122)" style="stroke:#000000; stroke-linecap:round; stroke-linejoin:round; stroke-width:4; stroke-opacity:1; fill:none" points="1323.09,1093.94 1323.09,1486.45 1396.63,1486.45 1396.63,1093.94 1323.09,1093.94 "/>
<path clip-path="url(#clip122)" d="M1396.63 1268.39 L1396.63 1486.45 L1470.18 1486.45 L1470.18 1268.39 L1396.63 1268.39 L1396.63 1268.39  Z" fill="#009af9" fill-rule="evenodd" fill-opacity="1"/>
<polyline clip-path="url(#clip122)" style="stroke:#000000; stroke-linecap:round; stroke-linejoin:round; stroke-width:4; stroke-opacity:1; fill:none" points="1396.63,1268.39 1396.63,1486.45 1470.18,1486.45 1470.18,1268.39 1396.63,1268.39 "/>
<path clip-path="url(#clip122)" d="M1470.18 1137.55 L1470.18 1486.45 L1543.73 1486.45 L1543.73 1137.55 L1470.18 1137.55 L1470.18 1137.55  Z" fill="#009af9" fill-rule="evenodd" fill-opacity="1"/>
<polyline clip-path="url(#clip122)" style="stroke:#000000; stroke-linecap:round; stroke-linejoin:round; stroke-width:4; stroke-opacity:1; fill:none" points="1470.18,1137.55 1470.18,1486.45 1543.73,1486.45 1543.73,1137.55 1470.18,1137.55 "/>
<path clip-path="url(#clip122)" d="M1543.73 1312 L1543.73 1486.45 L1617.28 1486.45 L1617.28 1312 L1543.73 1312 L1543.73 1312  Z" fill="#009af9" fill-rule="evenodd" fill-opacity="1"/>
<polyline clip-path="url(#clip122)" style="stroke:#000000; stroke-linecap:round; stroke-linejoin:round; stroke-width:4; stroke-opacity:1; fill:none" points="1543.73,1312 1543.73,1486.45 1617.28,1486.45 1617.28,1312 1543.73,1312 "/>
<path clip-path="url(#clip122)" d="M1617.28 1224.77 L1617.28 1486.45 L1690.82 1486.45 L1690.82 1224.77 L1617.28 1224.77 L1617.28 1224.77  Z" fill="#009af9" fill-rule="evenodd" fill-opacity="1"/>
<polyline clip-path="url(#clip122)" style="stroke:#000000; stroke-linecap:round; stroke-linejoin:round; stroke-width:4; stroke-opacity:1; fill:none" points="1617.28,1224.77 1617.28,1486.45 1690.82,1486.45 1690.82,1224.77 1617.28,1224.77 "/>
<path clip-path="url(#clip122)" d="M1690.82 1137.55 L1690.82 1486.45 L1764.37 1486.45 L1764.37 1137.55 L1690.82 1137.55 L1690.82 1137.55  Z" fill="#009af9" fill-rule="evenodd" fill-opacity="1"/>
<polyline clip-path="url(#clip122)" style="stroke:#000000; stroke-linecap:round; stroke-linejoin:round; stroke-width:4; stroke-opacity:1; fill:none" points="1690.82,1137.55 1690.82,1486.45 1764.37,1486.45 1764.37,1137.55 1690.82,1137.55 "/>
<path clip-path="url(#clip122)" d="M1764.37 1268.39 L1764.37 1486.45 L1837.92 1486.45 L1837.92 1268.39 L1764.37 1268.39 L1764.37 1268.39  Z" fill="#009af9" fill-rule="evenodd" fill-opacity="1"/>
<polyline clip-path="url(#clip122)" style="stroke:#000000; stroke-linecap:round; stroke-linejoin:round; stroke-width:4; stroke-opacity:1; fill:none" points="1764.37,1268.39 1764.37,1486.45 1837.92,1486.45 1837.92,1268.39 1764.37,1268.39 "/>
<path clip-path="url(#clip122)" d="M1837.92 1093.94 L1837.92 1486.45 L1911.47 1486.45 L1911.47 1093.94 L1837.92 1093.94 L1837.92 1093.94  Z" fill="#009af9" fill-rule="evenodd" fill-opacity="1"/>
<polyline clip-path="url(#clip122)" style="stroke:#000000; stroke-linecap:round; stroke-linejoin:round; stroke-width:4; stroke-opacity:1; fill:none" points="1837.92,1093.94 1837.92,1486.45 1911.47,1486.45 1911.47,1093.94 1837.92,1093.94 "/>
<path clip-path="url(#clip122)" d="M1911.47 1224.77 L1911.47 1486.45 L1985.02 1486.45 L1985.02 1224.77 L1911.47 1224.77 L1911.47 1224.77  Z" fill="#009af9" fill-rule="evenodd" fill-opacity="1"/>
<polyline clip-path="url(#clip122)" style="stroke:#000000; stroke-linecap:round; stroke-linejoin:round; stroke-width:4; stroke-opacity:1; fill:none" points="1911.47,1224.77 1911.47,1486.45 1985.02,1486.45 1985.02,1224.77 1911.47,1224.77 "/>
<path clip-path="url(#clip122)" d="M1985.02 1355.61 L1985.02 1486.45 L2058.56 1486.45 L2058.56 1355.61 L1985.02 1355.61 L1985.02 1355.61  Z" fill="#009af9" fill-rule="evenodd" fill-opacity="1"/>
<polyline clip-path="url(#clip122)" style="stroke:#000000; stroke-linecap:round; stroke-linejoin:round; stroke-width:4; stroke-opacity:1; fill:none" points="1985.02,1355.61 1985.02,1486.45 2058.56,1486.45 2058.56,1355.61 1985.02,1355.61 "/>
<path clip-path="url(#clip122)" d="M2058.56 1312 L2058.56 1486.45 L2132.11 1486.45 L2132.11 1312 L2058.56 1312 L2058.56 1312  Z" fill="#009af9" fill-rule="evenodd" fill-opacity="1"/>
<polyline clip-path="url(#clip122)" style="stroke:#000000; stroke-linecap:round; stroke-linejoin:round; stroke-width:4; stroke-opacity:1; fill:none" points="2058.56,1312 2058.56,1486.45 2132.11,1486.45 2132.11,1312 2058.56,1312 "/>
<path clip-path="url(#clip122)" d="M2132.11 1268.39 L2132.11 1486.45 L2205.66 1486.45 L2205.66 1268.39 L2132.11 1268.39 L2132.11 1268.39  Z" fill="#009af9" fill-rule="evenodd" fill-opacity="1"/>
<polyline clip-path="url(#clip122)" style="stroke:#000000; stroke-linecap:round; stroke-linejoin:round; stroke-width:4; stroke-opacity:1; fill:none" points="2132.11,1268.39 2132.11,1486.45 2205.66,1486.45 2205.66,1268.39 2132.11,1268.39 "/>
<path clip-path="url(#clip122)" d="M2205.66 1312 L2205.66 1486.45 L2279.21 1486.45 L2279.21 1312 L2205.66 1312 L2205.66 1312  Z" fill="#009af9" fill-rule="evenodd" fill-opacity="1"/>
<polyline clip-path="url(#clip122)" style="stroke:#000000; stroke-linecap:round; stroke-linejoin:round; stroke-width:4; stroke-opacity:1; fill:none" points="2205.66,1312 2205.66,1486.45 2279.21,1486.45 2279.21,1312 2205.66,1312 "/>
<path clip-path="url(#clip122)" d="M2279.21 1050.33 L2279.21 1486.45 L2352.76 1486.45 L2352.76 1050.33 L2279.21 1050.33 L2279.21 1050.33  Z" fill="#009af9" fill-rule="evenodd" fill-opacity="1"/>
<polyline clip-path="url(#clip122)" style="stroke:#000000; stroke-linecap:round; stroke-linejoin:round; stroke-width:4; stroke-opacity:1; fill:none" points="2279.21,1050.33 2279.21,1486.45 2352.76,1486.45 2352.76,1050.33 2279.21,1050.33 "/>
<circle clip-path="url(#clip122)" style="fill:#009af9; stroke:none; fill-opacity:0" cx="256.64" cy="178.081" r="2"/>
<circle clip-path="url(#clip122)" style="fill:#009af9; stroke:none; fill-opacity:0" cx="330.188" cy="265.305" r="2"/>
<circle clip-path="url(#clip122)" style="fill:#009af9; stroke:none; fill-opacity:0" cx="477.284" cy="439.754" r="2"/>
<circle clip-path="url(#clip122)" style="fill:#009af9; stroke:none; fill-opacity:0" cx="550.832" cy="526.979" r="2"/>
<circle clip-path="url(#clip122)" style="fill:#009af9; stroke:none; fill-opacity:0" cx="624.38" cy="614.203" r="2"/>
<circle clip-path="url(#clip122)" style="fill:#009af9; stroke:none; fill-opacity:0" cx="697.928" cy="875.877" r="2"/>
<circle clip-path="url(#clip122)" style="fill:#009af9; stroke:none; fill-opacity:0" cx="771.476" cy="570.591" r="2"/>
<circle clip-path="url(#clip122)" style="fill:#009af9; stroke:none; fill-opacity:0" cx="845.024" cy="788.652" r="2"/>
<circle clip-path="url(#clip122)" style="fill:#009af9; stroke:none; fill-opacity:0" cx="918.571" cy="919.489" r="2"/>
<circle clip-path="url(#clip122)" style="fill:#009af9; stroke:none; fill-opacity:0" cx="992.119" cy="1006.71" r="2"/>
<circle clip-path="url(#clip122)" style="fill:#009af9; stroke:none; fill-opacity:0" cx="1065.67" cy="1093.94" r="2"/>
<circle clip-path="url(#clip122)" style="fill:#009af9; stroke:none; fill-opacity:0" cx="1139.22" cy="1050.33" r="2"/>
<circle clip-path="url(#clip122)" style="fill:#009af9; stroke:none; fill-opacity:0" cx="1212.76" cy="1050.33" r="2"/>
<circle clip-path="url(#clip122)" style="fill:#009af9; stroke:none; fill-opacity:0" cx="1286.31" cy="1137.55" r="2"/>
<circle clip-path="url(#clip122)" style="fill:#009af9; stroke:none; fill-opacity:0" cx="1359.86" cy="1093.94" r="2"/>
<circle clip-path="url(#clip122)" style="fill:#009af9; stroke:none; fill-opacity:0" cx="1433.41" cy="1268.39" r="2"/>
<circle clip-path="url(#clip122)" style="fill:#009af9; stroke:none; fill-opacity:0" cx="1506.95" cy="1137.55" r="2"/>
<circle clip-path="url(#clip122)" style="fill:#009af9; stroke:none; fill-opacity:0" cx="1580.5" cy="1312" r="2"/>
<circle clip-path="url(#clip122)" style="fill:#009af9; stroke:none; fill-opacity:0" cx="1654.05" cy="1224.77" r="2"/>
<circle clip-path="url(#clip122)" style="fill:#009af9; stroke:none; fill-opacity:0" cx="1727.6" cy="1137.55" r="2"/>
<circle clip-path="url(#clip122)" style="fill:#009af9; stroke:none; fill-opacity:0" cx="1801.15" cy="1268.39" r="2"/>
<circle clip-path="url(#clip122)" style="fill:#009af9; stroke:none; fill-opacity:0" cx="1874.69" cy="1093.94" r="2"/>
<circle clip-path="url(#clip122)" style="fill:#009af9; stroke:none; fill-opacity:0" cx="1948.24" cy="1224.77" r="2"/>
<circle clip-path="url(#clip122)" style="fill:#009af9; stroke:none; fill-opacity:0" cx="2021.79" cy="1355.61" r="2"/>
<circle clip-path="url(#clip122)" style="fill:#009af9; stroke:none; fill-opacity:0" cx="2095.34" cy="1312" r="2"/>
<circle clip-path="url(#clip122)" style="fill:#009af9; stroke:none; fill-opacity:0" cx="2168.89" cy="1268.39" r="2"/>
<circle clip-path="url(#clip122)" style="fill:#009af9; stroke:none; fill-opacity:0" cx="2242.43" cy="1312" r="2"/>
<circle clip-path="url(#clip122)" style="fill:#009af9; stroke:none; fill-opacity:0" cx="2315.98" cy="1050.33" r="2"/>
<polyline clip-path="url(#clip122)" style="stroke:#e26f46; stroke-linecap:round; stroke-linejoin:round; stroke-width:4; stroke-opacity:1; fill:none" points="219.975,845.356 220.083,785.262 220.192,752.693 220.3,731.32 220.409,715.973 220.517,704.357 220.626,695.256 220.734,687.949 220.843,681.98 220.951,677.04 221.06,672.912 221.168,669.436 221.385,663.998 221.602,660.066 221.819,657.227 222.036,655.207 222.253,653.816 222.47,652.918 222.904,652.225 223.338,652.582 224.206,655.234 225.074,659.375 225.942,664.301 226.809,669.642 228.545,680.824 230.281,692.07 231.149,697.607 232.017,703.059 232.885,708.415 233.753,713.668 237.765,736.578 241.777,757.333 245.79,776.205 249.802,793.465 253.815,809.348 257.827,824.045 261.84,837.713 265.852,850.482 269.865,862.457 273.877,873.728 277.89,884.37 281.902,894.446 289.927,913.109 297.952,930.073 305.977,945.605 314.002,959.917 322.027,973.174 330.052,985.513 338.076,997.043 346.101,1007.86 354.126,1018.03 362.151,1027.63 371.796,1038.49 381.442,1048.68 391.087,1058.28 400.732,1067.34 420.023,1084.04 439.313,1099.14 455.623,1110.83 471.933,1121.67 488.243,1131.77 504.553,1141.21 522.27,1150.79 539.987,1159.76 557.705,1168.17 575.422,1176.09 608.089,1189.54 640.756,1201.7 675.779,1213.54 710.802,1224.31 751.379,1235.66 791.957,1245.97 828.017,1254.38 864.077,1262.17 895.699,1268.55 927.321,1274.55 996.273,1286.48 1065.63,1297.13 1142.32,1307.61 1215.29,1316.52 1291.16,1324.86 1355.03,1331.27 1433,1338.42 1504.43,1344.41 1570.39,1349.54 1637.22,1354.36 1712.11,1359.39 1779.98,1363.63 1857.67,1368.15 1929.62,1372.06 2000.55,1375.68 2069.41,1378.99 2140,1382.19 2217.35,1385.49 2329.71,1389.95 2352.76,1390.82 "/>
<path clip-path="url(#clip120)" d="M2015.94 250.738 L2281.66 250.738 L2281.66 95.2176 L2015.94 95.2176  Z" fill="#ffffff" fill-rule="evenodd" fill-opacity="1"/>
<polyline clip-path="url(#clip120)" style="stroke:#000000; stroke-linecap:round; stroke-linejoin:round; stroke-width:4; stroke-opacity:1; fill:none" points="2015.94,250.738 2281.66,250.738 2281.66,95.2176 2015.94,95.2176 2015.94,250.738 "/>
<path clip-path="url(#clip120)" d="M2039.64 167.794 L2181.83 167.794 L2181.83 126.322 L2039.64 126.322 L2039.64 167.794  Z" fill="#009af9" fill-rule="evenodd" fill-opacity="1"/>
<polyline clip-path="url(#clip120)" style="stroke:#000000; stroke-linecap:round; stroke-linejoin:round; stroke-width:4; stroke-opacity:1; fill:none" points="2039.64,167.794 2181.83,167.794 2181.83,126.322 2039.64,126.322 2039.64,167.794 "/>
<path clip-path="url(#clip120)" d="M2219.37 166.745 Q2217.57 171.375 2215.85 172.787 Q2214.14 174.199 2211.27 174.199 L2207.87 174.199 L2207.87 170.634 L2210.37 170.634 Q2212.13 170.634 2213.1 169.8 Q2214.07 168.967 2215.25 165.865 L2216.02 163.921 L2205.53 138.412 L2210.04 138.412 L2218.15 158.689 L2226.25 138.412 L2230.76 138.412 L2219.37 166.745 Z" fill="#000000" fill-rule="nonzero" fill-opacity="1" /><path clip-path="url(#clip120)" d="M2238.05 160.402 L2245.69 160.402 L2245.69 134.037 L2237.38 135.703 L2237.38 131.444 L2245.65 129.778 L2250.32 129.778 L2250.32 160.402 L2257.96 160.402 L2257.96 164.338 L2238.05 164.338 L2238.05 160.402 Z" fill="#000000" fill-rule="nonzero" fill-opacity="1" /><polyline clip-path="url(#clip120)" style="stroke:#e26f46; stroke-linecap:round; stroke-linejoin:round; stroke-width:4; stroke-opacity:1; fill:none" points="2039.64,198.898 2181.83,198.898 "/>
<path clip-path="url(#clip120)" d="M2219.37 218.585 Q2217.57 223.215 2215.85 224.627 Q2214.14 226.039 2211.27 226.039 L2207.87 226.039 L2207.87 222.474 L2210.37 222.474 Q2212.13 222.474 2213.1 221.64 Q2214.07 220.807 2215.25 217.705 L2216.02 215.761 L2205.53 190.252 L2210.04 190.252 L2218.15 210.529 L2226.25 190.252 L2230.76 190.252 L2219.37 218.585 Z" fill="#000000" fill-rule="nonzero" fill-opacity="1" /><path clip-path="url(#clip120)" d="M2241.27 212.242 L2257.59 212.242 L2257.59 216.178 L2235.65 216.178 L2235.65 212.242 Q2238.31 209.488 2242.89 204.858 Q2247.5 200.205 2248.68 198.863 Q2250.92 196.34 2251.8 194.604 Q2252.71 192.844 2252.71 191.155 Q2252.71 188.4 2250.76 186.664 Q2248.84 184.928 2245.74 184.928 Q2243.54 184.928 2241.09 185.692 Q2238.66 186.455 2235.88 188.006 L2235.88 183.284 Q2238.7 182.15 2241.16 181.571 Q2243.61 180.993 2245.65 180.993 Q2251.02 180.993 2254.21 183.678 Q2257.41 186.363 2257.41 190.854 Q2257.41 192.983 2256.6 194.905 Q2255.81 196.803 2253.7 199.395 Q2253.12 200.067 2250.02 203.284 Q2246.92 206.479 2241.27 212.242 Z" fill="#000000" fill-rule="nonzero" fill-opacity="1" /></svg>
