<?xml version="1.0" encoding="utf-8"?>
<svg xmlns="http://www.w3.org/2000/svg" xmlns:xlink="http://www.w3.org/1999/xlink" width="600" height="400" viewBox="0 0 2400 1600">
<defs>
  <clipPath id="clip900">
    <rect x="0" y="0" width="2400" height="1600"/>
  </clipPath>
</defs>
<path clip-path="url(#clip900)" d="M0 1600 L2400 1600 L2400 0 L0 0  Z" fill="#ffffff" fill-rule="evenodd" fill-opacity="1"/>
<defs>
  <clipPath id="clip901">
    <rect x="480" y="0" width="1681" height="1600"/>
  </clipPath>
</defs>
<path clip-path="url(#clip900)" d="M219.866 1423.18 L2352.76 1423.18 L2352.76 47.2441 L219.866 47.2441  Z" fill="#ffffff" fill-rule="evenodd" fill-opacity="1"/>
<defs>
  <clipPath id="clip902">
    <rect x="219" y="47" width="2134" height="1377"/>
  </clipPath>
</defs>
<polyline clip-path="url(#clip902)" style="stroke:#000000; stroke-linecap:round; stroke-linejoin:round; stroke-width:2; stroke-opacity:0.1; fill:none" points="219.866,1423.18 219.866,47.2441 "/>
<polyline clip-path="url(#clip902)" style="stroke:#000000; stroke-linecap:round; stroke-linejoin:round; stroke-width:2; stroke-opacity:0.1; fill:none" points="646.444,1423.18 646.444,47.2441 "/>
<polyline clip-path="url(#clip902)" style="stroke:#000000; stroke-linecap:round; stroke-linejoin:round; stroke-width:2; stroke-opacity:0.1; fill:none" points="1073.02,1423.18 1073.02,47.2441 "/>
<polyline clip-path="url(#clip902)" style="stroke:#000000; stroke-linecap:round; stroke-linejoin:round; stroke-width:2; stroke-opacity:0.1; fill:none" points="1499.6,1423.18 1499.6,47.2441 "/>
<polyline clip-path="url(#clip902)" style="stroke:#000000; stroke-linecap:round; stroke-linejoin:round; stroke-width:2; stroke-opacity:0.1; fill:none" points="1926.18,1423.18 1926.18,47.2441 "/>
<polyline clip-path="url(#clip902)" style="stroke:#000000; stroke-linecap:round; stroke-linejoin:round; stroke-width:2; stroke-opacity:0.1; fill:none" points="2352.76,1423.18 2352.76,47.2441 "/>
<polyline clip-path="url(#clip900)" style="stroke:#000000; stroke-linecap:round; stroke-linejoin:round; stroke-width:4; stroke-opacity:1; fill:none" points="219.866,1423.18 2352.76,1423.18 "/>
<polyline clip-path="url(#clip900)" style="stroke:#000000; stroke-linecap:round; stroke-linejoin:round; stroke-width:4; stroke-opacity:1; fill:none" points="219.866,1423.18 219.866,1404.28 "/>
<polyline clip-path="url(#clip900)" style="stroke:#000000; stroke-linecap:round; stroke-linejoin:round; stroke-width:4; stroke-opacity:1; fill:none" points="646.444,1423.18 646.444,1404.28 "/>
<polyline clip-path="url(#clip900)" style="stroke:#000000; stroke-linecap:round; stroke-linejoin:round; stroke-width:4; stroke-opacity:1; fill:none" points="1073.02,1423.18 1073.02,1404.28 "/>
<polyline clip-path="url(#clip900)" style="stroke:#000000; stroke-linecap:round; stroke-linejoin:round; stroke-width:4; stroke-opacity:1; fill:none" points="1499.6,1423.18 1499.6,1404.28 "/>
<polyline clip-path="url(#clip900)" style="stroke:#000000; stroke-linecap:round; stroke-linejoin:round; stroke-width:4; stroke-opacity:1; fill:none" points="1926.18,1423.18 1926.18,1404.28 "/>
<polyline clip-path="url(#clip900)" style="stroke:#000000; stroke-linecap:round; stroke-linejoin:round; stroke-width:4; stroke-opacity:1; fill:none" points="2352.76,1423.18 2352.76,1404.28 "/>
<path clip-path="url(#clip900)" d="M219.866 1454.1 Q216.255 1454.1 214.426 1457.66 Q212.621 1461.2 212.621 1468.33 Q212.621 1475.44 214.426 1479.01 Q216.255 1482.55 219.866 1482.55 Q223.501 1482.55 225.306 1479.01 Q227.135 1475.44 227.135 1468.33 Q227.135 1461.2 225.306 1457.66 Q223.501 1454.1 219.866 1454.1 M219.866 1450.39 Q225.676 1450.39 228.732 1455 Q231.811 1459.58 231.811 1468.33 Q231.811 1477.06 228.732 1481.67 Q225.676 1486.25 219.866 1486.25 Q214.056 1486.25 210.977 1481.67 Q207.922 1477.06 207.922 1468.33 Q207.922 1459.58 210.977 1455 Q214.056 1450.39 219.866 1450.39 Z" fill="#000000" fill-rule="nonzero" fill-opacity="1" /><path clip-path="url(#clip900)" d="M636.826 1481.64 L644.465 1481.64 L644.465 1455.28 L636.155 1456.95 L636.155 1452.69 L644.419 1451.02 L649.095 1451.02 L649.095 1481.64 L656.733 1481.64 L656.733 1485.58 L636.826 1485.58 L636.826 1481.64 Z" fill="#000000" fill-rule="nonzero" fill-opacity="1" /><path clip-path="url(#clip900)" d="M1067.67 1481.64 L1083.99 1481.64 L1083.99 1485.58 L1062.05 1485.58 L1062.05 1481.64 Q1064.71 1478.89 1069.3 1474.26 Q1073.9 1469.61 1075.08 1468.27 Q1077.33 1465.74 1078.21 1464.01 Q1079.11 1462.25 1079.11 1460.56 Q1079.11 1457.8 1077.17 1456.07 Q1075.24 1454.33 1072.14 1454.33 Q1069.94 1454.33 1067.49 1455.09 Q1065.06 1455.86 1062.28 1457.41 L1062.28 1452.69 Q1065.11 1451.55 1067.56 1450.97 Q1070.01 1450.39 1072.05 1450.39 Q1077.42 1450.39 1080.61 1453.08 Q1083.81 1455.77 1083.81 1460.26 Q1083.81 1462.39 1083 1464.31 Q1082.21 1466.2 1080.11 1468.8 Q1079.53 1469.47 1076.42 1472.69 Q1073.32 1475.88 1067.67 1481.64 Z" fill="#000000" fill-rule="nonzero" fill-opacity="1" /><path clip-path="url(#clip900)" d="M1503.85 1466.95 Q1507.2 1467.66 1509.08 1469.93 Q1510.98 1472.2 1510.98 1475.53 Q1510.98 1480.65 1507.46 1483.45 Q1503.94 1486.25 1497.46 1486.25 Q1495.28 1486.25 1492.97 1485.81 Q1490.68 1485.39 1488.22 1484.54 L1488.22 1480.02 Q1490.17 1481.16 1492.48 1481.74 Q1494.8 1482.32 1497.32 1482.32 Q1501.72 1482.32 1504.01 1480.58 Q1506.32 1478.84 1506.32 1475.53 Q1506.32 1472.48 1504.17 1470.77 Q1502.04 1469.03 1498.22 1469.03 L1494.19 1469.03 L1494.19 1465.19 L1498.41 1465.19 Q1501.86 1465.19 1503.69 1463.82 Q1505.51 1462.43 1505.51 1459.84 Q1505.51 1457.18 1503.62 1455.77 Q1501.74 1454.33 1498.22 1454.33 Q1496.3 1454.33 1494.1 1454.75 Q1491.9 1455.16 1489.26 1456.04 L1489.26 1451.88 Q1491.93 1451.14 1494.24 1450.77 Q1496.58 1450.39 1498.64 1450.39 Q1503.96 1450.39 1507.07 1452.83 Q1510.17 1455.23 1510.17 1459.35 Q1510.17 1462.22 1508.52 1464.21 Q1506.88 1466.18 1503.85 1466.95 Z" fill="#000000" fill-rule="nonzero" fill-opacity="1" /><path clip-path="url(#clip900)" d="M1929.19 1455.09 L1917.38 1473.54 L1929.19 1473.54 L1929.19 1455.09 M1927.96 1451.02 L1933.84 1451.02 L1933.84 1473.54 L1938.77 1473.54 L1938.77 1477.43 L1933.84 1477.43 L1933.84 1485.58 L1929.19 1485.58 L1929.19 1477.43 L1913.59 1477.43 L1913.59 1472.92 L1927.96 1451.02 Z" fill="#000000" fill-rule="nonzero" fill-opacity="1" /><path clip-path="url(#clip900)" d="M2343.03 1451.02 L2361.39 1451.02 L2361.39 1454.96 L2347.32 1454.96 L2347.32 1463.43 Q2348.33 1463.08 2349.35 1462.92 Q2350.37 1462.73 2351.39 1462.73 Q2357.18 1462.73 2360.56 1465.9 Q2363.94 1469.08 2363.94 1474.49 Q2363.94 1480.07 2360.46 1483.17 Q2356.99 1486.25 2350.67 1486.25 Q2348.5 1486.25 2346.23 1485.88 Q2343.98 1485.51 2341.58 1484.77 L2341.58 1480.07 Q2343.66 1481.2 2345.88 1481.76 Q2348.1 1482.32 2350.58 1482.32 Q2354.58 1482.32 2356.92 1480.21 Q2359.26 1478.1 2359.26 1474.49 Q2359.26 1470.88 2356.92 1468.77 Q2354.58 1466.67 2350.58 1466.67 Q2348.71 1466.67 2346.83 1467.08 Q2344.98 1467.5 2343.03 1468.38 L2343.03 1451.02 Z" fill="#000000" fill-rule="nonzero" fill-opacity="1" /><path clip-path="url(#clip900)" d="M1302.93 1532.4 L1290.04 1549.74 L1303.59 1568.04 L1296.69 1568.04 L1286.31 1554.04 L1275.93 1568.04 L1269.03 1568.04 L1282.87 1549.39 L1270.21 1532.4 L1277.11 1532.4 L1286.57 1545.1 L1296.02 1532.4 L1302.93 1532.4 Z" fill="#000000" fill-rule="nonzero" fill-opacity="1" /><polyline clip-path="url(#clip902)" style="stroke:#000000; stroke-linecap:round; stroke-linejoin:round; stroke-width:2; stroke-opacity:0.1; fill:none" points="219.866,1384.24 2352.76,1384.24 "/>
<polyline clip-path="url(#clip902)" style="stroke:#000000; stroke-linecap:round; stroke-linejoin:round; stroke-width:2; stroke-opacity:0.1; fill:none" points="219.866,1051.66 2352.76,1051.66 "/>
<polyline clip-path="url(#clip902)" style="stroke:#000000; stroke-linecap:round; stroke-linejoin:round; stroke-width:2; stroke-opacity:0.1; fill:none" points="219.866,719.088 2352.76,719.088 "/>
<polyline clip-path="url(#clip902)" style="stroke:#000000; stroke-linecap:round; stroke-linejoin:round; stroke-width:2; stroke-opacity:0.1; fill:none" points="219.866,386.513 2352.76,386.513 "/>
<polyline clip-path="url(#clip902)" style="stroke:#000000; stroke-linecap:round; stroke-linejoin:round; stroke-width:2; stroke-opacity:0.1; fill:none" points="219.866,53.9374 2352.76,53.9374 "/>
<polyline clip-path="url(#clip900)" style="stroke:#000000; stroke-linecap:round; stroke-linejoin:round; stroke-width:4; stroke-opacity:1; fill:none" points="219.866,1423.18 219.866,47.2441 "/>
<polyline clip-path="url(#clip900)" style="stroke:#000000; stroke-linecap:round; stroke-linejoin:round; stroke-width:4; stroke-opacity:1; fill:none" points="219.866,1384.24 238.764,1384.24 "/>
<polyline clip-path="url(#clip900)" style="stroke:#000000; stroke-linecap:round; stroke-linejoin:round; stroke-width:4; stroke-opacity:1; fill:none" points="219.866,1051.66 238.764,1051.66 "/>
<polyline clip-path="url(#clip900)" style="stroke:#000000; stroke-linecap:round; stroke-linejoin:round; stroke-width:4; stroke-opacity:1; fill:none" points="219.866,719.088 238.764,719.088 "/>
<polyline clip-path="url(#clip900)" style="stroke:#000000; stroke-linecap:round; stroke-linejoin:round; stroke-width:4; stroke-opacity:1; fill:none" points="219.866,386.513 238.764,386.513 "/>
<polyline clip-path="url(#clip900)" style="stroke:#000000; stroke-linecap:round; stroke-linejoin:round; stroke-width:4; stroke-opacity:1; fill:none" points="219.866,53.9374 238.764,53.9374 "/>
<path clip-path="url(#clip900)" d="M126.691 1370.04 Q123.08 1370.04 121.251 1373.6 Q119.445 1377.14 119.445 1384.27 Q119.445 1391.38 121.251 1394.94 Q123.08 1398.49 126.691 1398.49 Q130.325 1398.49 132.13 1394.94 Q133.959 1391.38 133.959 1384.27 Q133.959 1377.14 132.13 1373.6 Q130.325 1370.04 126.691 1370.04 M126.691 1366.33 Q132.501 1366.33 135.556 1370.94 Q138.635 1375.52 138.635 1384.27 Q138.635 1393 135.556 1397.61 Q132.501 1402.19 126.691 1402.19 Q120.88 1402.19 117.802 1397.61 Q114.746 1393 114.746 1384.27 Q114.746 1375.52 117.802 1370.94 Q120.88 1366.33 126.691 1366.33 Z" fill="#000000" fill-rule="nonzero" fill-opacity="1" /><path clip-path="url(#clip900)" d="M146.853 1395.64 L151.737 1395.64 L151.737 1401.52 L146.853 1401.52 L146.853 1395.64 Z" fill="#000000" fill-rule="nonzero" fill-opacity="1" /><path clip-path="url(#clip900)" d="M171.922 1370.04 Q168.311 1370.04 166.482 1373.6 Q164.677 1377.14 164.677 1384.27 Q164.677 1391.38 166.482 1394.94 Q168.311 1398.49 171.922 1398.49 Q175.556 1398.49 177.362 1394.94 Q179.19 1391.38 179.19 1384.27 Q179.19 1377.14 177.362 1373.6 Q175.556 1370.04 171.922 1370.04 M171.922 1366.33 Q177.732 1366.33 180.788 1370.94 Q183.866 1375.52 183.866 1384.27 Q183.866 1393 180.788 1397.61 Q177.732 1402.19 171.922 1402.19 Q166.112 1402.19 163.033 1397.61 Q159.978 1393 159.978 1384.27 Q159.978 1375.52 163.033 1370.94 Q166.112 1366.33 171.922 1366.33 Z" fill="#000000" fill-rule="nonzero" fill-opacity="1" /><path clip-path="url(#clip900)" d="M128.288 1037.46 Q124.677 1037.46 122.848 1041.03 Q121.043 1044.57 121.043 1051.7 Q121.043 1058.8 122.848 1062.37 Q124.677 1065.91 128.288 1065.91 Q131.922 1065.91 133.728 1062.37 Q135.556 1058.8 135.556 1051.7 Q135.556 1044.57 133.728 1041.03 Q131.922 1037.46 128.288 1037.46 M128.288 1033.76 Q134.098 1033.76 137.154 1038.36 Q140.232 1042.95 140.232 1051.7 Q140.232 1060.42 137.154 1065.03 Q134.098 1069.61 128.288 1069.61 Q122.478 1069.61 119.399 1065.03 Q116.343 1060.42 116.343 1051.7 Q116.343 1042.95 119.399 1038.36 Q122.478 1033.76 128.288 1033.76 Z" fill="#000000" fill-rule="nonzero" fill-opacity="1" /><path clip-path="url(#clip900)" d="M148.45 1063.06 L153.334 1063.06 L153.334 1068.94 L148.45 1068.94 L148.45 1063.06 Z" fill="#000000" fill-rule="nonzero" fill-opacity="1" /><path clip-path="url(#clip900)" d="M167.547 1065.01 L183.866 1065.01 L183.866 1068.94 L161.922 1068.94 L161.922 1065.01 Q164.584 1062.25 169.167 1057.62 Q173.774 1052.97 174.954 1051.63 Q177.2 1049.11 178.079 1047.37 Q178.982 1045.61 178.982 1043.92 Q178.982 1041.17 177.038 1039.43 Q175.116 1037.69 172.014 1037.69 Q169.815 1037.69 167.362 1038.46 Q164.931 1039.22 162.153 1040.77 L162.153 1036.05 Q164.977 1034.92 167.431 1034.34 Q169.885 1033.76 171.922 1033.76 Q177.292 1033.76 180.487 1036.44 Q183.681 1039.13 183.681 1043.62 Q183.681 1045.75 182.871 1047.67 Q182.084 1049.57 179.977 1052.16 Q179.399 1052.83 176.297 1056.05 Q173.195 1059.24 167.547 1065.01 Z" fill="#000000" fill-rule="nonzero" fill-opacity="1" /><path clip-path="url(#clip900)" d="M126.205 704.887 Q122.593 704.887 120.765 708.451 Q118.959 711.993 118.959 719.123 Q118.959 726.229 120.765 729.794 Q122.593 733.335 126.205 733.335 Q129.839 733.335 131.644 729.794 Q133.473 726.229 133.473 719.123 Q133.473 711.993 131.644 708.451 Q129.839 704.887 126.205 704.887 M126.205 701.183 Q132.015 701.183 135.07 705.789 Q138.149 710.373 138.149 719.123 Q138.149 727.849 135.07 732.456 Q132.015 737.039 126.205 737.039 Q120.394 737.039 117.316 732.456 Q114.26 727.849 114.26 719.123 Q114.26 710.373 117.316 705.789 Q120.394 701.183 126.205 701.183 Z" fill="#000000" fill-rule="nonzero" fill-opacity="1" /><path clip-path="url(#clip900)" d="M146.366 730.488 L151.251 730.488 L151.251 736.368 L146.366 736.368 L146.366 730.488 Z" fill="#000000" fill-rule="nonzero" fill-opacity="1" /><path clip-path="url(#clip900)" d="M174.283 705.882 L162.477 724.331 L174.283 724.331 L174.283 705.882 M173.056 701.808 L178.936 701.808 L178.936 724.331 L183.866 724.331 L183.866 728.22 L178.936 728.22 L178.936 736.368 L174.283 736.368 L174.283 728.22 L158.681 728.22 L158.681 723.706 L173.056 701.808 Z" fill="#000000" fill-rule="nonzero" fill-opacity="1" /><path clip-path="url(#clip900)" d="M126.529 372.311 Q122.918 372.311 121.089 375.876 Q119.283 379.418 119.283 386.547 Q119.283 393.654 121.089 397.219 Q122.918 400.76 126.529 400.76 Q130.163 400.76 131.968 397.219 Q133.797 393.654 133.797 386.547 Q133.797 379.418 131.968 375.876 Q130.163 372.311 126.529 372.311 M126.529 368.608 Q132.339 368.608 135.394 373.214 Q138.473 377.797 138.473 386.547 Q138.473 395.274 135.394 399.881 Q132.339 404.464 126.529 404.464 Q120.718 404.464 117.64 399.881 Q114.584 395.274 114.584 386.547 Q114.584 377.797 117.64 373.214 Q120.718 368.608 126.529 368.608 Z" fill="#000000" fill-rule="nonzero" fill-opacity="1" /><path clip-path="url(#clip900)" d="M146.691 397.913 L151.575 397.913 L151.575 403.793 L146.691 403.793 L146.691 397.913 Z" fill="#000000" fill-rule="nonzero" fill-opacity="1" /><path clip-path="url(#clip900)" d="M172.339 384.649 Q169.19 384.649 167.339 386.802 Q165.51 388.955 165.51 392.705 Q165.51 396.432 167.339 398.607 Q169.19 400.76 172.339 400.76 Q175.487 400.76 177.315 398.607 Q179.167 396.432 179.167 392.705 Q179.167 388.955 177.315 386.802 Q175.487 384.649 172.339 384.649 M181.621 369.996 L181.621 374.256 Q179.862 373.422 178.056 372.983 Q176.274 372.543 174.514 372.543 Q169.885 372.543 167.431 375.668 Q165.001 378.793 164.653 385.112 Q166.019 383.098 168.079 382.033 Q170.139 380.945 172.616 380.945 Q177.825 380.945 180.834 384.117 Q183.866 387.265 183.866 392.705 Q183.866 398.029 180.718 401.246 Q177.57 404.464 172.339 404.464 Q166.343 404.464 163.172 399.881 Q160.001 395.274 160.001 386.547 Q160.001 378.353 163.89 373.492 Q167.778 368.608 174.329 368.608 Q176.089 368.608 177.871 368.955 Q179.676 369.302 181.621 369.996 Z" fill="#000000" fill-rule="nonzero" fill-opacity="1" /><path clip-path="url(#clip900)" d="M126.783 39.7361 Q123.172 39.7361 121.343 43.3008 Q119.538 46.8425 119.538 53.9721 Q119.538 61.0785 121.343 64.6433 Q123.172 68.185 126.783 68.185 Q130.417 68.185 132.223 64.6433 Q134.052 61.0785 134.052 53.9721 Q134.052 46.8425 132.223 43.3008 Q130.417 39.7361 126.783 39.7361 M126.783 36.0324 Q132.593 36.0324 135.649 40.6388 Q138.728 45.2221 138.728 53.9721 Q138.728 62.6989 135.649 67.3054 Q132.593 71.8887 126.783 71.8887 Q120.973 71.8887 117.894 67.3054 Q114.839 62.6989 114.839 53.9721 Q114.839 45.2221 117.894 40.6388 Q120.973 36.0324 126.783 36.0324 Z" fill="#000000" fill-rule="nonzero" fill-opacity="1" /><path clip-path="url(#clip900)" d="M146.945 65.3378 L151.829 65.3378 L151.829 71.2174 L146.945 71.2174 L146.945 65.3378 Z" fill="#000000" fill-rule="nonzero" fill-opacity="1" /><path clip-path="url(#clip900)" d="M172.014 54.8054 Q168.681 54.8054 166.76 56.5878 Q164.862 58.3702 164.862 61.4952 Q164.862 64.6202 166.76 66.4026 Q168.681 68.185 172.014 68.185 Q175.348 68.185 177.269 66.4026 Q179.19 64.597 179.19 61.4952 Q179.19 58.3702 177.269 56.5878 Q175.371 54.8054 172.014 54.8054 M167.339 52.8147 Q164.329 52.074 162.64 50.0138 Q160.973 47.9536 160.973 44.9907 Q160.973 40.8472 163.913 38.4398 Q166.876 36.0324 172.014 36.0324 Q177.176 36.0324 180.116 38.4398 Q183.056 40.8472 183.056 44.9907 Q183.056 47.9536 181.366 50.0138 Q179.7 52.074 176.714 52.8147 Q180.093 53.6017 181.968 55.8934 Q183.866 58.185 183.866 61.4952 Q183.866 66.5183 180.788 69.2035 Q177.732 71.8887 172.014 71.8887 Q166.297 71.8887 163.218 69.2035 Q160.163 66.5183 160.163 61.4952 Q160.163 58.185 162.061 55.8934 Q163.959 53.6017 167.339 52.8147 M165.626 45.4305 Q165.626 48.1156 167.292 49.6203 Q168.982 51.1249 172.014 51.1249 Q175.024 51.1249 176.714 49.6203 Q178.426 48.1156 178.426 45.4305 Q178.426 42.7453 176.714 41.2407 Q175.024 39.7361 172.014 39.7361 Q168.982 39.7361 167.292 41.2407 Q165.626 42.7453 165.626 45.4305 Z" fill="#000000" fill-rule="nonzero" fill-opacity="1" /><path clip-path="url(#clip900)" d="M20.1444 914.311 L26.9239 914.311 Q23.9002 917.558 22.4043 921.25 Q20.9083 924.91 20.9083 929.048 Q20.9083 937.196 25.9054 941.525 Q30.8707 945.853 40.2919 945.853 Q49.6813 945.853 54.6784 941.525 Q59.6436 937.196 59.6436 929.048 Q59.6436 924.91 58.1477 921.25 Q56.6518 917.558 53.6281 914.311 L60.3439 914.311 Q62.6355 917.685 63.7814 921.473 Q64.9272 925.228 64.9272 929.43 Q64.9272 940.22 58.3387 946.426 Q51.7183 952.633 40.2919 952.633 Q28.8336 952.633 22.2451 946.426 Q15.6248 940.22 15.6248 929.43 Q15.6248 925.165 16.7706 921.409 Q17.8846 917.621 20.1444 914.311 Z" fill="#000000" fill-rule="nonzero" fill-opacity="1" /><path clip-path="url(#clip900)" d="M21.7677 897.951 L58.7206 897.951 L58.7206 890.185 Q58.7206 880.35 54.2646 875.799 Q49.8086 871.215 40.1964 871.215 Q30.6479 871.215 26.2237 875.799 Q21.7677 880.35 21.7677 890.185 L21.7677 897.951 M16.4842 904.381 L16.4842 891.172 Q16.4842 877.358 22.2451 870.897 Q27.9743 864.436 40.1964 864.436 Q52.4822 864.436 58.2432 870.929 Q64.0042 877.422 64.0042 891.172 L64.0042 904.381 L16.4842 904.381 Z" fill="#000000" fill-rule="nonzero" fill-opacity="1" /><path clip-path="url(#clip900)" d="M16.4842 854.187 L16.4842 826.878 L21.895 826.878 L21.895 847.758 L35.8996 847.758 L35.8996 828.915 L41.3104 828.915 L41.3104 847.758 L64.0042 847.758 L64.0042 854.187 L16.4842 854.187 Z" fill="#000000" fill-rule="nonzero" fill-opacity="1" /><path clip-path="url(#clip900)" d="M28.3562 800.429 L28.3562 794.222 L58.275 783.082 L28.3562 771.942 L28.3562 765.736 L64.0042 779.104 L64.0042 787.061 L28.3562 800.429 Z" fill="#000000" fill-rule="nonzero" fill-opacity="1" /><path clip-path="url(#clip900)" d="M29.4065 734.926 L34.9447 734.926 Q33.6716 737.408 33.035 740.082 Q32.3984 742.755 32.3984 745.62 Q32.3984 749.98 33.7352 752.177 Q35.072 754.341 37.7456 754.341 Q39.7826 754.341 40.9603 752.781 Q42.1061 751.222 43.1565 746.511 L43.6021 744.506 Q44.9389 738.268 47.3897 735.658 Q49.8086 733.016 54.1691 733.016 Q59.1344 733.016 62.0308 736.963 Q64.9272 740.877 64.9272 747.752 Q64.9272 750.617 64.3543 753.736 Q63.8132 756.824 62.6992 760.261 L56.6518 760.261 Q58.3387 757.015 59.198 753.863 Q60.0256 750.712 60.0256 747.625 Q60.0256 743.487 58.6251 741.259 Q57.1929 739.031 54.6147 739.031 Q52.2276 739.031 50.9545 740.655 Q49.6813 742.246 48.5037 747.689 L48.0262 749.726 Q46.8804 755.168 44.5251 757.587 Q42.138 760.006 38.0002 760.006 Q32.9713 760.006 30.2341 756.442 Q27.4968 752.877 27.4968 746.32 Q27.4968 743.074 27.9743 740.209 Q28.4517 737.344 29.4065 734.926 Z" fill="#000000" fill-rule="nonzero" fill-opacity="1" /><path clip-path="url(#clip900)" d="M55.9197 722.862 L55.9197 716.147 L64.0042 716.147 L64.0042 722.862 L55.9197 722.862 Z" fill="#000000" fill-rule="nonzero" fill-opacity="1" /><path clip-path="url(#clip900)" d="M16.4842 681.995 L16.4842 651.949 L21.895 651.949 L21.895 675.565 L35.9632 675.565 L35.9632 652.935 L41.3741 652.935 L41.3741 675.565 L58.5933 675.565 L58.5933 651.376 L64.0042 651.376 L64.0042 681.995 L16.4842 681.995 Z" fill="#000000" fill-rule="nonzero" fill-opacity="1" /><path clip-path="url(#clip900)" d="M20.1444 605.224 L26.9239 605.224 Q23.9002 608.471 22.4043 612.163 Q20.9083 615.823 20.9083 619.961 Q20.9083 628.109 25.9054 632.438 Q30.8707 636.766 40.2919 636.766 Q49.6813 636.766 54.6784 632.438 Q59.6436 628.109 59.6436 619.961 Q59.6436 615.823 58.1477 612.163 Q56.6518 608.471 53.6281 605.224 L60.3439 605.224 Q62.6355 608.598 63.7814 612.386 Q64.9272 616.141 64.9272 620.343 Q64.9272 631.133 58.3387 637.339 Q51.7183 643.546 40.2919 643.546 Q28.8336 643.546 22.2451 637.339 Q15.6248 631.133 15.6248 620.343 Q15.6248 616.078 16.7706 612.322 Q17.8846 608.534 20.1444 605.224 Z" fill="#000000" fill-rule="nonzero" fill-opacity="1" /><path clip-path="url(#clip900)" d="M21.7677 588.864 L58.7206 588.864 L58.7206 581.098 Q58.7206 571.263 54.2646 566.712 Q49.8086 562.128 40.1964 562.128 Q30.6479 562.128 26.2237 566.712 Q21.7677 571.263 21.7677 581.098 L21.7677 588.864 M16.4842 595.294 L16.4842 582.085 Q16.4842 568.271 22.2451 561.81 Q27.9743 555.349 40.1964 555.349 Q52.4822 555.349 58.2432 561.842 Q64.0042 568.335 64.0042 582.085 L64.0042 595.294 L16.4842 595.294 Z" fill="#000000" fill-rule="nonzero" fill-opacity="1" /><path clip-path="url(#clip900)" d="M16.4842 545.1 L16.4842 517.791 L21.895 517.791 L21.895 538.671 L35.8996 538.671 L35.8996 519.828 L41.3104 519.828 L41.3104 538.671 L64.0042 538.671 L64.0042 545.1 L16.4842 545.1 Z" fill="#000000" fill-rule="nonzero" fill-opacity="1" /><polyline clip-path="url(#clip902)" style="stroke:#808080; stroke-linecap:round; stroke-linejoin:round; stroke-width:12; stroke-opacity:1; fill:none" points="219.866,1384.24 223.338,1384.24 226.809,1384.24 230.281,1384.24 233.753,1384.24 241.777,1384.24 249.802,1382.58 253.815,1382.58 257.827,1380.91 261.84,1377.59 265.852,1374.26 273.877,1370.94 281.902,1370.94 289.927,1369.27 297.952,1364.28 301.964,1360.96 305.977,1357.63 309.989,1354.31 314.002,1347.65 316.008,1345.99 318.014,1345.99 320.02,1344.33 322.027,1341 326.039,1332.69 330.052,1326.04 332.058,1326.04 334.064,1324.37 336.07,1322.71 338.076,1317.72 340.083,1317.72 342.089,1316.06 344.095,1311.07 346.101,1307.75 350.114,1306.08 354.126,1304.42 356.133,1301.09 358.139,1299.43 360.145,1296.11 362.151,1291.12 371.796,1276.15 381.442,1261.19 386.264,1254.53 391.087,1242.89 395.91,1231.25 400.732,1221.28 401.938,1219.61 403.144,1217.95 404.349,1214.62 405.555,1211.3 407.966,1209.64 410.378,1207.97 412.789,1202.98 415.2,1198 417.612,1194.67 420.023,1193.01 422.434,1191.34 424.846,1189.68 426.051,1188.02 427.257,1183.03 428.463,1176.38 429.668,1173.05 432.08,1168.06 434.491,1166.4 436.902,1164.74 439.313,1163.08 441.352,1158.09 443.391,1156.42 444.41,1156.42 445.43,1153.1 446.449,1149.77 447.468,1146.45 451.546,1139.8 455.623,1136.47 457.662,1134.81 459.701,1131.48 460.72,1129.82 461.74,1129.82 462.759,1126.49 463.778,1123.17 465.817,1123.17 467.856,1121.5 469.895,1118.18 471.933,1116.52 473.972,1114.85 476.011,1113.19 478.05,1108.2 480.088,1101.55 482.127,1099.89 484.166,1094.9 486.205,1089.91 488.243,1083.26 492.321,1076.61 496.398,1069.95 497.418,1066.63 498.437,1064.97 499.456,1064.97 500.476,1064.97 500.985,1064.97 501.495,1058.31 502.005,1056.65 502.514,1056.65 503.534,1056.65 504.553,1053.33 506.768,1048.34 508.982,1045.01 511.197,1045.01 513.412,1043.35 515.626,1041.69 517.841,1038.36 518.948,1036.7 520.056,1036.7 520.609,1033.37 521.163,1031.71 521.717,1031.71 522.27,1030.05 531.129,1020.07 539.987,1010.09 557.705,990.137 575.422,970.182 591.755,951.89 608.089,933.599 616.256,926.947 624.423,920.296 628.506,916.97 632.59,913.644 634.631,911.981 636.673,911.981 638.715,908.656 640.756,903.667 645.134,900.341 649.512,898.678 653.89,895.353 658.268,892.027 662.646,888.701 667.023,888.701 671.401,883.713 675.779,880.387 693.291,862.095 710.802,843.804 720.946,835.489 731.091,828.838 741.235,822.186 751.379,817.198 756.451,813.872 761.524,810.546 762.792,807.22 764.06,805.557 765.328,803.894 766.596,803.894 767.864,800.569 769.132,797.243 770.4,795.58 771.668,795.58 776.74,793.917 781.812,792.254 786.884,788.929 791.957,783.94 828.017,757.334 864.077,729.065 871.983,722.414 879.888,719.088 887.794,715.762 895.699,710.773 903.604,702.459 911.51,694.145 919.415,689.156 927.321,682.505 935.94,677.516 944.559,672.527 953.178,670.864 961.797,665.876 979.035,657.561 996.273,645.921 1030.95,625.967 1065.63,606.012 1142.32,559.452 1215.29,514.554 1253.23,496.262 1291.16,476.308 1307.13,467.994 1323.09,458.016 1327.08,458.016 1331.08,456.353 1335.07,454.691 1339.06,451.365 1347.04,449.702 1355.03,446.376 1364.77,441.388 1374.52,434.736 1384.27,428.084 1394.01,419.77 1396.45,419.77 1398.88,419.77 1401.32,418.107 1403.76,414.781 1408.63,414.781 1413.5,413.119 1418.38,409.793 1423.25,409.793 1428.12,409.793 1433,409.793 1434.11,409.793 1435.23,409.793 1436.35,408.13 1437.46,404.804 1439.69,404.804 1441.93,403.141 1444.16,398.153 1446.39,394.827 1448.62,394.827 1450.85,393.164 1459.78,389.838 1468.71,386.513 1477.64,386.513 1486.57,383.187 1495.5,379.861 1504.43,374.872 1570.39,346.604 1637.22,318.335 1646.58,313.346 1655.94,310.02 1665.3,310.02 1674.67,308.357 1684.03,306.695 1693.39,305.032 1702.75,300.043 1712.11,295.054 1729.08,285.077 1746.04,280.089 1763.01,275.1 1779.98,268.448 1818.83,258.471 1857.67,248.494 1893.65,238.517 1929.62,228.539 2000.55,211.911 2069.41,193.619 2104.71,181.979 2140,173.664 2149.67,170.339 2159.34,167.013 2169.01,167.013 2178.68,167.013 2198.01,165.35 2217.35,163.687 2224.37,160.361 2231.39,157.036 2238.42,155.373 2245.44,153.71 2252.46,152.047 2259.48,152.047 2266.51,148.721 2273.53,145.396 2287.57,145.396 2301.62,143.733 2315.66,140.407 2329.71,135.418 2335.47,133.755 2341.23,132.093 2346.99,132.093 2352.76,132.093 "/>
<polyline clip-path="url(#clip902)" style="stroke:#e26f46; stroke-linecap:round; stroke-linejoin:round; stroke-width:4; stroke-opacity:1; fill:none" points="219.866,1384.24 223.338,1384.15 226.809,1383.89 230.281,1383.45 233.753,1382.83 249.802,1377.75 265.852,1369.13 281.902,1357.23 297.952,1342.41 314.002,1325.06 330.052,1305.6 346.101,1284.42 362.151,1261.92 381.442,1233.61 400.732,1204.41 420.023,1174.75 439.313,1144.98 471.933,1095.08 504.553,1046.49 539.987,995.805 575.422,947.61 608.089,905.49 640.756,865.575 675.779,825.155 710.802,787.07 751.379,745.679 791.957,707.004 828.017,674.733 864.077,644.283 895.699,618.968 927.321,594.86 961.797,569.855 996.273,546.092 1030.95,523.351 1065.63,501.695 1103.98,478.926 1142.32,457.299 1178.81,437.706 1215.29,419.007 1291.16,382.728 1355.03,354.643 1433,323.028 1504.43,296.357 1570.39,273.455 1637.22,251.78 1712.11,229.131 1779.98,209.962 1857.67,189.443 1929.62,171.676 2000.55,155.213 2069.41,140.144 2140,125.556 2217.35,110.49 2329.71,90.1495 2352.76,86.1857 "/>
<path clip-path="url(#clip900)" d="M290.963 248.629 L623.672 248.629 L623.672 93.1086 L290.963 93.1086  Z" fill="#ffffff" fill-rule="evenodd" fill-opacity="1"/>
<polyline clip-path="url(#clip900)" style="stroke:#000000; stroke-linecap:round; stroke-linejoin:round; stroke-width:4; stroke-opacity:1; fill:none" points="290.963,248.629 623.672,248.629 623.672,93.1086 290.963,93.1086 290.963,248.629 "/>
<polyline clip-path="url(#clip900)" style="stroke:#808080; stroke-linecap:round; stroke-linejoin:round; stroke-width:12; stroke-opacity:1; fill:none" points="314.661,144.949 456.854,144.949 "/>
<path clip-path="url(#clip900)" d="M480.553 127.669 L502.405 127.669 L502.405 131.604 L485.229 131.604 L485.229 141.835 L501.687 141.835 L501.687 145.77 L485.229 145.77 L485.229 158.293 L502.821 158.293 L502.821 162.229 L480.553 162.229 L480.553 127.669 Z" fill="#000000" fill-rule="nonzero" fill-opacity="1" /><path clip-path="url(#clip900)" d="M536.386 130.331 L536.386 135.261 Q534.025 133.062 531.34 131.974 Q528.678 130.886 525.668 130.886 Q519.742 130.886 516.594 134.52 Q513.446 138.132 513.446 144.983 Q513.446 151.812 516.594 155.446 Q519.742 159.057 525.668 159.057 Q528.678 159.057 531.34 157.969 Q534.025 156.881 536.386 154.682 L536.386 159.567 Q533.932 161.233 531.178 162.067 Q528.446 162.9 525.391 162.9 Q517.543 162.9 513.029 158.108 Q508.516 153.293 508.516 144.983 Q508.516 136.65 513.029 131.858 Q517.543 127.044 525.391 127.044 Q528.492 127.044 531.224 127.877 Q533.978 128.687 536.386 130.331 Z" fill="#000000" fill-rule="nonzero" fill-opacity="1" /><path clip-path="url(#clip900)" d="M548.284 131.511 L548.284 158.386 L553.932 158.386 Q561.085 158.386 564.395 155.145 Q567.728 151.905 567.728 144.914 Q567.728 137.969 564.395 134.752 Q561.085 131.511 553.932 131.511 L548.284 131.511 M543.608 127.669 L553.214 127.669 Q563.261 127.669 567.96 131.858 Q572.659 136.025 572.659 144.914 Q572.659 153.849 567.937 158.039 Q563.214 162.229 553.214 162.229 L543.608 162.229 L543.608 127.669 Z" fill="#000000" fill-rule="nonzero" fill-opacity="1" /><path clip-path="url(#clip900)" d="M580.112 127.669 L599.973 127.669 L599.973 131.604 L584.788 131.604 L584.788 141.789 L598.492 141.789 L598.492 145.724 L584.788 145.724 L584.788 162.229 L580.112 162.229 L580.112 127.669 Z" fill="#000000" fill-rule="nonzero" fill-opacity="1" /><polyline clip-path="url(#clip900)" style="stroke:#e26f46; stroke-linecap:round; stroke-linejoin:round; stroke-width:4; stroke-opacity:1; fill:none" points="314.661,196.789 456.854,196.789 "/>
<path clip-path="url(#clip900)" d="M494.395 216.476 Q492.59 221.106 490.877 222.518 Q489.164 223.93 486.293 223.93 L482.891 223.93 L482.891 220.365 L485.391 220.365 Q487.15 220.365 488.122 219.532 Q489.094 218.698 490.275 215.596 L491.039 213.652 L480.553 188.143 L485.067 188.143 L493.168 208.421 L501.27 188.143 L505.784 188.143 L494.395 216.476 Z" fill="#000000" fill-rule="nonzero" fill-opacity="1" /><path clip-path="url(#clip900)" d="M516.293 210.133 L532.613 210.133 L532.613 214.069 L510.668 214.069 L510.668 210.133 Q513.33 207.379 517.914 202.749 Q522.52 198.096 523.701 196.754 Q525.946 194.231 526.826 192.495 Q527.728 190.735 527.728 189.046 Q527.728 186.291 525.784 184.555 Q523.863 182.819 520.761 182.819 Q518.562 182.819 516.108 183.583 Q513.678 184.347 510.9 185.897 L510.9 181.175 Q513.724 180.041 516.178 179.462 Q518.631 178.884 520.668 178.884 Q526.039 178.884 529.233 181.569 Q532.427 184.254 532.427 188.745 Q532.427 190.874 531.617 192.796 Q530.83 194.694 528.724 197.286 Q528.145 197.958 525.043 201.175 Q521.941 204.37 516.293 210.133 Z" fill="#000000" fill-rule="nonzero" fill-opacity="1" /></svg>
