<?xml version="1.0" encoding="utf-8"?>
<svg xmlns="http://www.w3.org/2000/svg" xmlns:xlink="http://www.w3.org/1999/xlink" width="600" height="400" viewBox="0 0 2400 1600">
<defs>
  <clipPath id="clip840">
    <rect x="0" y="0" width="2400" height="1600"/>
  </clipPath>
</defs>
<path clip-path="url(#clip840)" d="M0 1600 L2400 1600 L2400 0 L0 0  Z" fill="#ffffff" fill-rule="evenodd" fill-opacity="1"/>
<defs>
  <clipPath id="clip841">
    <rect x="480" y="0" width="1681" height="1600"/>
  </clipPath>
</defs>
<path clip-path="url(#clip840)" d="M219.866 1486.45 L2352.76 1486.45 L2352.76 47.2441 L219.866 47.2441  Z" fill="#ffffff" fill-rule="evenodd" fill-opacity="1"/>
<defs>
  <clipPath id="clip842">
    <rect x="219" y="47" width="2134" height="1440"/>
  </clipPath>
</defs>
<polyline clip-path="url(#clip842)" style="stroke:#000000; stroke-linecap:round; stroke-linejoin:round; stroke-width:2; stroke-opacity:0.1; fill:none" points="219.866,1486.45 219.866,47.2441 "/>
<polyline clip-path="url(#clip842)" style="stroke:#000000; stroke-linecap:round; stroke-linejoin:round; stroke-width:2; stroke-opacity:0.1; fill:none" points="646.444,1486.45 646.444,47.2441 "/>
<polyline clip-path="url(#clip842)" style="stroke:#000000; stroke-linecap:round; stroke-linejoin:round; stroke-width:2; stroke-opacity:0.1; fill:none" points="1073.02,1486.45 1073.02,47.2441 "/>
<polyline clip-path="url(#clip842)" style="stroke:#000000; stroke-linecap:round; stroke-linejoin:round; stroke-width:2; stroke-opacity:0.1; fill:none" points="1499.6,1486.45 1499.6,47.2441 "/>
<polyline clip-path="url(#clip842)" style="stroke:#000000; stroke-linecap:round; stroke-linejoin:round; stroke-width:2; stroke-opacity:0.1; fill:none" points="1926.18,1486.45 1926.18,47.2441 "/>
<polyline clip-path="url(#clip842)" style="stroke:#000000; stroke-linecap:round; stroke-linejoin:round; stroke-width:2; stroke-opacity:0.1; fill:none" points="2352.76,1486.45 2352.76,47.2441 "/>
<polyline clip-path="url(#clip840)" style="stroke:#000000; stroke-linecap:round; stroke-linejoin:round; stroke-width:4; stroke-opacity:1; fill:none" points="219.866,1486.45 2352.76,1486.45 "/>
<polyline clip-path="url(#clip840)" style="stroke:#000000; stroke-linecap:round; stroke-linejoin:round; stroke-width:4; stroke-opacity:1; fill:none" points="219.866,1486.45 219.866,1467.55 "/>
<polyline clip-path="url(#clip840)" style="stroke:#000000; stroke-linecap:round; stroke-linejoin:round; stroke-width:4; stroke-opacity:1; fill:none" points="646.444,1486.45 646.444,1467.55 "/>
<polyline clip-path="url(#clip840)" style="stroke:#000000; stroke-linecap:round; stroke-linejoin:round; stroke-width:4; stroke-opacity:1; fill:none" points="1073.02,1486.45 1073.02,1467.55 "/>
<polyline clip-path="url(#clip840)" style="stroke:#000000; stroke-linecap:round; stroke-linejoin:round; stroke-width:4; stroke-opacity:1; fill:none" points="1499.6,1486.45 1499.6,1467.55 "/>
<polyline clip-path="url(#clip840)" style="stroke:#000000; stroke-linecap:round; stroke-linejoin:round; stroke-width:4; stroke-opacity:1; fill:none" points="1926.18,1486.45 1926.18,1467.55 "/>
<polyline clip-path="url(#clip840)" style="stroke:#000000; stroke-linecap:round; stroke-linejoin:round; stroke-width:4; stroke-opacity:1; fill:none" points="2352.76,1486.45 2352.76,1467.55 "/>
<path clip-path="url(#clip840)" d="M219.866 1517.37 Q216.255 1517.37 214.426 1520.93 Q212.621 1524.47 212.621 1531.6 Q212.621 1538.71 214.426 1542.27 Q216.255 1545.82 219.866 1545.82 Q223.501 1545.82 225.306 1542.27 Q227.135 1538.71 227.135 1531.6 Q227.135 1524.47 225.306 1520.93 Q223.501 1517.37 219.866 1517.37 M219.866 1513.66 Q225.676 1513.66 228.732 1518.27 Q231.811 1522.85 231.811 1531.6 Q231.811 1540.33 228.732 1544.94 Q225.676 1549.52 219.866 1549.52 Q214.056 1549.52 210.977 1544.94 Q207.922 1540.33 207.922 1531.6 Q207.922 1522.85 210.977 1518.27 Q214.056 1513.66 219.866 1513.66 Z" fill="#000000" fill-rule="nonzero" fill-opacity="1" /><path clip-path="url(#clip840)" d="M636.826 1544.91 L644.465 1544.91 L644.465 1518.55 L636.155 1520.21 L636.155 1515.95 L644.419 1514.29 L649.095 1514.29 L649.095 1544.91 L656.733 1544.91 L656.733 1548.85 L636.826 1548.85 L636.826 1544.91 Z" fill="#000000" fill-rule="nonzero" fill-opacity="1" /><path clip-path="url(#clip840)" d="M1067.67 1544.91 L1083.99 1544.91 L1083.99 1548.85 L1062.05 1548.85 L1062.05 1544.91 Q1064.71 1542.16 1069.3 1537.53 Q1073.9 1532.88 1075.08 1531.53 Q1077.33 1529.01 1078.21 1527.27 Q1079.11 1525.51 1079.11 1523.82 Q1079.11 1521.07 1077.17 1519.33 Q1075.24 1517.6 1072.14 1517.6 Q1069.94 1517.6 1067.49 1518.36 Q1065.06 1519.13 1062.28 1520.68 L1062.28 1515.95 Q1065.11 1514.82 1067.56 1514.24 Q1070.01 1513.66 1072.05 1513.66 Q1077.42 1513.66 1080.61 1516.35 Q1083.81 1519.03 1083.81 1523.52 Q1083.81 1525.65 1083 1527.57 Q1082.21 1529.47 1080.11 1532.07 Q1079.53 1532.74 1076.42 1535.95 Q1073.32 1539.15 1067.67 1544.91 Z" fill="#000000" fill-rule="nonzero" fill-opacity="1" /><path clip-path="url(#clip840)" d="M1503.85 1530.21 Q1507.2 1530.93 1509.08 1533.2 Q1510.98 1535.47 1510.98 1538.8 Q1510.98 1543.92 1507.46 1546.72 Q1503.94 1549.52 1497.46 1549.52 Q1495.28 1549.52 1492.97 1549.08 Q1490.68 1548.66 1488.22 1547.81 L1488.22 1543.29 Q1490.17 1544.43 1492.48 1545.01 Q1494.8 1545.58 1497.32 1545.58 Q1501.72 1545.58 1504.01 1543.85 Q1506.32 1542.11 1506.32 1538.8 Q1506.32 1535.75 1504.17 1534.03 Q1502.04 1532.3 1498.22 1532.3 L1494.19 1532.3 L1494.19 1528.45 L1498.41 1528.45 Q1501.86 1528.45 1503.69 1527.09 Q1505.51 1525.7 1505.51 1523.11 Q1505.51 1520.45 1503.62 1519.03 Q1501.74 1517.6 1498.22 1517.6 Q1496.3 1517.6 1494.1 1518.01 Q1491.9 1518.43 1489.26 1519.31 L1489.26 1515.14 Q1491.93 1514.4 1494.24 1514.03 Q1496.58 1513.66 1498.64 1513.66 Q1503.96 1513.66 1507.07 1516.09 Q1510.17 1518.5 1510.17 1522.62 Q1510.17 1525.49 1508.52 1527.48 Q1506.88 1529.45 1503.85 1530.21 Z" fill="#000000" fill-rule="nonzero" fill-opacity="1" /><path clip-path="url(#clip840)" d="M1929.19 1518.36 L1917.38 1536.81 L1929.19 1536.81 L1929.19 1518.36 M1927.96 1514.29 L1933.84 1514.29 L1933.84 1536.81 L1938.77 1536.81 L1938.77 1540.7 L1933.84 1540.7 L1933.84 1548.85 L1929.19 1548.85 L1929.19 1540.7 L1913.59 1540.7 L1913.59 1536.19 L1927.96 1514.29 Z" fill="#000000" fill-rule="nonzero" fill-opacity="1" /><path clip-path="url(#clip840)" d="M2343.03 1514.29 L2361.39 1514.29 L2361.39 1518.22 L2347.32 1518.22 L2347.32 1526.7 Q2348.33 1526.35 2349.35 1526.19 Q2350.37 1526 2351.39 1526 Q2357.18 1526 2360.56 1529.17 Q2363.94 1532.34 2363.94 1537.76 Q2363.94 1543.34 2360.46 1546.44 Q2356.99 1549.52 2350.67 1549.52 Q2348.5 1549.52 2346.23 1549.15 Q2343.98 1548.78 2341.58 1548.04 L2341.58 1543.34 Q2343.66 1544.47 2345.88 1545.03 Q2348.1 1545.58 2350.58 1545.58 Q2354.58 1545.58 2356.92 1543.48 Q2359.26 1541.37 2359.26 1537.76 Q2359.26 1534.15 2356.92 1532.04 Q2354.58 1529.94 2350.58 1529.94 Q2348.71 1529.94 2346.83 1530.35 Q2344.98 1530.77 2343.03 1531.65 L2343.03 1514.29 Z" fill="#000000" fill-rule="nonzero" fill-opacity="1" /><polyline clip-path="url(#clip842)" style="stroke:#000000; stroke-linecap:round; stroke-linejoin:round; stroke-width:2; stroke-opacity:0.1; fill:none" points="219.866,1486.45 2352.76,1486.45 "/>
<polyline clip-path="url(#clip842)" style="stroke:#000000; stroke-linecap:round; stroke-linejoin:round; stroke-width:2; stroke-opacity:0.1; fill:none" points="219.866,1246.9 2352.76,1246.9 "/>
<polyline clip-path="url(#clip842)" style="stroke:#000000; stroke-linecap:round; stroke-linejoin:round; stroke-width:2; stroke-opacity:0.1; fill:none" points="219.866,1007.35 2352.76,1007.35 "/>
<polyline clip-path="url(#clip842)" style="stroke:#000000; stroke-linecap:round; stroke-linejoin:round; stroke-width:2; stroke-opacity:0.1; fill:none" points="219.866,767.8 2352.76,767.8 "/>
<polyline clip-path="url(#clip842)" style="stroke:#000000; stroke-linecap:round; stroke-linejoin:round; stroke-width:2; stroke-opacity:0.1; fill:none" points="219.866,528.251 2352.76,528.251 "/>
<polyline clip-path="url(#clip842)" style="stroke:#000000; stroke-linecap:round; stroke-linejoin:round; stroke-width:2; stroke-opacity:0.1; fill:none" points="219.866,288.702 2352.76,288.702 "/>
<polyline clip-path="url(#clip842)" style="stroke:#000000; stroke-linecap:round; stroke-linejoin:round; stroke-width:2; stroke-opacity:0.1; fill:none" points="219.866,49.1529 2352.76,49.1529 "/>
<polyline clip-path="url(#clip840)" style="stroke:#000000; stroke-linecap:round; stroke-linejoin:round; stroke-width:4; stroke-opacity:1; fill:none" points="219.866,1486.45 219.866,47.2441 "/>
<polyline clip-path="url(#clip840)" style="stroke:#000000; stroke-linecap:round; stroke-linejoin:round; stroke-width:4; stroke-opacity:1; fill:none" points="219.866,1486.45 238.764,1486.45 "/>
<polyline clip-path="url(#clip840)" style="stroke:#000000; stroke-linecap:round; stroke-linejoin:round; stroke-width:4; stroke-opacity:1; fill:none" points="219.866,1246.9 238.764,1246.9 "/>
<polyline clip-path="url(#clip840)" style="stroke:#000000; stroke-linecap:round; stroke-linejoin:round; stroke-width:4; stroke-opacity:1; fill:none" points="219.866,1007.35 238.764,1007.35 "/>
<polyline clip-path="url(#clip840)" style="stroke:#000000; stroke-linecap:round; stroke-linejoin:round; stroke-width:4; stroke-opacity:1; fill:none" points="219.866,767.8 238.764,767.8 "/>
<polyline clip-path="url(#clip840)" style="stroke:#000000; stroke-linecap:round; stroke-linejoin:round; stroke-width:4; stroke-opacity:1; fill:none" points="219.866,528.251 238.764,528.251 "/>
<polyline clip-path="url(#clip840)" style="stroke:#000000; stroke-linecap:round; stroke-linejoin:round; stroke-width:4; stroke-opacity:1; fill:none" points="219.866,288.702 238.764,288.702 "/>
<polyline clip-path="url(#clip840)" style="stroke:#000000; stroke-linecap:round; stroke-linejoin:round; stroke-width:4; stroke-opacity:1; fill:none" points="219.866,49.1529 238.764,49.1529 "/>
<path clip-path="url(#clip840)" d="M126.691 1472.25 Q123.08 1472.25 121.251 1475.81 Q119.445 1479.35 119.445 1486.48 Q119.445 1493.59 121.251 1497.15 Q123.08 1500.7 126.691 1500.7 Q130.325 1500.7 132.13 1497.15 Q133.959 1493.59 133.959 1486.48 Q133.959 1479.35 132.13 1475.81 Q130.325 1472.25 126.691 1472.25 M126.691 1468.54 Q132.501 1468.54 135.556 1473.15 Q138.635 1477.73 138.635 1486.48 Q138.635 1495.21 135.556 1499.82 Q132.501 1504.4 126.691 1504.4 Q120.88 1504.4 117.802 1499.82 Q114.746 1495.21 114.746 1486.48 Q114.746 1477.73 117.802 1473.15 Q120.88 1468.54 126.691 1468.54 Z" fill="#000000" fill-rule="nonzero" fill-opacity="1" /><path clip-path="url(#clip840)" d="M146.853 1497.85 L151.737 1497.85 L151.737 1503.73 L146.853 1503.73 L146.853 1497.85 Z" fill="#000000" fill-rule="nonzero" fill-opacity="1" /><path clip-path="url(#clip840)" d="M171.922 1472.25 Q168.311 1472.25 166.482 1475.81 Q164.677 1479.35 164.677 1486.48 Q164.677 1493.59 166.482 1497.15 Q168.311 1500.7 171.922 1500.7 Q175.556 1500.7 177.362 1497.15 Q179.19 1493.59 179.19 1486.48 Q179.19 1479.35 177.362 1475.81 Q175.556 1472.25 171.922 1472.25 M171.922 1468.54 Q177.732 1468.54 180.788 1473.15 Q183.866 1477.73 183.866 1486.48 Q183.866 1495.21 180.788 1499.82 Q177.732 1504.4 171.922 1504.4 Q166.112 1504.4 163.033 1499.82 Q159.978 1495.21 159.978 1486.48 Q159.978 1477.73 163.033 1473.15 Q166.112 1468.54 171.922 1468.54 Z" fill="#000000" fill-rule="nonzero" fill-opacity="1" /><path clip-path="url(#clip840)" d="M127.917 1232.7 Q124.306 1232.7 122.478 1236.26 Q120.672 1239.8 120.672 1246.93 Q120.672 1254.04 122.478 1257.6 Q124.306 1261.15 127.917 1261.15 Q131.552 1261.15 133.357 1257.6 Q135.186 1254.04 135.186 1246.93 Q135.186 1239.8 133.357 1236.26 Q131.552 1232.7 127.917 1232.7 M127.917 1228.99 Q133.728 1228.99 136.783 1233.6 Q139.862 1238.18 139.862 1246.93 Q139.862 1255.66 136.783 1260.27 Q133.728 1264.85 127.917 1264.85 Q122.107 1264.85 119.029 1260.27 Q115.973 1255.66 115.973 1246.93 Q115.973 1238.18 119.029 1233.6 Q122.107 1228.99 127.917 1228.99 Z" fill="#000000" fill-rule="nonzero" fill-opacity="1" /><path clip-path="url(#clip840)" d="M148.079 1258.3 L152.964 1258.3 L152.964 1264.18 L148.079 1264.18 L148.079 1258.3 Z" fill="#000000" fill-rule="nonzero" fill-opacity="1" /><path clip-path="url(#clip840)" d="M163.959 1260.24 L171.598 1260.24 L171.598 1233.88 L163.288 1235.54 L163.288 1231.29 L171.552 1229.62 L176.227 1229.62 L176.227 1260.24 L183.866 1260.24 L183.866 1264.18 L163.959 1264.18 L163.959 1260.24 Z" fill="#000000" fill-rule="nonzero" fill-opacity="1" /><path clip-path="url(#clip840)" d="M128.288 993.148 Q124.677 993.148 122.848 996.713 Q121.043 1000.25 121.043 1007.38 Q121.043 1014.49 122.848 1018.06 Q124.677 1021.6 128.288 1021.6 Q131.922 1021.6 133.728 1018.06 Q135.556 1014.49 135.556 1007.38 Q135.556 1000.25 133.728 996.713 Q131.922 993.148 128.288 993.148 M128.288 989.445 Q134.098 989.445 137.154 994.051 Q140.232 998.634 140.232 1007.38 Q140.232 1016.11 137.154 1020.72 Q134.098 1025.3 128.288 1025.3 Q122.478 1025.3 119.399 1020.72 Q116.343 1016.11 116.343 1007.38 Q116.343 998.634 119.399 994.051 Q122.478 989.445 128.288 989.445 Z" fill="#000000" fill-rule="nonzero" fill-opacity="1" /><path clip-path="url(#clip840)" d="M148.45 1018.75 L153.334 1018.75 L153.334 1024.63 L148.45 1024.63 L148.45 1018.75 Z" fill="#000000" fill-rule="nonzero" fill-opacity="1" /><path clip-path="url(#clip840)" d="M167.547 1020.69 L183.866 1020.69 L183.866 1024.63 L161.922 1024.63 L161.922 1020.69 Q164.584 1017.94 169.167 1013.31 Q173.774 1008.66 174.954 1007.31 Q177.2 1004.79 178.079 1003.06 Q178.982 1001.3 178.982 999.607 Q178.982 996.852 177.038 995.116 Q175.116 993.38 172.014 993.38 Q169.815 993.38 167.362 994.144 Q164.931 994.907 162.153 996.458 L162.153 991.736 Q164.977 990.602 167.431 990.023 Q169.885 989.445 171.922 989.445 Q177.292 989.445 180.487 992.13 Q183.681 994.815 183.681 999.306 Q183.681 1001.44 182.871 1003.36 Q182.084 1005.25 179.977 1007.85 Q179.399 1008.52 176.297 1011.74 Q173.195 1014.93 167.547 1020.69 Z" fill="#000000" fill-rule="nonzero" fill-opacity="1" /><path clip-path="url(#clip840)" d="M127.339 753.599 Q123.728 753.599 121.899 757.164 Q120.093 760.705 120.093 767.835 Q120.093 774.942 121.899 778.506 Q123.728 782.048 127.339 782.048 Q130.973 782.048 132.779 778.506 Q134.607 774.942 134.607 767.835 Q134.607 760.705 132.779 757.164 Q130.973 753.599 127.339 753.599 M127.339 749.895 Q133.149 749.895 136.204 754.502 Q139.283 759.085 139.283 767.835 Q139.283 776.562 136.204 781.168 Q133.149 785.752 127.339 785.752 Q121.529 785.752 118.45 781.168 Q115.394 776.562 115.394 767.835 Q115.394 759.085 118.45 754.502 Q121.529 749.895 127.339 749.895 Z" fill="#000000" fill-rule="nonzero" fill-opacity="1" /><path clip-path="url(#clip840)" d="M147.501 779.201 L152.385 779.201 L152.385 785.08 L147.501 785.08 L147.501 779.201 Z" fill="#000000" fill-rule="nonzero" fill-opacity="1" /><path clip-path="url(#clip840)" d="M176.737 766.446 Q180.093 767.164 181.968 769.432 Q183.866 771.701 183.866 775.034 Q183.866 780.15 180.348 782.951 Q176.829 785.752 170.348 785.752 Q168.172 785.752 165.857 785.312 Q163.565 784.895 161.112 784.039 L161.112 779.525 Q163.056 780.659 165.371 781.238 Q167.686 781.816 170.209 781.816 Q174.607 781.816 176.899 780.08 Q179.214 778.344 179.214 775.034 Q179.214 771.979 177.061 770.266 Q174.931 768.53 171.112 768.53 L167.084 768.53 L167.084 764.687 L171.297 764.687 Q174.746 764.687 176.575 763.321 Q178.403 761.932 178.403 759.34 Q178.403 756.678 176.505 755.266 Q174.63 753.831 171.112 753.831 Q169.19 753.831 166.991 754.247 Q164.792 754.664 162.153 755.543 L162.153 751.377 Q164.815 750.636 167.13 750.266 Q169.468 749.895 171.528 749.895 Q176.852 749.895 179.954 752.326 Q183.056 754.733 183.056 758.854 Q183.056 761.724 181.413 763.715 Q179.769 765.682 176.737 766.446 Z" fill="#000000" fill-rule="nonzero" fill-opacity="1" /><path clip-path="url(#clip840)" d="M126.205 514.05 Q122.593 514.05 120.765 517.615 Q118.959 521.156 118.959 528.286 Q118.959 535.392 120.765 538.957 Q122.593 542.499 126.205 542.499 Q129.839 542.499 131.644 538.957 Q133.473 535.392 133.473 528.286 Q133.473 521.156 131.644 517.615 Q129.839 514.05 126.205 514.05 M126.205 510.346 Q132.015 510.346 135.07 514.953 Q138.149 519.536 138.149 528.286 Q138.149 537.013 135.07 541.619 Q132.015 546.202 126.205 546.202 Q120.394 546.202 117.316 541.619 Q114.26 537.013 114.26 528.286 Q114.26 519.536 117.316 514.953 Q120.394 510.346 126.205 510.346 Z" fill="#000000" fill-rule="nonzero" fill-opacity="1" /><path clip-path="url(#clip840)" d="M146.366 539.652 L151.251 539.652 L151.251 545.531 L146.366 545.531 L146.366 539.652 Z" fill="#000000" fill-rule="nonzero" fill-opacity="1" /><path clip-path="url(#clip840)" d="M174.283 515.045 L162.477 533.494 L174.283 533.494 L174.283 515.045 M173.056 510.971 L178.936 510.971 L178.936 533.494 L183.866 533.494 L183.866 537.383 L178.936 537.383 L178.936 545.531 L174.283 545.531 L174.283 537.383 L158.681 537.383 L158.681 532.869 L173.056 510.971 Z" fill="#000000" fill-rule="nonzero" fill-opacity="1" /><path clip-path="url(#clip840)" d="M127.686 274.501 Q124.075 274.501 122.246 278.066 Q120.441 281.607 120.441 288.737 Q120.441 295.843 122.246 299.408 Q124.075 302.95 127.686 302.95 Q131.32 302.95 133.126 299.408 Q134.954 295.843 134.954 288.737 Q134.954 281.607 133.126 278.066 Q131.32 274.501 127.686 274.501 M127.686 270.797 Q133.496 270.797 136.552 275.403 Q139.63 279.987 139.63 288.737 Q139.63 297.464 136.552 302.07 Q133.496 306.653 127.686 306.653 Q121.876 306.653 118.797 302.07 Q115.742 297.464 115.742 288.737 Q115.742 279.987 118.797 275.403 Q121.876 270.797 127.686 270.797 Z" fill="#000000" fill-rule="nonzero" fill-opacity="1" /><path clip-path="url(#clip840)" d="M147.848 300.102 L152.732 300.102 L152.732 305.982 L147.848 305.982 L147.848 300.102 Z" fill="#000000" fill-rule="nonzero" fill-opacity="1" /><path clip-path="url(#clip840)" d="M162.964 271.422 L181.32 271.422 L181.32 275.357 L167.246 275.357 L167.246 283.829 Q168.264 283.482 169.283 283.32 Q170.302 283.135 171.32 283.135 Q177.107 283.135 180.487 286.306 Q183.866 289.477 183.866 294.894 Q183.866 300.473 180.394 303.575 Q176.922 306.653 170.602 306.653 Q168.427 306.653 166.158 306.283 Q163.913 305.913 161.505 305.172 L161.505 300.473 Q163.589 301.607 165.811 302.163 Q168.033 302.718 170.51 302.718 Q174.514 302.718 176.852 300.612 Q179.19 298.505 179.19 294.894 Q179.19 291.283 176.852 289.177 Q174.514 287.07 170.51 287.07 Q168.635 287.07 166.76 287.487 Q164.908 287.903 162.964 288.783 L162.964 271.422 Z" fill="#000000" fill-rule="nonzero" fill-opacity="1" /><path clip-path="url(#clip840)" d="M126.529 34.9515 Q122.918 34.9515 121.089 38.5163 Q119.283 42.058 119.283 49.1876 Q119.283 56.294 121.089 59.8588 Q122.918 63.4005 126.529 63.4005 Q130.163 63.4005 131.968 59.8588 Q133.797 56.294 133.797 49.1876 Q133.797 42.058 131.968 38.5163 Q130.163 34.9515 126.529 34.9515 M126.529 31.2479 Q132.339 31.2479 135.394 35.8543 Q138.473 40.4376 138.473 49.1876 Q138.473 57.9144 135.394 62.5208 Q132.339 67.1041 126.529 67.1041 Q120.718 67.1041 117.64 62.5208 Q114.584 57.9144 114.584 49.1876 Q114.584 40.4376 117.64 35.8543 Q120.718 31.2479 126.529 31.2479 Z" fill="#000000" fill-rule="nonzero" fill-opacity="1" /><path clip-path="url(#clip840)" d="M146.691 60.5533 L151.575 60.5533 L151.575 66.4329 L146.691 66.4329 L146.691 60.5533 Z" fill="#000000" fill-rule="nonzero" fill-opacity="1" /><path clip-path="url(#clip840)" d="M172.339 47.2894 Q169.19 47.2894 167.339 49.4422 Q165.51 51.595 165.51 55.3449 Q165.51 59.0718 167.339 61.2477 Q169.19 63.4005 172.339 63.4005 Q175.487 63.4005 177.315 61.2477 Q179.167 59.0718 179.167 55.3449 Q179.167 51.595 177.315 49.4422 Q175.487 47.2894 172.339 47.2894 M181.621 32.6367 L181.621 36.896 Q179.862 36.0626 178.056 35.6228 Q176.274 35.183 174.514 35.183 Q169.885 35.183 167.431 38.308 Q165.001 41.433 164.653 47.7524 Q166.019 45.7385 168.079 44.6737 Q170.139 43.5858 172.616 43.5858 Q177.825 43.5858 180.834 46.757 Q183.866 49.9052 183.866 55.3449 Q183.866 60.669 180.718 63.8866 Q177.57 67.1041 172.339 67.1041 Q166.343 67.1041 163.172 62.5208 Q160.001 57.9144 160.001 49.1876 Q160.001 40.9932 163.89 36.1321 Q167.778 31.2479 174.329 31.2479 Q176.089 31.2479 177.871 31.5951 Q179.676 31.9423 181.621 32.6367 Z" fill="#000000" fill-rule="nonzero" fill-opacity="1" /><path clip-path="url(#clip840)" d="M21.7677 880.156 L58.7206 880.156 L58.7206 872.389 Q58.7206 862.554 54.2646 858.003 Q49.8086 853.42 40.1964 853.42 Q30.6479 853.42 26.2237 858.003 Q21.7677 862.554 21.7677 872.389 L21.7677 880.156 M16.4842 886.585 L16.4842 873.376 Q16.4842 859.563 22.2451 853.101 Q27.9743 846.64 40.1964 846.64 Q52.4822 846.64 58.2432 853.133 Q64.0042 859.626 64.0042 873.376 L64.0042 886.585 L16.4842 886.585 Z" fill="#000000" fill-rule="nonzero" fill-opacity="1" /><path clip-path="url(#clip840)" d="M44.7161 806.154 L47.5806 806.154 L47.5806 833.081 Q53.6281 832.699 56.8109 829.453 Q59.9619 826.174 59.9619 820.35 Q59.9619 816.976 59.1344 813.825 Q58.3069 810.642 56.6518 807.523 L62.1899 807.523 Q63.5267 810.674 64.227 813.984 Q64.9272 817.294 64.9272 820.7 Q64.9272 829.23 59.9619 834.227 Q54.9967 839.192 46.5303 839.192 Q37.7774 839.192 32.6531 834.482 Q27.4968 829.739 27.4968 821.718 Q27.4968 814.525 32.1438 810.356 Q36.7589 806.154 44.7161 806.154 M42.9973 812.011 Q38.1912 812.074 35.3266 814.716 Q32.4621 817.326 32.4621 821.655 Q32.4621 826.556 35.2312 829.516 Q38.0002 832.445 43.0292 832.89 L42.9973 812.011 Z" fill="#000000" fill-rule="nonzero" fill-opacity="1" /><path clip-path="url(#clip840)" d="M42.4881 766.91 L64.0042 766.91 L64.0042 772.766 L42.679 772.766 Q37.6183 772.766 35.1038 774.739 Q32.5894 776.713 32.5894 780.66 Q32.5894 785.402 35.6131 788.139 Q38.6368 790.877 43.8567 790.877 L64.0042 790.877 L64.0042 796.765 L28.3562 796.765 L28.3562 790.877 L33.8944 790.877 Q30.6797 788.776 29.0883 785.943 Q27.4968 783.079 27.4968 779.355 Q27.4968 773.212 31.3163 770.061 Q35.1038 766.91 42.4881 766.91 Z" fill="#000000" fill-rule="nonzero" fill-opacity="1" /><path clip-path="url(#clip840)" d="M29.4065 732.503 L34.9447 732.503 Q33.6716 734.986 33.035 737.659 Q32.3984 740.333 32.3984 743.197 Q32.3984 747.558 33.7352 749.754 Q35.072 751.918 37.7456 751.918 Q39.7826 751.918 40.9603 750.359 Q42.1061 748.799 43.1565 744.089 L43.6021 742.083 Q44.9389 735.845 47.3897 733.235 Q49.8086 730.593 54.1691 730.593 Q59.1344 730.593 62.0308 734.54 Q64.9272 738.455 64.9272 745.33 Q64.9272 748.194 64.3543 751.314 Q63.8132 754.401 62.6992 757.839 L56.6518 757.839 Q58.3387 754.592 59.198 751.441 Q60.0256 748.29 60.0256 745.203 Q60.0256 741.065 58.6251 738.837 Q57.1929 736.609 54.6147 736.609 Q52.2276 736.609 50.9545 738.232 Q49.6813 739.824 48.5037 745.266 L48.0262 747.303 Q46.8804 752.746 44.5251 755.165 Q42.138 757.584 38.0002 757.584 Q32.9713 757.584 30.2341 754.019 Q27.4968 750.454 27.4968 743.898 Q27.4968 740.651 27.9743 737.787 Q28.4517 734.922 29.4065 732.503 Z" fill="#000000" fill-rule="nonzero" fill-opacity="1" /><path clip-path="url(#clip840)" d="M28.3562 721.268 L28.3562 715.411 L64.0042 715.411 L64.0042 721.268 L28.3562 721.268 M14.479 721.268 L14.479 715.411 L21.895 715.411 L21.895 721.268 L14.479 721.268 Z" fill="#000000" fill-rule="nonzero" fill-opacity="1" /><path clip-path="url(#clip840)" d="M18.2347 697.364 L28.3562 697.364 L28.3562 685.301 L32.9077 685.301 L32.9077 697.364 L52.2594 697.364 Q56.6199 697.364 57.8613 696.187 Q59.1026 694.977 59.1026 691.317 L59.1026 685.301 L64.0042 685.301 L64.0042 691.317 Q64.0042 698.096 61.4897 700.674 Q58.9434 703.253 52.2594 703.253 L32.9077 703.253 L32.9077 707.549 L28.3562 707.549 L28.3562 703.253 L18.2347 703.253 L18.2347 697.364 Z" fill="#000000" fill-rule="nonzero" fill-opacity="1" /><path clip-path="url(#clip840)" d="M67.3143 662.767 Q73.68 665.249 75.6216 667.605 Q77.5631 669.96 77.5631 673.907 L77.5631 678.585 L72.6615 678.585 L72.6615 675.148 Q72.6615 672.729 71.5157 671.392 Q70.3699 670.055 66.1048 668.432 L63.4312 667.382 L28.3562 681.8 L28.3562 675.594 L56.238 664.454 L28.3562 653.314 L28.3562 647.107 L67.3143 662.767 Z" fill="#000000" fill-rule="nonzero" fill-opacity="1" /><path clip-path="url(#clip842)" d="M219.866 1301.93 L219.866 1486.45 L293.414 1486.45 L293.414 1301.93 L219.866 1301.93 L219.866 1301.93  Z" fill="#009af9" fill-rule="evenodd" fill-opacity="1"/>
<polyline clip-path="url(#clip842)" style="stroke:#000000; stroke-linecap:round; stroke-linejoin:round; stroke-width:4; stroke-opacity:1; fill:none" points="219.866,1301.93 219.866,1486.45 293.414,1486.45 293.414,1301.93 219.866,1301.93 "/>
<path clip-path="url(#clip842)" d="M293.414 600.784 L293.414 1486.45 L366.962 1486.45 L366.962 600.784 L293.414 600.784 L293.414 600.784  Z" fill="#009af9" fill-rule="evenodd" fill-opacity="1"/>
<polyline clip-path="url(#clip842)" style="stroke:#000000; stroke-linecap:round; stroke-linejoin:round; stroke-width:4; stroke-opacity:1; fill:none" points="293.414,600.784 293.414,1486.45 366.962,1486.45 366.962,600.784 293.414,600.784 "/>
<path clip-path="url(#clip842)" d="M366.962 47.2441 L366.962 1486.45 L440.51 1486.45 L440.51 47.2441 L366.962 47.2441 L366.962 47.2441  Z" fill="#009af9" fill-rule="evenodd" fill-opacity="1"/>
<polyline clip-path="url(#clip842)" style="stroke:#000000; stroke-linecap:round; stroke-linejoin:round; stroke-width:4; stroke-opacity:1; fill:none" points="366.962,47.2441 366.962,1486.45 440.51,1486.45 440.51,47.2441 366.962,47.2441 "/>
<path clip-path="url(#clip842)" d="M440.51 213.306 L440.51 1486.45 L514.058 1486.45 L514.058 213.306 L440.51 213.306 L440.51 213.306  Z" fill="#009af9" fill-rule="evenodd" fill-opacity="1"/>
<polyline clip-path="url(#clip842)" style="stroke:#000000; stroke-linecap:round; stroke-linejoin:round; stroke-width:4; stroke-opacity:1; fill:none" points="440.51,213.306 440.51,1486.45 514.058,1486.45 514.058,213.306 440.51,213.306 "/>
<path clip-path="url(#clip842)" d="M514.058 545.43 L514.058 1486.45 L587.606 1486.45 L587.606 545.43 L514.058 545.43 L514.058 545.43  Z" fill="#009af9" fill-rule="evenodd" fill-opacity="1"/>
<polyline clip-path="url(#clip842)" style="stroke:#000000; stroke-linecap:round; stroke-linejoin:round; stroke-width:4; stroke-opacity:1; fill:none" points="514.058,545.43 514.058,1486.45 587.606,1486.45 587.606,545.43 514.058,545.43 "/>
<path clip-path="url(#clip842)" d="M587.606 729.943 L587.606 1486.45 L661.154 1486.45 L661.154 729.943 L587.606 729.943 L587.606 729.943  Z" fill="#009af9" fill-rule="evenodd" fill-opacity="1"/>
<polyline clip-path="url(#clip842)" style="stroke:#000000; stroke-linecap:round; stroke-linejoin:round; stroke-width:4; stroke-opacity:1; fill:none" points="587.606,729.943 587.606,1486.45 661.154,1486.45 661.154,729.943 587.606,729.943 "/>
<path clip-path="url(#clip842)" d="M661.154 785.297 L661.154 1486.45 L734.702 1486.45 L734.702 785.297 L661.154 785.297 L661.154 785.297  Z" fill="#009af9" fill-rule="evenodd" fill-opacity="1"/>
<polyline clip-path="url(#clip842)" style="stroke:#000000; stroke-linecap:round; stroke-linejoin:round; stroke-width:4; stroke-opacity:1; fill:none" points="661.154,785.297 661.154,1486.45 734.702,1486.45 734.702,785.297 661.154,785.297 "/>
<path clip-path="url(#clip842)" d="M734.702 877.554 L734.702 1486.45 L808.25 1486.45 L808.25 877.554 L734.702 877.554 L734.702 877.554  Z" fill="#009af9" fill-rule="evenodd" fill-opacity="1"/>
<polyline clip-path="url(#clip842)" style="stroke:#000000; stroke-linecap:round; stroke-linejoin:round; stroke-width:4; stroke-opacity:1; fill:none" points="734.702,877.554 734.702,1486.45 808.25,1486.45 808.25,877.554 734.702,877.554 "/>
<path clip-path="url(#clip842)" d="M808.25 896.005 L808.25 1486.45 L881.798 1486.45 L881.798 896.005 L808.25 896.005 L808.25 896.005  Z" fill="#009af9" fill-rule="evenodd" fill-opacity="1"/>
<polyline clip-path="url(#clip842)" style="stroke:#000000; stroke-linecap:round; stroke-linejoin:round; stroke-width:4; stroke-opacity:1; fill:none" points="808.25,896.005 808.25,1486.45 881.798,1486.45 881.798,896.005 808.25,896.005 "/>
<path clip-path="url(#clip842)" d="M881.798 951.359 L881.798 1486.45 L955.345 1486.45 L955.345 951.359 L881.798 951.359 L881.798 951.359  Z" fill="#009af9" fill-rule="evenodd" fill-opacity="1"/>
<polyline clip-path="url(#clip842)" style="stroke:#000000; stroke-linecap:round; stroke-linejoin:round; stroke-width:4; stroke-opacity:1; fill:none" points="881.798,951.359 881.798,1486.45 955.345,1486.45 955.345,951.359 881.798,951.359 "/>
<path clip-path="url(#clip842)" d="M955.345 1025.16 L955.345 1486.45 L1028.89 1486.45 L1028.89 1025.16 L955.345 1025.16 L955.345 1025.16  Z" fill="#009af9" fill-rule="evenodd" fill-opacity="1"/>
<polyline clip-path="url(#clip842)" style="stroke:#000000; stroke-linecap:round; stroke-linejoin:round; stroke-width:4; stroke-opacity:1; fill:none" points="955.345,1025.16 955.345,1486.45 1028.89,1486.45 1028.89,1025.16 955.345,1025.16 "/>
<path clip-path="url(#clip842)" d="M1028.89 988.262 L1028.89 1486.45 L1102.44 1486.45 L1102.44 988.262 L1028.89 988.262 L1028.89 988.262  Z" fill="#009af9" fill-rule="evenodd" fill-opacity="1"/>
<polyline clip-path="url(#clip842)" style="stroke:#000000; stroke-linecap:round; stroke-linejoin:round; stroke-width:4; stroke-opacity:1; fill:none" points="1028.89,988.262 1028.89,1486.45 1102.44,1486.45 1102.44,988.262 1028.89,988.262 "/>
<path clip-path="url(#clip842)" d="M1102.44 1006.71 L1102.44 1486.45 L1175.99 1486.45 L1175.99 1006.71 L1102.44 1006.71 L1102.44 1006.71  Z" fill="#009af9" fill-rule="evenodd" fill-opacity="1"/>
<polyline clip-path="url(#clip842)" style="stroke:#000000; stroke-linecap:round; stroke-linejoin:round; stroke-width:4; stroke-opacity:1; fill:none" points="1102.44,1006.71 1102.44,1486.45 1175.99,1486.45 1175.99,1006.71 1102.44,1006.71 "/>
<path clip-path="url(#clip842)" d="M1175.99 988.262 L1175.99 1486.45 L1249.54 1486.45 L1249.54 988.262 L1175.99 988.262 L1175.99 988.262  Z" fill="#009af9" fill-rule="evenodd" fill-opacity="1"/>
<polyline clip-path="url(#clip842)" style="stroke:#000000; stroke-linecap:round; stroke-linejoin:round; stroke-width:4; stroke-opacity:1; fill:none" points="1175.99,988.262 1175.99,1486.45 1249.54,1486.45 1249.54,988.262 1175.99,988.262 "/>
<path clip-path="url(#clip842)" d="M1249.54 1062.07 L1249.54 1486.45 L1323.09 1486.45 L1323.09 1062.07 L1249.54 1062.07 L1249.54 1062.07  Z" fill="#009af9" fill-rule="evenodd" fill-opacity="1"/>
<polyline clip-path="url(#clip842)" style="stroke:#000000; stroke-linecap:round; stroke-linejoin:round; stroke-width:4; stroke-opacity:1; fill:none" points="1249.54,1062.07 1249.54,1486.45 1323.09,1486.45 1323.09,1062.07 1249.54,1062.07 "/>
<path clip-path="url(#clip842)" d="M1323.09 1062.07 L1323.09 1486.45 L1396.63 1486.45 L1396.63 1062.07 L1323.09 1062.07 L1323.09 1062.07  Z" fill="#009af9" fill-rule="evenodd" fill-opacity="1"/>
<polyline clip-path="url(#clip842)" style="stroke:#000000; stroke-linecap:round; stroke-linejoin:round; stroke-width:4; stroke-opacity:1; fill:none" points="1323.09,1062.07 1323.09,1486.45 1396.63,1486.45 1396.63,1062.07 1323.09,1062.07 "/>
<path clip-path="url(#clip842)" d="M1396.63 1117.42 L1396.63 1486.45 L1470.18 1486.45 L1470.18 1117.42 L1396.63 1117.42 L1396.63 1117.42  Z" fill="#009af9" fill-rule="evenodd" fill-opacity="1"/>
<polyline clip-path="url(#clip842)" style="stroke:#000000; stroke-linecap:round; stroke-linejoin:round; stroke-width:4; stroke-opacity:1; fill:none" points="1396.63,1117.42 1396.63,1486.45 1470.18,1486.45 1470.18,1117.42 1396.63,1117.42 "/>
<path clip-path="url(#clip842)" d="M1470.18 1228.13 L1470.18 1486.45 L1543.73 1486.45 L1543.73 1228.13 L1470.18 1228.13 L1470.18 1228.13  Z" fill="#009af9" fill-rule="evenodd" fill-opacity="1"/>
<polyline clip-path="url(#clip842)" style="stroke:#000000; stroke-linecap:round; stroke-linejoin:round; stroke-width:4; stroke-opacity:1; fill:none" points="1470.18,1228.13 1470.18,1486.45 1543.73,1486.45 1543.73,1228.13 1470.18,1228.13 "/>
<path clip-path="url(#clip842)" d="M1543.73 1062.07 L1543.73 1486.45 L1617.28 1486.45 L1617.28 1062.07 L1543.73 1062.07 L1543.73 1062.07  Z" fill="#009af9" fill-rule="evenodd" fill-opacity="1"/>
<polyline clip-path="url(#clip842)" style="stroke:#000000; stroke-linecap:round; stroke-linejoin:round; stroke-width:4; stroke-opacity:1; fill:none" points="1543.73,1062.07 1543.73,1486.45 1617.28,1486.45 1617.28,1062.07 1543.73,1062.07 "/>
<path clip-path="url(#clip842)" d="M1617.28 1265.03 L1617.28 1486.45 L1690.82 1486.45 L1690.82 1265.03 L1617.28 1265.03 L1617.28 1265.03  Z" fill="#009af9" fill-rule="evenodd" fill-opacity="1"/>
<polyline clip-path="url(#clip842)" style="stroke:#000000; stroke-linecap:round; stroke-linejoin:round; stroke-width:4; stroke-opacity:1; fill:none" points="1617.28,1265.03 1617.28,1486.45 1690.82,1486.45 1690.82,1265.03 1617.28,1265.03 "/>
<path clip-path="url(#clip842)" d="M1690.82 1154.32 L1690.82 1486.45 L1764.37 1486.45 L1764.37 1154.32 L1690.82 1154.32 L1690.82 1154.32  Z" fill="#009af9" fill-rule="evenodd" fill-opacity="1"/>
<polyline clip-path="url(#clip842)" style="stroke:#000000; stroke-linecap:round; stroke-linejoin:round; stroke-width:4; stroke-opacity:1; fill:none" points="1690.82,1154.32 1690.82,1486.45 1764.37,1486.45 1764.37,1154.32 1690.82,1154.32 "/>
<path clip-path="url(#clip842)" d="M1764.37 1191.23 L1764.37 1486.45 L1837.92 1486.45 L1837.92 1191.23 L1764.37 1191.23 L1764.37 1191.23  Z" fill="#009af9" fill-rule="evenodd" fill-opacity="1"/>
<polyline clip-path="url(#clip842)" style="stroke:#000000; stroke-linecap:round; stroke-linejoin:round; stroke-width:4; stroke-opacity:1; fill:none" points="1764.37,1191.23 1764.37,1486.45 1837.92,1486.45 1837.92,1191.23 1764.37,1191.23 "/>
<path clip-path="url(#clip842)" d="M1837.92 1320.39 L1837.92 1486.45 L1911.47 1486.45 L1911.47 1320.39 L1837.92 1320.39 L1837.92 1320.39  Z" fill="#009af9" fill-rule="evenodd" fill-opacity="1"/>
<polyline clip-path="url(#clip842)" style="stroke:#000000; stroke-linecap:round; stroke-linejoin:round; stroke-width:4; stroke-opacity:1; fill:none" points="1837.92,1320.39 1837.92,1486.45 1911.47,1486.45 1911.47,1320.39 1837.92,1320.39 "/>
<path clip-path="url(#clip842)" d="M1911.47 1301.93 L1911.47 1486.45 L1985.02 1486.45 L1985.02 1301.93 L1911.47 1301.93 L1911.47 1301.93  Z" fill="#009af9" fill-rule="evenodd" fill-opacity="1"/>
<polyline clip-path="url(#clip842)" style="stroke:#000000; stroke-linecap:round; stroke-linejoin:round; stroke-width:4; stroke-opacity:1; fill:none" points="1911.47,1301.93 1911.47,1486.45 1985.02,1486.45 1985.02,1301.93 1911.47,1301.93 "/>
<path clip-path="url(#clip842)" d="M1985.02 1265.03 L1985.02 1486.45 L2058.56 1486.45 L2058.56 1265.03 L1985.02 1265.03 L1985.02 1265.03  Z" fill="#009af9" fill-rule="evenodd" fill-opacity="1"/>
<polyline clip-path="url(#clip842)" style="stroke:#000000; stroke-linecap:round; stroke-linejoin:round; stroke-width:4; stroke-opacity:1; fill:none" points="1985.02,1265.03 1985.02,1486.45 2058.56,1486.45 2058.56,1265.03 1985.02,1265.03 "/>
<path clip-path="url(#clip842)" d="M2058.56 1246.58 L2058.56 1486.45 L2132.11 1486.45 L2132.11 1246.58 L2058.56 1246.58 L2058.56 1246.58  Z" fill="#009af9" fill-rule="evenodd" fill-opacity="1"/>
<polyline clip-path="url(#clip842)" style="stroke:#000000; stroke-linecap:round; stroke-linejoin:round; stroke-width:4; stroke-opacity:1; fill:none" points="2058.56,1246.58 2058.56,1486.45 2132.11,1486.45 2132.11,1246.58 2058.56,1246.58 "/>
<path clip-path="url(#clip842)" d="M2132.11 1357.29 L2132.11 1486.45 L2205.66 1486.45 L2205.66 1357.29 L2132.11 1357.29 L2132.11 1357.29  Z" fill="#009af9" fill-rule="evenodd" fill-opacity="1"/>
<polyline clip-path="url(#clip842)" style="stroke:#000000; stroke-linecap:round; stroke-linejoin:round; stroke-width:4; stroke-opacity:1; fill:none" points="2132.11,1357.29 2132.11,1486.45 2205.66,1486.45 2205.66,1357.29 2132.11,1357.29 "/>
<path clip-path="url(#clip842)" d="M2205.66 1283.48 L2205.66 1486.45 L2279.21 1486.45 L2279.21 1283.48 L2205.66 1283.48 L2205.66 1283.48  Z" fill="#009af9" fill-rule="evenodd" fill-opacity="1"/>
<polyline clip-path="url(#clip842)" style="stroke:#000000; stroke-linecap:round; stroke-linejoin:round; stroke-width:4; stroke-opacity:1; fill:none" points="2205.66,1283.48 2205.66,1486.45 2279.21,1486.45 2279.21,1283.48 2205.66,1283.48 "/>
<path clip-path="url(#clip842)" d="M2279.21 1338.84 L2279.21 1486.45 L2352.76 1486.45 L2352.76 1338.84 L2279.21 1338.84 L2279.21 1338.84  Z" fill="#009af9" fill-rule="evenodd" fill-opacity="1"/>
<polyline clip-path="url(#clip842)" style="stroke:#000000; stroke-linecap:round; stroke-linejoin:round; stroke-width:4; stroke-opacity:1; fill:none" points="2279.21,1338.84 2279.21,1486.45 2352.76,1486.45 2352.76,1338.84 2279.21,1338.84 "/>
<circle clip-path="url(#clip842)" style="fill:#009af9; stroke:none; fill-opacity:0" cx="256.64" cy="1301.93" r="2"/>
<circle clip-path="url(#clip842)" style="fill:#009af9; stroke:none; fill-opacity:0" cx="330.188" cy="600.784" r="2"/>
<circle clip-path="url(#clip842)" style="fill:#009af9; stroke:none; fill-opacity:0" cx="403.736" cy="47.2441" r="2"/>
<circle clip-path="url(#clip842)" style="fill:#009af9; stroke:none; fill-opacity:0" cx="477.284" cy="213.306" r="2"/>
<circle clip-path="url(#clip842)" style="fill:#009af9; stroke:none; fill-opacity:0" cx="550.832" cy="545.43" r="2"/>
<circle clip-path="url(#clip842)" style="fill:#009af9; stroke:none; fill-opacity:0" cx="624.38" cy="729.943" r="2"/>
<circle clip-path="url(#clip842)" style="fill:#009af9; stroke:none; fill-opacity:0" cx="697.928" cy="785.297" r="2"/>
<circle clip-path="url(#clip842)" style="fill:#009af9; stroke:none; fill-opacity:0" cx="771.476" cy="877.554" r="2"/>
<circle clip-path="url(#clip842)" style="fill:#009af9; stroke:none; fill-opacity:0" cx="845.024" cy="896.005" r="2"/>
<circle clip-path="url(#clip842)" style="fill:#009af9; stroke:none; fill-opacity:0" cx="918.571" cy="951.359" r="2"/>
<circle clip-path="url(#clip842)" style="fill:#009af9; stroke:none; fill-opacity:0" cx="992.119" cy="1025.16" r="2"/>
<circle clip-path="url(#clip842)" style="fill:#009af9; stroke:none; fill-opacity:0" cx="1065.67" cy="988.262" r="2"/>
<circle clip-path="url(#clip842)" style="fill:#009af9; stroke:none; fill-opacity:0" cx="1139.22" cy="1006.71" r="2"/>
<circle clip-path="url(#clip842)" style="fill:#009af9; stroke:none; fill-opacity:0" cx="1212.76" cy="988.262" r="2"/>
<circle clip-path="url(#clip842)" style="fill:#009af9; stroke:none; fill-opacity:0" cx="1286.31" cy="1062.07" r="2"/>
<circle clip-path="url(#clip842)" style="fill:#009af9; stroke:none; fill-opacity:0" cx="1359.86" cy="1062.07" r="2"/>
<circle clip-path="url(#clip842)" style="fill:#009af9; stroke:none; fill-opacity:0" cx="1433.41" cy="1117.42" r="2"/>
<circle clip-path="url(#clip842)" style="fill:#009af9; stroke:none; fill-opacity:0" cx="1506.95" cy="1228.13" r="2"/>
<circle clip-path="url(#clip842)" style="fill:#009af9; stroke:none; fill-opacity:0" cx="1580.5" cy="1062.07" r="2"/>
<circle clip-path="url(#clip842)" style="fill:#009af9; stroke:none; fill-opacity:0" cx="1654.05" cy="1265.03" r="2"/>
<circle clip-path="url(#clip842)" style="fill:#009af9; stroke:none; fill-opacity:0" cx="1727.6" cy="1154.32" r="2"/>
<circle clip-path="url(#clip842)" style="fill:#009af9; stroke:none; fill-opacity:0" cx="1801.15" cy="1191.23" r="2"/>
<circle clip-path="url(#clip842)" style="fill:#009af9; stroke:none; fill-opacity:0" cx="1874.69" cy="1320.39" r="2"/>
<circle clip-path="url(#clip842)" style="fill:#009af9; stroke:none; fill-opacity:0" cx="1948.24" cy="1301.93" r="2"/>
<circle clip-path="url(#clip842)" style="fill:#009af9; stroke:none; fill-opacity:0" cx="2021.79" cy="1265.03" r="2"/>
<circle clip-path="url(#clip842)" style="fill:#009af9; stroke:none; fill-opacity:0" cx="2095.34" cy="1246.58" r="2"/>
<circle clip-path="url(#clip842)" style="fill:#009af9; stroke:none; fill-opacity:0" cx="2168.89" cy="1357.29" r="2"/>
<circle clip-path="url(#clip842)" style="fill:#009af9; stroke:none; fill-opacity:0" cx="2242.43" cy="1283.48" r="2"/>
<circle clip-path="url(#clip842)" style="fill:#009af9; stroke:none; fill-opacity:0" cx="2315.98" cy="1338.84" r="2"/>
<polyline clip-path="url(#clip842)" style="stroke:#e26f46; stroke-linecap:round; stroke-linejoin:round; stroke-width:4; stroke-opacity:1; fill:none" points="219.866,1486.45 223.338,1455.26 226.809,1424.13 230.281,1393.09 233.753,1362.21 241.777,1291.63 249.802,1222.67 253.815,1188.96 257.827,1155.85 261.84,1123.39 265.852,1091.64 269.865,1060.64 273.877,1030.44 277.89,1001.08 281.902,972.602 285.915,945.026 289.927,918.381 293.939,892.691 297.952,867.971 301.964,844.234 305.977,821.49 309.989,799.742 314.002,778.993 318.014,759.239 322.027,740.474 326.039,722.691 330.052,705.878 334.064,690.02 338.076,675.102 342.089,661.105 346.101,648.009 350.114,635.794 354.126,624.435 358.139,613.909 362.151,604.192 366.974,593.547 371.796,583.988 376.619,575.469 381.442,567.945 386.264,561.368 391.087,555.693 395.91,550.875 400.732,546.87 405.555,543.632 410.378,541.121 415.2,539.294 420.023,538.111 429.668,537.524 439.313,539.067 447.468,541.832 455.623,545.777 463.778,550.762 471.933,556.662 480.088,563.362 488.243,570.755 496.398,578.748 504.553,587.254 522.27,607.14 539.987,628.418 557.705,650.561 575.422,673.155 608.089,714.994 640.756,755.986 675.779,798.112 710.802,837.878 731.091,859.749 751.379,880.749 771.668,900.885 791.957,920.172 809.987,936.618 828.017,952.429 846.047,967.627 864.077,982.234 895.699,1006.49 927.321,1029.13 961.797,1052.09 996.273,1073.41 1030.95,1093.35 1065.63,1111.89 1103.98,1130.93 1142.32,1148.55 1178.81,1164.14 1215.29,1178.67 1253.23,1192.76 1291.16,1205.91 1323.09,1216.3 1355.03,1226.12 1433,1247.97 1504.43,1265.66 1570.39,1280.31 1637.22,1293.71 1712.11,1307.25 1779.98,1318.32 1857.67,1329.8 1929.62,1339.42 2000.55,1348.08 2069.41,1355.78 2140,1363.04 2217.35,1370.34 2329.71,1379.86 2352.76,1381.67 "/>
<path clip-path="url(#clip840)" d="M2015.94 250.738 L2281.66 250.738 L2281.66 95.2176 L2015.94 95.2176  Z" fill="#ffffff" fill-rule="evenodd" fill-opacity="1"/>
<polyline clip-path="url(#clip840)" style="stroke:#000000; stroke-linecap:round; stroke-linejoin:round; stroke-width:4; stroke-opacity:1; fill:none" points="2015.94,250.738 2281.66,250.738 2281.66,95.2176 2015.94,95.2176 2015.94,250.738 "/>
<path clip-path="url(#clip840)" d="M2039.64 167.794 L2181.83 167.794 L2181.83 126.322 L2039.64 126.322 L2039.64 167.794  Z" fill="#009af9" fill-rule="evenodd" fill-opacity="1"/>
<polyline clip-path="url(#clip840)" style="stroke:#000000; stroke-linecap:round; stroke-linejoin:round; stroke-width:4; stroke-opacity:1; fill:none" points="2039.64,167.794 2181.83,167.794 2181.83,126.322 2039.64,126.322 2039.64,167.794 "/>
<path clip-path="url(#clip840)" d="M2219.37 166.745 Q2217.57 171.375 2215.85 172.787 Q2214.14 174.199 2211.27 174.199 L2207.87 174.199 L2207.87 170.634 L2210.37 170.634 Q2212.13 170.634 2213.1 169.8 Q2214.07 168.967 2215.25 165.865 L2216.02 163.921 L2205.53 138.412 L2210.04 138.412 L2218.15 158.689 L2226.25 138.412 L2230.76 138.412 L2219.37 166.745 Z" fill="#000000" fill-rule="nonzero" fill-opacity="1" /><path clip-path="url(#clip840)" d="M2238.05 160.402 L2245.69 160.402 L2245.69 134.037 L2237.38 135.703 L2237.38 131.444 L2245.65 129.778 L2250.32 129.778 L2250.32 160.402 L2257.96 160.402 L2257.96 164.338 L2238.05 164.338 L2238.05 160.402 Z" fill="#000000" fill-rule="nonzero" fill-opacity="1" /><polyline clip-path="url(#clip840)" style="stroke:#e26f46; stroke-linecap:round; stroke-linejoin:round; stroke-width:4; stroke-opacity:1; fill:none" points="2039.64,198.898 2181.83,198.898 "/>
<path clip-path="url(#clip840)" d="M2219.37 218.585 Q2217.57 223.215 2215.85 224.627 Q2214.14 226.039 2211.27 226.039 L2207.87 226.039 L2207.87 222.474 L2210.37 222.474 Q2212.13 222.474 2213.1 221.64 Q2214.07 220.807 2215.25 217.705 L2216.02 215.761 L2205.53 190.252 L2210.04 190.252 L2218.15 210.529 L2226.25 190.252 L2230.76 190.252 L2219.37 218.585 Z" fill="#000000" fill-rule="nonzero" fill-opacity="1" /><path clip-path="url(#clip840)" d="M2241.27 212.242 L2257.59 212.242 L2257.59 216.178 L2235.65 216.178 L2235.65 212.242 Q2238.31 209.488 2242.89 204.858 Q2247.5 200.205 2248.68 198.863 Q2250.92 196.34 2251.8 194.604 Q2252.71 192.844 2252.71 191.155 Q2252.71 188.4 2250.76 186.664 Q2248.84 184.928 2245.74 184.928 Q2243.54 184.928 2241.09 185.692 Q2238.66 186.455 2235.88 188.006 L2235.88 183.284 Q2238.7 182.15 2241.16 181.571 Q2243.61 180.993 2245.65 180.993 Q2251.02 180.993 2254.21 183.678 Q2257.41 186.363 2257.41 190.854 Q2257.41 192.983 2256.6 194.905 Q2255.81 196.803 2253.7 199.395 Q2253.12 200.067 2250.02 203.284 Q2246.92 206.479 2241.27 212.242 Z" fill="#000000" fill-rule="nonzero" fill-opacity="1" /></svg>
