<?xml version="1.0" encoding="utf-8"?>
<svg xmlns="http://www.w3.org/2000/svg" xmlns:xlink="http://www.w3.org/1999/xlink" width="600" height="400" viewBox="0 0 2400 1600">
<defs>
  <clipPath id="clip960">
    <rect x="0" y="0" width="2400" height="1600"/>
  </clipPath>
</defs>
<path clip-path="url(#clip960)" d="M0 1600 L2400 1600 L2400 0 L0 0  Z" fill="#ffffff" fill-rule="evenodd" fill-opacity="1"/>
<defs>
  <clipPath id="clip961">
    <rect x="480" y="0" width="1681" height="1600"/>
  </clipPath>
</defs>
<path clip-path="url(#clip960)" d="M219.866 1486.45 L1175.61 1486.45 L1175.61 127.244 L219.866 127.244  Z" fill="#ffffff" fill-rule="evenodd" fill-opacity="1"/>
<defs>
  <clipPath id="clip962">
    <rect x="219" y="127" width="957" height="1360"/>
  </clipPath>
</defs>
<polyline clip-path="url(#clip962)" style="stroke:#000000; stroke-linecap:round; stroke-linejoin:round; stroke-width:2; stroke-opacity:0.1; fill:none" points="219.866,1486.45 219.866,127.244 "/>
<polyline clip-path="url(#clip962)" style="stroke:#000000; stroke-linecap:round; stroke-linejoin:round; stroke-width:2; stroke-opacity:0.1; fill:none" points="411.016,1486.45 411.016,127.244 "/>
<polyline clip-path="url(#clip962)" style="stroke:#000000; stroke-linecap:round; stroke-linejoin:round; stroke-width:2; stroke-opacity:0.1; fill:none" points="602.166,1486.45 602.166,127.244 "/>
<polyline clip-path="url(#clip962)" style="stroke:#000000; stroke-linecap:round; stroke-linejoin:round; stroke-width:2; stroke-opacity:0.1; fill:none" points="793.315,1486.45 793.315,127.244 "/>
<polyline clip-path="url(#clip962)" style="stroke:#000000; stroke-linecap:round; stroke-linejoin:round; stroke-width:2; stroke-opacity:0.1; fill:none" points="984.465,1486.45 984.465,127.244 "/>
<polyline clip-path="url(#clip962)" style="stroke:#000000; stroke-linecap:round; stroke-linejoin:round; stroke-width:2; stroke-opacity:0.1; fill:none" points="1175.61,1486.45 1175.61,127.244 "/>
<polyline clip-path="url(#clip960)" style="stroke:#000000; stroke-linecap:round; stroke-linejoin:round; stroke-width:4; stroke-opacity:1; fill:none" points="219.866,1486.45 1175.61,1486.45 "/>
<polyline clip-path="url(#clip960)" style="stroke:#000000; stroke-linecap:round; stroke-linejoin:round; stroke-width:4; stroke-opacity:1; fill:none" points="219.866,1486.45 219.866,1467.55 "/>
<polyline clip-path="url(#clip960)" style="stroke:#000000; stroke-linecap:round; stroke-linejoin:round; stroke-width:4; stroke-opacity:1; fill:none" points="411.016,1486.45 411.016,1467.55 "/>
<polyline clip-path="url(#clip960)" style="stroke:#000000; stroke-linecap:round; stroke-linejoin:round; stroke-width:4; stroke-opacity:1; fill:none" points="602.166,1486.45 602.166,1467.55 "/>
<polyline clip-path="url(#clip960)" style="stroke:#000000; stroke-linecap:round; stroke-linejoin:round; stroke-width:4; stroke-opacity:1; fill:none" points="793.315,1486.45 793.315,1467.55 "/>
<polyline clip-path="url(#clip960)" style="stroke:#000000; stroke-linecap:round; stroke-linejoin:round; stroke-width:4; stroke-opacity:1; fill:none" points="984.465,1486.45 984.465,1467.55 "/>
<polyline clip-path="url(#clip960)" style="stroke:#000000; stroke-linecap:round; stroke-linejoin:round; stroke-width:4; stroke-opacity:1; fill:none" points="1175.61,1486.45 1175.61,1467.55 "/>
<path clip-path="url(#clip960)" d="M219.866 1517.37 Q216.255 1517.37 214.426 1520.93 Q212.621 1524.47 212.621 1531.6 Q212.621 1538.71 214.426 1542.27 Q216.255 1545.82 219.866 1545.82 Q223.501 1545.82 225.306 1542.27 Q227.135 1538.71 227.135 1531.6 Q227.135 1524.47 225.306 1520.93 Q223.501 1517.37 219.866 1517.37 M219.866 1513.66 Q225.676 1513.66 228.732 1518.27 Q231.811 1522.85 231.811 1531.6 Q231.811 1540.33 228.732 1544.94 Q225.676 1549.52 219.866 1549.52 Q214.056 1549.52 210.977 1544.94 Q207.922 1540.33 207.922 1531.6 Q207.922 1522.85 210.977 1518.27 Q214.056 1513.66 219.866 1513.66 Z" fill="#000000" fill-rule="nonzero" fill-opacity="1" /><path clip-path="url(#clip960)" d="M405.669 1544.91 L421.988 1544.91 L421.988 1548.85 L400.044 1548.85 L400.044 1544.91 Q402.706 1542.16 407.289 1537.53 Q411.896 1532.88 413.076 1531.53 Q415.321 1529.01 416.201 1527.27 Q417.104 1525.51 417.104 1523.82 Q417.104 1521.07 415.159 1519.33 Q413.238 1517.6 410.136 1517.6 Q407.937 1517.6 405.484 1518.36 Q403.053 1519.13 400.275 1520.68 L400.275 1515.95 Q403.099 1514.82 405.553 1514.24 Q408.007 1513.66 410.044 1513.66 Q415.414 1513.66 418.608 1516.35 Q421.803 1519.03 421.803 1523.52 Q421.803 1525.65 420.993 1527.57 Q420.206 1529.47 418.099 1532.07 Q417.521 1532.74 414.419 1535.95 Q411.317 1539.15 405.669 1544.91 Z" fill="#000000" fill-rule="nonzero" fill-opacity="1" /><path clip-path="url(#clip960)" d="M605.175 1518.36 L593.369 1536.81 L605.175 1536.81 L605.175 1518.36 M603.948 1514.29 L609.828 1514.29 L609.828 1536.81 L614.758 1536.81 L614.758 1540.7 L609.828 1540.7 L609.828 1548.85 L605.175 1548.85 L605.175 1540.7 L589.573 1540.7 L589.573 1536.19 L603.948 1514.29 Z" fill="#000000" fill-rule="nonzero" fill-opacity="1" /><path clip-path="url(#clip960)" d="M793.72 1529.7 Q790.572 1529.7 788.72 1531.86 Q786.892 1534.01 786.892 1537.76 Q786.892 1541.49 788.72 1543.66 Q790.572 1545.82 793.72 1545.82 Q796.868 1545.82 798.697 1543.66 Q800.549 1541.49 800.549 1537.76 Q800.549 1534.01 798.697 1531.86 Q796.868 1529.7 793.72 1529.7 M803.003 1515.05 L803.003 1519.31 Q801.243 1518.48 799.438 1518.04 Q797.656 1517.6 795.896 1517.6 Q791.267 1517.6 788.813 1520.72 Q786.382 1523.85 786.035 1530.17 Q787.401 1528.15 789.461 1527.09 Q791.521 1526 793.998 1526 Q799.206 1526 802.216 1529.17 Q805.248 1532.32 805.248 1537.76 Q805.248 1543.08 802.1 1546.3 Q798.952 1549.52 793.72 1549.52 Q787.725 1549.52 784.554 1544.94 Q781.382 1540.33 781.382 1531.6 Q781.382 1523.41 785.271 1518.55 Q789.16 1513.66 795.711 1513.66 Q797.47 1513.66 799.253 1514.01 Q801.058 1514.36 803.003 1515.05 Z" fill="#000000" fill-rule="nonzero" fill-opacity="1" /><path clip-path="url(#clip960)" d="M984.465 1532.44 Q981.132 1532.44 979.21 1534.22 Q977.312 1536 977.312 1539.13 Q977.312 1542.25 979.21 1544.03 Q981.132 1545.82 984.465 1545.82 Q987.798 1545.82 989.72 1544.03 Q991.641 1542.23 991.641 1539.13 Q991.641 1536 989.72 1534.22 Q987.821 1532.44 984.465 1532.44 M979.789 1530.45 Q976.78 1529.7 975.09 1527.64 Q973.423 1525.58 973.423 1522.62 Q973.423 1518.48 976.363 1516.07 Q979.326 1513.66 984.465 1513.66 Q989.627 1513.66 992.567 1516.07 Q995.507 1518.48 995.507 1522.62 Q995.507 1525.58 993.817 1527.64 Q992.15 1529.7 989.164 1530.45 Q992.544 1531.23 994.419 1533.52 Q996.317 1535.82 996.317 1539.13 Q996.317 1544.15 993.238 1546.83 Q990.182 1549.52 984.465 1549.52 Q978.747 1549.52 975.669 1546.83 Q972.613 1544.15 972.613 1539.13 Q972.613 1535.82 974.511 1533.52 Q976.409 1531.23 979.789 1530.45 M978.076 1523.06 Q978.076 1525.75 979.743 1527.25 Q981.433 1528.76 984.465 1528.76 Q987.474 1528.76 989.164 1527.25 Q990.877 1525.75 990.877 1523.06 Q990.877 1520.38 989.164 1518.87 Q987.474 1517.37 984.465 1517.37 Q981.433 1517.37 979.743 1518.87 Q978.076 1520.38 978.076 1523.06 Z" fill="#000000" fill-rule="nonzero" fill-opacity="1" /><path clip-path="url(#clip960)" d="M1150.3 1544.91 L1157.94 1544.91 L1157.94 1518.55 L1149.63 1520.21 L1149.63 1515.95 L1157.89 1514.29 L1162.57 1514.29 L1162.57 1544.91 L1170.21 1544.91 L1170.21 1548.85 L1150.3 1548.85 L1150.3 1544.91 Z" fill="#000000" fill-rule="nonzero" fill-opacity="1" /><path clip-path="url(#clip960)" d="M1189.65 1517.37 Q1186.04 1517.37 1184.21 1520.93 Q1182.41 1524.47 1182.41 1531.6 Q1182.41 1538.71 1184.21 1542.27 Q1186.04 1545.82 1189.65 1545.82 Q1193.29 1545.82 1195.09 1542.27 Q1196.92 1538.71 1196.92 1531.6 Q1196.92 1524.47 1195.09 1520.93 Q1193.29 1517.37 1189.65 1517.37 M1189.65 1513.66 Q1195.46 1513.66 1198.52 1518.27 Q1201.6 1522.85 1201.6 1531.6 Q1201.6 1540.33 1198.52 1544.94 Q1195.46 1549.52 1189.65 1549.52 Q1183.84 1549.52 1180.77 1544.94 Q1177.71 1540.33 1177.71 1531.6 Q1177.71 1522.85 1180.77 1518.27 Q1183.84 1513.66 1189.65 1513.66 Z" fill="#000000" fill-rule="nonzero" fill-opacity="1" /><polyline clip-path="url(#clip962)" style="stroke:#000000; stroke-linecap:round; stroke-linejoin:round; stroke-width:2; stroke-opacity:0.1; fill:none" points="219.866,1447.98 1175.61,1447.98 "/>
<polyline clip-path="url(#clip962)" style="stroke:#000000; stroke-linecap:round; stroke-linejoin:round; stroke-width:2; stroke-opacity:0.1; fill:none" points="219.866,1196.16 1175.61,1196.16 "/>
<polyline clip-path="url(#clip962)" style="stroke:#000000; stroke-linecap:round; stroke-linejoin:round; stroke-width:2; stroke-opacity:0.1; fill:none" points="219.866,944.333 1175.61,944.333 "/>
<polyline clip-path="url(#clip962)" style="stroke:#000000; stroke-linecap:round; stroke-linejoin:round; stroke-width:2; stroke-opacity:0.1; fill:none" points="219.866,692.51 1175.61,692.51 "/>
<polyline clip-path="url(#clip962)" style="stroke:#000000; stroke-linecap:round; stroke-linejoin:round; stroke-width:2; stroke-opacity:0.1; fill:none" points="219.866,440.687 1175.61,440.687 "/>
<polyline clip-path="url(#clip962)" style="stroke:#000000; stroke-linecap:round; stroke-linejoin:round; stroke-width:2; stroke-opacity:0.1; fill:none" points="219.866,188.863 1175.61,188.863 "/>
<polyline clip-path="url(#clip960)" style="stroke:#000000; stroke-linecap:round; stroke-linejoin:round; stroke-width:4; stroke-opacity:1; fill:none" points="219.866,1486.45 219.866,127.244 "/>
<polyline clip-path="url(#clip960)" style="stroke:#000000; stroke-linecap:round; stroke-linejoin:round; stroke-width:4; stroke-opacity:1; fill:none" points="219.866,1447.98 238.764,1447.98 "/>
<polyline clip-path="url(#clip960)" style="stroke:#000000; stroke-linecap:round; stroke-linejoin:round; stroke-width:4; stroke-opacity:1; fill:none" points="219.866,1196.16 238.764,1196.16 "/>
<polyline clip-path="url(#clip960)" style="stroke:#000000; stroke-linecap:round; stroke-linejoin:round; stroke-width:4; stroke-opacity:1; fill:none" points="219.866,944.333 238.764,944.333 "/>
<polyline clip-path="url(#clip960)" style="stroke:#000000; stroke-linecap:round; stroke-linejoin:round; stroke-width:4; stroke-opacity:1; fill:none" points="219.866,692.51 238.764,692.51 "/>
<polyline clip-path="url(#clip960)" style="stroke:#000000; stroke-linecap:round; stroke-linejoin:round; stroke-width:4; stroke-opacity:1; fill:none" points="219.866,440.687 238.764,440.687 "/>
<polyline clip-path="url(#clip960)" style="stroke:#000000; stroke-linecap:round; stroke-linejoin:round; stroke-width:4; stroke-opacity:1; fill:none" points="219.866,188.863 238.764,188.863 "/>
<path clip-path="url(#clip960)" d="M126.691 1433.78 Q123.08 1433.78 121.251 1437.34 Q119.445 1440.88 119.445 1448.01 Q119.445 1455.12 121.251 1458.69 Q123.08 1462.23 126.691 1462.23 Q130.325 1462.23 132.13 1458.69 Q133.959 1455.12 133.959 1448.01 Q133.959 1440.88 132.13 1437.34 Q130.325 1433.78 126.691 1433.78 M126.691 1430.07 Q132.501 1430.07 135.556 1434.68 Q138.635 1439.26 138.635 1448.01 Q138.635 1456.74 135.556 1461.35 Q132.501 1465.93 126.691 1465.93 Q120.88 1465.93 117.802 1461.35 Q114.746 1456.74 114.746 1448.01 Q114.746 1439.26 117.802 1434.68 Q120.88 1430.07 126.691 1430.07 Z" fill="#000000" fill-rule="nonzero" fill-opacity="1" /><path clip-path="url(#clip960)" d="M146.853 1459.38 L151.737 1459.38 L151.737 1465.26 L146.853 1465.26 L146.853 1459.38 Z" fill="#000000" fill-rule="nonzero" fill-opacity="1" /><path clip-path="url(#clip960)" d="M171.922 1433.78 Q168.311 1433.78 166.482 1437.34 Q164.677 1440.88 164.677 1448.01 Q164.677 1455.12 166.482 1458.69 Q168.311 1462.23 171.922 1462.23 Q175.556 1462.23 177.362 1458.69 Q179.19 1455.12 179.19 1448.01 Q179.19 1440.88 177.362 1437.34 Q175.556 1433.78 171.922 1433.78 M171.922 1430.07 Q177.732 1430.07 180.788 1434.68 Q183.866 1439.26 183.866 1448.01 Q183.866 1456.74 180.788 1461.35 Q177.732 1465.93 171.922 1465.93 Q166.112 1465.93 163.033 1461.35 Q159.978 1456.74 159.978 1448.01 Q159.978 1439.26 163.033 1434.68 Q166.112 1430.07 171.922 1430.07 Z" fill="#000000" fill-rule="nonzero" fill-opacity="1" /><path clip-path="url(#clip960)" d="M127.917 1181.96 Q124.306 1181.96 122.478 1185.52 Q120.672 1189.06 120.672 1196.19 Q120.672 1203.3 122.478 1206.86 Q124.306 1210.4 127.917 1210.4 Q131.552 1210.4 133.357 1206.86 Q135.186 1203.3 135.186 1196.19 Q135.186 1189.06 133.357 1185.52 Q131.552 1181.96 127.917 1181.96 M127.917 1178.25 Q133.728 1178.25 136.783 1182.86 Q139.862 1187.44 139.862 1196.19 Q139.862 1204.92 136.783 1209.52 Q133.728 1214.11 127.917 1214.11 Q122.107 1214.11 119.029 1209.52 Q115.973 1204.92 115.973 1196.19 Q115.973 1187.44 119.029 1182.86 Q122.107 1178.25 127.917 1178.25 Z" fill="#000000" fill-rule="nonzero" fill-opacity="1" /><path clip-path="url(#clip960)" d="M148.079 1207.56 L152.964 1207.56 L152.964 1213.44 L148.079 1213.44 L148.079 1207.56 Z" fill="#000000" fill-rule="nonzero" fill-opacity="1" /><path clip-path="url(#clip960)" d="M163.959 1209.5 L171.598 1209.5 L171.598 1183.14 L163.288 1184.8 L163.288 1180.54 L171.552 1178.88 L176.227 1178.88 L176.227 1209.5 L183.866 1209.5 L183.866 1213.44 L163.959 1213.44 L163.959 1209.5 Z" fill="#000000" fill-rule="nonzero" fill-opacity="1" /><path clip-path="url(#clip960)" d="M128.288 930.132 Q124.677 930.132 122.848 933.697 Q121.043 937.238 121.043 944.368 Q121.043 951.474 122.848 955.039 Q124.677 958.581 128.288 958.581 Q131.922 958.581 133.728 955.039 Q135.556 951.474 135.556 944.368 Q135.556 937.238 133.728 933.697 Q131.922 930.132 128.288 930.132 M128.288 926.428 Q134.098 926.428 137.154 931.035 Q140.232 935.618 140.232 944.368 Q140.232 953.095 137.154 957.701 Q134.098 962.285 128.288 962.285 Q122.478 962.285 119.399 957.701 Q116.343 953.095 116.343 944.368 Q116.343 935.618 119.399 931.035 Q122.478 926.428 128.288 926.428 Z" fill="#000000" fill-rule="nonzero" fill-opacity="1" /><path clip-path="url(#clip960)" d="M148.45 955.734 L153.334 955.734 L153.334 961.613 L148.45 961.613 L148.45 955.734 Z" fill="#000000" fill-rule="nonzero" fill-opacity="1" /><path clip-path="url(#clip960)" d="M167.547 957.678 L183.866 957.678 L183.866 961.613 L161.922 961.613 L161.922 957.678 Q164.584 954.923 169.167 950.294 Q173.774 945.641 174.954 944.299 Q177.2 941.775 178.079 940.039 Q178.982 938.28 178.982 936.59 Q178.982 933.836 177.038 932.1 Q175.116 930.363 172.014 930.363 Q169.815 930.363 167.362 931.127 Q164.931 931.891 162.153 933.442 L162.153 928.72 Q164.977 927.586 167.431 927.007 Q169.885 926.428 171.922 926.428 Q177.292 926.428 180.487 929.113 Q183.681 931.799 183.681 936.289 Q183.681 938.419 182.871 940.34 Q182.084 942.238 179.977 944.831 Q179.399 945.502 176.297 948.72 Q173.195 951.914 167.547 957.678 Z" fill="#000000" fill-rule="nonzero" fill-opacity="1" /><path clip-path="url(#clip960)" d="M127.339 678.309 Q123.728 678.309 121.899 681.873 Q120.093 685.415 120.093 692.545 Q120.093 699.651 121.899 703.216 Q123.728 706.758 127.339 706.758 Q130.973 706.758 132.779 703.216 Q134.607 699.651 134.607 692.545 Q134.607 685.415 132.779 681.873 Q130.973 678.309 127.339 678.309 M127.339 674.605 Q133.149 674.605 136.204 679.211 Q139.283 683.795 139.283 692.545 Q139.283 701.271 136.204 705.878 Q133.149 710.461 127.339 710.461 Q121.529 710.461 118.45 705.878 Q115.394 701.271 115.394 692.545 Q115.394 683.795 118.45 679.211 Q121.529 674.605 127.339 674.605 Z" fill="#000000" fill-rule="nonzero" fill-opacity="1" /><path clip-path="url(#clip960)" d="M147.501 703.91 L152.385 703.91 L152.385 709.79 L147.501 709.79 L147.501 703.91 Z" fill="#000000" fill-rule="nonzero" fill-opacity="1" /><path clip-path="url(#clip960)" d="M176.737 691.156 Q180.093 691.873 181.968 694.142 Q183.866 696.41 183.866 699.744 Q183.866 704.859 180.348 707.66 Q176.829 710.461 170.348 710.461 Q168.172 710.461 165.857 710.021 Q163.565 709.605 161.112 708.748 L161.112 704.234 Q163.056 705.369 165.371 705.947 Q167.686 706.526 170.209 706.526 Q174.607 706.526 176.899 704.79 Q179.214 703.054 179.214 699.744 Q179.214 696.688 177.061 694.975 Q174.931 693.239 171.112 693.239 L167.084 693.239 L167.084 689.397 L171.297 689.397 Q174.746 689.397 176.575 688.031 Q178.403 686.642 178.403 684.049 Q178.403 681.387 176.505 679.975 Q174.63 678.54 171.112 678.54 Q169.19 678.54 166.991 678.957 Q164.792 679.373 162.153 680.253 L162.153 676.086 Q164.815 675.346 167.13 674.975 Q169.468 674.605 171.528 674.605 Q176.852 674.605 179.954 677.036 Q183.056 679.443 183.056 683.563 Q183.056 686.434 181.413 688.424 Q179.769 690.392 176.737 691.156 Z" fill="#000000" fill-rule="nonzero" fill-opacity="1" /><path clip-path="url(#clip960)" d="M126.205 426.485 Q122.593 426.485 120.765 430.05 Q118.959 433.592 118.959 440.721 Q118.959 447.828 120.765 451.393 Q122.593 454.934 126.205 454.934 Q129.839 454.934 131.644 451.393 Q133.473 447.828 133.473 440.721 Q133.473 433.592 131.644 430.05 Q129.839 426.485 126.205 426.485 M126.205 422.782 Q132.015 422.782 135.07 427.388 Q138.149 431.971 138.149 440.721 Q138.149 449.448 135.07 454.055 Q132.015 458.638 126.205 458.638 Q120.394 458.638 117.316 454.055 Q114.26 449.448 114.26 440.721 Q114.26 431.971 117.316 427.388 Q120.394 422.782 126.205 422.782 Z" fill="#000000" fill-rule="nonzero" fill-opacity="1" /><path clip-path="url(#clip960)" d="M146.366 452.087 L151.251 452.087 L151.251 457.967 L146.366 457.967 L146.366 452.087 Z" fill="#000000" fill-rule="nonzero" fill-opacity="1" /><path clip-path="url(#clip960)" d="M174.283 427.481 L162.477 445.93 L174.283 445.93 L174.283 427.481 M173.056 423.407 L178.936 423.407 L178.936 445.93 L183.866 445.93 L183.866 449.819 L178.936 449.819 L178.936 457.967 L174.283 457.967 L174.283 449.819 L158.681 449.819 L158.681 445.305 L173.056 423.407 Z" fill="#000000" fill-rule="nonzero" fill-opacity="1" /><path clip-path="url(#clip960)" d="M127.686 174.662 Q124.075 174.662 122.246 178.227 Q120.441 181.768 120.441 188.898 Q120.441 196.005 122.246 199.569 Q124.075 203.111 127.686 203.111 Q131.32 203.111 133.126 199.569 Q134.954 196.005 134.954 188.898 Q134.954 181.768 133.126 178.227 Q131.32 174.662 127.686 174.662 M127.686 170.958 Q133.496 170.958 136.552 175.565 Q139.63 180.148 139.63 188.898 Q139.63 197.625 136.552 202.231 Q133.496 206.815 127.686 206.815 Q121.876 206.815 118.797 202.231 Q115.742 197.625 115.742 188.898 Q115.742 180.148 118.797 175.565 Q121.876 170.958 127.686 170.958 Z" fill="#000000" fill-rule="nonzero" fill-opacity="1" /><path clip-path="url(#clip960)" d="M147.848 200.264 L152.732 200.264 L152.732 206.143 L147.848 206.143 L147.848 200.264 Z" fill="#000000" fill-rule="nonzero" fill-opacity="1" /><path clip-path="url(#clip960)" d="M162.964 171.583 L181.32 171.583 L181.32 175.519 L167.246 175.519 L167.246 183.991 Q168.264 183.643 169.283 183.481 Q170.302 183.296 171.32 183.296 Q177.107 183.296 180.487 186.468 Q183.866 189.639 183.866 195.055 Q183.866 200.634 180.394 203.736 Q176.922 206.815 170.602 206.815 Q168.427 206.815 166.158 206.444 Q163.913 206.074 161.505 205.333 L161.505 200.634 Q163.589 201.768 165.811 202.324 Q168.033 202.879 170.51 202.879 Q174.514 202.879 176.852 200.773 Q179.19 198.667 179.19 195.055 Q179.19 191.444 176.852 189.338 Q174.514 187.231 170.51 187.231 Q168.635 187.231 166.76 187.648 Q164.908 188.065 162.964 188.944 L162.964 171.583 Z" fill="#000000" fill-rule="nonzero" fill-opacity="1" /><path clip-path="url(#clip960)" d="M16.4842 915.763 L16.4842 909.334 L35.9632 909.334 L35.9632 885.972 L16.4842 885.972 L16.4842 879.542 L64.0042 879.542 L64.0042 885.972 L41.3741 885.972 L41.3741 909.334 L64.0042 909.334 L64.0042 915.763 L16.4842 915.763 Z" fill="#000000" fill-rule="nonzero" fill-opacity="1" /><path clip-path="url(#clip960)" d="M46.0847 850.801 Q46.0847 857.899 47.7079 860.636 Q49.3312 863.373 53.2461 863.373 Q56.3653 863.373 58.2114 861.336 Q60.0256 859.268 60.0256 855.735 Q60.0256 850.865 56.5881 847.937 Q53.1188 844.977 47.3897 844.977 L46.0847 844.977 L46.0847 850.801 M43.6657 839.12 L64.0042 839.12 L64.0042 844.977 L58.5933 844.977 Q61.8398 846.982 63.3994 849.974 Q64.9272 852.966 64.9272 857.294 Q64.9272 862.769 61.8716 866.015 Q58.7843 869.23 53.6281 869.23 Q47.6125 869.23 44.5569 865.22 Q41.5014 861.177 41.5014 853.188 L41.5014 844.977 L40.9285 844.977 Q36.8862 844.977 34.6901 847.65 Q32.4621 850.292 32.4621 855.098 Q32.4621 858.154 33.1941 861.05 Q33.9262 863.946 35.3903 866.62 L29.9795 866.62 Q28.7381 863.405 28.1334 860.382 Q27.4968 857.358 27.4968 854.493 Q27.4968 846.759 31.5072 842.94 Q35.5176 839.12 43.6657 839.12 Z" fill="#000000" fill-rule="nonzero" fill-opacity="1" /><path clip-path="url(#clip960)" d="M28.3562 829.603 L28.3562 801.785 L33.7034 801.785 L59.3254 823.811 L59.3254 801.785 L64.0042 801.785 L64.0042 830.399 L58.657 830.399 L33.035 808.374 L33.035 829.603 L28.3562 829.603 Z" fill="#000000" fill-rule="nonzero" fill-opacity="1" /><path clip-path="url(#clip960)" d="M46.0847 776.641 Q46.0847 783.738 47.7079 786.476 Q49.3312 789.213 53.2461 789.213 Q56.3653 789.213 58.2114 787.176 Q60.0256 785.107 60.0256 781.574 Q60.0256 776.704 56.5881 773.776 Q53.1188 770.816 47.3897 770.816 L46.0847 770.816 L46.0847 776.641 M43.6657 764.96 L64.0042 764.96 L64.0042 770.816 L58.5933 770.816 Q61.8398 772.821 63.3994 775.813 Q64.9272 778.805 64.9272 783.134 Q64.9272 788.608 61.8716 791.855 Q58.7843 795.069 53.6281 795.069 Q47.6125 795.069 44.5569 791.059 Q41.5014 787.017 41.5014 779.028 L41.5014 770.816 L40.9285 770.816 Q36.8862 770.816 34.6901 773.49 Q32.4621 776.131 32.4621 780.938 Q32.4621 783.993 33.1941 786.889 Q33.9262 789.786 35.3903 792.459 L29.9795 792.459 Q28.7381 789.245 28.1334 786.221 Q27.4968 783.197 27.4968 780.333 Q27.4968 772.598 31.5072 768.779 Q35.5176 764.96 43.6657 764.96 Z" fill="#000000" fill-rule="nonzero" fill-opacity="1" /><path clip-path="url(#clip960)" d="M33.8307 732.24 Q33.2578 733.227 33.0032 734.404 Q32.7167 735.55 32.7167 736.951 Q32.7167 741.916 35.9632 744.589 Q39.1779 747.231 45.2253 747.231 L64.0042 747.231 L64.0042 753.119 L28.3562 753.119 L28.3562 747.231 L33.8944 747.231 Q30.6479 745.385 29.0883 742.425 Q27.4968 739.465 27.4968 735.232 Q27.4968 734.627 27.5923 733.895 Q27.656 733.163 27.8151 732.272 L33.8307 732.24 Z" fill="#000000" fill-rule="nonzero" fill-opacity="1" /><path clip-path="url(#clip960)" d="M33.7671 703.785 L14.479 703.785 L14.479 697.929 L64.0042 697.929 L64.0042 703.785 L58.657 703.785 Q61.8398 705.631 63.3994 708.464 Q64.9272 711.265 64.9272 715.212 Q64.9272 721.673 59.771 725.747 Q54.6147 729.789 46.212 729.789 Q37.8093 729.789 32.6531 725.747 Q27.4968 721.673 27.4968 715.212 Q27.4968 711.265 29.0564 708.464 Q30.5842 705.631 33.7671 703.785 M46.212 723.742 Q52.6732 723.742 56.3653 721.1 Q60.0256 718.426 60.0256 713.779 Q60.0256 709.132 56.3653 706.459 Q52.6732 703.785 46.212 703.785 Q39.7508 703.785 36.0905 706.459 Q32.3984 709.132 32.3984 713.779 Q32.3984 718.426 36.0905 721.1 Q39.7508 723.742 46.212 723.742 Z" fill="#000000" fill-rule="nonzero" fill-opacity="1" /><polyline clip-path="url(#clip962)" style="stroke:#009af9; stroke-linecap:round; stroke-linejoin:round; stroke-width:4; stroke-opacity:1; fill:none" points="219.866,1447.98 220.255,1447.98 220.644,1447.89 221.033,1447.49 221.422,1446.54 221.811,1444.82 222.2,1442.21 222.589,1438.63 222.977,1434.04 223.366,1428.44 223.755,1421.86 224.144,1414.34 224.533,1405.93 224.922,1396.7 225.311,1386.7 225.505,1381.43 225.7,1376 225.894,1370.41 226.089,1364.66 226.988,1336.36 227.887,1305.71 228.786,1273.32 229.685,1239.75 231.483,1170.73 233.281,1101.36 235.079,1033.4 236.877,967.965 237.776,936.408 238.675,905.698 239.574,875.869 240.473,846.943 241.372,818.931 242.271,791.835 243.17,765.654 244.069,740.377 244.968,715.993 245.867,692.484 246.766,669.832 247.665,648.017 249.462,606.81 251.26,568.676 253.058,533.425 254.856,500.87 256.654,470.824 258.452,443.112 260.25,417.567 262.048,394.032 263.846,372.36 265.644,352.414 267.442,334.068 269.24,317.203 271.038,301.712 272.836,287.494 274.634,274.456 276.432,262.513 278.23,251.587 280.028,241.605 281.826,232.499 283.624,224.208 285.785,215.241 287.946,207.277 290.107,200.235 292.268,194.038 296.59,183.914 300.912,176.425 305.234,171.17 309.556,167.814 313.879,166.074 318.201,165.712 325.509,167.686 332.818,172.248 340.126,178.794 347.435,186.855 363.313,207.969 379.191,232.044 393.829,255.51 408.467,279.413 439.855,330.149 476.22,385.826 492.379,409.166 508.537,431.599 522.707,450.527 536.877,468.775 567.774,506.299 598.855,541.116 633.22,576.514 665.916,607.484 699.913,637.19 728.531,660.426 763.471,686.831 795.478,709.313 825.038,728.772 854.983,747.324 888.542,766.854 918.951,783.502 953.769,801.452 986.006,817.105 1017.79,831.707 1048.65,845.158 1080.28,858.264 1114.94,871.889 1165.29,890.44 1175.61,894.077 "/>
<path clip-path="url(#clip960)" d="M995.751 276.231 L1143.76 276.231 L1143.76 172.551 L995.751 172.551  Z" fill="#ffffff" fill-rule="evenodd" fill-opacity="1"/>
<polyline clip-path="url(#clip960)" style="stroke:#000000; stroke-linecap:round; stroke-linejoin:round; stroke-width:4; stroke-opacity:1; fill:none" points="995.751,276.231 1143.76,276.231 1143.76,172.551 995.751,172.551 995.751,276.231 "/>
<polyline clip-path="url(#clip960)" style="stroke:#009af9; stroke-linecap:round; stroke-linejoin:round; stroke-width:4; stroke-opacity:1; fill:none" points="1006.37,224.391 1070.09,224.391 "/>
<path clip-path="url(#clip960)" d="M1094.55 244.078 Q1092.74 248.708 1091.03 250.12 Q1089.32 251.532 1086.45 251.532 L1083.04 251.532 L1083.04 247.967 L1085.54 247.967 Q1087.3 247.967 1088.28 247.134 Q1089.25 246.3 1090.43 243.199 L1091.19 241.254 L1080.71 215.745 L1085.22 215.745 L1093.32 236.023 L1101.42 215.745 L1105.94 215.745 L1094.55 244.078 Z" fill="#000000" fill-rule="nonzero" fill-opacity="1" /><path clip-path="url(#clip960)" d="M1113.23 237.736 L1120.87 237.736 L1120.87 211.37 L1112.56 213.037 L1112.56 208.778 L1120.82 207.111 L1125.5 207.111 L1125.5 237.736 L1133.14 237.736 L1133.14 241.671 L1113.23 241.671 L1113.23 237.736 Z" fill="#000000" fill-rule="nonzero" fill-opacity="1" /><path clip-path="url(#clip960)" d="M1397.01 1486.45 L2352.76 1486.45 L2352.76 127.244 L1397.01 127.244  Z" fill="#ffffff" fill-rule="evenodd" fill-opacity="1"/>
<defs>
  <clipPath id="clip963">
    <rect x="1397" y="127" width="957" height="1360"/>
  </clipPath>
</defs>
<polyline clip-path="url(#clip963)" style="stroke:#000000; stroke-linecap:round; stroke-linejoin:round; stroke-width:2; stroke-opacity:0.1; fill:none" points="1397.01,1486.45 1397.01,127.244 "/>
<polyline clip-path="url(#clip963)" style="stroke:#000000; stroke-linecap:round; stroke-linejoin:round; stroke-width:2; stroke-opacity:0.1; fill:none" points="1588.16,1486.45 1588.16,127.244 "/>
<polyline clip-path="url(#clip963)" style="stroke:#000000; stroke-linecap:round; stroke-linejoin:round; stroke-width:2; stroke-opacity:0.1; fill:none" points="1779.31,1486.45 1779.31,127.244 "/>
<polyline clip-path="url(#clip963)" style="stroke:#000000; stroke-linecap:round; stroke-linejoin:round; stroke-width:2; stroke-opacity:0.1; fill:none" points="1970.46,1486.45 1970.46,127.244 "/>
<polyline clip-path="url(#clip963)" style="stroke:#000000; stroke-linecap:round; stroke-linejoin:round; stroke-width:2; stroke-opacity:0.1; fill:none" points="2161.61,1486.45 2161.61,127.244 "/>
<polyline clip-path="url(#clip963)" style="stroke:#000000; stroke-linecap:round; stroke-linejoin:round; stroke-width:2; stroke-opacity:0.1; fill:none" points="2352.76,1486.45 2352.76,127.244 "/>
<polyline clip-path="url(#clip960)" style="stroke:#000000; stroke-linecap:round; stroke-linejoin:round; stroke-width:4; stroke-opacity:1; fill:none" points="1397.01,1486.45 2352.76,1486.45 "/>
<polyline clip-path="url(#clip960)" style="stroke:#000000; stroke-linecap:round; stroke-linejoin:round; stroke-width:4; stroke-opacity:1; fill:none" points="1397.01,1486.45 1397.01,1467.55 "/>
<polyline clip-path="url(#clip960)" style="stroke:#000000; stroke-linecap:round; stroke-linejoin:round; stroke-width:4; stroke-opacity:1; fill:none" points="1588.16,1486.45 1588.16,1467.55 "/>
<polyline clip-path="url(#clip960)" style="stroke:#000000; stroke-linecap:round; stroke-linejoin:round; stroke-width:4; stroke-opacity:1; fill:none" points="1779.31,1486.45 1779.31,1467.55 "/>
<polyline clip-path="url(#clip960)" style="stroke:#000000; stroke-linecap:round; stroke-linejoin:round; stroke-width:4; stroke-opacity:1; fill:none" points="1970.46,1486.45 1970.46,1467.55 "/>
<polyline clip-path="url(#clip960)" style="stroke:#000000; stroke-linecap:round; stroke-linejoin:round; stroke-width:4; stroke-opacity:1; fill:none" points="2161.61,1486.45 2161.61,1467.55 "/>
<polyline clip-path="url(#clip960)" style="stroke:#000000; stroke-linecap:round; stroke-linejoin:round; stroke-width:4; stroke-opacity:1; fill:none" points="2352.76,1486.45 2352.76,1467.55 "/>
<path clip-path="url(#clip960)" d="M1397.01 1517.37 Q1393.4 1517.37 1391.57 1520.93 Q1389.76 1524.47 1389.76 1531.6 Q1389.76 1538.71 1391.57 1542.27 Q1393.4 1545.82 1397.01 1545.82 Q1400.64 1545.82 1402.45 1542.27 Q1404.28 1538.71 1404.28 1531.6 Q1404.28 1524.47 1402.45 1520.93 Q1400.64 1517.37 1397.01 1517.37 M1397.01 1513.66 Q1402.82 1513.66 1405.87 1518.27 Q1408.95 1522.85 1408.95 1531.6 Q1408.95 1540.33 1405.87 1544.94 Q1402.82 1549.52 1397.01 1549.52 Q1391.2 1549.52 1388.12 1544.94 Q1385.06 1540.33 1385.06 1531.6 Q1385.06 1522.85 1388.12 1518.27 Q1391.2 1513.66 1397.01 1513.66 Z" fill="#000000" fill-rule="nonzero" fill-opacity="1" /><path clip-path="url(#clip960)" d="M1582.81 1544.91 L1599.13 1544.91 L1599.13 1548.85 L1577.19 1548.85 L1577.19 1544.91 Q1579.85 1542.16 1584.43 1537.53 Q1589.04 1532.88 1590.22 1531.53 Q1592.46 1529.01 1593.34 1527.27 Q1594.25 1525.51 1594.25 1523.82 Q1594.25 1521.07 1592.3 1519.33 Q1590.38 1517.6 1587.28 1517.6 Q1585.08 1517.6 1582.62 1518.36 Q1580.19 1519.13 1577.42 1520.68 L1577.42 1515.95 Q1580.24 1514.82 1582.69 1514.24 Q1585.15 1513.66 1587.19 1513.66 Q1592.56 1513.66 1595.75 1516.35 Q1598.94 1519.03 1598.94 1523.52 Q1598.94 1525.65 1598.13 1527.57 Q1597.35 1529.47 1595.24 1532.07 Q1594.66 1532.74 1591.56 1535.95 Q1588.46 1539.15 1582.81 1544.91 Z" fill="#000000" fill-rule="nonzero" fill-opacity="1" /><path clip-path="url(#clip960)" d="M1782.32 1518.36 L1770.51 1536.81 L1782.32 1536.81 L1782.32 1518.36 M1781.09 1514.29 L1786.97 1514.29 L1786.97 1536.81 L1791.9 1536.81 L1791.9 1540.7 L1786.97 1540.7 L1786.97 1548.85 L1782.32 1548.85 L1782.32 1540.7 L1766.71 1540.7 L1766.71 1536.19 L1781.09 1514.29 Z" fill="#000000" fill-rule="nonzero" fill-opacity="1" /><path clip-path="url(#clip960)" d="M1970.86 1529.7 Q1967.71 1529.7 1965.86 1531.86 Q1964.03 1534.01 1964.03 1537.76 Q1964.03 1541.49 1965.86 1543.66 Q1967.71 1545.82 1970.86 1545.82 Q1974.01 1545.82 1975.84 1543.66 Q1977.69 1541.49 1977.69 1537.76 Q1977.69 1534.01 1975.84 1531.86 Q1974.01 1529.7 1970.86 1529.7 M1980.14 1515.05 L1980.14 1519.31 Q1978.38 1518.48 1976.58 1518.04 Q1974.8 1517.6 1973.04 1517.6 Q1968.41 1517.6 1965.95 1520.72 Q1963.52 1523.85 1963.18 1530.17 Q1964.54 1528.15 1966.6 1527.09 Q1968.66 1526 1971.14 1526 Q1976.35 1526 1979.36 1529.17 Q1982.39 1532.32 1982.39 1537.76 Q1982.39 1543.08 1979.24 1546.3 Q1976.09 1549.52 1970.86 1549.52 Q1964.87 1549.52 1961.7 1544.94 Q1958.52 1540.33 1958.52 1531.6 Q1958.52 1523.41 1962.41 1518.55 Q1966.3 1513.66 1972.85 1513.66 Q1974.61 1513.66 1976.39 1514.01 Q1978.2 1514.36 1980.14 1515.05 Z" fill="#000000" fill-rule="nonzero" fill-opacity="1" /><path clip-path="url(#clip960)" d="M2161.61 1532.44 Q2158.27 1532.44 2156.35 1534.22 Q2154.45 1536 2154.45 1539.13 Q2154.45 1542.25 2156.35 1544.03 Q2158.27 1545.82 2161.61 1545.82 Q2164.94 1545.82 2166.86 1544.03 Q2168.78 1542.23 2168.78 1539.13 Q2168.78 1536 2166.86 1534.22 Q2164.96 1532.44 2161.61 1532.44 M2156.93 1530.45 Q2153.92 1529.7 2152.23 1527.64 Q2150.56 1525.58 2150.56 1522.62 Q2150.56 1518.48 2153.5 1516.07 Q2156.47 1513.66 2161.61 1513.66 Q2166.77 1513.66 2169.71 1516.07 Q2172.65 1518.48 2172.65 1522.62 Q2172.65 1525.58 2170.96 1527.64 Q2169.29 1529.7 2166.31 1530.45 Q2169.68 1531.23 2171.56 1533.52 Q2173.46 1535.82 2173.46 1539.13 Q2173.46 1544.15 2170.38 1546.83 Q2167.32 1549.52 2161.61 1549.52 Q2155.89 1549.52 2152.81 1546.83 Q2149.75 1544.15 2149.75 1539.13 Q2149.75 1535.82 2151.65 1533.52 Q2153.55 1531.23 2156.93 1530.45 M2155.22 1523.06 Q2155.22 1525.75 2156.88 1527.25 Q2158.57 1528.76 2161.61 1528.76 Q2164.62 1528.76 2166.31 1527.25 Q2168.02 1525.75 2168.02 1523.06 Q2168.02 1520.38 2166.31 1518.87 Q2164.62 1517.37 2161.61 1517.37 Q2158.57 1517.37 2156.88 1518.87 Q2155.22 1520.38 2155.22 1523.06 Z" fill="#000000" fill-rule="nonzero" fill-opacity="1" /><path clip-path="url(#clip960)" d="M2327.44 1544.91 L2335.08 1544.91 L2335.08 1518.55 L2326.77 1520.21 L2326.77 1515.95 L2335.04 1514.29 L2339.71 1514.29 L2339.71 1544.91 L2347.35 1544.91 L2347.35 1548.85 L2327.44 1548.85 L2327.44 1544.91 Z" fill="#000000" fill-rule="nonzero" fill-opacity="1" /><path clip-path="url(#clip960)" d="M2366.8 1517.37 Q2363.18 1517.37 2361.36 1520.93 Q2359.55 1524.47 2359.55 1531.6 Q2359.55 1538.71 2361.36 1542.27 Q2363.18 1545.82 2366.8 1545.82 Q2370.43 1545.82 2372.23 1542.27 Q2374.06 1538.71 2374.06 1531.6 Q2374.06 1524.47 2372.23 1520.93 Q2370.43 1517.37 2366.8 1517.37 M2366.8 1513.66 Q2372.61 1513.66 2375.66 1518.27 Q2378.74 1522.85 2378.74 1531.6 Q2378.74 1540.33 2375.66 1544.94 Q2372.61 1549.52 2366.8 1549.52 Q2360.99 1549.52 2357.91 1544.94 Q2354.85 1540.33 2354.85 1531.6 Q2354.85 1522.85 2357.91 1518.27 Q2360.99 1513.66 2366.8 1513.66 Z" fill="#000000" fill-rule="nonzero" fill-opacity="1" /><polyline clip-path="url(#clip963)" style="stroke:#000000; stroke-linecap:round; stroke-linejoin:round; stroke-width:2; stroke-opacity:0.1; fill:none" points="1397.01,1447.98 2352.76,1447.98 "/>
<polyline clip-path="url(#clip963)" style="stroke:#000000; stroke-linecap:round; stroke-linejoin:round; stroke-width:2; stroke-opacity:0.1; fill:none" points="1397.01,1063.13 2352.76,1063.13 "/>
<polyline clip-path="url(#clip963)" style="stroke:#000000; stroke-linecap:round; stroke-linejoin:round; stroke-width:2; stroke-opacity:0.1; fill:none" points="1397.01,678.278 2352.76,678.278 "/>
<polyline clip-path="url(#clip963)" style="stroke:#000000; stroke-linecap:round; stroke-linejoin:round; stroke-width:2; stroke-opacity:0.1; fill:none" points="1397.01,293.428 2352.76,293.428 "/>
<polyline clip-path="url(#clip960)" style="stroke:#000000; stroke-linecap:round; stroke-linejoin:round; stroke-width:4; stroke-opacity:1; fill:none" points="1397.01,1486.45 1397.01,127.244 "/>
<polyline clip-path="url(#clip960)" style="stroke:#000000; stroke-linecap:round; stroke-linejoin:round; stroke-width:4; stroke-opacity:1; fill:none" points="1397.01,1447.98 1415.91,1447.98 "/>
<polyline clip-path="url(#clip960)" style="stroke:#000000; stroke-linecap:round; stroke-linejoin:round; stroke-width:4; stroke-opacity:1; fill:none" points="1397.01,1063.13 1415.91,1063.13 "/>
<polyline clip-path="url(#clip960)" style="stroke:#000000; stroke-linecap:round; stroke-linejoin:round; stroke-width:4; stroke-opacity:1; fill:none" points="1397.01,678.278 1415.91,678.278 "/>
<polyline clip-path="url(#clip960)" style="stroke:#000000; stroke-linecap:round; stroke-linejoin:round; stroke-width:4; stroke-opacity:1; fill:none" points="1397.01,293.428 1415.91,293.428 "/>
<path clip-path="url(#clip960)" d="M1349.06 1433.78 Q1345.45 1433.78 1343.62 1437.34 Q1341.82 1440.88 1341.82 1448.01 Q1341.82 1455.12 1343.62 1458.69 Q1345.45 1462.23 1349.06 1462.23 Q1352.7 1462.23 1354.5 1458.69 Q1356.33 1455.12 1356.33 1448.01 Q1356.33 1440.88 1354.5 1437.34 Q1352.7 1433.78 1349.06 1433.78 M1349.06 1430.07 Q1354.87 1430.07 1357.93 1434.68 Q1361.01 1439.26 1361.01 1448.01 Q1361.01 1456.74 1357.93 1461.35 Q1354.87 1465.93 1349.06 1465.93 Q1343.25 1465.93 1340.17 1461.35 Q1337.12 1456.74 1337.12 1448.01 Q1337.12 1439.26 1340.17 1434.68 Q1343.25 1430.07 1349.06 1430.07 Z" fill="#000000" fill-rule="nonzero" fill-opacity="1" /><path clip-path="url(#clip960)" d="M1341.1 1076.47 L1348.74 1076.47 L1348.74 1050.11 L1340.43 1051.77 L1340.43 1047.52 L1348.69 1045.85 L1353.37 1045.85 L1353.37 1076.47 L1361.01 1076.47 L1361.01 1080.41 L1341.1 1080.41 L1341.1 1076.47 Z" fill="#000000" fill-rule="nonzero" fill-opacity="1" /><path clip-path="url(#clip960)" d="M1344.69 691.623 L1361.01 691.623 L1361.01 695.558 L1339.06 695.558 L1339.06 691.623 Q1341.73 688.869 1346.31 684.239 Q1350.92 679.586 1352.1 678.244 Q1354.34 675.72 1355.22 673.984 Q1356.12 672.225 1356.12 670.535 Q1356.12 667.781 1354.18 666.045 Q1352.26 664.308 1349.16 664.308 Q1346.96 664.308 1344.5 665.072 Q1342.07 665.836 1339.29 667.387 L1339.29 662.665 Q1342.12 661.531 1344.57 660.952 Q1347.03 660.373 1349.06 660.373 Q1354.43 660.373 1357.63 663.058 Q1360.82 665.744 1360.82 670.234 Q1360.82 672.364 1360.01 674.285 Q1359.23 676.183 1357.12 678.776 Q1356.54 679.447 1353.44 682.665 Q1350.34 685.859 1344.69 691.623 Z" fill="#000000" fill-rule="nonzero" fill-opacity="1" /><path clip-path="url(#clip960)" d="M1353.88 292.073 Q1357.23 292.791 1359.11 295.059 Q1361.01 297.328 1361.01 300.661 Q1361.01 305.777 1357.49 308.578 Q1353.97 311.379 1347.49 311.379 Q1345.31 311.379 1343 310.939 Q1340.71 310.522 1338.25 309.666 L1338.25 305.152 Q1340.2 306.286 1342.51 306.865 Q1344.83 307.444 1347.35 307.444 Q1351.75 307.444 1354.04 305.708 Q1356.35 303.971 1356.35 300.661 Q1356.35 297.606 1354.2 295.893 Q1352.07 294.157 1348.25 294.157 L1344.23 294.157 L1344.23 290.314 L1348.44 290.314 Q1351.89 290.314 1353.72 288.948 Q1355.54 287.56 1355.54 284.967 Q1355.54 282.305 1353.65 280.893 Q1351.77 279.458 1348.25 279.458 Q1346.33 279.458 1344.13 279.874 Q1341.93 280.291 1339.29 281.171 L1339.29 277.004 Q1341.96 276.263 1344.27 275.893 Q1346.61 275.523 1348.67 275.523 Q1353.99 275.523 1357.1 277.953 Q1360.2 280.36 1360.2 284.481 Q1360.2 287.351 1358.55 289.342 Q1356.91 291.309 1353.88 292.073 Z" fill="#000000" fill-rule="nonzero" fill-opacity="1" /><path clip-path="url(#clip960)" d="M1243 1075.19 L1249.78 1075.19 Q1246.76 1078.44 1245.26 1082.13 Q1243.77 1085.79 1243.77 1089.93 Q1243.77 1098.08 1248.76 1102.41 Q1253.73 1106.73 1263.15 1106.73 Q1272.54 1106.73 1277.54 1102.41 Q1282.5 1098.08 1282.5 1089.93 Q1282.5 1085.79 1281.01 1082.13 Q1279.51 1078.44 1276.49 1075.19 L1283.2 1075.19 Q1285.49 1078.57 1286.64 1082.35 Q1287.79 1086.11 1287.79 1090.31 Q1287.79 1101.1 1281.2 1107.31 Q1274.58 1113.51 1263.15 1113.51 Q1251.69 1113.51 1245.1 1107.31 Q1238.48 1101.1 1238.48 1090.31 Q1238.48 1086.05 1239.63 1082.29 Q1240.74 1078.5 1243 1075.19 Z" fill="#000000" fill-rule="nonzero" fill-opacity="1" /><path clip-path="url(#clip960)" d="M1272.79 1066.12 L1251.21 1066.12 L1251.21 1060.26 L1272.57 1060.26 Q1277.63 1060.26 1280.18 1058.29 Q1282.69 1056.32 1282.69 1052.37 Q1282.69 1047.63 1279.67 1044.89 Q1276.65 1042.12 1271.43 1042.12 L1251.21 1042.12 L1251.21 1036.27 L1286.86 1036.27 L1286.86 1042.12 L1281.39 1042.12 Q1284.63 1044.26 1286.23 1047.09 Q1287.79 1049.89 1287.79 1053.61 Q1287.79 1059.76 1283.97 1062.94 Q1280.15 1066.12 1272.79 1066.12 M1250.36 1051.38 L1250.36 1051.38 Z" fill="#000000" fill-rule="nonzero" fill-opacity="1" /><path clip-path="url(#clip960)" d="M1258.06 996.449 Q1254.11 994.252 1252.23 991.197 Q1250.36 988.141 1250.36 984.004 Q1250.36 978.434 1254.27 975.41 Q1258.15 972.386 1265.35 972.386 L1286.86 972.386 L1286.86 978.274 L1265.54 978.274 Q1260.41 978.274 1257.93 980.089 Q1255.45 981.903 1255.45 985.627 Q1255.45 990.178 1258.47 992.82 Q1261.5 995.462 1266.72 995.462 L1286.86 995.462 L1286.86 1001.35 L1265.54 1001.35 Q1260.38 1001.35 1257.93 1003.16 Q1255.45 1004.98 1255.45 1008.77 Q1255.45 1013.25 1258.5 1015.9 Q1261.53 1018.54 1266.72 1018.54 L1286.86 1018.54 L1286.86 1024.43 L1251.21 1024.43 L1251.21 1018.54 L1256.75 1018.54 Q1253.47 1016.53 1251.92 1013.73 Q1250.36 1010.93 1250.36 1007.08 Q1250.36 1003.2 1252.33 1000.49 Q1254.3 997.754 1258.06 996.449 Z" fill="#000000" fill-rule="nonzero" fill-opacity="1" /><path clip-path="url(#clip960)" d="M1272.79 961.31 L1251.21 961.31 L1251.21 955.453 L1272.57 955.453 Q1277.63 955.453 1280.18 953.48 Q1282.69 951.507 1282.69 947.56 Q1282.69 942.817 1279.67 940.08 Q1276.65 937.311 1271.43 937.311 L1251.21 937.311 L1251.21 931.455 L1286.86 931.455 L1286.86 937.311 L1281.39 937.311 Q1284.63 939.444 1286.23 942.276 Q1287.79 945.077 1287.79 948.801 Q1287.79 954.944 1283.97 958.127 Q1280.15 961.31 1272.79 961.31 M1250.36 946.573 L1250.36 946.573 Z" fill="#000000" fill-rule="nonzero" fill-opacity="1" /><path clip-path="url(#clip960)" d="M1237.34 919.392 L1237.34 913.535 L1286.86 913.535 L1286.86 919.392 L1237.34 919.392 Z" fill="#000000" fill-rule="nonzero" fill-opacity="1" /><path clip-path="url(#clip960)" d="M1268.94 885.081 Q1268.94 892.178 1270.57 894.916 Q1272.19 897.653 1276.1 897.653 Q1279.22 897.653 1281.07 895.616 Q1282.88 893.547 1282.88 890.014 Q1282.88 885.144 1279.45 882.216 Q1275.98 879.256 1270.25 879.256 L1268.94 879.256 L1268.94 885.081 M1266.52 873.399 L1286.86 873.399 L1286.86 879.256 L1281.45 879.256 Q1284.7 881.261 1286.26 884.253 Q1287.79 887.245 1287.79 891.574 Q1287.79 897.048 1284.73 900.295 Q1281.64 903.509 1276.49 903.509 Q1270.47 903.509 1267.42 899.499 Q1264.36 895.457 1264.36 887.468 L1264.36 879.256 L1263.79 879.256 Q1259.74 879.256 1257.55 881.929 Q1255.32 884.571 1255.32 889.377 Q1255.32 892.433 1256.05 895.329 Q1256.78 898.226 1258.25 900.899 L1252.84 900.899 Q1251.6 897.685 1250.99 894.661 Q1250.36 891.637 1250.36 888.773 Q1250.36 881.038 1254.37 877.219 Q1258.38 873.399 1266.52 873.399 Z" fill="#000000" fill-rule="nonzero" fill-opacity="1" /><path clip-path="url(#clip960)" d="M1241.09 855.544 L1251.21 855.544 L1251.21 843.481 L1255.77 843.481 L1255.77 855.544 L1275.12 855.544 Q1279.48 855.544 1280.72 854.366 Q1281.96 853.156 1281.96 849.496 L1281.96 843.481 L1286.86 843.481 L1286.86 849.496 Q1286.86 856.276 1284.35 858.854 Q1281.8 861.432 1275.12 861.432 L1255.77 861.432 L1255.77 865.729 L1251.21 865.729 L1251.21 861.432 L1241.09 861.432 L1241.09 855.544 Z" fill="#000000" fill-rule="nonzero" fill-opacity="1" /><path clip-path="url(#clip960)" d="M1251.21 835.778 L1251.21 829.922 L1286.86 829.922 L1286.86 835.778 L1251.21 835.778 M1237.34 835.778 L1237.34 829.922 L1244.75 829.922 L1244.75 835.778 L1237.34 835.778 Z" fill="#000000" fill-rule="nonzero" fill-opacity="1" /><path clip-path="url(#clip960)" d="M1251.21 821.869 L1251.21 815.662 L1281.13 804.523 L1251.21 793.383 L1251.21 787.176 L1286.86 800.544 L1286.86 808.501 L1251.21 821.869 Z" fill="#000000" fill-rule="nonzero" fill-opacity="1" /><path clip-path="url(#clip960)" d="M1267.57 748.6 L1270.44 748.6 L1270.44 775.527 Q1276.49 775.145 1279.67 771.898 Q1282.82 768.62 1282.82 762.795 Q1282.82 759.421 1281.99 756.27 Q1281.17 753.088 1279.51 749.968 L1285.05 749.968 Q1286.39 753.119 1287.09 756.43 Q1287.79 759.74 1287.79 763.145 Q1287.79 771.675 1282.82 776.673 Q1277.86 781.638 1269.39 781.638 Q1260.64 781.638 1255.51 776.927 Q1250.36 772.185 1250.36 764.164 Q1250.36 756.971 1255 752.801 Q1259.62 748.6 1267.57 748.6 M1265.86 754.456 Q1261.05 754.52 1258.19 757.162 Q1255.32 759.772 1255.32 764.1 Q1255.32 769.002 1258.09 771.962 Q1260.86 774.89 1265.89 775.336 L1265.86 754.456 Z" fill="#000000" fill-rule="nonzero" fill-opacity="1" /><path clip-path="url(#clip960)" d="M1239.34 718.013 L1239.34 711.583 L1258.82 711.583 L1258.82 688.221 L1239.34 688.221 L1239.34 681.792 L1286.86 681.792 L1286.86 688.221 L1264.23 688.221 L1264.23 711.583 L1286.86 711.583 L1286.86 718.013 L1239.34 718.013 Z" fill="#000000" fill-rule="nonzero" fill-opacity="1" /><path clip-path="url(#clip960)" d="M1268.94 653.051 Q1268.94 660.148 1270.57 662.886 Q1272.19 665.623 1276.1 665.623 Q1279.22 665.623 1281.07 663.586 Q1282.88 661.517 1282.88 657.984 Q1282.88 653.114 1279.45 650.186 Q1275.98 647.226 1270.25 647.226 L1268.94 647.226 L1268.94 653.051 M1266.52 641.369 L1286.86 641.369 L1286.86 647.226 L1281.45 647.226 Q1284.7 649.231 1286.26 652.223 Q1287.79 655.215 1287.79 659.544 Q1287.79 665.018 1284.73 668.265 Q1281.64 671.479 1276.49 671.479 Q1270.47 671.479 1267.42 667.469 Q1264.36 663.427 1264.36 655.438 L1264.36 647.226 L1263.79 647.226 Q1259.74 647.226 1257.55 649.899 Q1255.32 652.541 1255.32 657.347 Q1255.32 660.403 1256.05 663.299 Q1256.78 666.196 1258.25 668.869 L1252.84 668.869 Q1251.6 665.655 1250.99 662.631 Q1250.36 659.607 1250.36 656.743 Q1250.36 649.008 1254.37 645.189 Q1258.38 641.369 1266.52 641.369 Z" fill="#000000" fill-rule="nonzero" fill-opacity="1" /><path clip-path="url(#clip960)" d="M1251.21 631.853 L1251.21 604.035 L1256.56 604.035 L1282.18 626.06 L1282.18 604.035 L1286.86 604.035 L1286.86 632.648 L1281.52 632.648 L1255.89 610.623 L1255.89 631.853 L1251.21 631.853 Z" fill="#000000" fill-rule="nonzero" fill-opacity="1" /><path clip-path="url(#clip960)" d="M1268.94 578.89 Q1268.94 585.988 1270.57 588.725 Q1272.19 591.462 1276.1 591.462 Q1279.22 591.462 1281.07 589.425 Q1282.88 587.356 1282.88 583.823 Q1282.88 578.954 1279.45 576.025 Q1275.98 573.065 1270.25 573.065 L1268.94 573.065 L1268.94 578.89 M1266.52 567.209 L1286.86 567.209 L1286.86 573.065 L1281.45 573.065 Q1284.7 575.071 1286.26 578.062 Q1287.79 581.054 1287.79 585.383 Q1287.79 590.858 1284.73 594.104 Q1281.64 597.319 1276.49 597.319 Q1270.47 597.319 1267.42 593.308 Q1264.36 589.266 1264.36 581.277 L1264.36 573.065 L1263.79 573.065 Q1259.74 573.065 1257.55 575.739 Q1255.32 578.381 1255.32 583.187 Q1255.32 586.242 1256.05 589.139 Q1256.78 592.035 1258.25 594.709 L1252.84 594.709 Q1251.6 591.494 1250.99 588.47 Q1250.36 585.447 1250.36 582.582 Q1250.36 574.848 1254.37 571.028 Q1258.38 567.209 1266.52 567.209 Z" fill="#000000" fill-rule="nonzero" fill-opacity="1" /><path clip-path="url(#clip960)" d="M1256.69 534.489 Q1256.12 535.476 1255.86 536.654 Q1255.58 537.799 1255.58 539.2 Q1255.58 544.165 1258.82 546.839 Q1262.04 549.48 1268.08 549.48 L1286.86 549.48 L1286.86 555.369 L1251.21 555.369 L1251.21 549.48 L1256.75 549.48 Q1253.51 547.634 1251.95 544.674 Q1250.36 541.714 1250.36 537.481 Q1250.36 536.876 1250.45 536.144 Q1250.51 535.412 1250.67 534.521 L1256.69 534.489 Z" fill="#000000" fill-rule="nonzero" fill-opacity="1" /><path clip-path="url(#clip960)" d="M1256.63 506.035 L1237.34 506.035 L1237.34 500.178 L1286.86 500.178 L1286.86 506.035 L1281.52 506.035 Q1284.7 507.881 1286.26 510.713 Q1287.79 513.514 1287.79 517.461 Q1287.79 523.922 1282.63 527.996 Q1277.47 532.038 1269.07 532.038 Q1260.67 532.038 1255.51 527.996 Q1250.36 523.922 1250.36 517.461 Q1250.36 513.514 1251.92 510.713 Q1253.44 507.881 1256.63 506.035 M1269.07 525.991 Q1275.53 525.991 1279.22 523.349 Q1282.88 520.676 1282.88 516.029 Q1282.88 511.382 1279.22 508.708 Q1275.53 506.035 1269.07 506.035 Q1262.61 506.035 1258.95 508.708 Q1255.26 511.382 1255.26 516.029 Q1255.26 520.676 1258.95 523.349 Q1262.61 525.991 1269.07 525.991 Z" fill="#000000" fill-rule="nonzero" fill-opacity="1" /><polyline clip-path="url(#clip963)" style="stroke:#009af9; stroke-linecap:round; stroke-linejoin:round; stroke-width:4; stroke-opacity:1; fill:none" points="1397.01,1447.98 1398.56,1447.98 1400.12,1447.96 1401.67,1447.9 1403.23,1447.74 1410.42,1445.32 1417.61,1439.83 1424.81,1431.72 1432,1421.63 1439.19,1410.09 1446.38,1397.5 1453.57,1384.16 1460.77,1370.3 1478.05,1335.69 1495.34,1300.33 1509.96,1270.42 1524.58,1240.76 1556.33,1177.82 1585.61,1122 1617,1064.63 1653.36,1001.27 1685.68,947.578 1714.02,902.373 1744.92,854.934 1776,809.01 1810.36,760.166 1843.06,715.424 1877.05,670.551 1905.67,633.986 1940.61,590.734 1972.62,552.36 2002.18,517.91 2032.12,483.922 2065.68,446.853 2096.09,414.141 2130.91,377.653 2163.15,344.732 2194.93,313.045 2225.79,282.971 2257.42,252.813 2292.08,220.513 2342.43,174.89 2352.76,165.712 "/>
<path clip-path="url(#clip960)" d="M1428.87 276.231 L1576.87 276.231 L1576.87 172.551 L1428.87 172.551  Z" fill="#ffffff" fill-rule="evenodd" fill-opacity="1"/>
<polyline clip-path="url(#clip960)" style="stroke:#000000; stroke-linecap:round; stroke-linejoin:round; stroke-width:4; stroke-opacity:1; fill:none" points="1428.87,276.231 1576.87,276.231 1576.87,172.551 1428.87,172.551 1428.87,276.231 "/>
<polyline clip-path="url(#clip960)" style="stroke:#009af9; stroke-linecap:round; stroke-linejoin:round; stroke-width:4; stroke-opacity:1; fill:none" points="1439.49,224.391 1503.2,224.391 "/>
<path clip-path="url(#clip960)" d="M1527.66 244.078 Q1525.86 248.708 1524.15 250.12 Q1522.43 251.532 1519.56 251.532 L1516.16 251.532 L1516.16 247.967 L1518.66 247.967 Q1520.42 247.967 1521.39 247.134 Q1522.36 246.3 1523.54 243.199 L1524.31 241.254 L1513.82 215.745 L1518.34 215.745 L1526.44 236.023 L1534.54 215.745 L1539.05 215.745 L1527.66 244.078 Z" fill="#000000" fill-rule="nonzero" fill-opacity="1" /><path clip-path="url(#clip960)" d="M1546.34 237.736 L1553.98 237.736 L1553.98 211.37 L1545.67 213.037 L1545.67 208.778 L1553.94 207.111 L1558.61 207.111 L1558.61 237.736 L1566.25 237.736 L1566.25 241.671 L1546.34 241.671 L1546.34 237.736 Z" fill="#000000" fill-rule="nonzero" fill-opacity="1" /><path clip-path="url(#clip960)" d="M219.866 80 L2352.76 80 L2352.76 0 L219.866 0  Z" fill="#ffffff" fill-rule="evenodd" fill-opacity="1"/>
<defs>
  <clipPath id="clip964">
    <rect x="219" y="0" width="2134" height="81"/>
  </clipPath>
</defs>
<path clip-path="url(#clip960)" d="M136.549 21.5091 L136.549 75.2589 L147.845 75.2589 Q162.15 75.2589 168.771 68.7774 Q175.437 62.296 175.437 48.3146 Q175.437 34.4257 168.771 27.9906 Q162.15 21.5091 147.845 21.5091 L136.549 21.5091 M127.197 13.824 L146.41 13.824 Q166.502 13.824 175.9 22.2036 Q185.298 30.5369 185.298 48.3146 Q185.298 66.1848 175.854 74.5644 Q166.41 82.944 146.41 82.944 L127.197 82.944 L127.197 13.824 Z" fill="#000000" fill-rule="nonzero" fill-opacity="1" /><path clip-path="url(#clip960)" d="M199.835 31.0924 L208.354 31.0924 L208.354 82.944 L199.835 82.944 L199.835 31.0924 M199.835 10.9073 L208.354 10.9073 L208.354 21.6943 L199.835 21.6943 L199.835 10.9073 Z" fill="#000000" fill-rule="nonzero" fill-opacity="1" /><path clip-path="url(#clip960)" d="M259.233 32.6202 L259.233 40.6757 Q255.622 38.8239 251.733 37.8979 Q247.844 36.972 243.678 36.972 Q237.335 36.972 234.141 38.9165 Q230.993 40.8609 230.993 44.7498 Q230.993 47.7127 233.261 49.4257 Q235.53 51.0923 242.381 52.6201 L245.298 53.2682 Q254.372 55.2127 258.168 58.7775 Q262.011 62.296 262.011 68.6385 Q262.011 75.8607 256.27 80.0736 Q250.576 84.2866 240.576 84.2866 Q236.409 84.2866 231.872 83.4533 Q227.382 82.6662 222.382 81.0459 L222.382 72.2496 Q227.104 74.7033 231.687 75.9533 Q236.27 77.157 240.761 77.157 Q246.78 77.157 250.02 75.12 Q253.261 73.0366 253.261 69.2867 Q253.261 65.8145 250.9 63.9626 Q248.585 62.1108 240.669 60.3978 L237.706 59.7034 Q229.789 58.0367 226.27 54.6108 Q222.752 51.1386 222.752 45.1201 Q222.752 37.8054 227.937 33.8239 Q233.122 29.8424 242.659 29.8424 Q247.381 29.8424 251.548 30.5369 Q255.715 31.2313 259.233 32.6202 Z" fill="#000000" fill-rule="nonzero" fill-opacity="1" /><path clip-path="url(#clip960)" d="M284.002 16.3703 L284.002 31.0924 L301.548 31.0924 L301.548 37.7128 L284.002 37.7128 L284.002 65.8608 Q284.002 72.2033 285.715 74.0089 Q287.474 75.8144 292.798 75.8144 L301.548 75.8144 L301.548 82.944 L292.798 82.944 Q282.937 82.944 279.187 79.2866 Q275.437 75.5829 275.437 65.8608 L275.437 37.7128 L269.187 37.7128 L269.187 31.0924 L275.437 31.0924 L275.437 16.3703 L284.002 16.3703 Z" fill="#000000" fill-rule="nonzero" fill-opacity="1" /><path clip-path="url(#clip960)" d="M342.798 39.0553 Q341.362 38.222 339.649 37.8516 Q337.983 37.435 335.946 37.435 Q328.724 37.435 324.835 42.1572 Q320.992 46.8331 320.992 55.6293 L320.992 82.944 L312.427 82.944 L312.427 31.0924 L320.992 31.0924 L320.992 39.1479 Q323.677 34.4257 327.983 32.1572 Q332.288 29.8424 338.446 29.8424 Q339.325 29.8424 340.39 29.9813 Q341.455 30.0739 342.751 30.3054 L342.798 39.0553 Z" fill="#000000" fill-rule="nonzero" fill-opacity="1" /><path clip-path="url(#clip960)" d="M351.733 31.0924 L360.251 31.0924 L360.251 82.944 L351.733 82.944 L351.733 31.0924 M351.733 10.9073 L360.251 10.9073 L360.251 21.6943 L351.733 21.6943 L351.733 10.9073 Z" fill="#000000" fill-rule="nonzero" fill-opacity="1" /><path clip-path="url(#clip960)" d="M415.297 57.0645 Q415.297 47.6664 411.408 42.3424 Q407.566 36.972 400.807 36.972 Q394.047 36.972 390.158 42.3424 Q386.316 47.6664 386.316 57.0645 Q386.316 66.4626 390.158 71.8329 Q394.047 77.157 400.807 77.157 Q407.566 77.157 411.408 71.8329 Q415.297 66.4626 415.297 57.0645 M386.316 38.9628 Q389.001 34.3331 393.075 32.1109 Q397.195 29.8424 402.89 29.8424 Q412.334 29.8424 418.214 37.3424 Q424.14 44.8424 424.14 57.0645 Q424.14 69.2867 418.214 76.7866 Q412.334 84.2866 402.89 84.2866 Q397.195 84.2866 393.075 82.0644 Q389.001 79.7959 386.316 75.1663 L386.316 82.944 L377.751 82.944 L377.751 10.9073 L386.316 10.9073 L386.316 38.9628 Z" fill="#000000" fill-rule="nonzero" fill-opacity="1" /><path clip-path="url(#clip960)" d="M437.38 62.4811 L437.38 31.0924 L445.899 31.0924 L445.899 62.1571 Q445.899 69.5181 448.769 73.2218 Q451.64 76.8792 457.38 76.8792 Q464.278 76.8792 468.26 72.4811 Q472.288 68.083 472.288 60.4904 L472.288 31.0924 L480.806 31.0924 L480.806 82.944 L472.288 82.944 L472.288 74.9811 Q469.186 79.7033 465.065 82.0181 Q460.991 84.2866 455.575 84.2866 Q446.64 84.2866 442.01 78.7311 Q437.38 73.1755 437.38 62.4811 M458.816 29.8424 L458.816 29.8424 Z" fill="#000000" fill-rule="nonzero" fill-opacity="1" /><path clip-path="url(#clip960)" d="M506.778 16.3703 L506.778 31.0924 L524.324 31.0924 L524.324 37.7128 L506.778 37.7128 L506.778 65.8608 Q506.778 72.2033 508.491 74.0089 Q510.25 75.8144 515.574 75.8144 L524.324 75.8144 L524.324 82.944 L515.574 82.944 Q505.713 82.944 501.963 79.2866 Q498.213 75.5829 498.213 65.8608 L498.213 37.7128 L491.963 37.7128 L491.963 31.0924 L498.213 31.0924 L498.213 16.3703 L506.778 16.3703 Z" fill="#000000" fill-rule="nonzero" fill-opacity="1" /><path clip-path="url(#clip960)" d="M535.528 31.0924 L544.047 31.0924 L544.047 82.944 L535.528 82.944 L535.528 31.0924 M535.528 10.9073 L544.047 10.9073 L544.047 21.6943 L535.528 21.6943 L535.528 10.9073 Z" fill="#000000" fill-rule="nonzero" fill-opacity="1" /><path clip-path="url(#clip960)" d="M581.963 37.0646 Q575.111 37.0646 571.13 42.435 Q567.148 47.759 567.148 57.0645 Q567.148 66.37 571.083 71.7404 Q575.065 77.0644 581.963 77.0644 Q588.769 77.0644 592.75 71.6941 Q596.731 66.3237 596.731 57.0645 Q596.731 47.8516 592.75 42.4813 Q588.769 37.0646 581.963 37.0646 M581.963 29.8424 Q593.074 29.8424 599.417 37.0646 Q605.759 44.2868 605.759 57.0645 Q605.759 69.7959 599.417 77.0644 Q593.074 84.2866 581.963 84.2866 Q570.806 84.2866 564.463 77.0644 Q558.167 69.7959 558.167 57.0645 Q558.167 44.2868 564.463 37.0646 Q570.806 29.8424 581.963 29.8424 Z" fill="#000000" fill-rule="nonzero" fill-opacity="1" /><path clip-path="url(#clip960)" d="M662.981 51.6479 L662.981 82.944 L654.463 82.944 L654.463 51.9256 Q654.463 44.5646 651.592 40.9072 Q648.722 37.2498 642.981 37.2498 Q636.083 37.2498 632.102 41.6479 Q628.12 46.046 628.12 53.6386 L628.12 82.944 L619.555 82.944 L619.555 31.0924 L628.12 31.0924 L628.12 39.1479 Q631.176 34.472 635.296 32.1572 Q639.463 29.8424 644.879 29.8424 Q653.814 29.8424 658.398 35.398 Q662.981 40.9072 662.981 51.6479 Z" fill="#000000" fill-rule="nonzero" fill-opacity="1" /><path clip-path="url(#clip960)" d="M713.027 32.6202 L713.027 40.6757 Q709.416 38.8239 705.527 37.8979 Q701.638 36.972 697.472 36.972 Q691.129 36.972 687.935 38.9165 Q684.787 40.8609 684.787 44.7498 Q684.787 47.7127 687.055 49.4257 Q689.324 51.0923 696.175 52.6201 L699.092 53.2682 Q708.166 55.2127 711.962 58.7775 Q715.805 62.296 715.805 68.6385 Q715.805 75.8607 710.064 80.0736 Q704.37 84.2866 694.37 84.2866 Q690.203 84.2866 685.666 83.4533 Q681.175 82.6662 676.175 81.0459 L676.175 72.2496 Q680.898 74.7033 685.481 75.9533 Q690.064 77.157 694.555 77.157 Q700.573 77.157 703.814 75.12 Q707.055 73.0366 707.055 69.2867 Q707.055 65.8145 704.694 63.9626 Q702.379 62.1108 694.462 60.3978 L691.499 59.7034 Q683.583 58.0367 680.064 54.6108 Q676.546 51.1386 676.546 45.1201 Q676.546 37.8054 681.731 33.8239 Q686.916 29.8424 696.453 29.8424 Q701.175 29.8424 705.342 30.5369 Q709.509 31.2313 713.027 32.6202 Z" fill="#000000" fill-rule="nonzero" fill-opacity="1" /><path clip-path="url(#clip960)" d="M730.573 71.1848 L740.342 71.1848 L740.342 82.944 L730.573 82.944 L730.573 71.1848 Z" fill="#000000" fill-rule="nonzero" fill-opacity="1" /><path clip-path="url(#clip960)" d="M759.879 13.824 L769.231 13.824 L769.231 75.0737 L802.888 75.0737 L802.888 82.944 L759.879 82.944 L759.879 13.824 Z" fill="#000000" fill-rule="nonzero" fill-opacity="1" /><path clip-path="url(#clip960)" d="M830.758 37.0646 Q823.906 37.0646 819.925 42.435 Q815.943 47.759 815.943 57.0645 Q815.943 66.37 819.878 71.7404 Q823.86 77.0644 830.758 77.0644 Q837.563 77.0644 841.545 71.6941 Q845.526 66.3237 845.526 57.0645 Q845.526 47.8516 841.545 42.4813 Q837.563 37.0646 830.758 37.0646 M830.758 29.8424 Q841.869 29.8424 848.212 37.0646 Q854.554 44.2868 854.554 57.0645 Q854.554 69.7959 848.212 77.0644 Q841.869 84.2866 830.758 84.2866 Q819.601 84.2866 813.258 77.0644 Q806.962 69.7959 806.962 57.0645 Q806.962 44.2868 813.258 37.0646 Q819.601 29.8424 830.758 29.8424 Z" fill="#000000" fill-rule="nonzero" fill-opacity="1" /><path clip-path="url(#clip960)" d="M902.795 56.4164 Q902.795 47.1572 898.952 42.0646 Q895.156 36.972 888.258 36.972 Q881.406 36.972 877.563 42.0646 Q873.767 47.1572 873.767 56.4164 Q873.767 65.6293 877.563 70.7218 Q881.406 75.8144 888.258 75.8144 Q895.156 75.8144 898.952 70.7218 Q902.795 65.6293 902.795 56.4164 M911.313 76.5088 Q911.313 89.7495 905.433 96.1847 Q899.554 102.666 887.424 102.666 Q882.934 102.666 878.952 101.972 Q874.971 101.324 871.221 99.9346 L871.221 91.6477 Q874.971 93.6847 878.628 94.6569 Q882.285 95.6291 886.082 95.6291 Q894.461 95.6291 898.628 91.231 Q902.795 86.8792 902.795 78.0366 L902.795 73.8237 Q900.156 78.407 896.035 80.6755 Q891.915 82.944 886.174 82.944 Q876.637 82.944 870.804 75.6755 Q864.971 68.407 864.971 56.4164 Q864.971 44.3794 870.804 37.1109 Q876.637 29.8424 886.174 29.8424 Q891.915 29.8424 896.035 32.1109 Q900.156 34.3794 902.795 38.9628 L902.795 31.0924 L911.313 31.0924 L911.313 76.5088 Z" fill="#000000" fill-rule="nonzero" fill-opacity="1" /><path clip-path="url(#clip960)" d="M929.23 13.824 L941.822 13.824 L972.47 71.6478 L972.47 13.824 L981.544 13.824 L981.544 82.944 L968.952 82.944 L938.304 25.1202 L938.304 82.944 L929.23 82.944 L929.23 13.824 Z" fill="#000000" fill-rule="nonzero" fill-opacity="1" /><path clip-path="url(#clip960)" d="M1019.88 37.0646 Q1013.03 37.0646 1009.04 42.435 Q1005.06 47.759 1005.06 57.0645 Q1005.06 66.37 1009 71.7404 Q1012.98 77.0644 1019.88 77.0644 Q1026.68 77.0644 1030.66 71.6941 Q1034.65 66.3237 1034.65 57.0645 Q1034.65 47.8516 1030.66 42.4813 Q1026.68 37.0646 1019.88 37.0646 M1019.88 29.8424 Q1030.99 29.8424 1037.33 37.0646 Q1043.67 44.2868 1043.67 57.0645 Q1043.67 69.7959 1037.33 77.0644 Q1030.99 84.2866 1019.88 84.2866 Q1008.72 84.2866 1002.38 77.0644 Q996.081 69.7959 996.081 57.0645 Q996.081 44.2868 1002.38 37.0646 Q1008.72 29.8424 1019.88 29.8424 Z" fill="#000000" fill-rule="nonzero" fill-opacity="1" /><path clip-path="url(#clip960)" d="M1087.84 39.0553 Q1086.4 38.222 1084.69 37.8516 Q1083.03 37.435 1080.99 37.435 Q1073.77 37.435 1069.88 42.1572 Q1066.03 46.8331 1066.03 55.6293 L1066.03 82.944 L1057.47 82.944 L1057.47 31.0924 L1066.03 31.0924 L1066.03 39.1479 Q1068.72 34.4257 1073.03 32.1572 Q1077.33 29.8424 1083.49 29.8424 Q1084.37 29.8424 1085.43 29.9813 Q1086.5 30.0739 1087.79 30.3054 L1087.84 39.0553 Z" fill="#000000" fill-rule="nonzero" fill-opacity="1" /><path clip-path="url(#clip960)" d="M1135.48 41.0461 Q1138.67 35.3054 1143.12 32.5739 Q1147.56 29.8424 1153.58 29.8424 Q1161.68 29.8424 1166.08 35.5368 Q1170.48 41.185 1170.48 51.6479 L1170.48 82.944 L1161.91 82.944 L1161.91 51.9256 Q1161.91 44.472 1159.27 40.8609 Q1156.64 37.2498 1151.22 37.2498 Q1144.6 37.2498 1140.76 41.6479 Q1136.91 46.046 1136.91 53.6386 L1136.91 82.944 L1128.35 82.944 L1128.35 51.9256 Q1128.35 44.4257 1125.71 40.8609 Q1123.07 37.2498 1117.56 37.2498 Q1111.03 37.2498 1107.19 41.6942 Q1103.35 46.0923 1103.35 53.6386 L1103.35 82.944 L1094.78 82.944 L1094.78 31.0924 L1103.35 31.0924 L1103.35 39.1479 Q1106.27 34.3794 1110.34 32.1109 Q1114.41 29.8424 1120.02 29.8424 Q1125.66 29.8424 1129.6 32.7128 Q1133.58 35.5831 1135.48 41.0461 Z" fill="#000000" fill-rule="nonzero" fill-opacity="1" /><path clip-path="url(#clip960)" d="M1211.03 56.8793 Q1200.71 56.8793 1196.73 59.2404 Q1192.75 61.6015 1192.75 67.2959 Q1192.75 71.8329 1195.71 74.5181 Q1198.72 77.157 1203.86 77.157 Q1210.94 77.157 1215.2 72.157 Q1219.51 67.1108 1219.51 58.7775 L1219.51 56.8793 L1211.03 56.8793 M1228.02 53.3608 L1228.02 82.944 L1219.51 82.944 L1219.51 75.0737 Q1216.59 79.7959 1212.24 82.0644 Q1207.89 84.2866 1201.59 84.2866 Q1193.63 84.2866 1188.9 79.8422 Q1184.23 75.3514 1184.23 67.8515 Q1184.23 59.1015 1190.06 54.6571 Q1195.94 50.2127 1207.56 50.2127 L1219.51 50.2127 L1219.51 49.3794 Q1219.51 43.4998 1215.62 40.3053 Q1211.77 37.0646 1204.78 37.0646 Q1200.34 37.0646 1196.13 38.1294 Q1191.91 39.1942 1188.02 41.3239 L1188.02 33.4535 Q1192.7 31.648 1197.1 30.7684 Q1201.5 29.8424 1205.66 29.8424 Q1216.91 29.8424 1222.47 35.6757 Q1228.02 41.509 1228.02 53.3608 Z" fill="#000000" fill-rule="nonzero" fill-opacity="1" /><path clip-path="url(#clip960)" d="M1245.57 10.9073 L1254.09 10.9073 L1254.09 82.944 L1245.57 82.944 L1245.57 10.9073 Z" fill="#000000" fill-rule="nonzero" fill-opacity="1" /><path clip-path="url(#clip960)" d="M1311.45 91.7402 L1311.45 98.4069 L1308.58 98.4069 Q1297.05 98.4069 1293.12 94.981 Q1289.23 91.5551 1289.23 81.3236 L1289.23 70.2589 Q1289.23 63.2682 1286.73 60.583 Q1284.23 57.8978 1277.65 57.8978 L1274.83 57.8978 L1274.83 51.2775 L1277.65 51.2775 Q1284.27 51.2775 1286.73 48.6386 Q1289.23 45.9535 1289.23 39.0553 L1289.23 27.9443 Q1289.23 17.7129 1293.12 14.3333 Q1297.05 10.9073 1308.58 10.9073 L1311.45 10.9073 L1311.45 17.5277 L1308.3 17.5277 Q1301.77 17.5277 1299.78 19.5647 Q1297.79 21.6017 1297.79 28.1295 L1297.79 39.6109 Q1297.79 46.8794 1295.66 50.1664 Q1293.58 53.4534 1288.49 54.6108 Q1293.63 55.8608 1295.71 59.1478 Q1297.79 62.4349 1297.79 69.657 L1297.79 81.1385 Q1297.79 87.6662 1299.78 89.7032 Q1301.77 91.7402 1308.3 91.7402 L1311.45 91.7402 Z" fill="#000000" fill-rule="nonzero" fill-opacity="1" /><path clip-path="url(#clip960)" d="M1332.61 13.824 L1372.33 13.824 L1372.33 21.6943 L1341.96 21.6943 L1341.96 42.0646 L1369.37 42.0646 L1369.37 49.9349 L1341.96 49.9349 L1341.96 82.944 L1332.61 82.944 L1332.61 13.824 Z" fill="#000000" fill-rule="nonzero" fill-opacity="1" /><path clip-path="url(#clip960)" d="M1386.77 10.9073 L1395.29 10.9073 L1395.29 82.944 L1386.77 82.944 L1386.77 10.9073 Z" fill="#000000" fill-rule="nonzero" fill-opacity="1" /><path clip-path="url(#clip960)" d="M1433.21 37.0646 Q1426.36 37.0646 1422.38 42.435 Q1418.39 47.759 1418.39 57.0645 Q1418.39 66.37 1422.33 71.7404 Q1426.31 77.0644 1433.21 77.0644 Q1440.01 77.0644 1444 71.6941 Q1447.98 66.3237 1447.98 57.0645 Q1447.98 47.8516 1444 42.4813 Q1440.01 37.0646 1433.21 37.0646 M1433.21 29.8424 Q1444.32 29.8424 1450.66 37.0646 Q1457 44.2868 1457 57.0645 Q1457 69.7959 1450.66 77.0644 Q1444.32 84.2866 1433.21 84.2866 Q1422.05 84.2866 1415.71 77.0644 Q1409.41 69.7959 1409.41 57.0645 Q1409.41 44.2868 1415.71 37.0646 Q1422.05 29.8424 1433.21 29.8424 Z" fill="#000000" fill-rule="nonzero" fill-opacity="1" /><path clip-path="url(#clip960)" d="M1494.69 56.8793 Q1484.37 56.8793 1480.38 59.2404 Q1476.4 61.6015 1476.4 67.2959 Q1476.4 71.8329 1479.37 74.5181 Q1482.37 77.157 1487.51 77.157 Q1494.6 77.157 1498.86 72.157 Q1503.16 67.1108 1503.16 58.7775 L1503.16 56.8793 L1494.69 56.8793 M1511.68 53.3608 L1511.68 82.944 L1503.16 82.944 L1503.16 75.0737 Q1500.25 79.7959 1495.89 82.0644 Q1491.54 84.2866 1485.25 84.2866 Q1477.28 84.2866 1472.56 79.8422 Q1467.88 75.3514 1467.88 67.8515 Q1467.88 59.1015 1473.72 54.6571 Q1479.6 50.2127 1491.22 50.2127 L1503.16 50.2127 L1503.16 49.3794 Q1503.16 43.4998 1499.27 40.3053 Q1495.43 37.0646 1488.44 37.0646 Q1484 37.0646 1479.78 38.1294 Q1475.57 39.1942 1471.68 41.3239 L1471.68 33.4535 Q1476.36 31.648 1480.75 30.7684 Q1485.15 29.8424 1489.32 29.8424 Q1500.57 29.8424 1506.12 35.6757 Q1511.68 41.509 1511.68 53.3608 Z" fill="#000000" fill-rule="nonzero" fill-opacity="1" /><path clip-path="url(#clip960)" d="M1537.65 16.3703 L1537.65 31.0924 L1555.2 31.0924 L1555.2 37.7128 L1537.65 37.7128 L1537.65 65.8608 Q1537.65 72.2033 1539.37 74.0089 Q1541.12 75.8144 1546.45 75.8144 L1555.2 75.8144 L1555.2 82.944 L1546.45 82.944 Q1536.59 82.944 1532.84 79.2866 Q1529.09 75.5829 1529.09 65.8608 L1529.09 37.7128 L1522.84 37.7128 L1522.84 31.0924 L1529.09 31.0924 L1529.09 16.3703 L1537.65 16.3703 Z" fill="#000000" fill-rule="nonzero" fill-opacity="1" /><path clip-path="url(#clip960)" d="M1588.76 44.6572 Q1582.47 44.6572 1578.76 48.9627 Q1575.11 53.2682 1575.11 60.7682 Q1575.11 68.2219 1578.76 72.5737 Q1582.47 76.8792 1588.76 76.8792 Q1595.06 76.8792 1598.72 72.5737 Q1602.42 68.2219 1602.42 60.7682 Q1602.42 53.2682 1598.72 48.9627 Q1595.06 44.6572 1588.76 44.6572 M1607.33 15.3518 L1607.33 23.8702 Q1603.81 22.2036 1600.2 21.324 Q1596.63 20.4443 1593.11 20.4443 Q1583.86 20.4443 1578.95 26.6943 Q1574.09 32.9443 1573.39 45.5831 Q1576.12 41.5553 1580.24 39.4257 Q1584.37 37.2498 1589.32 37.2498 Q1599.74 37.2498 1605.75 43.5924 Q1611.82 49.8886 1611.82 60.7682 Q1611.82 71.4163 1605.52 77.8514 Q1599.23 84.2866 1588.76 84.2866 Q1576.77 84.2866 1570.43 75.12 Q1564.09 65.9071 1564.09 48.4534 Q1564.09 32.0646 1571.87 22.3425 Q1579.64 12.574 1592.74 12.574 Q1596.26 12.574 1599.83 13.2684 Q1603.44 13.9629 1607.33 15.3518 Z" fill="#000000" fill-rule="nonzero" fill-opacity="1" /><path clip-path="url(#clip960)" d="M1653.62 21.9721 L1630.01 58.8701 L1653.62 58.8701 L1653.62 21.9721 M1651.17 13.824 L1662.93 13.824 L1662.93 58.8701 L1672.79 58.8701 L1672.79 66.6478 L1662.93 66.6478 L1662.93 82.944 L1653.62 82.944 L1653.62 66.6478 L1622.42 66.6478 L1622.42 57.6201 L1651.17 13.824 Z" fill="#000000" fill-rule="nonzero" fill-opacity="1" /><path clip-path="url(#clip960)" d="M1689.97 91.7402 L1693.21 91.7402 Q1699.69 91.7402 1701.63 89.7495 Q1703.62 87.7588 1703.62 81.1385 L1703.62 69.657 Q1703.62 62.4349 1705.71 59.1478 Q1707.79 55.8608 1712.93 54.6108 Q1707.79 53.4534 1705.71 50.1664 Q1703.62 46.8794 1703.62 39.6109 L1703.62 28.1295 Q1703.62 21.5554 1701.63 19.5647 Q1699.69 17.5277 1693.21 17.5277 L1689.97 17.5277 L1689.97 10.9073 L1692.88 10.9073 Q1704.41 10.9073 1708.25 14.3333 Q1712.14 17.7129 1712.14 27.9443 L1712.14 39.0553 Q1712.14 45.9535 1714.64 48.6386 Q1717.14 51.2775 1723.72 51.2775 L1726.59 51.2775 L1726.59 57.8978 L1723.72 57.8978 Q1717.14 57.8978 1714.64 60.583 Q1712.14 63.2682 1712.14 70.2589 L1712.14 81.3236 Q1712.14 91.5551 1708.25 94.981 Q1704.41 98.4069 1692.88 98.4069 L1689.97 98.4069 L1689.97 91.7402 Z" fill="#000000" fill-rule="nonzero" fill-opacity="1" /><path clip-path="url(#clip960)" d="M1767.84 10.9999 Q1761.63 21.648 1758.62 32.0646 Q1755.61 42.4813 1755.61 53.1756 Q1755.61 63.87 1758.62 74.3792 Q1761.68 84.8421 1767.84 95.4439 L1760.43 95.4439 Q1753.48 84.5644 1750.01 74.0552 Q1746.59 63.546 1746.59 53.1756 Q1746.59 42.8516 1750.01 32.3887 Q1753.44 21.9258 1760.43 10.9999 L1767.84 10.9999 Z" fill="#000000" fill-rule="nonzero" fill-opacity="1" /><path clip-path="url(#clip960)" d="M1783.48 102.666 L1783.48 31.0924 L1792 31.0924 L1792 63.3145 Q1792 70.0274 1795.2 73.4533 Q1798.39 76.8792 1804.64 76.8792 Q1811.49 76.8792 1814.92 72.9903 Q1818.39 69.1015 1818.39 61.3237 L1818.39 31.0924 L1826.91 31.0924 L1826.91 70.9996 Q1826.91 73.7774 1827.7 75.12 Q1828.53 76.4163 1830.24 76.4163 Q1830.66 76.4163 1831.4 76.1848 Q1832.14 75.907 1833.44 75.3514 L1833.44 82.2033 Q1831.54 83.2681 1829.83 83.7773 Q1828.16 84.2866 1826.54 84.2866 Q1823.35 84.2866 1821.45 82.481 Q1819.55 80.6755 1818.85 76.9718 Q1816.54 80.6292 1813.16 82.481 Q1809.83 84.2866 1805.29 84.2866 Q1800.57 84.2866 1797.23 82.481 Q1793.95 80.6755 1792 77.0644 L1792 102.666 L1783.48 102.666 Z" fill="#000000" fill-rule="nonzero" fill-opacity="1" /><path clip-path="url(#clip960)" d="M1845.8 39.8887 L1905.15 39.8887 L1905.15 47.6664 L1845.8 47.6664 L1845.8 39.8887 M1845.8 58.7775 L1905.15 58.7775 L1905.15 66.6478 L1845.8 66.6478 L1845.8 58.7775 Z" fill="#000000" fill-rule="nonzero" fill-opacity="1" /><path clip-path="url(#clip960)" d="M1945.34 19.9814 Q1938.11 19.9814 1934.46 27.111 Q1930.84 34.1943 1930.84 48.4534 Q1930.84 62.6663 1934.46 69.7959 Q1938.11 76.8792 1945.34 76.8792 Q1952.6 76.8792 1956.21 69.7959 Q1959.87 62.6663 1959.87 48.4534 Q1959.87 34.1943 1956.21 27.111 Q1952.6 19.9814 1945.34 19.9814 M1945.34 12.574 Q1956.96 12.574 1963.07 21.7869 Q1969.22 30.9535 1969.22 48.4534 Q1969.22 65.9071 1963.07 75.12 Q1956.96 84.2866 1945.34 84.2866 Q1933.72 84.2866 1927.56 75.12 Q1921.45 65.9071 1921.45 48.4534 Q1921.45 30.9535 1927.56 21.7869 Q1933.72 12.574 1945.34 12.574 Z" fill="#000000" fill-rule="nonzero" fill-opacity="1" /><path clip-path="url(#clip960)" d="M1985.66 71.1848 L1995.43 71.1848 L1995.43 82.944 L1985.66 82.944 L1985.66 71.1848 Z" fill="#000000" fill-rule="nonzero" fill-opacity="1" /><path clip-path="url(#clip960)" d="M2015.89 13.824 L2052.6 13.824 L2052.6 21.6943 L2024.46 21.6943 L2024.46 38.6387 Q2026.49 37.9442 2028.53 37.6202 Q2030.57 37.2498 2032.6 37.2498 Q2044.18 37.2498 2050.94 43.5924 Q2057.7 49.9349 2057.7 60.7682 Q2057.7 71.9255 2050.75 78.1292 Q2043.81 84.2866 2031.17 84.2866 Q2026.82 84.2866 2022.28 83.5458 Q2017.79 82.8051 2012.97 81.3236 L2012.97 71.9255 Q2017.14 74.194 2021.58 75.3052 Q2026.03 76.4163 2030.98 76.4163 Q2038.99 76.4163 2043.67 72.2033 Q2048.34 67.9904 2048.34 60.7682 Q2048.34 53.546 2043.67 49.3331 Q2038.99 45.1201 2030.98 45.1201 Q2027.23 45.1201 2023.48 45.9535 Q2019.78 46.7868 2015.89 48.546 L2015.89 13.824 Z" fill="#000000" fill-rule="nonzero" fill-opacity="1" /><path clip-path="url(#clip960)" d="M2077.09 71.1848 L2086.86 71.1848 L2086.86 79.1477 L2079.27 93.9625 L2073.3 93.9625 L2077.09 79.1477 L2077.09 71.1848 Z" fill="#000000" fill-rule="nonzero" fill-opacity="1" /><path clip-path="url(#clip960)" d="M2155.29 37.8516 Q2148.25 37.8516 2144.45 42.9442 Q2140.47 48.2683 2140.47 57.0645 Q2140.47 66.37 2144.41 71.7404 Q2148.39 77.0644 2155.29 77.0644 Q2162.09 77.0644 2166.07 71.6941 Q2170.06 66.3237 2170.06 57.0645 Q2170.06 48.5923 2166.07 42.9442 Q2162.42 37.8516 2155.29 37.8516 M2155.29 31.0924 L2183.57 31.0924 L2183.57 39.6109 L2174.04 39.6109 Q2179.08 46.8331 2179.08 57.0645 Q2179.08 69.7959 2172.74 77.0181 Q2166.4 84.2866 2155.29 84.2866 Q2144.13 84.2866 2137.83 77.0181 Q2131.49 69.7959 2131.49 57.0645 Q2131.49 44.2405 2137.83 37.0646 Q2143.07 31.0924 2155.29 31.0924 Z" fill="#000000" fill-rule="nonzero" fill-opacity="1" /><path clip-path="url(#clip960)" d="M2196.4 39.8887 L2255.75 39.8887 L2255.75 47.6664 L2196.4 47.6664 L2196.4 39.8887 M2196.4 58.7775 L2255.75 58.7775 L2255.75 66.6478 L2196.4 66.6478 L2196.4 58.7775 Z" fill="#000000" fill-rule="nonzero" fill-opacity="1" /><path clip-path="url(#clip960)" d="M2277.56 75.0737 L2292.83 75.0737 L2292.83 22.3425 L2276.21 25.6758 L2276.21 17.1573 L2292.74 13.824 L2302.09 13.824 L2302.09 75.0737 L2317.37 75.0737 L2317.37 82.944 L2277.56 82.944 L2277.56 75.0737 Z" fill="#000000" fill-rule="nonzero" fill-opacity="1" /><path clip-path="url(#clip960)" d="M2336.26 71.1848 L2346.03 71.1848 L2346.03 82.944 L2336.26 82.944 L2336.26 71.1848 Z" fill="#000000" fill-rule="nonzero" fill-opacity="1" /><path clip-path="url(#clip960)" d="M2386.4 19.9814 Q2379.18 19.9814 2375.52 27.111 Q2371.91 34.1943 2371.91 48.4534 Q2371.91 62.6663 2375.52 69.7959 Q2379.18 76.8792 2386.4 76.8792 Q2393.67 76.8792 2397.28 69.7959 Q2400.93 62.6663 2400.93 48.4534 Q2400.93 34.1943 2397.28 27.111 Q2393.67 19.9814 2386.4 19.9814 M2386.4 12.574 Q2398.02 12.574 2404.13 21.7869 Q2410.29 30.9535 2410.29 48.4534 Q2410.29 65.9071 2404.13 75.12 Q2398.02 84.2866 2386.4 84.2866 Q2374.78 84.2866 2368.62 75.12 Q2362.51 65.9071 2362.51 48.4534 Q2362.51 30.9535 2368.62 21.7869 Q2374.78 12.574 2386.4 12.574 Z" fill="#000000" fill-rule="nonzero" fill-opacity="1" /><path clip-path="url(#clip960)" d="M2424.18 10.9999 L2431.58 10.9999 Q2438.53 21.9258 2441.95 32.3887 Q2445.43 42.8516 2445.43 53.1756 Q2445.43 63.546 2441.95 74.0552 Q2438.53 84.5644 2431.58 95.4439 L2424.18 95.4439 Q2430.33 84.8421 2433.34 74.3792 Q2436.4 63.87 2436.4 53.1756 Q2436.4 42.4813 2433.34 32.0646 Q2430.33 21.648 2424.18 10.9999 Z" fill="#000000" fill-rule="nonzero" fill-opacity="1" /></svg>
